<?xml version="1.0" encoding="utf-8"?>
<!-- Generator: Adobe Illustrator 22.0.1, SVG Export Plug-In . SVG Version: 6.00 Build 0)  -->
<svg version="1.1" id="Layer_1" xmlns="http://www.w3.org/2000/svg" xmlns:xlink="http://www.w3.org/1999/xlink" x="0px" y="0px"
	 viewBox="0 0 43 24.6" style="enable-background:new 0 0 43 24.6;" xml:space="preserve">
<style type="text/css">
	.st0{opacity:0;fill:#FFFFFF;}
	.st1{opacity:6.250000e-02;fill:#F9F8F8;}
	.st2{opacity:0.125;fill:#F3F1F1;}
	.st3{opacity:0.1875;fill:#ECEAEA;}
	.st4{opacity:0.25;fill:#E6E4E4;}
	.st5{opacity:0.3125;fill:#E0DDDD;}
	.st6{opacity:0.375;fill:#DAD6D6;}
	.st7{opacity:0.4375;fill:#D3CFCF;}
	.st8{opacity:0.5;fill:#CDC8C8;}
	.st9{opacity:0.5625;fill:#C7C1C1;}
	.st10{opacity:0.625;fill:#C1BABA;}
	.st11{opacity:0.6875;fill:#BAB3B3;}
	.st12{opacity:0.75;fill:#B4ADAD;}
	.st13{opacity:0.8125;fill:#AEA6A6;}
	.st14{opacity:0.875;fill:#A89F9F;}
	.st15{opacity:0.9375;fill:#A19898;}
	.st16{fill:#9B9191;}
	.st17{opacity:3.225800e-02;fill:#FBFAFA;}
	.st18{opacity:6.451600e-02;fill:#F7F6F6;}
	.st19{opacity:9.677400e-02;fill:#F3F1F1;}
	.st20{opacity:0.129;fill:#EEEDED;}
	.st21{opacity:0.1613;fill:#EAE8E8;}
	.st22{opacity:0.1935;fill:#E6E3E3;}
	.st23{opacity:0.2258;fill:#E2DFDF;}
	.st24{opacity:0.2581;fill:#DEDADA;}
	.st25{opacity:0.2903;fill:#DAD5D5;}
	.st26{opacity:0.3226;fill:#D6D1D1;}
	.st27{opacity:0.3548;fill:#D2CCCC;}
	.st28{opacity:0.3871;fill:#CDC8C8;}
	.st29{opacity:0.4194;fill:#C9C3C3;}
	.st30{opacity:0.4516;fill:#C5BEBE;}
	.st31{opacity:0.4839;fill:#C1BABA;}
	.st32{opacity:0.5161;fill:#BDB5B5;}
	.st33{opacity:0.5484;fill:#B9B1B1;}
	.st34{opacity:0.5806;fill:#B5ACAC;}
	.st35{opacity:0.6129;fill:#B1A7A7;}
	.st36{opacity:0.6452;fill:#ACA3A3;}
	.st37{opacity:0.6774;fill:#A89E9E;}
	.st38{opacity:0.7097;fill:#A49A9A;}
	.st39{opacity:0.7419;fill:#A09595;}
	.st40{opacity:0.7742;fill:#9C9090;}
	.st41{opacity:0.8065;fill:#988C8C;}
	.st42{opacity:0.8387;fill:#948787;}
	.st43{opacity:0.871;fill:#908282;}
	.st44{opacity:0.9032;fill:#8B7E7E;}
	.st45{opacity:0.9355;fill:#877979;}
	.st46{opacity:0.9677;fill:#837575;}
	.st47{fill:#7F7070;}
	.st48{fill:url(#SVGID_1_);}
	.st49{fill:url(#SVGID_2_);}
	.st50{opacity:0.125;fill:#F3F2F2;}
	.st51{opacity:0.1875;fill:#EEEBEB;}
	.st52{opacity:0.25;fill:#E8E4E4;}
	.st53{opacity:0.3125;fill:#E2DDDE;}
	.st54{opacity:0.375;fill:#DDD7D7;}
	.st55{opacity:0.4375;fill:#D7D0D0;}
	.st56{opacity:0.5;fill:#D1C9CA;}
	.st57{opacity:0.5625;fill:#CBC2C3;}
	.st58{opacity:0.625;fill:#C5BBBC;}
	.st59{opacity:0.6875;fill:#C0B5B5;}
	.st60{opacity:0.75;fill:#BAAEAF;}
	.st61{opacity:0.8125;fill:#B4A7A8;}
	.st62{opacity:0.875;fill:#AFA1A1;}
	.st63{opacity:0.9375;fill:#A99A9B;}
	.st64{fill:#A39394;}
	.st65{fill:url(#SVGID_3_);}
	.st66{fill:url(#SVGID_4_);}
	.st67{opacity:0.63;}
	.st68{fill:url(#SVGID_5_);}
	.st69{fill:url(#SVGID_6_);}
	.st70{fill:url(#SVGID_7_);}
	.st71{fill:url(#SVGID_8_);}
	.st72{fill:url(#SVGID_9_);}
	.st73{fill:url(#SVGID_10_);}
	.st74{fill:url(#SVGID_11_);}
	.st75{fill:url(#SVGID_12_);}
	.st76{fill:url(#SVGID_13_);}
	.st77{fill:url(#SVGID_14_);}
	.st78{fill:url(#SVGID_15_);}
	.st79{fill:url(#SVGID_16_);}
	.st80{fill:url(#SVGID_17_);}
	.st81{fill:url(#SVGID_18_);}
	.st82{fill:url(#SVGID_19_);}
	.st83{fill:url(#SVGID_20_);}
	.st84{fill:url(#SVGID_21_);}
	.st85{fill:url(#SVGID_22_);}
	.st86{fill:url(#SVGID_23_);}
	.st87{fill:url(#SVGID_24_);}
	.st88{fill:url(#SVGID_25_);}
	.st89{fill:url(#SVGID_26_);}
	.st90{fill:url(#SVGID_27_);}
	.st91{fill:url(#SVGID_28_);}
	.st92{fill:url(#SVGID_29_);}
	.st93{fill:url(#SVGID_30_);}
	.st94{fill:url(#SVGID_31_);}
	.st95{fill:url(#SVGID_32_);}
	.st96{fill:url(#SVGID_33_);}
	.st97{fill:url(#SVGID_34_);}
	.st98{fill:url(#SVGID_35_);}
	.st99{fill:url(#SVGID_36_);}
	.st100{fill:url(#SVGID_37_);}
	.st101{fill:none;}
	.st102{fill:url(#SVGID_38_);}
	.st103{fill:url(#SVGID_39_);}
	.st104{fill:url(#SVGID_40_);}
	.st105{fill:url(#SVGID_41_);}
	.st106{fill:url(#SVGID_42_);}
	.st107{fill:url(#SVGID_43_);}
	.st108{fill:url(#SVGID_44_);}
	.st109{fill:url(#SVGID_45_);}
	.st110{fill:url(#SVGID_46_);}
	.st111{fill:url(#SVGID_47_);}
	.st112{opacity:0.95;}
	.st113{opacity:4.761905e-02;fill:#FAF9F9;}
	.st114{opacity:9.523810e-02;fill:#F5F3F3;}
	.st115{opacity:0.1429;fill:#F0EDED;}
	.st116{opacity:0.1905;fill:#ECE6E6;}
	.st117{opacity:0.2381;fill:#E7E0E0;}
	.st118{opacity:0.2857;fill:#E2DADA;}
	.st119{opacity:0.3333;fill:#DDD4D4;}
	.st120{opacity:0.381;fill:#D8CECE;}
	.st121{opacity:0.4286;fill:#D3C8C8;}
	.st122{opacity:0.4762;fill:#CEC2C2;}
	.st123{opacity:0.5238;fill:#CABBBB;}
	.st124{opacity:0.5714;fill:#C5B5B5;}
	.st125{opacity:0.619;fill:#C0AFAF;}
	.st126{opacity:0.6667;fill:#BBA9A9;}
	.st127{opacity:0.7143;fill:#B6A3A3;}
	.st128{opacity:0.7619;fill:#B19D9D;}
	.st129{opacity:0.8095;fill:#AC9797;}
	.st130{opacity:0.8571;fill:#A89090;}
	.st131{opacity:0.9048;fill:#A38A8A;}
	.st132{opacity:0.9524;fill:#9E8484;}
	.st133{fill:#997E7E;}
	.st134{fill:url(#SVGID_48_);}
	.st135{fill:url(#SVGID_49_);}
	.st136{fill:url(#SVGID_50_);}
	.st137{fill:url(#SVGID_51_);}
	.st138{opacity:0;fill:#E8E8E8;}
	.st139{opacity:4.761905e-02;fill:#E3DDDF;}
	.st140{opacity:9.523810e-02;fill:#DED3D6;}
	.st141{opacity:0.1429;fill:#D8C8CD;}
	.st142{opacity:0.1905;fill:#D3BEC3;}
	.st143{opacity:0.2381;fill:#CEB3BA;}
	.st144{opacity:0.2857;fill:#C9A9B1;}
	.st145{opacity:0.3333;fill:#C49EA8;}
	.st146{opacity:0.381;fill:#BE939F;}
	.st147{opacity:0.4286;fill:#B98996;}
	.st148{opacity:0.4762;fill:#B47E8D;}
	.st149{opacity:0.5238;fill:#AF7483;}
	.st150{opacity:0.5714;fill:#AA697A;}
	.st151{opacity:0.619;fill:#A55F71;}
	.st152{opacity:0.6667;fill:#9F5468;}
	.st153{opacity:0.7143;fill:#9A495F;}
	.st154{opacity:0.7619;fill:#953F56;}
	.st155{opacity:0.8095;fill:#90344D;}
	.st156{opacity:0.8571;fill:#8B2A43;}
	.st157{opacity:0.9048;fill:#851F3A;}
	.st158{opacity:0.9524;fill:#801531;}
	.st159{fill:#7B0A28;}
	.st160{opacity:0.57;}
	.st161{fill:url(#SVGID_52_);}
	.st162{fill:#8F1860;}
	.st163{font-family:'ProximaNova-Regular';}
	.st164{font-size:3px;}
</style>
<g>
	<g>
		<g>
			<path class="st0" d="M4.1,24c-2.8,0.3-3-0.6-3-0.7V1.1c0-0.1,0.4-1.6,2.5-0.7L4.1,24z"/>
			<path class="st1" d="M4.1,23.9c-2.6,0.3-2.8-0.6-2.8-0.7V1.1c0-0.1,0.4-1.5,2.4-0.6L4.1,23.9z"/>
			<path class="st2" d="M4,23.9c-2.5,0.2-2.7-0.6-2.7-0.7V1.1c0-0.1,0.4-1.4,2.2-0.6L4,23.9z"/>
			<path class="st3" d="M3.9,23.8c-2.3,0.2-2.6-0.6-2.6-0.7v-22c0-0.1,0.4-1.4,2.1-0.6L3.9,23.8z"/>
			<path class="st4" d="M3.8,23.7c-2.2,0.2-2.4-0.6-2.4-0.7V1.1c0-0.1,0.4-1.3,2-0.6L3.8,23.7z"/>
			<path class="st5" d="M3.7,23.6c-2,0.2-2.3-0.6-2.3-0.7V1.1c0-0.1,0.5-1.2,1.9-0.6L3.7,23.6z"/>
			<path class="st6" d="M3.6,23.5c-1.9,0.2-2.1-0.6-2.1-0.7V1.1C1.5,1,2,0,3.3,0.6L3.6,23.5z"/>
			<path class="st7" d="M3.6,23.5c-1.7,0.2-2-0.6-2-0.7V1.1c0-0.1,0.5-1,1.7-0.5L3.6,23.5z"/>
			<path class="st8" d="M3.5,23.4c-1.6,0.1-1.9-0.6-1.9-0.7V1.1c0-0.1,0.5-1,1.5-0.5L3.5,23.4z"/>
			<path class="st9" d="M3.4,23.3c-1.4,0.1-1.7-0.6-1.7-0.7V1.2c0-0.1,0.5-0.9,1.4-0.5L3.4,23.3z"/>
			<path class="st10" d="M3.3,23.2c-1.3,0.1-1.6-0.6-1.6-0.7V1.2c0-0.1,0.5-0.8,1.3-0.5L3.3,23.2z"/>
			<path class="st11" d="M3.2,23.2c-1.1,0.1-1.4-0.6-1.4-0.7V1.2C1.8,1,2.3,0.4,3,0.7L3.2,23.2z"/>
			<path class="st12" d="M3.2,23.1c-1,0.1-1.3-0.6-1.3-0.7V1.2c0-0.1,0.5-0.6,1.1-0.4L3.2,23.1z"/>
			<path class="st13" d="M3.1,23c-0.8,0.1-1.2-0.6-1.2-0.7V1.2c0-0.1,0.5-0.6,1-0.4L3.1,23z"/>
			<path class="st14" d="M3,22.9c-0.7,0-1-0.6-1-0.7v-21c0-0.1,0.5-0.5,0.9-0.4L3,22.9z"/>
			<path class="st15" d="M2.9,22.8c-0.5,0-0.9-0.6-0.9-0.7V1.2c0-0.1,0.5-0.4,0.7-0.3L2.9,22.8z"/>
			<path class="st16" d="M2.8,22.8c-0.4,0-0.7-0.6-0.7-0.7V1.2c0-0.1,0.5-0.3,0.6-0.3L2.8,22.8z"/>
		</g>
		<g>
			<path class="st0" d="M38.5,24c2.8,0.3,3-0.6,3-0.7V1c0-0.1-0.4-1.6-2.5-0.7L38.5,24z"/>
			<path class="st1" d="M38.6,24c2.6,0.3,2.8-0.6,2.8-0.7V1c0-0.1-0.4-1.5-2.4-0.7L38.6,24z"/>
			<path class="st2" d="M38.7,23.9c2.5,0.2,2.7-0.6,2.7-0.7V1c0-0.1-0.4-1.4-2.2-0.6L38.7,23.9z"/>
			<path class="st3" d="M38.7,23.8c2.3,0.2,2.6-0.6,2.6-0.7V1c0-0.1-0.4-1.4-2.1-0.6L38.7,23.8z"/>
			<path class="st4" d="M38.8,23.7c2.2,0.2,2.4-0.6,2.4-0.7V1c0-0.1-0.4-1.3-2-0.6L38.8,23.7z"/>
			<path class="st5" d="M38.9,23.6c2,0.2,2.3-0.6,2.3-0.7V1c0-0.1-0.5-1.2-1.9-0.6L38.9,23.6z"/>
			<path class="st6" d="M39,23.6c1.9,0.2,2.1-0.6,2.1-0.7V1c0-0.1-0.5-1.1-1.8-0.5L39,23.6z"/>
			<path class="st7" d="M39.1,23.5c1.7,0.2,2-0.6,2-0.7V1c0-0.1-0.5-1-1.7-0.5L39.1,23.5z"/>
			<path class="st8" d="M39.1,23.4c1.6,0.1,1.9-0.6,1.9-0.7V1.1c0-0.1-0.5-1-1.5-0.5L39.1,23.4z"/>
			<path class="st9" d="M39.2,23.3c1.4,0.1,1.7-0.6,1.7-0.7V1.1c0-0.1-0.5-0.9-1.4-0.5L39.2,23.3z"/>
			<path class="st10" d="M39.3,23.2c1.3,0.1,1.6-0.6,1.6-0.7V1.1c0-0.1-0.5-0.8-1.3-0.5L39.3,23.2z"/>
			<path class="st11" d="M39.4,23.2c1.1,0.1,1.4-0.6,1.4-0.7V1.1c0-0.1-0.5-0.7-1.2-0.4L39.4,23.2z"/>
			<path class="st12" d="M39.5,23.1c1,0.1,1.3-0.6,1.3-0.7V1.1c0-0.1-0.5-0.6-1.1-0.4L39.5,23.1z"/>
			<path class="st13" d="M39.5,23c0.8,0.1,1.2-0.6,1.2-0.7V1.1c0-0.1-0.5-0.6-1-0.4L39.5,23z"/>
			<path class="st14" d="M39.6,22.9c0.7,0,1-0.6,1-0.7V1.1c0-0.1-0.5-0.5-0.9-0.4L39.6,22.9z"/>
			<path class="st15" d="M39.7,22.9c0.5,0,0.9-0.6,0.9-0.7v-21c0-0.1-0.5-0.4-0.7-0.4L39.7,22.9z"/>
			<path class="st16" d="M39.8,22.8c0.4,0,0.7-0.6,0.7-0.7V1.1c0-0.1-0.5-0.3-0.6-0.3L39.8,22.8z"/>
		</g>
		<g>
			<path class="st0" d="M43,24.3c0,1-9.6-0.6-21.5-0.6C9.6,23.7,0,25.3,0,24.3c0-1.9,9.6-3.5,21.5-3.5C33.3,20.8,43,22.6,43,24.3z"
				/>
			<path class="st17" d="M42.8,24.3c0,1-9.6-0.6-21.3-0.6S0.1,25.3,0.1,24.3c0-1.9,9.6-3.4,21.3-3.4S42.8,22.6,42.8,24.3z"/>
			<path class="st18" d="M42.7,24.2c0,1-9.5-0.6-21.2-0.6S0.3,25.2,0.3,24.2c0-1.8,9.5-3.3,21.2-3.3S42.7,22.6,42.7,24.2z"/>
			<path class="st19" d="M42.5,24.2c0,0.9-9.4-0.5-21.1-0.5S0.4,25.1,0.4,24.2c0-1.8,9.4-3.2,21.1-3.2S42.5,22.6,42.5,24.2z"/>
			<path class="st20" d="M42.4,24.2c0,0.9-9.4-0.5-20.9-0.5c-11.6,0-20.9,1.4-20.9,0.5c0-1.7,9.4-3.1,20.9-3.1
				C33,21.1,42.4,22.6,42.4,24.2z"/>
			<path class="st21" d="M42.3,24.1c0,0.9-9.3-0.5-20.8-0.5C10,23.6,0.7,25,0.7,24.1c0-1.6,9.3-3,20.8-3
				C33,21.1,42.3,22.7,42.3,24.1z"/>
			<path class="st22" d="M42.1,24.1c0,0.9-9.3-0.5-20.7-0.5c-11.4,0-20.7,1.3-20.7,0.5c0-1.6,9.3-2.9,20.7-2.9
				C32.9,21.2,42.1,22.7,42.1,24.1z"/>
			<path class="st23" d="M42,24.1c0,0.8-9.2-0.4-20.5-0.4c-11.3,0-20.5,1.3-20.5,0.4c0-1.5,9.2-2.8,20.5-2.8
				C32.8,21.3,42,22.7,42,24.1z"/>
			<path class="st24" d="M41.9,24c0,0.8-9.1-0.4-20.4-0.4c-11.3,0-20.4,1.2-20.4,0.4c0-1.5,9.1-2.7,20.4-2.7
				C32.7,21.4,41.9,22.7,41.9,24z"/>
			<path class="st25" d="M41.7,24c0,0.8-9.1-0.4-20.3-0.4S1.2,24.8,1.2,24c0-1.4,9.1-2.6,20.3-2.6S41.7,22.7,41.7,24z"/>
			<path class="st26" d="M41.6,24c0,0.7-9-0.4-20.1-0.4c-11.1,0-20.1,1.1-20.1,0.4c0-1.3,9-2.4,20.1-2.4
				C32.6,21.5,41.6,22.8,41.6,24z"/>
			<path class="st27" d="M41.5,23.9c0,0.7-9-0.3-20-0.3s-20,1-20,0.3c0-1.3,9-2.3,20-2.3S41.5,22.8,41.5,23.9z"/>
			<path class="st28" d="M41.3,23.9c0,0.7-8.9-0.3-19.9-0.3s-19.9,1-19.9,0.3c0-1.2,8.9-2.2,19.9-2.2S41.3,22.8,41.3,23.9z"/>
			<path class="st29" d="M41.2,23.9c0,0.6-8.8-0.3-19.7-0.3c-10.9,0-19.7,0.9-19.7,0.3c0-1.2,8.8-2.1,19.7-2.1
				C32.4,21.7,41.2,22.8,41.2,23.9z"/>
			<path class="st30" d="M41.1,23.8c0,0.6-8.8-0.3-19.6-0.3c-10.8,0-19.6,0.9-19.6,0.3c0-1.1,8.8-2,19.6-2
				C32.3,21.8,41.1,22.8,41.1,23.8z"/>
			<path class="st31" d="M40.9,23.8c0,0.6-8.7-0.2-19.5-0.2C10.7,23.5,2,24.4,2,23.8c0-1,8.7-1.9,19.5-1.9
				C32.2,21.9,40.9,22.9,40.9,23.8z"/>
			<path class="st32" d="M40.8,23.8c0,0.5-8.6-0.2-19.3-0.2c-10.7,0-19.3,0.8-19.3,0.2c0-1,8.6-1.8,19.3-1.8
				C32.1,22,40.8,22.9,40.8,23.8z"/>
			<path class="st33" d="M40.7,23.7c0,0.5-8.6-0.2-19.2-0.2c-10.6,0-19.2,0.7-19.2,0.2c0-0.9,8.6-1.7,19.2-1.7
				C32.1,22,40.7,22.9,40.7,23.7z"/>
			<path class="st34" d="M40.5,23.7c0,0.5-8.5-0.2-19-0.2s-19,0.7-19,0.2c0-0.9,8.5-1.6,19-1.6S40.5,22.9,40.5,23.7z"/>
			<path class="st35" d="M40.4,23.7c0,0.5-8.5-0.1-18.9-0.1c-10.4,0-18.9,0.6-18.9,0.1c0-0.8,8.5-1.5,18.9-1.5
				C31.9,22.2,40.4,22.9,40.4,23.7z"/>
			<path class="st36" d="M40.3,23.6c0,0.4-8.4-0.1-18.8-0.1S2.7,24,2.7,23.6c0-0.7,8.4-1.4,18.8-1.4S40.3,22.9,40.3,23.6z"/>
			<path class="st37" d="M40.1,23.6c0,0.4-8.3-0.1-18.6-0.1c-10.3,0-18.6,0.5-18.6,0.1c0-0.7,8.3-1.2,18.6-1.2
				C31.8,22.3,40.1,23,40.1,23.6z"/>
			<path class="st38" d="M40,23.5c0,0.4-8.3-0.1-18.5-0.1C11.3,23.5,3,23.9,3,23.5c0-0.6,8.3-1.1,18.5-1.1C31.7,22.4,40,23,40,23.5z
				"/>
			<path class="st39" d="M39.9,23.5c0,0.3-8.2,0-18.4,0c-10.1,0-18.4,0.4-18.4,0c0-0.6,8.2-1,18.4-1C31.6,22.5,39.9,23,39.9,23.5z"
				/>
			<path class="st40" d="M39.7,23.5c0,0.3-8.2,0-18.2,0c-10.1,0-18.2,0.3-18.2,0c0-0.5,8.2-0.9,18.2-0.9
				C31.5,22.6,39.7,23,39.7,23.5z"/>
			<path class="st41" d="M39.6,23.4c0,0.3-8.1,0-18.1,0c-10,0-18.1,0.3-18.1,0c0-0.4,8.1-0.8,18.1-0.8C31.5,22.6,39.6,23,39.6,23.4z
				"/>
			<path class="st42" d="M39.4,23.4c0,0.2-8,0-18,0c-9.9,0-18,0.2-18,0c0-0.4,8-0.7,18-0.7C31.4,22.7,39.4,23.1,39.4,23.4z"/>
			<path class="st43" d="M39.3,23.4c0,0.2-8,0-17.8,0s-17.8,0.2-17.8,0c0-0.3,8-0.6,17.8-0.6S39.3,23.1,39.3,23.4z"/>
			<path class="st44" d="M39.2,23.3c0,0.2-7.9,0.1-17.7,0.1S3.8,23.5,3.8,23.3c0-0.3,7.9-0.5,17.7-0.5S39.2,23.1,39.2,23.3z"/>
			<path class="st45" d="M39,23.3c0,0.1-7.9,0.1-17.6,0.1c-9.7,0-17.6,0-17.6-0.1c0-0.2,7.9-0.4,17.6-0.4C31.2,22.9,39,23.1,39,23.3
				z"/>
			<path class="st46" d="M38.9,23.3c0,0.1-7.8,0.1-17.4,0.1c-9.6,0-17.4,0-17.4-0.1c0-0.1,7.8-0.3,17.4-0.3
				C31.1,23,38.9,23.1,38.9,23.3z"/>
			<path class="st47" d="M38.8,23.2c0,0.1-7.7,0.1-17.3,0.1c-9.6,0-17.3-0.1-17.3-0.1c0-0.1,7.7-0.1,17.3-0.1
				C31,23.1,38.8,23.2,38.8,23.2z"/>
		</g>
	</g>
	<g>
		<linearGradient id="SVGID_1_" gradientUnits="userSpaceOnUse" x1="22.226" y1="-16.7208" x2="20.1127" y2="49.6962">
			<stop  offset="9.340660e-02" style="stop-color:#FFFFFF"/>
			<stop  offset="0.4107" style="stop-color:#FCF6F4"/>
			<stop  offset="0.9722" style="stop-color:#F3DFD6"/>
			<stop  offset="1" style="stop-color:#F2DED4"/>
		</linearGradient>
		<path class="st48" d="M40.7,22.5c0,0.3-0.3,0.6-0.6,0.6H2.5c-0.3,0-0.6-0.3-0.6-0.6V1.1c0-0.3,0.3-0.6,0.6-0.6h37.6
			c0.3,0,0.6,0.3,0.6,0.6V22.5z"/>
		<linearGradient id="SVGID_2_" gradientUnits="userSpaceOnUse" x1="39.9969" y1="-0.2236" x2="2.7502" y2="23.9647">
			<stop  offset="9.340660e-02" style="stop-color:#FFFFFF"/>
			<stop  offset="0.4582" style="stop-color:#F8F5F4"/>
			<stop  offset="1" style="stop-color:#E8E0DB"/>
		</linearGradient>
		<path class="st49" d="M40.8,22.6c0,0.3-0.3,0.6-0.6,0.6H2.6c-0.3,0-0.6-0.3-0.6-0.6V1.1c0-0.3,0.3-0.6,0.6-0.6h37.6
			c0.3,0,0.6,0.3,0.6,0.6V22.6z"/>
		<g>
			<path class="st0" d="M34.3,6.5c0,0-0.1,0.3-0.3,0.3h-3.8c-0.2,0-0.3-0.3-0.3-0.6l-0.1-5.5c0-0.3,0.4-0.4,0.7-0.4l3.5,0
				c0.3,0,0.5,0.2,0.5,0.5L34.3,6.5z"/>
			<path class="st1" d="M34.3,6.5c0,0-0.1,0.3-0.3,0.3h-3.7c-0.2,0-0.3-0.3-0.3-0.6l-0.1-5.4c0-0.3,0.4-0.4,0.6-0.4l3.4,0
				c0.3,0,0.5,0.2,0.5,0.5L34.3,6.5z"/>
			<path class="st50" d="M34.3,6.4c0,0-0.1,0.4-0.3,0.3h-3.7c-0.2,0-0.3-0.3-0.3-0.6l-0.1-5.4c0-0.3,0.3-0.4,0.6-0.4l3.4,0
				c0.3,0,0.5,0.2,0.5,0.4L34.3,6.4z"/>
			<path class="st51" d="M34.3,6.3c0,0-0.1,0.4-0.3,0.4h-3.7c-0.2,0-0.3-0.3-0.3-0.6L30,0.7c0-0.3,0.3-0.4,0.6-0.4l3.4,0
				c0.3,0,0.5,0.2,0.5,0.4L34.3,6.3z"/>
			<path class="st52" d="M34.3,6.3c0,0-0.1,0.4-0.3,0.4h-3.6c-0.2,0-0.3-0.3-0.3-0.6L30,0.7c0-0.3,0.3-0.4,0.6-0.4l3.3,0
				c0.3,0,0.5,0.2,0.5,0.4L34.3,6.3z"/>
			<path class="st53" d="M34.3,6.2c0,0.1-0.1,0.4-0.3,0.4h-3.6c-0.2,0-0.3-0.3-0.3-0.6L30,0.7c0-0.3,0.3-0.4,0.6-0.4l3.3,0
				c0.3,0,0.5,0.2,0.5,0.4L34.3,6.2z"/>
			<path class="st54" d="M34.3,6.2c0,0.1-0.1,0.4-0.3,0.4h-3.6c-0.2,0-0.3-0.3-0.3-0.6l-0.1-5.3c0-0.3,0.3-0.4,0.6-0.4l3.3,0
				c0.3,0,0.5,0.1,0.5,0.4L34.3,6.2z"/>
			<path class="st55" d="M34.2,6.1c0,0.1-0.1,0.4-0.3,0.4h-3.5c-0.2,0-0.2-0.3-0.2-0.6l-0.1-5.2c0-0.3,0.3-0.4,0.6-0.4l3.3,0
				c0.3,0,0.5,0.1,0.5,0.4L34.2,6.1z"/>
			<path class="st56" d="M34.2,6.1c0,0.1-0.1,0.4-0.3,0.4h-3.5c-0.2,0-0.2-0.3-0.2-0.6l-0.1-5.2c0-0.3,0.3-0.3,0.6-0.3l3.2,0
				c0.3,0,0.5,0.1,0.5,0.4L34.2,6.1z"/>
			<path class="st57" d="M34.2,6c0,0.1-0.1,0.5-0.3,0.5h-3.4c-0.2,0-0.2-0.3-0.2-0.6l-0.1-5.2c0-0.3,0.3-0.3,0.5-0.3l3.2,0
				c0.3,0,0.5,0.1,0.5,0.3L34.2,6z"/>
			<path class="st58" d="M34.2,6c0,0.1-0.1,0.5-0.3,0.5h-3.4c-0.2,0-0.2-0.3-0.2-0.6l-0.1-5.2c0-0.3,0.3-0.3,0.5-0.3l3.2,0
				c0.3,0,0.5,0.1,0.5,0.3L34.2,6z"/>
			<path class="st59" d="M34.2,5.9c0,0.2-0.1,0.5-0.3,0.5h-3.4c-0.2,0-0.2-0.3-0.2-0.6l-0.1-5.1c0-0.3,0.3-0.3,0.5-0.3l3.2,0
				c0.3,0,0.5,0.1,0.5,0.3L34.2,5.9z"/>
			<path class="st60" d="M34.2,5.8c0,0.2-0.1,0.5-0.3,0.5h-3.3c-0.2,0-0.2-0.3-0.2-0.6l-0.1-5.1c0-0.3,0.2-0.3,0.5-0.3l3.1,0
				c0.3,0,0.5,0.1,0.5,0.3L34.2,5.8z"/>
			<path class="st61" d="M34.2,5.8c0,0.2-0.1,0.5-0.3,0.5h-3.3c-0.2,0-0.2-0.3-0.2-0.6l-0.1-5.1c0-0.3,0.2-0.3,0.5-0.3l3.1,0
				c0.3,0,0.5,0,0.5,0.3L34.2,5.8z"/>
			<path class="st62" d="M34.2,5.7c0,0.2-0.1,0.5-0.2,0.5h-3.3c-0.2,0-0.2-0.3-0.2-0.6l-0.1-5c0-0.3,0.2-0.3,0.5-0.3l3.1,0
				c0.3,0,0.5,0,0.5,0.3L34.2,5.7z"/>
			<path class="st63" d="M34.1,5.7c0,0.2-0.1,0.6-0.2,0.5h-3.2c-0.2,0-0.2-0.3-0.2-0.6l-0.1-5c0-0.3,0.2-0.3,0.5-0.3l3.1,0
				c0.3,0,0.5,0,0.5,0.3L34.1,5.7z"/>
			<path class="st64" d="M34.1,5.6c0,0.3-0.1,0.6-0.2,0.6h-3.2c-0.2,0-0.2-0.3-0.2-0.6l-0.1-5c0-0.3,0.2-0.3,0.5-0.3h3
				c0.3,0,0.5,0,0.5,0.3L34.1,5.6z"/>
		</g>
		<linearGradient id="SVGID_3_" gradientUnits="userSpaceOnUse" x1="32.2676" y1="0.3154" x2="32.2676" y2="6.4405">
			<stop  offset="0" style="stop-color:#A4003C"/>
			<stop  offset="1.076030e-02" style="stop-color:#BA2E60"/>
			<stop  offset="2.443748e-02" style="stop-color:#D26389"/>
			<stop  offset="3.726414e-02" style="stop-color:#E68CAA"/>
			<stop  offset="4.884818e-02" style="stop-color:#F4AAC1"/>
			<stop  offset="5.879145e-02" style="stop-color:#FCBCCF"/>
			<stop  offset="6.593410e-02" style="stop-color:#FFC2D4"/>
			<stop  offset="7.799432e-02" style="stop-color:#FBABC2"/>
			<stop  offset="9.808802e-02" style="stop-color:#F58CA9"/>
			<stop  offset="0.119" style="stop-color:#F07396"/>
			<stop  offset="0.141" style="stop-color:#ED6288"/>
			<stop  offset="0.1645" style="stop-color:#EB5780"/>
			<stop  offset="0.1923" style="stop-color:#EA547D"/>
			<stop  offset="0.3396" style="stop-color:#D73661"/>
			<stop  offset="0.4703" style="stop-color:#CA234F"/>
			<stop  offset="0.5604" style="stop-color:#C61C49"/>
			<stop  offset="0.7211" style="stop-color:#C41B48"/>
			<stop  offset="0.7927" style="stop-color:#BD1945"/>
			<stop  offset="0.8466" style="stop-color:#B01441"/>
			<stop  offset="0.8917" style="stop-color:#9E0E3A"/>
			<stop  offset="0.9308" style="stop-color:#870531"/>
			<stop  offset="0.9505" style="stop-color:#78002B"/>
		</linearGradient>
		<path class="st65" d="M34.1,5.9c0,0.3-0.1,0.6-0.2,0.6h-3.1c-0.2,0-0.2-0.3-0.2-0.6l-0.1-5.3c0-0.3,0.2-0.3,0.4-0.3h3
			c0.2,0,0.4,0,0.4,0.3L34.1,5.9z"/>
		<g>
			<linearGradient id="SVGID_4_" gradientUnits="userSpaceOnUse" x1="39.4224" y1="0.6426" x2="4.2237" y2="22.6478">
				<stop  offset="9.340660e-02" style="stop-color:#FFEDDE"/>
				<stop  offset="0.5378" style="stop-color:#F8E2D8"/>
				<stop  offset="1" style="stop-color:#EDD1CF"/>
			</linearGradient>
			<rect x="2" y="6.2" class="st66" width="38.8" height="11.4"/>
			<g class="st67">
				<linearGradient id="SVGID_5_" gradientUnits="userSpaceOnUse" x1="14.7326" y1="-7.9427" x2="6.8887" y2="1.2655">
					<stop  offset="9.340660e-02" style="stop-color:#FFEDDE"/>
					<stop  offset="0.4107" style="stop-color:#F6E2D5"/>
					<stop  offset="0.9722" style="stop-color:#DFC4BB"/>
					<stop  offset="1" style="stop-color:#DEC2BA"/>
				</linearGradient>
				<path class="st68" d="M2.9,6.2C2.6,6.4,2.3,6.5,2,6.6v0C2.3,6.6,2.6,6.4,2.9,6.2L2.9,6.2z"/>
				<linearGradient id="SVGID_6_" gradientUnits="userSpaceOnUse" x1="15.2925" y1="-7.4696" x2="7.4792" y2="1.7026">
					<stop  offset="9.340660e-02" style="stop-color:#FFEDDE"/>
					<stop  offset="0.4107" style="stop-color:#F6E2D5"/>
					<stop  offset="0.9722" style="stop-color:#DFC4BB"/>
					<stop  offset="1" style="stop-color:#DEC2BA"/>
				</linearGradient>
				<path class="st69" d="M4.4,6.2H4.2C4.1,6.3,4,6.4,3.9,6.4C3.2,7,2.6,7.1,2,7.3v0.1c0.6-0.1,1.3-0.3,2-0.9
					C4.2,6.4,4.3,6.3,4.4,6.2z"/>
				<linearGradient id="SVGID_7_" gradientUnits="userSpaceOnUse" x1="15.7665" y1="-7.0732" x2="7.9763" y2="2.0719">
					<stop  offset="9.340660e-02" style="stop-color:#FFEDDE"/>
					<stop  offset="0.4107" style="stop-color:#F6E2D5"/>
					<stop  offset="0.9722" style="stop-color:#DFC4BB"/>
					<stop  offset="1" style="stop-color:#DEC2BA"/>
				</linearGradient>
				<path class="st70" d="M5.4,6.2L5.4,6.2C5.2,6.5,5,6.7,4.6,7C3.6,7.7,2.8,7.8,2,7.9v0c0.8-0.1,1.6-0.2,2.6-1
					C5,6.7,5.3,6.5,5.4,6.2z"/>
				<linearGradient id="SVGID_8_" gradientUnits="userSpaceOnUse" x1="16.2273" y1="-6.6527" x2="8.4717" y2="2.4518">
					<stop  offset="9.340660e-02" style="stop-color:#FFEDDE"/>
					<stop  offset="0.4107" style="stop-color:#F6E2D5"/>
					<stop  offset="0.9722" style="stop-color:#DFC4BB"/>
					<stop  offset="1" style="stop-color:#DEC2BA"/>
				</linearGradient>
				<path class="st71" d="M6.4,6.2L6.4,6.2C6.1,6.6,5.8,7,5.2,7.5C3.9,8.5,3,8.3,2,8.6v0C3,8.3,3.9,8.5,5.2,7.6
					C5.9,7.1,6.2,6.6,6.4,6.2z"/>
				<linearGradient id="SVGID_9_" gradientUnits="userSpaceOnUse" x1="16.7027" y1="-6.1919" x2="8.993" y2="2.8588">
					<stop  offset="9.340660e-02" style="stop-color:#FFEDDE"/>
					<stop  offset="0.4107" style="stop-color:#F6E2D5"/>
					<stop  offset="0.9722" style="stop-color:#DFC4BB"/>
					<stop  offset="1" style="stop-color:#DEC2BA"/>
				</linearGradient>
				<path class="st72" d="M7.2,6.2H7.1C6.9,6.8,6.7,7.3,5.8,8C4.3,9.1,3.3,8.7,2,9.3v0.1c1.3-0.7,2.3-0.2,3.9-1.3
					C6.8,7.4,7,6.8,7.2,6.2z"/>
				<linearGradient id="SVGID_10_" gradientUnits="userSpaceOnUse" x1="17.2104" y1="-5.7217" x2="9.5415" y2="3.281">
					<stop  offset="9.340660e-02" style="stop-color:#FFEDDE"/>
					<stop  offset="0.4107" style="stop-color:#F6E2D5"/>
					<stop  offset="0.9722" style="stop-color:#DFC4BB"/>
					<stop  offset="1" style="stop-color:#DEC2BA"/>
				</linearGradient>
				<path class="st73" d="M8.1,6.2H7.9C7.5,7,7.6,7.7,6.4,8.6C4.7,9.8,3.7,9.1,2,10.2v0.2C3.7,9.2,4.7,10,6.5,8.6
					C7.8,7.7,7.7,7,8.1,6.2z"/>
				<linearGradient id="SVGID_11_" gradientUnits="userSpaceOnUse" x1="17.768" y1="-5.2479" x2="10.13" y2="3.7187">
					<stop  offset="9.340660e-02" style="stop-color:#FFEDDE"/>
					<stop  offset="0.4107" style="stop-color:#F6E2D5"/>
					<stop  offset="0.9722" style="stop-color:#DFC4BB"/>
					<stop  offset="1" style="stop-color:#DEC2BA"/>
				</linearGradient>
				<path class="st74" d="M2.4,10.9c1.8-1.3,2.8-0.4,4.6-1.8C8.6,8,8.1,7.2,9,6.2H8.9C8.1,7.2,8.5,8,7,9.1
					C5.3,10.4,4.2,9.6,2.4,10.9C2.2,11,2.1,11.1,2,11.3v0.1C2.1,11.2,2.3,11.1,2.4,10.9z"/>
				<linearGradient id="SVGID_12_" gradientUnits="userSpaceOnUse" x1="18.3894" y1="-4.7396" x2="10.7865" y2="4.1857">
					<stop  offset="9.340660e-02" style="stop-color:#FFEDDE"/>
					<stop  offset="0.4107" style="stop-color:#F6E2D5"/>
					<stop  offset="0.9722" style="stop-color:#DFC4BB"/>
					<stop  offset="1" style="stop-color:#DEC2BA"/>
				</linearGradient>
				<path class="st75" d="M3.1,11.5c1.8-1.3,2.8-0.4,4.6-1.8c1.8-1.3,0.8-2.2,2.5-3.5h-0.1C8.5,7.5,9.4,8.4,7.7,9.6
					C5.9,11,4.8,10.1,3.1,11.5c-0.6,0.4-0.9,0.8-1.1,1.1v0.1C2.2,12.3,2.4,11.9,3.1,11.5z"/>
				<linearGradient id="SVGID_13_" gradientUnits="userSpaceOnUse" x1="19.0307" y1="-4.2385" x2="11.47" y2="4.6373">
					<stop  offset="9.340660e-02" style="stop-color:#FFEDDE"/>
					<stop  offset="0.4107" style="stop-color:#F6E2D5"/>
					<stop  offset="0.9722" style="stop-color:#DFC4BB"/>
					<stop  offset="1" style="stop-color:#DEC2BA"/>
				</linearGradient>
				<path class="st76" d="M3.7,12c1.8-1.3,2.8-0.4,4.6-1.8c1.8-1.4,0.8-2.3,2.6-3.6c0.3-0.2,0.5-0.3,0.8-0.5h-0.2
					c-0.2,0.1-0.4,0.2-0.6,0.4C9,8,10,8.8,8.2,10.2C6.5,11.5,5.5,10.6,3.7,12c-1.4,0.9-1.2,1.7-1.7,2.5v0.2C2.6,13.8,2.3,13,3.7,12z
					"/>
				<linearGradient id="SVGID_14_" gradientUnits="userSpaceOnUse" x1="20.2026" y1="-3.5808" x2="12.5949" y2="5.3501">
					<stop  offset="9.340660e-02" style="stop-color:#FFEDDE"/>
					<stop  offset="0.4107" style="stop-color:#F6E2D5"/>
					<stop  offset="0.9722" style="stop-color:#DFC4BB"/>
					<stop  offset="1" style="stop-color:#DEC2BA"/>
				</linearGradient>
				<path class="st77" d="M4.3,12.5c1.8-1.3,2.8-0.4,4.6-1.8c1.8-1.4,0.8-2.2,2.6-3.6c1.1-0.8,1.9-0.8,2.8-1H14
					c-0.8,0.1-1.5,0.2-2.5,0.9c-1.8,1.4-0.8,2.2-2.6,3.6C7.1,12,6.1,11.2,4.3,12.5c-1.7,1.2-0.9,2.1-2.3,3.3v0.1
					C3.4,14.6,2.6,13.8,4.3,12.5z"/>
				<linearGradient id="SVGID_15_" gradientUnits="userSpaceOnUse" x1="21.2178" y1="-2.9445" x2="13.5859" y2="6.0148">
					<stop  offset="9.340660e-02" style="stop-color:#FFEDDE"/>
					<stop  offset="0.4107" style="stop-color:#F6E2D5"/>
					<stop  offset="0.9722" style="stop-color:#DFC4BB"/>
					<stop  offset="1" style="stop-color:#DEC2BA"/>
				</linearGradient>
				<path class="st78" d="M4.9,13.1c1.8-1.3,2.8-0.4,4.6-1.8c1.8-1.4,0.8-2.2,2.6-3.6c1.6-1.2,2.6-0.6,4.2-1.5h-0.1
					c-1.5,0.9-2.5,0.3-4.1,1.5c-1.8,1.4-0.8,2.2-2.6,3.6C7.7,12.6,6.7,11.7,4.9,13.1c-1.8,1.3-0.8,2.2-2.6,3.5
					c-0.1,0.1-0.2,0.1-0.3,0.2v0.1c0.1-0.1,0.2-0.1,0.3-0.2C4.1,15.3,3.1,14.4,4.9,13.1z"/>
				<linearGradient id="SVGID_16_" gradientUnits="userSpaceOnUse" x1="44.0056" y1="12.5341" x2="35.8855" y2="22.0665">
					<stop  offset="9.340660e-02" style="stop-color:#FFEDDE"/>
					<stop  offset="0.4107" style="stop-color:#F6E2D5"/>
					<stop  offset="0.9722" style="stop-color:#DFC4BB"/>
					<stop  offset="1" style="stop-color:#DEC2BA"/>
				</linearGradient>
				<path class="st79" d="M39,17.6c0.6-0.2,1.2-0.2,1.8-0.4v0c-0.6,0.2-1.2,0.2-1.9,0.4H39z"/>
				<linearGradient id="SVGID_17_" gradientUnits="userSpaceOnUse" x1="43.2074" y1="12.1219" x2="35.236" y2="21.4798">
					<stop  offset="9.340660e-02" style="stop-color:#FFEDDE"/>
					<stop  offset="0.4107" style="stop-color:#F6E2D5"/>
					<stop  offset="0.9722" style="stop-color:#DFC4BB"/>
					<stop  offset="1" style="stop-color:#DEC2BA"/>
				</linearGradient>
				<path class="st80" d="M37.4,17.6c1.3-0.9,2.2-0.6,3.4-1v-0.1c-1.2,0.5-2.2,0.2-3.6,1.2H37.4z"/>
				<linearGradient id="SVGID_18_" gradientUnits="userSpaceOnUse" x1="42.5457" y1="11.7565" x2="34.6651" y2="21.0076">
					<stop  offset="9.340660e-02" style="stop-color:#FFEDDE"/>
					<stop  offset="0.4107" style="stop-color:#F6E2D5"/>
					<stop  offset="0.9722" style="stop-color:#DFC4BB"/>
					<stop  offset="1" style="stop-color:#DEC2BA"/>
				</linearGradient>
				<path class="st81" d="M35.9,17.6L35.9,17.6c0.2-0.1,0.4-0.3,0.6-0.4c1.7-1.2,2.7-0.5,4.3-1.5v-0.1c-1.6,1-2.6,0.3-4.3,1.5
					C36.2,17.4,36.1,17.5,35.9,17.6z"/>
				<linearGradient id="SVGID_19_" gradientUnits="userSpaceOnUse" x1="41.895" y1="11.4006" x2="34.0988" y2="20.5528">
					<stop  offset="9.340660e-02" style="stop-color:#FFEDDE"/>
					<stop  offset="0.4107" style="stop-color:#F6E2D5"/>
					<stop  offset="0.9722" style="stop-color:#DFC4BB"/>
					<stop  offset="1" style="stop-color:#DEC2BA"/>
				</linearGradient>
				<path class="st82" d="M40.5,14.9c-1.8,1.3-2.8,0.4-4.6,1.8c-0.5,0.4-0.8,0.7-1,1H35c0.2-0.3,0.5-0.6,0.9-0.9
					C37.7,15.4,38.7,16.3,40.5,14.9c0.1,0,0.2-0.1,0.3-0.2v-0.1C40.7,14.8,40.6,14.8,40.5,14.9z"/>
				<linearGradient id="SVGID_20_" gradientUnits="userSpaceOnUse" x1="41.1934" y1="11.0191" x2="33.487" y2="20.0658">
					<stop  offset="9.340660e-02" style="stop-color:#FFEDDE"/>
					<stop  offset="0.4107" style="stop-color:#F6E2D5"/>
					<stop  offset="0.9722" style="stop-color:#DFC4BB"/>
					<stop  offset="1" style="stop-color:#DEC2BA"/>
				</linearGradient>
				<path class="st83" d="M39.8,14.3c-1.8,1.3-2.8,0.4-4.6,1.8c-0.8,0.6-1,1.1-1.2,1.5h0.2c0.2-0.5,0.4-0.9,1.2-1.5
					c1.8-1.3,2.8-0.4,4.6-1.8c0.4-0.3,0.6-0.5,0.8-0.8v-0.2C40.6,13.7,40.3,14,39.8,14.3z"/>
				<linearGradient id="SVGID_21_" gradientUnits="userSpaceOnUse" x1="40.4468" y1="10.6433" x2="32.8524" y2="19.5585">
					<stop  offset="9.340660e-02" style="stop-color:#FFEDDE"/>
					<stop  offset="0.4107" style="stop-color:#F6E2D5"/>
					<stop  offset="0.9722" style="stop-color:#DFC4BB"/>
					<stop  offset="1" style="stop-color:#DEC2BA"/>
				</linearGradient>
				<path class="st84" d="M39.2,13.8c-1.8,1.3-2.8,0.4-4.6,1.8c-1.1,0.8-1.2,1.4-1.4,2.1h0.2c0.2-0.6,0.4-1.2,1.4-2
					c1.8-1.3,2.8-0.4,4.6-1.8c1.1-0.8,1.2-1.4,1.4-2.1v-0.4C40.4,12.2,40.4,12.9,39.2,13.8z"/>
				<linearGradient id="SVGID_22_" gradientUnits="userSpaceOnUse" x1="39.7587" y1="10.1995" x2="32.2007" y2="19.072">
					<stop  offset="9.340660e-02" style="stop-color:#FFEDDE"/>
					<stop  offset="0.4107" style="stop-color:#F6E2D5"/>
					<stop  offset="0.9722" style="stop-color:#DFC4BB"/>
					<stop  offset="1" style="stop-color:#DEC2BA"/>
				</linearGradient>
				<path class="st85" d="M38.7,13.3c-1.8,1.3-2.8,0.4-4.6,1.8c-1.3,1-1.1,1.7-1.7,2.6h0.1c0.5-0.9,0.3-1.6,1.6-2.5
					C35.8,13.8,36.9,14.7,38.7,13.3c1.6-1.1,1-2,2.1-3.1v-0.1C39.6,11.3,40.3,12.1,38.7,13.3z"/>
				<linearGradient id="SVGID_23_" gradientUnits="userSpaceOnUse" x1="39.0861" y1="9.7375" x2="31.534" y2="18.6032">
					<stop  offset="9.340660e-02" style="stop-color:#FFEDDE"/>
					<stop  offset="0.4107" style="stop-color:#F6E2D5"/>
					<stop  offset="0.9722" style="stop-color:#DFC4BB"/>
					<stop  offset="1" style="stop-color:#DEC2BA"/>
				</linearGradient>
				<path class="st86" d="M38,12.8c-1.8,1.3-2.8,0.4-4.6,1.8c-1.6,1.2-1,2-2.1,3.1h0.1c1.1-1.1,0.5-1.9,2.1-3.1
					C35.2,13.2,36.3,14.1,38,12.8c1.9-1.3,0.8-2.2,2.6-3.5c0,0,0,0,0.1,0V9.1c0,0-0.1,0-0.1,0.1C38.8,10.6,39.8,11.4,38,12.8z"/>
				<linearGradient id="SVGID_24_" gradientUnits="userSpaceOnUse" x1="38.4167" y1="9.2716" x2="30.8529" y2="18.1509">
					<stop  offset="9.340660e-02" style="stop-color:#FFEDDE"/>
					<stop  offset="0.4107" style="stop-color:#F6E2D5"/>
					<stop  offset="0.9722" style="stop-color:#DFC4BB"/>
					<stop  offset="1" style="stop-color:#DEC2BA"/>
				</linearGradient>
				<path class="st87" d="M37.4,12.2c-1.8,1.3-2.8,0.4-4.6,1.8c-1.8,1.4-0.8,2.2-2.6,3.5c-0.1,0-0.1,0.1-0.2,0.1h0.2c0,0,0,0,0.1,0
					c1.8-1.4,0.8-2.2,2.6-3.5C34.6,12.7,35.6,13.6,37.4,12.2c1.9-1.3,0.9-2.2,2.7-3.5c0.2-0.2,0.4-0.3,0.7-0.4V8.2
					c-0.2,0.1-0.5,0.3-0.7,0.5C38.2,10,39.2,10.9,37.4,12.2z"/>
				<linearGradient id="SVGID_25_" gradientUnits="userSpaceOnUse" x1="37.772" y1="8.8168" x2="30.1818" y2="17.7271">
					<stop  offset="9.340660e-02" style="stop-color:#FFEDDE"/>
					<stop  offset="0.4107" style="stop-color:#F6E2D5"/>
					<stop  offset="0.9722" style="stop-color:#DFC4BB"/>
					<stop  offset="1" style="stop-color:#DEC2BA"/>
				</linearGradient>
				<path class="st88" d="M36.8,11.7C35,13,34,12.1,32.2,13.5c-1.8,1.3-0.8,2.2-2.6,3.5c-0.4,0.3-0.8,0.5-1.2,0.6h0.1
					c0.3-0.1,0.7-0.3,1.1-0.6c1.8-1.3,0.8-2.2,2.6-3.5C34,12.2,35,13.1,36.8,11.7c1.9-1.3,0.8-2.2,2.6-3.5c0.5-0.3,0.9-0.5,1.3-0.7
					v0c-0.4,0.1-0.8,0.3-1.3,0.7C37.6,9.5,38.6,10.4,36.8,11.7z"/>
				<linearGradient id="SVGID_26_" gradientUnits="userSpaceOnUse" x1="36.6847" y1="8.007" x2="29.031" y2="16.9919">
					<stop  offset="9.340660e-02" style="stop-color:#FFEDDE"/>
					<stop  offset="0.4107" style="stop-color:#F6E2D5"/>
					<stop  offset="0.9722" style="stop-color:#DFC4BB"/>
					<stop  offset="1" style="stop-color:#DEC2BA"/>
				</linearGradient>
				<path class="st89" d="M36.2,11.2c-1.8,1.3-2.8,0.4-4.6,1.8c-1.8,1.3-0.8,2.2-2.6,3.5c-1.4,1-2.3,0.7-3.6,1.2h0.1
					c1.2-0.4,2.1-0.1,3.5-1.1c1.8-1.3,0.8-2.2,2.6-3.5C33.4,11.6,34.4,12.5,36.2,11.2c1.9-1.3,0.8-2.2,2.6-3.5
					c0.7-0.5,1.3-0.7,1.9-0.8v0c-0.6,0.1-1.2,0.3-1.9,0.8C37,9,38,9.8,36.2,11.2z"/>
				<linearGradient id="SVGID_27_" gradientUnits="userSpaceOnUse" x1="21.9892" y1="-2.427" x2="14.3478" y2="6.5435">
					<stop  offset="9.340660e-02" style="stop-color:#FFEDDE"/>
					<stop  offset="0.4107" style="stop-color:#F6E2D5"/>
					<stop  offset="0.9722" style="stop-color:#DFC4BB"/>
					<stop  offset="1" style="stop-color:#DEC2BA"/>
				</linearGradient>
				<path class="st90" d="M5.6,13.6c1.8-1.3,2.8-0.4,4.6-1.8c1.8-1.4,0.8-2.3,2.6-3.6c1.8-1.3,2.8-0.4,4.6-1.8
					c0.1-0.1,0.2-0.2,0.3-0.3h-0.2c-0.1,0.1-0.1,0.1-0.2,0.2c-1.8,1.3-2.8,0.4-4.6,1.8c-1.8,1.4-0.8,2.3-2.6,3.6
					C8.3,13.1,7.3,12.2,5.6,13.6c-1.9,1.3-0.9,2.2-2.7,3.5c-0.3,0.2-0.6,0.4-0.9,0.5v0h0.2c0.2-0.1,0.5-0.3,0.8-0.5
					C4.8,15.8,3.8,14.9,5.6,13.6z"/>
				<linearGradient id="SVGID_28_" gradientUnits="userSpaceOnUse" x1="22.6593" y1="-1.9294" x2="15.0313" y2="7.0253">
					<stop  offset="9.340660e-02" style="stop-color:#FFEDDE"/>
					<stop  offset="0.4107" style="stop-color:#F6E2D5"/>
					<stop  offset="0.9722" style="stop-color:#DFC4BB"/>
					<stop  offset="1" style="stop-color:#DEC2BA"/>
				</linearGradient>
				<path class="st91" d="M6.1,14.1c1.8-1.3,2.8-0.4,4.6-1.8c1.8-1.4,0.8-2.2,2.6-3.6C15.1,7.4,16.2,8.3,18,7
					c0.4-0.3,0.6-0.5,0.8-0.8h-0.1c-0.2,0.2-0.4,0.5-0.8,0.7c-1.8,1.3-2.8,0.4-4.6,1.8c-1.8,1.4-0.8,2.2-2.6,3.6
					C8.9,13.6,7.9,12.7,6.1,14.1c-1.8,1.3-0.8,2.2-2.6,3.5h0.1C5.4,16.3,4.4,15.4,6.1,14.1z"/>
				<linearGradient id="SVGID_29_" gradientUnits="userSpaceOnUse" x1="23.3135" y1="-1.4434" x2="15.6934" y2="7.502">
					<stop  offset="9.340660e-02" style="stop-color:#FFEDDE"/>
					<stop  offset="0.4107" style="stop-color:#F6E2D5"/>
					<stop  offset="0.9722" style="stop-color:#DFC4BB"/>
					<stop  offset="1" style="stop-color:#DEC2BA"/>
				</linearGradient>
				<path class="st92" d="M6.8,14.7c1.8-1.3,2.8-0.4,4.6-1.8c1.8-1.4,0.8-2.2,2.6-3.6c1.8-1.3,2.8-0.4,4.6-1.8
					c0.6-0.5,0.9-0.9,1.1-1.3h-0.1c-0.2,0.4-0.5,0.8-1.1,1.3c-1.8,1.3-2.8,0.4-4.6,1.8c-1.8,1.4-0.8,2.2-2.6,3.6
					C9.6,14.2,8.5,13.3,6.8,14.7c-1.6,1.1-1.1,1.9-2,3h0.1C5.7,16.6,5.2,15.8,6.8,14.7z"/>
				<linearGradient id="SVGID_30_" gradientUnits="userSpaceOnUse" x1="23.9679" y1="-0.9577" x2="16.3512" y2="7.9838">
					<stop  offset="9.340660e-02" style="stop-color:#FFEDDE"/>
					<stop  offset="0.4107" style="stop-color:#F6E2D5"/>
					<stop  offset="0.9722" style="stop-color:#DFC4BB"/>
					<stop  offset="1" style="stop-color:#DEC2BA"/>
				</linearGradient>
				<path class="st93" d="M7.4,15.2c1.8-1.3,2.8-0.4,4.6-1.8c1.8-1.4,0.8-2.2,2.6-3.6c1.8-1.3,2.8-0.4,4.6-1.8
					c0.9-0.7,1.1-1.3,1.3-1.8h-0.1c-0.2,0.6-0.4,1.1-1.3,1.8c-1.8,1.3-2.8,0.4-4.6,1.8c-1.8,1.4-0.8,2.2-2.6,3.6
					C10.2,14.7,9.2,13.8,7.4,15.2c-1.4,0.9-1.2,1.6-1.7,2.4h0.1C6.3,16.8,6.1,16.1,7.4,15.2z"/>
				<linearGradient id="SVGID_31_" gradientUnits="userSpaceOnUse" x1="24.621" y1="-0.4705" x2="17.0066" y2="8.4682">
					<stop  offset="9.340660e-02" style="stop-color:#FFEDDE"/>
					<stop  offset="0.4107" style="stop-color:#F6E2D5"/>
					<stop  offset="0.9722" style="stop-color:#DFC4BB"/>
					<stop  offset="1" style="stop-color:#DEC2BA"/>
				</linearGradient>
				<path class="st94" d="M8,15.7c1.8-1.3,2.8-0.4,4.6-1.8c1.8-1.4,0.8-2.2,2.6-3.6C17,9,18,9.9,19.8,8.6C21,7.7,21,7,21.4,6.2h-0.1
					C20.9,7,21,7.7,19.8,8.5C18,9.9,17,9,15.2,10.3c-1.8,1.4-0.8,2.2-2.6,3.6C10.8,15.2,9.8,14.3,8,15.7c-1,0.7-1.2,1.3-1.4,1.9h0.1
					C6.9,17,7,16.4,8,15.7z"/>
				<linearGradient id="SVGID_32_" gradientUnits="userSpaceOnUse" x1="25.2848" y1="4.743310e-03" x2="17.6665" y2="8.948">
					<stop  offset="9.340660e-02" style="stop-color:#FFEDDE"/>
					<stop  offset="0.4107" style="stop-color:#F6E2D5"/>
					<stop  offset="0.9722" style="stop-color:#DFC4BB"/>
					<stop  offset="1" style="stop-color:#DEC2BA"/>
				</linearGradient>
				<path class="st95" d="M8.6,16.2c1.8-1.3,2.8-0.4,4.6-1.8c1.8-1.4,0.8-2.2,2.6-3.6c1.8-1.3,2.8-0.4,4.6-1.8
					c1.5-1.1,1.1-1.9,1.9-2.9h-0.1c-0.8,1-0.4,1.8-1.8,2.9c-1.8,1.3-2.8,0.4-4.6,1.8c-1.8,1.4-0.8,2.2-2.6,3.6
					C11.4,15.8,10.4,14.9,8.6,16.2c-0.7,0.5-1,1-1.2,1.4h0.1C7.6,17.2,7.9,16.8,8.6,16.2z"/>
				<linearGradient id="SVGID_33_" gradientUnits="userSpaceOnUse" x1="25.9618" y1="0.4638" x2="18.3339" y2="9.4183">
					<stop  offset="9.340660e-02" style="stop-color:#FFEDDE"/>
					<stop  offset="0.4107" style="stop-color:#F6E2D5"/>
					<stop  offset="0.9722" style="stop-color:#DFC4BB"/>
					<stop  offset="1" style="stop-color:#DEC2BA"/>
				</linearGradient>
				<path class="st96" d="M9.2,16.8c1.8-1.3,2.8-0.4,4.6-1.8c1.8-1.4,0.8-2.2,2.6-3.6c1.8-1.3,2.8-0.4,4.6-1.8
					c1.8-1.3,0.9-2.2,2.4-3.4h-0.2c-1.5,1.3-0.6,2.1-2.3,3.4c-1.8,1.3-2.8,0.4-4.6,1.8c-1.8,1.4-0.8,2.2-2.6,3.6
					C12,16.3,11,15.4,9.2,16.8c-0.5,0.3-0.8,0.6-1,0.9h0.1C8.6,17.4,8.8,17.1,9.2,16.8z"/>
				<linearGradient id="SVGID_34_" gradientUnits="userSpaceOnUse" x1="26.6513" y1="0.9223" x2="19.0159" y2="9.8856">
					<stop  offset="9.340660e-02" style="stop-color:#FFEDDE"/>
					<stop  offset="0.4107" style="stop-color:#F6E2D5"/>
					<stop  offset="0.9722" style="stop-color:#DFC4BB"/>
					<stop  offset="1" style="stop-color:#DEC2BA"/>
				</linearGradient>
				<path class="st97" d="M9.8,17.3c1.8-1.3,2.8-0.4,4.6-1.8c1.8-1.4,0.8-2.2,2.6-3.6c1.8-1.3,2.8-0.4,4.6-1.8
					c1.8-1.4,0.8-2.2,2.6-3.6c0.2-0.2,0.4-0.3,0.6-0.4h-0.1c-0.2,0.1-0.4,0.2-0.6,0.4c-1.8,1.4-0.8,2.2-2.6,3.6
					c-1.8,1.3-2.8,0.4-4.6,1.8c-1.8,1.4-0.8,2.2-2.6,3.6C12.6,16.8,11.6,15.9,9.8,17.3c-0.2,0.1-0.4,0.2-0.5,0.3h0.1
					C9.5,17.5,9.7,17.4,9.8,17.3z"/>
				<linearGradient id="SVGID_35_" gradientUnits="userSpaceOnUse" x1="27.7727" y1="1.6368" x2="20.1055" y2="10.6375">
					<stop  offset="9.340660e-02" style="stop-color:#FFEDDE"/>
					<stop  offset="0.4107" style="stop-color:#F6E2D5"/>
					<stop  offset="0.9722" style="stop-color:#DFC4BB"/>
					<stop  offset="1" style="stop-color:#DEC2BA"/>
				</linearGradient>
				<path class="st98" d="M17.7,12.5c1.8-1.3,2.8-0.4,4.6-1.8c1.8-1.4,0.8-2.2,2.6-3.6c1-0.7,1.7-0.8,2.5-0.9h-0.3
					c-0.7,0.1-1.4,0.2-2.3,0.9C23,8.4,24,9.3,22.3,10.7C20.5,12,19.4,11.1,17.7,12.5c-1.9,1.3-0.8,2.2-2.6,3.5
					c-1.7,1.3-2.7,0.5-4.4,1.6h0.1c1.6-1,2.6-0.3,4.4-1.6C16.9,14.7,15.9,13.8,17.7,12.5z"/>
				<linearGradient id="SVGID_36_" gradientUnits="userSpaceOnUse" x1="29.0091" y1="2.4897" x2="21.3263" y2="11.5088">
					<stop  offset="9.340660e-02" style="stop-color:#FFEDDE"/>
					<stop  offset="0.4107" style="stop-color:#F6E2D5"/>
					<stop  offset="0.9722" style="stop-color:#DFC4BB"/>
					<stop  offset="1" style="stop-color:#DEC2BA"/>
				</linearGradient>
				<path class="st99" d="M18.3,13c1.8-1.3,2.8-0.4,4.6-1.8c1.8-1.4,0.8-2.2,2.6-3.6c1.6-1.2,2.6-0.6,4.1-1.5h-0.2
					C28,7,27,6.4,25.4,7.6c-1.8,1.4-0.8,2.2-2.6,3.6C21.1,12.5,20.1,11.6,18.3,13c-1.9,1.3-0.9,2.2-2.7,3.5c-1.3,1-2.2,0.8-3.3,1.1
					h0.3c1-0.2,1.9-0.1,3.1-1.1C17.5,15.2,16.5,14.3,18.3,13z"/>
				<linearGradient id="SVGID_37_" gradientUnits="userSpaceOnUse" x1="30.2809" y1="3.4737" x2="22.6405" y2="12.4429">
					<stop  offset="9.340660e-02" style="stop-color:#FFEDDE"/>
					<stop  offset="0.4107" style="stop-color:#F6E2D5"/>
					<stop  offset="0.9722" style="stop-color:#DFC4BB"/>
					<stop  offset="1" style="stop-color:#DEC2BA"/>
				</linearGradient>
				<path class="st100" d="M18.9,13.5c1.8-1.3,2.8-0.4,4.6-1.8c1.8-1.4,0.8-2.2,2.6-3.6c1.8-1.3,2.8-0.4,4.6-1.8
					c0.1-0.1,0.2-0.1,0.2-0.2h-0.1c-0.1,0.1-0.1,0.1-0.2,0.2c-1.8,1.3-2.8,0.4-4.6,1.8c-1.8,1.4-0.8,2.2-2.6,3.6
					C21.7,13.1,20.7,12.2,18.9,13.5c-1.9,1.3-0.8,2.2-2.6,3.5c-0.4,0.3-0.7,0.4-1,0.6h0.1c0.3-0.1,0.6-0.3,0.9-0.5
					C18.1,15.8,17.1,14.9,18.9,13.5z"/>
				<path class="st101" d="M19.5,14.1c1.8-1.3,2.8-0.4,4.6-1.8c1.8-1.4,0.8-2.2,2.6-3.6c1.8-1.3,2.8-0.4,4.6-1.8
					c0.3-0.3,0.6-0.5,0.8-0.7H32c-0.2,0.2-0.4,0.4-0.7,0.7c-1.8,1.3-2.8,0.4-4.6,1.8c-1.8,1.4-0.8,2.2-2.6,3.6
					C22.3,13.6,21.3,12.7,19.5,14.1c-1.9,1.3-0.8,2.2-2.6,3.5c0,0,0,0-0.1,0h0.1c0,0,0,0,0,0C18.7,16.3,17.7,15.4,19.5,14.1z"/>
				<linearGradient id="SVGID_38_" gradientUnits="userSpaceOnUse" x1="31.6304" y1="4.4395" x2="24.0079" y2="13.3877">
					<stop  offset="9.340660e-02" style="stop-color:#FFEDDE"/>
					<stop  offset="0.4107" style="stop-color:#F6E2D5"/>
					<stop  offset="0.9722" style="stop-color:#DFC4BB"/>
					<stop  offset="1" style="stop-color:#DEC2BA"/>
				</linearGradient>
				<path class="st102" d="M20.1,14.6c1.8-1.3,2.8-0.4,4.6-1.8c1.8-1.4,0.8-2.3,2.6-3.6c1.8-1.3,2.8-0.4,4.6-1.8
					c0.6-0.5,0.9-0.9,1.1-1.3H33c-0.2,0.4-0.5,0.8-1.1,1.2c-1.8,1.3-2.8,0.4-4.6,1.8c-1.8,1.4-0.8,2.2-2.6,3.6
					C22.9,14.1,21.9,13.2,20.1,14.6c-1.7,1.1-1.1,2-2.1,3h0.1C19.2,16.6,18.6,15.8,20.1,14.6z"/>
				<linearGradient id="SVGID_39_" gradientUnits="userSpaceOnUse" x1="32.2846" y1="4.9252" x2="24.6694" y2="13.8649">
					<stop  offset="9.340660e-02" style="stop-color:#FFEDDE"/>
					<stop  offset="0.4107" style="stop-color:#F6E2D5"/>
					<stop  offset="0.9722" style="stop-color:#DFC4BB"/>
					<stop  offset="1" style="stop-color:#DEC2BA"/>
				</linearGradient>
				<path class="st103" d="M20.7,15.1c1.8-1.3,2.8-0.4,4.6-1.8c1.8-1.4,0.8-2.2,2.6-3.6c1.8-1.3,2.8-0.4,4.6-1.8
					c0.9-0.7,1.1-1.2,1.3-1.8h-0.1c-0.2,0.5-0.4,1.1-1.3,1.8c-1.8,1.3-2.8,0.4-4.6,1.8c-1.8,1.4-0.8,2.2-2.6,3.6
					C23.5,14.6,22.5,13.8,20.7,15.1c-1.3,0.9-1.2,1.7-1.7,2.5h0.1C19.6,16.8,19.5,16.1,20.7,15.1z"/>
				<linearGradient id="SVGID_40_" gradientUnits="userSpaceOnUse" x1="32.9402" y1="5.4095" x2="25.3261" y2="14.348">
					<stop  offset="9.340660e-02" style="stop-color:#FFEDDE"/>
					<stop  offset="0.4107" style="stop-color:#F6E2D5"/>
					<stop  offset="0.9722" style="stop-color:#DFC4BB"/>
					<stop  offset="1" style="stop-color:#DEC2BA"/>
				</linearGradient>
				<path class="st104" d="M21.4,15.7c1.8-1.3,2.8-0.4,4.6-1.8c1.8-1.4,0.8-2.2,2.6-3.6c1.8-1.3,2.8-0.4,4.6-1.8
					c1.2-0.9,1.2-1.6,1.5-2.3h-0.1c-0.3,0.7-0.3,1.4-1.5,2.3c-1.8,1.3-2.8,0.4-4.6,1.8c-1.8,1.4-0.8,2.2-2.6,3.6
					C24.2,15.2,23.1,14.3,21.4,15.7c-1.1,0.7-1.2,1.3-1.4,2H20C20.2,17,20.4,16.4,21.4,15.7z"/>
				<linearGradient id="SVGID_41_" gradientUnits="userSpaceOnUse" x1="33.6019" y1="5.8863" x2="25.9821" y2="14.8314">
					<stop  offset="9.340660e-02" style="stop-color:#FFEDDE"/>
					<stop  offset="0.4107" style="stop-color:#F6E2D5"/>
					<stop  offset="0.9722" style="stop-color:#DFC4BB"/>
					<stop  offset="1" style="stop-color:#DEC2BA"/>
				</linearGradient>
				<path class="st105" d="M22,16.2c1.8-1.3,2.8-0.4,4.6-1.8c1.8-1.4,0.8-2.2,2.6-3.6c1.8-1.3,2.8-0.4,4.6-1.8
					c1.5-1.1,1.1-1.9,1.8-2.9h-0.1c-0.7,1-0.4,1.7-1.8,2.8c-1.8,1.3-2.8,0.4-4.6,1.8c-1.8,1.4-0.8,2.2-2.6,3.6
					C24.8,15.7,23.8,14.8,22,16.2c-0.8,0.5-1.1,1-1.3,1.4h0.1C21,17.2,21.3,16.7,22,16.2z"/>
				<linearGradient id="SVGID_42_" gradientUnits="userSpaceOnUse" x1="34.2691" y1="6.3572" x2="26.6439" y2="15.3086">
					<stop  offset="9.340660e-02" style="stop-color:#FFEDDE"/>
					<stop  offset="0.4107" style="stop-color:#F6E2D5"/>
					<stop  offset="0.9722" style="stop-color:#DFC4BB"/>
					<stop  offset="1" style="stop-color:#DEC2BA"/>
				</linearGradient>
				<path class="st106" d="M22.6,16.7c1.8-1.3,2.8-0.4,4.6-1.8c1.8-1.4,0.8-2.2,2.6-3.6c1.8-1.3,2.8-0.4,4.6-1.8
					c1.7-1.3,0.9-2.2,2.3-3.4h-0.1c-1.4,1.2-0.6,2.1-2.3,3.3c-1.8,1.3-2.8,0.4-4.6,1.8c-1.8,1.4-0.8,2.2-2.6,3.6
					C25.4,16.2,24.4,15.4,22.6,16.7c-0.5,0.3-0.8,0.6-1,0.9h0.1C21.9,17.4,22.1,17.1,22.6,16.7z"/>
				<linearGradient id="SVGID_43_" gradientUnits="userSpaceOnUse" x1="34.9521" y1="6.8195" x2="27.3174" y2="15.782">
					<stop  offset="9.340660e-02" style="stop-color:#FFEDDE"/>
					<stop  offset="0.4107" style="stop-color:#F6E2D5"/>
					<stop  offset="0.9722" style="stop-color:#DFC4BB"/>
					<stop  offset="1" style="stop-color:#DEC2BA"/>
				</linearGradient>
				<path class="st107" d="M23.2,17.3c1.8-1.3,2.8-0.4,4.6-1.8c1.8-1.4,0.8-2.2,2.6-3.6c1.8-1.3,2.8-0.4,4.6-1.8
					c1.8-1.4,0.8-2.2,2.6-3.6c0.2-0.1,0.4-0.2,0.5-0.3h-0.1c-0.2,0.1-0.3,0.2-0.5,0.3c-1.8,1.4-0.8,2.2-2.6,3.6
					c-1.8,1.3-2.8,0.4-4.6,1.8c-1.8,1.4-0.8,2.2-2.6,3.6C26,16.8,25,15.9,23.2,17.3c-0.2,0.1-0.4,0.2-0.5,0.4h0.1
					C22.9,17.5,23,17.4,23.2,17.3z"/>
				<linearGradient id="SVGID_44_" gradientUnits="userSpaceOnUse" x1="35.9982" y1="7.518" x2="28.332" y2="16.5176">
					<stop  offset="9.340660e-02" style="stop-color:#FFEDDE"/>
					<stop  offset="0.4107" style="stop-color:#F6E2D5"/>
					<stop  offset="0.9722" style="stop-color:#DFC4BB"/>
					<stop  offset="1" style="stop-color:#DEC2BA"/>
				</linearGradient>
				<path class="st108" d="M31,12.5c1.8-1.3,2.8-0.4,4.6-1.8c1.8-1.4,0.8-2.3,2.6-3.6c0.9-0.7,1.6-0.8,2.3-0.9h-0.5
					c-0.6,0.1-1.2,0.3-1.9,0.8c-1.8,1.4-0.8,2.2-2.6,3.6C33.8,11.9,32.8,11,31,12.5c-1.9,1.3-0.9,2.2-2.7,3.5
					c-1.7,1.3-2.7,0.5-4.5,1.7h0.2c1.6-1.1,2.6-0.3,4.4-1.6C30.3,14.7,29.3,13.8,31,12.5z"/>
			</g>
		</g>
		<g>
			<path class="st0" d="M34.3,18.2c0,0-0.1-1.1-0.3-1.1h-3.8c-0.2,0-0.2,1.2-0.2,1.5l-0.3,4.6c0,0.3,0.6,0.3,0.9,0.3l3.5,0
				c0.3,0,0.8-0.1,0.8-0.4L34.3,18.2z"/>
			<path class="st1" d="M34.3,18.3c0,0-0.1-1.1-0.3-1.1h-3.8c-0.2,0-0.2,1.2-0.2,1.5l-0.3,4.6c0,0.3,0.6,0.3,0.9,0.3l3.4,0
				c0.3,0,0.8-0.1,0.8-0.4L34.3,18.3z"/>
			<path class="st50" d="M34.3,18.3c0,0-0.1-1.2-0.3-1.2h-3.8c-0.2,0-0.2,1.2-0.2,1.5l-0.3,4.5c0,0.3,0.5,0.3,0.8,0.3l3.4,0
				c0.3,0,0.8-0.1,0.7-0.4L34.3,18.3z"/>
			<path class="st51" d="M34.3,18.3c0,0-0.1-1.2-0.3-1.2h-3.7c-0.2,0-0.2,1.2-0.2,1.5l-0.3,4.5c0,0.3,0.5,0.3,0.8,0.3l3.4,0
				c0.3,0,0.7-0.1,0.7-0.4L34.3,18.3z"/>
			<path class="st52" d="M34.3,18.3c0-0.1-0.1-1.2-0.3-1.2h-3.7c-0.2,0-0.2,1.2-0.2,1.5l-0.3,4.5c0,0.3,0.5,0.3,0.8,0.3l3.4,0
				c0.3,0,0.7-0.1,0.7-0.4L34.3,18.3z"/>
			<path class="st53" d="M34.3,18.4c0-0.1-0.1-1.2-0.3-1.2h-3.6c-0.2,0-0.2,1.1-0.2,1.5l-0.3,4.5c0,0.3,0.5,0.3,0.8,0.3l3.3,0
				c0.3,0,0.7-0.1,0.7-0.4L34.3,18.4z"/>
			<path class="st54" d="M34.3,18.4c0-0.1-0.1-1.2-0.3-1.2h-3.6c-0.2,0-0.3,1.1-0.3,1.5l-0.3,4.5c0,0.3,0.5,0.3,0.8,0.3l3.3,0
				c0.3,0,0.7-0.1,0.7-0.4L34.3,18.4z"/>
			<path class="st55" d="M34.3,18.4c0-0.1-0.1-1.2-0.3-1.2h-3.6c-0.2,0-0.3,1.1-0.3,1.5l-0.3,4.5c0,0.3,0.5,0.3,0.7,0.3l3.3,0
				c0.3,0,0.7-0.1,0.7-0.4L34.3,18.4z"/>
			<path class="st56" d="M34.3,18.5c0-0.1-0.1-1.3-0.3-1.3h-3.5c-0.2,0-0.3,1.1-0.3,1.4l-0.3,4.5c0,0.3,0.4,0.3,0.7,0.3l3.3,0
				c0.3,0,0.7,0,0.6-0.3L34.3,18.5z"/>
			<path class="st57" d="M34.2,18.5c0-0.2-0.1-1.3-0.3-1.3h-3.5c-0.2,0-0.3,1.1-0.3,1.4L30,23.1c0,0.3,0.4,0.2,0.7,0.2l3.2,0
				c0.3,0,0.6,0,0.6-0.3L34.2,18.5z"/>
			<path class="st58" d="M34.2,18.5c0-0.2-0.1-1.3-0.3-1.3h-3.5c-0.2,0-0.3,1.1-0.3,1.4L30,23.1c0,0.3,0.4,0.2,0.7,0.2l3.2,0
				c0.3,0,0.6,0,0.6-0.3L34.2,18.5z"/>
			<path class="st59" d="M34.2,18.5c0-0.2-0.1-1.3-0.2-1.3h-3.4c-0.2,0-0.3,1.1-0.3,1.4L30,23.1c0,0.3,0.4,0.2,0.7,0.2l3.2,0
				c0.3,0,0.6,0,0.6-0.3L34.2,18.5z"/>
			<path class="st60" d="M34.2,18.6c0-0.2-0.1-1.3-0.2-1.3h-3.4c-0.2,0-0.3,1.1-0.3,1.4l-0.2,4.5c0,0.3,0.4,0.2,0.6,0.2l3.2,0
				c0.3,0,0.6,0,0.6-0.3L34.2,18.6z"/>
			<path class="st61" d="M34.2,18.6c0-0.2-0.1-1.3-0.2-1.3h-3.4c-0.2,0-0.3,1.1-0.3,1.4l-0.2,4.5c0,0.3,0.3,0.2,0.6,0.2l3.1,0
				c0.3,0,0.6,0,0.6-0.3L34.2,18.6z"/>
			<path class="st62" d="M34.2,18.6c0-0.3-0.1-1.4-0.2-1.4h-3.3c-0.2,0-0.3,1.1-0.3,1.4l-0.2,4.4c0,0.3,0.3,0.2,0.6,0.2l3.1,0
				c0.3,0,0.5,0,0.5-0.3L34.2,18.6z"/>
			<path class="st63" d="M34.2,18.7c0-0.3-0.1-1.4-0.2-1.4h-3.3c-0.2,0-0.3,1.1-0.3,1.4l-0.2,4.4c0,0.3,0.3,0.2,0.6,0.2l3.1,0
				c0.3,0,0.5,0,0.5-0.3L34.2,18.7z"/>
			<path class="st64" d="M34.2,18.7c0-0.3-0.1-1.4-0.2-1.4h-3.2c-0.2,0-0.3,1.1-0.3,1.4l-0.2,4.4c0,0.3,0.3,0.2,0.6,0.2h3.1
				c0.3,0,0.5,0,0.5-0.3L34.2,18.7z"/>
		</g>
		<g>
			<linearGradient id="SVGID_45_" gradientUnits="userSpaceOnUse" x1="44.2867" y1="6.1683" x2="-5.3431" y2="6.1683">
				<stop  offset="5.494510e-03" style="stop-color:#ED9E9E"/>
				<stop  offset="0.2033" style="stop-color:#FFEDE6"/>
				<stop  offset="0.3465" style="stop-color:#FCE2DC"/>
				<stop  offset="0.6006" style="stop-color:#F6C4C0"/>
				<stop  offset="0.8626" style="stop-color:#ED9E9E"/>
			</linearGradient>
			<rect x="2" y="6" class="st109" width="38.8" height="0.3"/>
		</g>
		<g>
			<linearGradient id="SVGID_46_" gradientUnits="userSpaceOnUse" x1="44.2867" y1="17.6498" x2="-5.3431" y2="17.6498">
				<stop  offset="5.494510e-03" style="stop-color:#ED9E9E"/>
				<stop  offset="0.2033" style="stop-color:#FFEDE6"/>
				<stop  offset="0.3465" style="stop-color:#FCE2DC"/>
				<stop  offset="0.6006" style="stop-color:#F6C4C0"/>
				<stop  offset="0.8626" style="stop-color:#ED9E9E"/>
			</linearGradient>
			<rect x="2" y="17.5" class="st110" width="38.8" height="0.3"/>
		</g>
		
			<linearGradient id="SVGID_47_" gradientUnits="userSpaceOnUse" x1="32.2679" y1="-372.7618" x2="32.2679" y2="-366.3524" gradientTransform="matrix(1 0 0 -1 0 -349.4142)">
			<stop  offset="0" style="stop-color:#A4003C"/>
			<stop  offset="1.548404e-02" style="stop-color:#C33062"/>
			<stop  offset="3.098108e-02" style="stop-color:#DD5982"/>
			<stop  offset="4.510377e-02" style="stop-color:#EF779A"/>
			<stop  offset="5.722363e-02" style="stop-color:#FB89A8"/>
			<stop  offset="6.593410e-02" style="stop-color:#FF8FAD"/>
			<stop  offset="6.855980e-02" style="stop-color:#FE8CAA"/>
			<stop  offset="9.109480e-02" style="stop-color:#F57396"/>
			<stop  offset="0.1148" style="stop-color:#EF6288"/>
			<stop  offset="0.1402" style="stop-color:#EB5780"/>
			<stop  offset="0.1703" style="stop-color:#EA547D"/>
			<stop  offset="0.2482" style="stop-color:#DD406A"/>
			<stop  offset="0.3518" style="stop-color:#D02C58"/>
			<stop  offset="0.4558" style="stop-color:#C9204D"/>
			<stop  offset="0.5604" style="stop-color:#C61C49"/>
			<stop  offset="0.6079" style="stop-color:#BD1945"/>
			<stop  offset="0.6869" style="stop-color:#A30F3C"/>
			<stop  offset="0.7872" style="stop-color:#7A012C"/>
			<stop  offset="0.7912" style="stop-color:#78002B"/>
		</linearGradient>
		<path class="st111" d="M34.1,17.5c0-0.3-0.1-0.6-0.2-0.6h-3.1c-0.2,0-0.2,0.4-0.2,0.6l-0.1,5.7c0,0.1,0.1,0.1,0.3,0.1h3.2
			c0.2,0,0.3,0,0.3-0.1L34.1,17.5z"/>
		<g>
			<g class="st112">
				<path class="st0" d="M27.6,16.9c-0.2,0.6,0.3,3.3,0.7,3.3c0.9,0,4.8-1.1,5-3.3C33.4,15.9,28,16,27.6,16.9z"/>
				<path class="st113" d="M27.7,16.9c-0.2,0.6,0.3,3.3,0.7,3.3c0.9,0,4.8-1.1,5-3.3C33.4,15.9,28,16,27.7,16.9z"/>
				<path class="st114" d="M27.7,16.9c-0.2,0.6,0.3,3.2,0.7,3.2c0.9,0,4.8-1.1,4.9-3.2C33.3,15.9,28,16,27.7,16.9z"/>
				<path class="st115" d="M27.7,16.9c-0.2,0.6,0.3,3.2,0.7,3.2c0.9,0,4.7-1.1,4.9-3.2C33.3,15.9,28,16.1,27.7,16.9z"/>
				<path class="st116" d="M27.7,16.9c-0.2,0.6,0.3,3.1,0.7,3.1c0.9,0,4.7-1.1,4.8-3.1C33.3,16,28,16.1,27.7,16.9z"/>
				<path class="st117" d="M27.7,16.9C27.5,17.5,28,20,28.4,20c0.9,0,4.7-1,4.8-3.1C33.2,16,28.1,16.1,27.7,16.9z"/>
				<path class="st118" d="M27.7,17c-0.2,0.5,0.2,3,0.6,3c0.8,0,4.6-1,4.7-3C33.2,16,28.1,16.1,27.7,17z"/>
				<path class="st119" d="M27.8,17c-0.2,0.5,0.2,3,0.6,3c0.8,0,4.6-1,4.7-3C33.1,16,28.1,16.1,27.8,17z"/>
				<path class="st120" d="M27.8,17c-0.2,0.5,0.2,2.9,0.6,2.9c0.8,0,4.5-1,4.7-2.9C33.1,16,28.1,16.1,27.8,17z"/>
				<path class="st121" d="M27.8,17c-0.2,0.5,0.2,2.9,0.6,2.9c0.8,0,4.5-1,4.6-2.9C33,16,28.1,16.2,27.8,17z"/>
				<path class="st122" d="M27.8,17c-0.2,0.5,0.2,2.8,0.6,2.8c0.8,0,4.5-0.9,4.6-2.8C33,16.1,28.1,16.2,27.8,17z"/>
				<path class="st123" d="M27.8,17c-0.2,0.5,0.2,2.8,0.5,2.8c0.8,0,4.4-0.9,4.5-2.7C33,16.1,28.1,16.2,27.8,17z"/>
				<path class="st124" d="M27.9,17c-0.2,0.5,0.2,2.7,0.5,2.7c0.8,0,4.4-0.9,4.5-2.7C32.9,16.1,28.2,16.2,27.9,17z"/>
				<path class="st125" d="M27.9,17c-0.2,0.5,0.2,2.7,0.5,2.7c0.8,0,4.4-0.9,4.5-2.6C32.9,16.1,28.2,16.2,27.9,17z"/>
				<path class="st126" d="M27.9,17c-0.2,0.5,0.2,2.6,0.5,2.6c0.7,0,4.3-0.8,4.4-2.6C32.8,16.1,28.2,16.2,27.9,17z"/>
				<path class="st127" d="M27.9,17c-0.2,0.5,0.1,2.6,0.5,2.6c0.7,0,4.3-0.8,4.4-2.5C32.8,16.1,28.2,16.2,27.9,17z"/>
				<path class="st128" d="M27.9,17c-0.2,0.5,0.1,2.5,0.4,2.5c0.7,0,4.3-0.8,4.3-2.5C32.8,16.2,28.2,16.3,27.9,17z"/>
				<path class="st129" d="M28,17c-0.2,0.5,0.1,2.5,0.4,2.4c0.7,0,4.2-0.8,4.3-2.4C32.7,16.2,28.2,16.3,28,17z"/>
				<path class="st130" d="M28,17c-0.2,0.4,0.1,2.4,0.4,2.4c0.7,0,4.2-0.8,4.3-2.4C32.7,16.2,28.2,16.3,28,17z"/>
				<path class="st131" d="M28,17c-0.2,0.4,0.1,2.4,0.4,2.3c0.7,0,4.2-0.7,4.2-2.3C32.6,16.2,28.3,16.3,28,17z"/>
				<path class="st132" d="M28,17c-0.2,0.4,0.1,2.3,0.4,2.3c0.7,0,4.1-0.7,4.2-2.3C32.6,16.2,28.3,16.3,28,17z"/>
				<path class="st133" d="M28,17c-0.2,0.4,0.1,2.3,0.4,2.2c0.7,0,4.1-0.7,4.1-2.2C32.5,16.2,28.3,16.3,28,17z"/>
			</g>
			<g class="st112">
				<path class="st0" d="M37.5,17.8c0.4,0.6-0.2,2.4-0.7,2.5c-1,0.2-4.1-0.9-4.8-2.7C31.6,16.5,36.9,16.9,37.5,17.8z"/>
				<path class="st113" d="M37.5,17.8c0.4,0.6-0.2,2.3-0.7,2.4c-1,0.2-4.1-0.9-4.8-2.7C31.6,16.5,36.9,16.9,37.5,17.8z"/>
				<path class="st114" d="M37.5,17.8c0.4,0.6-0.2,2.3-0.7,2.4c-1,0.2-4.1-0.9-4.7-2.7C31.7,16.5,36.9,16.9,37.5,17.8z"/>
				<path class="st115" d="M37.4,17.8c0.3,0.5-0.2,2.3-0.7,2.4c-1,0.2-4.1-1-4.7-2.6C31.7,16.5,36.9,16.9,37.4,17.8z"/>
				<path class="st116" d="M37.4,17.8c0.3,0.5-0.2,2.2-0.6,2.3c-1,0.2-4.1-1-4.6-2.6C31.7,16.5,36.9,16.9,37.4,17.8z"/>
				<path class="st117" d="M37.4,17.7c0.3,0.5-0.2,2.2-0.6,2.3c-0.9,0.2-4-1-4.6-2.6C31.8,16.5,36.8,16.9,37.4,17.7z"/>
				<path class="st118" d="M37.3,17.7c0.3,0.5-0.2,2.1-0.6,2.2c-0.9,0.2-4-1-4.6-2.5C31.8,16.5,36.8,16.9,37.3,17.7z"/>
				<path class="st119" d="M37.3,17.7c0.3,0.5-0.2,2.1-0.6,2.2c-0.9,0.2-4-1-4.5-2.5C31.9,16.5,36.8,16.9,37.3,17.7z"/>
				<path class="st120" d="M37.3,17.7c0.3,0.5-0.2,2.1-0.6,2.2c-0.9,0.2-4-1-4.5-2.5C31.9,16.5,36.8,16.9,37.3,17.7z"/>
				<path class="st121" d="M37.3,17.7c0.3,0.5-0.2,2-0.6,2.1c-0.9,0.2-4-1-4.5-2.5C31.9,16.5,36.8,17,37.3,17.7z"/>
				<path class="st122" d="M37.2,17.7c0.3,0.5-0.2,2-0.6,2.1c-0.9,0.2-4-1-4.4-2.4C32,16.5,36.7,17,37.2,17.7z"/>
				<path class="st123" d="M37.2,17.7c0.3,0.5-0.2,1.9-0.6,2c-0.9,0.2-4-1-4.4-2.4C32,16.5,36.7,17,37.2,17.7z"/>
				<path class="st124" d="M37.2,17.7c0.3,0.5-0.2,1.9-0.6,2c-0.8,0.2-4-1-4.3-2.4C32,16.5,36.7,17,37.2,17.7z"/>
				<path class="st125" d="M37.1,17.7c0.3,0.5-0.2,1.9-0.6,1.9c-0.8,0.2-4-1.1-4.3-2.3C32.1,16.5,36.7,17,37.1,17.7z"/>
				<path class="st126" d="M37.1,17.7c0.3,0.5-0.2,1.8-0.6,1.9c-0.8,0.2-4-1.1-4.3-2.3C32.1,16.5,36.7,17,37.1,17.7z"/>
				<path class="st127" d="M37.1,17.7c0.3,0.5-0.2,1.8-0.6,1.9c-0.8,0.2-4-1.1-4.2-2.3C32.1,16.5,36.6,17,37.1,17.7z"/>
				<path class="st128" d="M37.1,17.7c0.3,0.4-0.2,1.7-0.5,1.8c-0.8,0.2-4-1.1-4.2-2.2C32.2,16.5,36.6,17,37.1,17.7z"/>
				<path class="st129" d="M37,17.7c0.3,0.4-0.2,1.7-0.5,1.8c-0.8,0.2-4-1.1-4.1-2.2C32.2,16.4,36.6,17,37,17.7z"/>
				<path class="st130" d="M37,17.7c0.3,0.4-0.2,1.7-0.5,1.7c-0.8,0.2-4-1.1-4.1-2.2C32.3,16.4,36.6,17,37,17.7z"/>
				<path class="st131" d="M37,17.7c0.3,0.4-0.2,1.6-0.5,1.7c-0.7,0.2-4-1.1-4.1-2.2C32.3,16.4,36.6,17,37,17.7z"/>
				<path class="st132" d="M37,17.7c0.3,0.4-0.2,1.6-0.5,1.7c-0.7,0.2-3.9-1.1-4-2.1C32.3,16.4,36.5,17,37,17.7z"/>
				<path class="st133" d="M36.9,17.7c0.3,0.4-0.2,1.5-0.5,1.6c-0.7,0.2-3.9-1.1-4-2.1C32.4,16.4,36.5,17.1,36.9,17.7z"/>
			</g>
			<g>
				
					<linearGradient id="SVGID_48_" gradientUnits="userSpaceOnUse" x1="20.7463" y1="88.4869" x2="23.0834" y2="88.4869" gradientTransform="matrix(0.8601 0.4625 -0.4483 0.8338 55.7399 -68.7884)">
					<stop  offset="0.2967" style="stop-color:#C31D49"/>
					<stop  offset="1" style="stop-color:#8E0026"/>
				</linearGradient>
				<path class="st134" d="M36.8,14c-0.1-0.1-0.3,0.2-1.4,0.6c-0.8,0.3-2,1.2-2.3,1.6c0.5-0.3,3.7-2,3.7-2
					C36.8,14.1,36.8,14,36.8,14z"/>
				
					<image style="overflow:visible;" width="21" height="23" xlink:href="45424CCA.png"  transform="matrix(0.24 0 0 0.24 32.2757 13.8927)">
				</image>
			</g>
			<g>
				
					<linearGradient id="SVGID_49_" gradientUnits="userSpaceOnUse" x1="-2.026" y1="103.1968" x2="2.8906" y2="103.1968" gradientTransform="matrix(0.9097 0.4152 -0.4152 0.9097 72.4306 -78.7643)">
					<stop  offset="0.1703" style="stop-color:#A5002C"/>
					<stop  offset="1" style="stop-color:#480013"/>
				</linearGradient>
				<path class="st135" d="M27.9,14.6c-0.1-0.1-0.2-0.6,0.3-0.4c0.5,0.2,3.3,0.6,4.1,2.1c-1-0.1-4.1-0.9-4.2-1.1
					C27.9,14.8,27.9,14.6,27.9,14.6z"/>
				
					<image style="overflow:visible;" width="19" height="21" xlink:href="45424CCE.png"  transform="matrix(0.24 0 0 0.24 27.7157 14.1327)">
				</image>
			</g>
			<g>
				
					<linearGradient id="SVGID_50_" gradientUnits="userSpaceOnUse" x1="24.5086" y1="77.22" x2="25.8899" y2="77.22" gradientTransform="matrix(-0.8923 0.528 0.5301 0.8916 12.4704 -66.9573)">
					<stop  offset="0.2967" style="stop-color:#C31D49"/>
					<stop  offset="1" style="stop-color:#8E0026"/>
				</linearGradient>
				<path class="st136" d="M29.5,14.1c0.1-0.1,0.3,0.2,1.2,0.6c0.6,0.4,1.5,1.2,1.8,1.6c-0.4-0.3-2.9-2-2.9-2.1
					C29.5,14.2,29.5,14.1,29.5,14.1z"/>
				
					<image style="overflow:visible;" width="17" height="20" xlink:href="45424CC9.png"  transform="matrix(0.24 0 0 0.24 28.9157 13.8927)">
				</image>
			</g>
			<g>
				
					<linearGradient id="SVGID_51_" gradientUnits="userSpaceOnUse" x1="23.0574" y1="69.4378" x2="24.6116" y2="69.4378" gradientTransform="matrix(0.8807 0.4764 -0.5129 1.0019 48.8194 -65.7753)">
					<stop  offset="0.2967" style="stop-color:#C31D49"/>
					<stop  offset="1" style="stop-color:#8E0026"/>
				</linearGradient>
				<path class="st137" d="M35.6,14.1c-0.1-0.1-0.2,0.2-1,0.5C34,15,33,15.8,32.8,16.2c0.4-0.3,2.7-1.9,2.7-1.9
					C35.6,14.2,35.6,14.1,35.6,14.1z"/>
				
					<image style="overflow:visible;" width="16" height="19" xlink:href="45424CCB.png"  transform="matrix(0.24 0 0 0.24 32.2757 13.8927)">
				</image>
			</g>
			<g>
				<path class="st138" d="M32.7,15.9c0.1-0.1,0.4-0.1,0.4,0c0,0.1,0.4,1.2,0,1.8c-0.5,0.7-0.9-0.1-0.8-0.1
					C32.4,17.5,32.7,15.9,32.7,15.9z"/>
				<path class="st139" d="M32.7,15.9c0.1-0.1,0.4-0.1,0.4,0c0,0.1,0.4,1.2,0,1.7c-0.5,0.7-0.8-0.1-0.8-0.1
					C32.4,17.5,32.7,15.9,32.7,15.9z"/>
				<path class="st140" d="M32.7,15.9c0.1-0.1,0.4-0.1,0.4,0c0,0.1,0.3,1.2,0,1.7c-0.5,0.6-0.8-0.1-0.7-0.1
					C32.4,17.5,32.7,15.9,32.7,15.9z"/>
				<path class="st141" d="M32.7,15.9c0.1-0.1,0.4-0.1,0.4,0c0,0.1,0.3,1.2-0.1,1.7c-0.5,0.6-0.8-0.1-0.7-0.1
					C32.4,17.5,32.7,15.9,32.7,15.9z"/>
				<path class="st142" d="M32.7,15.9c0.1-0.1,0.4-0.1,0.4,0c0,0.1,0.3,1.2-0.1,1.7c-0.4,0.6-0.7-0.1-0.7-0.1
					C32.4,17.5,32.7,15.9,32.7,15.9z"/>
				<path class="st143" d="M32.7,15.9c0.1-0.1,0.3-0.1,0.4,0c0,0.1,0.3,1.2-0.1,1.7c-0.4,0.5-0.7-0.1-0.6-0.1
					C32.4,17.5,32.7,15.9,32.7,15.9z"/>
				<path class="st144" d="M32.7,15.9c0.1-0.1,0.3-0.1,0.4,0c0,0.1,0.3,1.2-0.1,1.7c-0.4,0.5-0.7-0.1-0.6-0.1
					C32.4,17.5,32.7,15.9,32.7,15.9z"/>
				<path class="st145" d="M32.7,15.9c0.1-0.1,0.3-0.1,0.4,0c0,0.1,0.3,1.2-0.1,1.7c-0.4,0.5-0.6-0.1-0.6-0.1
					C32.4,17.5,32.7,15.9,32.7,15.9z"/>
				<path class="st146" d="M32.7,15.9c0.1-0.1,0.3-0.1,0.3,0c0,0.1,0.3,1.2-0.2,1.7c-0.4,0.5-0.6-0.1-0.6-0.1
					C32.4,17.5,32.7,15.9,32.7,15.9z"/>
				<path class="st147" d="M32.7,15.9c0.1-0.1,0.3-0.1,0.3,0c0,0.1,0.2,1.2-0.2,1.7c-0.4,0.4-0.6-0.1-0.5-0.1
					C32.4,17.5,32.7,15.9,32.7,15.9z"/>
				<path class="st148" d="M32.7,15.9c0.1-0.1,0.3-0.1,0.3,0c0,0.1,0.2,1.2-0.2,1.7c-0.4,0.4-0.5-0.1-0.5-0.1
					C32.4,17.5,32.7,15.9,32.7,15.9z"/>
				<path class="st149" d="M32.7,15.9c0.1-0.1,0.3-0.1,0.3,0c0,0.1,0.2,1.2-0.2,1.7c-0.3,0.4-0.5-0.1-0.5-0.1
					C32.4,17.5,32.7,15.9,32.7,15.9z"/>
				<path class="st150" d="M32.7,15.9c0.1-0.1,0.3-0.1,0.3,0c0,0.1,0.2,1.2-0.2,1.7c-0.3,0.4-0.5-0.1-0.4-0.1
					C32.4,17.5,32.7,15.9,32.7,15.9z"/>
				<path class="st151" d="M32.7,15.9c0.1-0.1,0.3,0,0.3,0c0,0.1,0.2,1.2-0.2,1.6c-0.3,0.3-0.4-0.1-0.4-0.1
					C32.4,17.5,32.7,15.9,32.7,15.9z"/>
				<path class="st152" d="M32.8,15.9c0.1-0.1,0.2,0,0.3,0c0,0.1,0.2,1.2-0.3,1.6c-0.3,0.3-0.4-0.1-0.4-0.1
					C32.4,17.5,32.8,15.9,32.8,15.9z"/>
				<path class="st153" d="M32.8,15.9c0.1-0.1,0.2,0,0.3,0c0,0.1,0.2,1.2-0.3,1.6c-0.3,0.3-0.4-0.1-0.3-0.1
					C32.5,17.5,32.8,15.9,32.8,15.9z"/>
				<path class="st154" d="M32.8,15.9c0.1-0.1,0.2,0,0.2,0.1c0,0.1,0.1,1.2-0.3,1.6c-0.3,0.3-0.3-0.1-0.3-0.1
					C32.5,17.5,32.8,15.9,32.8,15.9z"/>
				<path class="st155" d="M32.8,15.9c0.1-0.1,0.2,0,0.2,0.1c0,0.1,0.1,1.2-0.3,1.6c-0.2,0.2-0.3-0.1-0.3-0.1
					C32.5,17.5,32.8,15.9,32.8,15.9z"/>
				<path class="st156" d="M32.8,15.9c0.1-0.1,0.2,0,0.2,0.1c0,0.1,0.1,1.2-0.3,1.6c-0.2,0.2-0.3-0.1-0.2-0.1
					C32.5,17.5,32.8,15.9,32.8,15.9z"/>
				<path class="st157" d="M32.8,15.9c0.1-0.1,0.2,0,0.2,0.1c0,0.1,0.1,1.2-0.3,1.6c-0.2,0.2-0.3-0.1-0.2-0.1
					C32.5,17.5,32.8,15.9,32.8,15.9z"/>
				<path class="st158" d="M32.8,15.9c0.1-0.1,0.2,0,0.2,0.1c0,0.1,0.1,1.2-0.4,1.6c-0.2,0.2-0.2-0.1-0.2-0.1
					C32.5,17.5,32.8,15.9,32.8,15.9z"/>
				<path class="st159" d="M32.8,16c0.1-0.1,0.2,0,0.2,0.1c0,0.1,0.1,1.2-0.4,1.6c-0.2,0.1-0.2-0.1-0.1-0.1
					C32.5,17.5,32.8,16,32.8,16z"/>
			</g>
			<g class="st160">
				<path class="st138" d="M32.3,16c0-0.1-0.3,0.1-0.3,0.2c-0.1,0.1-0.5,0.9-0.3,1.3c0.3,0.6,0.7,0.1,0.7,0.1
					C32.5,17.4,32.5,17.2,32.3,16z"/>
				<path class="st139" d="M32.3,16c0-0.1-0.3,0.1-0.3,0.2c-0.1,0.1-0.5,0.9-0.2,1.3c0.3,0.5,0.6,0.1,0.7,0.1
					C32.5,17.4,32.5,17.1,32.3,16z"/>
				<path class="st140" d="M32.3,16c0-0.1-0.3,0.1-0.3,0.2c-0.1,0.1-0.5,0.9-0.2,1.3c0.3,0.5,0.6,0.1,0.6,0.1
					C32.5,17.4,32.5,17.1,32.3,16z"/>
				<path class="st141" d="M32.3,16c0-0.1-0.3,0.1-0.3,0.2c-0.1,0.1-0.4,0.9-0.2,1.3c0.3,0.5,0.6,0.1,0.6,0.1
					C32.5,17.4,32.5,17,32.3,16z"/>
				<path class="st142" d="M32.3,16c0-0.1-0.3,0.1-0.3,0.2c-0.1,0.1-0.4,0.9-0.2,1.3c0.3,0.5,0.6,0.1,0.6,0.1
					C32.5,17.4,32.5,16.9,32.3,16z"/>
				<path class="st143" d="M32.4,16c0-0.1-0.3,0.1-0.3,0.2c-0.1,0.1-0.4,0.9-0.2,1.4c0.3,0.5,0.5,0.1,0.5,0.1
					C32.5,17.4,32.5,16.9,32.4,16z"/>
				<path class="st144" d="M32.4,16c0-0.1-0.3,0.1-0.3,0.1c0,0.1-0.4,0.9-0.1,1.4c0.2,0.4,0.5,0.1,0.5,0.1
					C32.5,17.4,32.5,16.8,32.4,16z"/>
				<path class="st145" d="M32.4,16c0-0.1-0.3,0.1-0.3,0.1c0,0.1-0.4,0.9-0.1,1.4c0.2,0.4,0.5,0.1,0.5,0.1
					C32.4,17.4,32.5,16.8,32.4,16z"/>
				<path class="st146" d="M32.4,16c0-0.1-0.3,0.1-0.3,0.1c0,0.1-0.4,0.9-0.1,1.4c0.2,0.4,0.4,0.1,0.4,0.1
					C32.4,17.4,32.5,16.7,32.4,16z"/>
				<path class="st147" d="M32.4,16c0-0.1-0.3,0.1-0.3,0.1c0,0.1-0.4,0.9-0.1,1.4c0.2,0.4,0.4,0.1,0.4,0.1
					C32.4,17.4,32.5,16.6,32.4,16z"/>
				<path class="st148" d="M32.4,16c0-0.1-0.3,0-0.3,0.1c0,0.1-0.4,0.9-0.1,1.4c0.2,0.3,0.4,0.1,0.4,0.1
					C32.4,17.4,32.5,16.6,32.4,16z"/>
				<path class="st149" d="M32.4,16c0-0.1-0.3,0-0.3,0.1c0,0.1-0.3,0.9,0,1.4c0.2,0.3,0.4,0.1,0.4,0C32.4,17.4,32.5,16.5,32.4,16z"
					/>
				<path class="st150" d="M32.4,16c0-0.1-0.3,0-0.3,0.1c0,0.1-0.3,0.9,0,1.4c0.2,0.3,0.3,0.1,0.3,0C32.4,17.4,32.5,16.5,32.4,16z"
					/>
				<path class="st151" d="M32.4,16c0-0.1-0.3,0-0.3,0.1c0,0.1-0.3,0.9,0,1.4c0.2,0.3,0.3,0.1,0.3,0C32.4,17.4,32.5,16.4,32.4,16z"
					/>
				<path class="st152" d="M32.4,16c0-0.1-0.3,0-0.3,0.1c0,0.1-0.3,1,0,1.4c0.2,0.3,0.3,0.1,0.3,0C32.4,17.4,32.5,16.3,32.4,16z"/>
				<path class="st153" d="M32.4,16c0-0.1-0.3,0-0.3,0.1c0,0.1-0.3,1,0,1.4c0.2,0.2,0.3,0.1,0.2,0C32.4,17.4,32.5,16.3,32.4,16z"/>
				<path class="st154" d="M32.4,16c0-0.1-0.3,0-0.3,0.1c0,0.1-0.3,1,0.1,1.5c0.2,0.2,0.2,0.1,0.2,0C32.4,17.4,32.5,16.2,32.4,16z"
					/>
				<path class="st155" d="M32.4,16c0-0.1-0.3,0-0.3,0.1c0,0.1-0.3,1,0.1,1.5c0.2,0.2,0.2,0.1,0.2,0C32.4,17.5,32.5,16.2,32.4,16z"
					/>
				<path class="st156" d="M32.4,16c0-0.1-0.3,0-0.3,0c0,0.1-0.3,1,0.1,1.5c0.1,0.2,0.2,0.1,0.1,0C32.4,17.5,32.5,16.1,32.4,16z"/>
				<path class="st157" d="M32.5,16c0-0.1-0.3,0-0.3,0c0,0.1-0.3,1,0.1,1.5c0.1,0.2,0.1,0.1,0.1,0C32.4,17.5,32.5,16.1,32.5,16z"/>
				<path class="st158" d="M32.5,16c0,0-0.3,0-0.3,0c0,0.1-0.3,1,0.2,1.5c0.1,0.1,0.1,0.1,0.1,0C32.4,17.5,32.5,16,32.5,16z"/>
				<path class="st159" d="M32.5,15.9c0,0-0.3,0-0.3,0c0,0.1-0.3,1,0.2,1.5c0.1,0.1,0.1,0,0.1,0C32.4,17.5,32.5,15.9,32.5,15.9z"/>
			</g>
			<g class="st160">
				<path class="st138" d="M32.4,16c0-0.1-0.2-0.1-0.3,0c0,0.1-0.2,0.7-0.1,1.3c0.1,0.9,0.6,0.6,0.6,0.5
					C32.7,17.5,32.5,17.4,32.4,16z"/>
				<path class="st139" d="M32.3,16c0-0.1-0.2-0.1-0.2,0c0,0.1-0.2,0.7-0.1,1.3c0.1,0.9,0.6,0.5,0.6,0.5
					C32.7,17.5,32.5,17.3,32.3,16z"/>
				<path class="st140" d="M32.3,16c0-0.1-0.2-0.1-0.2,0c0,0.1-0.2,0.7-0.1,1.3c0.1,0.9,0.6,0.5,0.6,0.5
					C32.6,17.5,32.5,17.2,32.3,16z"/>
				<path class="st141" d="M32.3,16c0-0.1-0.2-0.1-0.2,0c0,0.1-0.2,0.7-0.1,1.3c0.1,0.8,0.6,0.5,0.6,0.5
					C32.6,17.5,32.5,17.2,32.3,16z"/>
				<path class="st142" d="M32.3,16c0-0.1-0.2-0.1-0.2,0c0,0.1-0.2,0.7-0.1,1.3c0.1,0.8,0.6,0.5,0.6,0.4
					C32.6,17.5,32.5,17.1,32.3,16z"/>
				<path class="st143" d="M32.3,16c0-0.1-0.2-0.1-0.2,0c0,0.1-0.2,0.7-0.1,1.3c0.1,0.8,0.6,0.5,0.6,0.4C32.6,17.5,32.5,17,32.3,16z
					"/>
				<path class="st144" d="M32.3,16c0-0.1-0.2-0.1-0.2,0c0,0.1-0.2,0.7-0.1,1.3c0.1,0.7,0.5,0.4,0.5,0.4C32.6,17.5,32.5,17,32.3,16z
					"/>
				<path class="st145" d="M32.3,16c0-0.1-0.2-0.1-0.2,0c0,0.1-0.2,0.7-0.1,1.3c0.1,0.7,0.5,0.4,0.5,0.4
					C32.6,17.5,32.4,16.9,32.3,16z"/>
				<path class="st146" d="M32.3,16c0-0.1-0.2-0.1-0.2,0c0,0.1-0.2,0.7,0,1.3c0.1,0.7,0.5,0.4,0.5,0.4C32.6,17.5,32.4,16.8,32.3,16z
					"/>
				<path class="st147" d="M32.3,16c0-0.1-0.1-0.1-0.2,0c0,0.1-0.2,0.7,0,1.3c0.1,0.6,0.5,0.4,0.5,0.3C32.6,17.5,32.4,16.8,32.3,16z
					"/>
				<path class="st148" d="M32.3,16c0-0.1-0.1-0.1-0.2,0c0,0.1-0.2,0.7,0,1.4c0.1,0.6,0.5,0.4,0.5,0.3C32.6,17.5,32.4,16.7,32.3,16z
					"/>
				<path class="st149" d="M32.3,16c0-0.1-0.1-0.1-0.1,0c0,0.1-0.2,0.7,0,1.4c0.1,0.5,0.5,0.4,0.5,0.3C32.6,17.5,32.4,16.6,32.3,16z
					"/>
				<path class="st150" d="M32.3,16c0-0.1-0.1-0.1-0.1,0c0,0.1-0.2,0.7,0,1.4c0.1,0.5,0.4,0.3,0.4,0.3C32.6,17.5,32.4,16.6,32.3,16z
					"/>
				<path class="st151" d="M32.3,16c0-0.1-0.1,0-0.1,0c0,0.1-0.2,0.7,0,1.4c0.1,0.5,0.4,0.3,0.4,0.3C32.6,17.5,32.4,16.5,32.3,16z"
					/>
				<path class="st152" d="M32.3,16c0-0.1-0.1,0-0.1,0c0,0.1-0.1,0.7,0,1.4c0.1,0.4,0.4,0.3,0.4,0.3C32.6,17.5,32.3,16.4,32.3,16z"
					/>
				<path class="st153" d="M32.3,16c0-0.1-0.1,0-0.1,0c0,0.1-0.1,0.7,0,1.4c0.1,0.4,0.4,0.3,0.4,0.2C32.6,17.5,32.3,16.4,32.3,16z"
					/>
				<path class="st154" d="M32.2,16C32.2,15.9,32.2,15.9,32.2,16c-0.1,0.1-0.2,0.8-0.1,1.4c0.1,0.4,0.4,0.3,0.4,0.2
					C32.6,17.5,32.3,16.3,32.2,16z"/>
				<path class="st155" d="M32.2,16C32.2,15.9,32.2,15.9,32.2,16c-0.1,0.1-0.2,0.8,0,1.4c0.1,0.3,0.4,0.2,0.4,0.2
					C32.6,17.5,32.3,16.2,32.2,16z"/>
				<path class="st156" d="M32.2,16C32.2,15.9,32.2,15.9,32.2,16c-0.1,0.1-0.2,0.8,0,1.4c0.1,0.3,0.4,0.2,0.3,0.2
					C32.5,17.5,32.3,16.2,32.2,16z"/>
				<path class="st157" d="M32.2,16C32.2,15.9,32.2,16,32.2,16c-0.1,0.1-0.2,0.8,0,1.5c0.1,0.3,0.3,0.2,0.3,0.2
					C32.5,17.6,32.2,16.1,32.2,16z"/>
				<path class="st158" d="M32.2,16C32.2,15.9,32.2,16,32.2,16c-0.1,0.1-0.2,0.8,0,1.5c0.1,0.2,0.3,0.2,0.3,0.2
					C32.5,17.6,32.2,16,32.2,16z"/>
				<path class="st159" d="M32.2,16C32.2,15.9,32.2,16,32.2,16c-0.1,0.1-0.2,0.8,0,1.5c0.1,0.2,0.3,0.2,0.3,0.1
					C32.5,17.6,32.2,16,32.2,16z"/>
			</g>
			
				<linearGradient id="SVGID_52_" gradientUnits="userSpaceOnUse" x1="20.9199" y1="85.848" x2="21.5169" y2="86.6121" gradientTransform="matrix(0.8807 0.4736 -0.4736 0.8807 54.7332 -69.5309)">
				<stop  offset="7.142860e-02" style="stop-color:#C31D49"/>
				<stop  offset="0.1451" style="stop-color:#D62A57"/>
				<stop  offset="0.2248" style="stop-color:#E33362"/>
				<stop  offset="0.2967" style="stop-color:#E83665"/>
				<stop  offset="1" style="stop-color:#8E0026"/>
			</linearGradient>
			<path class="st161" d="M33,15.9c-0.4-0.2-0.9,0-0.9,0s0,1.2,0.2,1.6c0.1,0.2,0.4,0.2,0.5-0.4C33,16.5,33,15.9,33,15.9z"/>
		</g>
	</g>
	<text transform="matrix(1 0 0 1 3.3301 11.3427)" class="st162 st163 st164">Winecroft Gift Certificate</text>
</g>
</svg>
