<?xml version="1.0" encoding="utf-8"?>
<!-- Generator: Adobe Illustrator 16.0.0, SVG Export Plug-In . SVG Version: 6.00 Build 0)  -->
<!DOCTYPE svg PUBLIC "-//W3C//DTD SVG 1.1//EN" "http://www.w3.org/Graphics/SVG/1.1/DTD/svg11.dtd">
<svg version="1.1" id="Layer_1" xmlns="http://www.w3.org/2000/svg" xmlns:xlink="http://www.w3.org/1999/xlink" x="0px" y="0px"
	 width="113.625px" height="33.432px" viewBox="0 0 113.625 33.432" enable-background="new 0 0 113.625 33.432"
	 xml:space="preserve">
<path fill="#FFFFFF" d="M14.54,1.844c-5.452,0-9.886,4.434-9.886,9.886c0,5.45,4.434,9.882,9.886,9.882
	c5.451,0,9.886-4.433,9.886-9.882C24.426,6.276,19.991,1.844,14.54,1.844z M20.75,14.76c-0.155,0.396-0.385,0.736-0.682,1.034
	c-0.299,0.296-0.667,0.521-1.104,0.688c-0.439,0.17-0.936,0.253-1.492,0.253c-0.306,0-0.616-0.031-0.933-0.096
	c-0.316-0.062-0.623-0.149-0.918-0.265c-0.131-0.057-0.257-0.106-0.381-0.166c-0.084,0.042-0.166,0.093-0.255,0.13
	c-0.594,0.266-1.299,0.396-2.111,0.396c-0.745,0-1.413-0.127-2.003-0.382c-0.59-0.252-1.091-0.603-1.502-1.047
	c-0.411-0.447-0.726-0.979-0.946-1.589c-0.22-0.613-0.33-1.279-0.33-1.996c0-0.729,0.125-1.404,0.377-2.021
	C8.721,9.092,9.072,8.56,9.523,8.115c0.451-0.439,0.991-0.79,1.62-1.036c0.627-0.244,1.321-0.366,2.08-0.366
	c0.367,0,0.715,0.029,1.04,0.098c0.304,0.062,0.587,0.146,0.854,0.249c-0.103,0.075-0.2,0.151-0.29,0.238
	c-0.288,0.271-0.506,0.586-0.654,0.937c-0.064,0.151-0.111,0.305-0.147,0.458c-0.062-0.016-0.124-0.032-0.194-0.046
	c-0.177-0.036-0.385-0.054-0.623-0.054c-0.412,0-0.79,0.068-1.131,0.218c-0.341,0.146-0.633,0.354-0.878,0.625
	c-0.245,0.271-0.435,0.602-0.573,0.987c-0.136,0.386-0.205,0.814-0.205,1.3c0,0.502,0.069,0.952,0.205,1.34
	c0.138,0.388,0.323,0.715,0.559,0.986c0.235,0.266,0.51,0.47,0.825,0.604c0.315,0.146,0.652,0.209,1.01,0.209
	c0.207,0,0.396-0.01,0.565-0.024c0.172-0.021,0.329-0.061,0.476-0.105c0.146-0.049,0.285-0.112,0.417-0.19
	c0.132-0.075,0.265-0.176,0.4-0.293c0.053-0.044,0.113-0.082,0.176-0.107c0.062-0.027,0.158-0.049,0.225-0.048
	c0.162,0.004,0.329,0.104,0.404,0.148c0.136,0.086,0.292,0.185,0.464,0.281c0.173,0.104,0.372,0.197,0.596,0.284
	c0.224,0.083,0.489,0.127,0.794,0.127c0.414,0,0.736-0.091,0.965-0.271c0.228-0.183,0.343-0.471,0.343-0.863
	c0-0.229-0.063-0.413-0.188-0.562c-0.125-0.143-0.291-0.261-0.496-0.354c-0.204-0.098-0.437-0.181-0.696-0.249
	c-0.259-0.07-0.528-0.15-0.801-0.238c-0.274-0.088-0.542-0.196-0.801-0.325c-0.26-0.127-0.494-0.295-0.698-0.504
	c-0.203-0.208-0.369-0.469-0.494-0.78c-0.126-0.312-0.188-0.693-0.188-1.151c0-0.369,0.074-0.729,0.222-1.077
	c0.148-0.354,0.367-0.662,0.653-0.938c0.288-0.271,0.64-0.493,1.059-0.654c0.416-0.162,0.894-0.244,1.433-0.244
	c0.301,0,0.594,0.021,0.879,0.066c0.285,0.048,0.555,0.117,0.811,0.21s0.496,0.202,0.719,0.33c0.221,0.127,0.42,0.271,0.596,0.438
	l-0.569,1.053c-0.069,0.108-0.14,0.189-0.213,0.242c-0.075,0.056-0.17,0.082-0.287,0.082c-0.102,0-0.214-0.033-0.333-0.102
	c-0.118-0.062-0.252-0.14-0.403-0.219c-0.15-0.081-0.322-0.152-0.516-0.22c-0.193-0.062-0.412-0.098-0.659-0.098
	c-0.427,0-0.744,0.091-0.954,0.271c-0.209,0.183-0.312,0.428-0.312,0.737c0,0.195,0.063,0.357,0.188,0.491
	c0.125,0.131,0.292,0.24,0.495,0.338c0.204,0.095,0.437,0.18,0.7,0.259c0.263,0.079,0.532,0.167,0.805,0.264
	c0.274,0.098,0.543,0.207,0.806,0.339c0.263,0.131,0.495,0.296,0.699,0.499c0.206,0.2,0.37,0.447,0.496,0.737
	c0.125,0.289,0.188,0.64,0.188,1.043C20.986,13.941,20.908,14.365,20.75,14.76z"/>
<path fill="#FFFFFF" d="M34.317,14.194c0.056,0,0.109,0.011,0.163,0.029c0.052,0.021,0.106,0.055,0.154,0.104l0.903,0.948
	c-0.394,0.517-0.889,0.904-1.484,1.167c-0.596,0.264-1.298,0.396-2.113,0.396c-0.744,0-1.411-0.132-2.001-0.385
	c-0.589-0.254-1.091-0.604-1.502-1.052c-0.41-0.44-0.726-0.976-0.945-1.588c-0.22-0.61-0.33-1.276-0.33-1.996
	c0-0.729,0.125-1.401,0.375-2.017c0.253-0.611,0.605-1.144,1.056-1.585c0.45-0.444,0.99-0.789,1.619-1.036s1.322-0.371,2.081-0.371
	c0.367,0,0.714,0.032,1.04,0.098c0.325,0.064,0.631,0.154,0.912,0.271c0.284,0.115,0.544,0.251,0.781,0.411
	c0.237,0.156,0.45,0.335,0.633,0.523l-0.767,1.03c-0.049,0.062-0.108,0.121-0.176,0.171c-0.065,0.053-0.161,0.079-0.282,0.079
	c-0.081,0-0.157-0.021-0.23-0.055c-0.072-0.036-0.148-0.08-0.229-0.135c-0.079-0.053-0.168-0.104-0.266-0.169
	c-0.096-0.062-0.209-0.111-0.342-0.168c-0.133-0.051-0.289-0.096-0.466-0.132c-0.176-0.035-0.384-0.054-0.622-0.054
	c-0.413,0-0.79,0.073-1.132,0.219c-0.341,0.146-0.635,0.354-0.878,0.626c-0.246,0.271-0.437,0.604-0.575,0.986
	c-0.135,0.386-0.202,0.816-0.202,1.299c0,0.502,0.067,0.951,0.202,1.34c0.138,0.393,0.326,0.719,0.56,0.986
	c0.239,0.267,0.512,0.471,0.825,0.605c0.315,0.143,0.652,0.211,1.01,0.211c0.207,0,0.394-0.015,0.564-0.029
	c0.173-0.021,0.33-0.058,0.475-0.104c0.148-0.051,0.286-0.11,0.419-0.188c0.133-0.08,0.265-0.18,0.401-0.293
	c0.052-0.048,0.112-0.083,0.176-0.112C34.188,14.208,34.253,14.194,34.317,14.194z"/>
<path fill="#FFFFFF" d="M36.037,16.731V9.751h1.238c0.102,0,0.189,0.013,0.258,0.027c0.071,0.021,0.128,0.046,0.175,0.083
	c0.048,0.038,0.084,0.089,0.109,0.152c0.024,0.062,0.045,0.138,0.062,0.229l0.115,0.652c0.257-0.395,0.544-0.707,0.863-0.938
	c0.317-0.229,0.667-0.343,1.043-0.343c0.32,0,0.575,0.075,0.767,0.229L40.4,11.383c-0.02,0.095-0.054,0.157-0.109,0.195
	c-0.053,0.038-0.126,0.061-0.216,0.061c-0.076,0-0.166-0.011-0.27-0.03c-0.103-0.02-0.232-0.031-0.39-0.031
	c-0.547,0-0.977,0.293-1.292,0.875v4.28L36.037,16.731L36.037,16.731z"/>
<path fill="#FFFFFF" d="M43.838,9.645c0.463,0,0.886,0.072,1.268,0.214c0.384,0.146,0.714,0.354,0.991,0.627
	c0.276,0.274,0.491,0.609,0.646,1.008c0.155,0.396,0.231,0.85,0.231,1.354c0,0.154-0.004,0.286-0.018,0.383
	c-0.013,0.098-0.039,0.179-0.075,0.237c-0.038,0.058-0.083,0.099-0.146,0.116c-0.061,0.022-0.14,0.034-0.232,0.034h-4.026
	c0.067,0.584,0.244,1.006,0.532,1.271c0.286,0.263,0.656,0.394,1.109,0.394c0.244,0,0.451-0.026,0.625-0.088
	c0.176-0.057,0.333-0.12,0.47-0.194c0.137-0.068,0.262-0.139,0.376-0.191c0.115-0.061,0.235-0.088,0.36-0.088
	c0.166,0,0.291,0.062,0.377,0.182l0.606,0.748c-0.216,0.246-0.448,0.448-0.697,0.604c-0.25,0.153-0.506,0.275-0.769,0.365
	c-0.263,0.085-0.526,0.146-0.786,0.183c-0.263,0.031-0.515,0.052-0.752,0.052c-0.489,0-0.947-0.081-1.375-0.242
	c-0.432-0.155-0.805-0.395-1.126-0.708c-0.321-0.313-0.575-0.703-0.761-1.169c-0.186-0.467-0.279-1.011-0.279-1.629
	c0-0.466,0.081-0.909,0.24-1.327s0.387-0.782,0.685-1.097c0.299-0.313,0.663-0.563,1.084-0.748
	C42.824,9.735,43.302,9.645,43.838,9.645z M43.878,11.084c-0.401,0-0.709,0.114-0.936,0.345c-0.225,0.226-0.374,0.553-0.443,0.979
	h2.603c0-0.165-0.02-0.329-0.062-0.481c-0.044-0.158-0.112-0.301-0.209-0.425c-0.095-0.125-0.223-0.224-0.379-0.3
	C44.293,11.122,44.103,11.084,43.878,11.084z"/>
<path fill="#FFFFFF" d="M52.456,16.731c-0.199,0-0.347-0.025-0.447-0.079c-0.102-0.055-0.188-0.167-0.254-0.338l-0.148-0.384
	c-0.174,0.146-0.342,0.275-0.504,0.392c-0.162,0.11-0.327,0.207-0.501,0.286c-0.173,0.077-0.358,0.138-0.553,0.175
	c-0.195,0.036-0.41,0.062-0.648,0.062c-0.32,0-0.61-0.044-0.868-0.128c-0.262-0.081-0.483-0.204-0.664-0.365
	c-0.183-0.163-0.325-0.364-0.421-0.604c-0.099-0.237-0.149-0.52-0.149-0.833c0-0.251,0.064-0.505,0.19-0.765
	c0.125-0.26,0.343-0.499,0.652-0.712c0.309-0.212,0.728-0.396,1.252-0.538c0.526-0.146,1.189-0.215,1.986-0.215v-0.3
	c0-0.414-0.083-0.71-0.25-0.896c-0.17-0.184-0.409-0.271-0.719-0.271c-0.247,0-0.45,0.023-0.607,0.077
	c-0.158,0.057-0.297,0.115-0.421,0.186c-0.123,0.064-0.243,0.128-0.36,0.183c-0.115,0.057-0.257,0.082-0.416,0.082
	c-0.146,0-0.267-0.035-0.368-0.104c-0.102-0.068-0.181-0.155-0.239-0.263l-0.377-0.649c0.421-0.373,0.89-0.649,1.403-0.831
	c0.513-0.187,1.065-0.271,1.654-0.271c0.421,0,0.802,0.067,1.141,0.206c0.34,0.139,0.627,0.328,0.861,0.57
	c0.236,0.247,0.417,0.537,0.542,0.873c0.127,0.335,0.189,0.704,0.189,1.104v4.361L52.456,16.731L52.456,16.731z M50.059,15.46
	c0.27,0,0.504-0.048,0.706-0.143c0.205-0.095,0.409-0.248,0.613-0.458v-0.955c-0.417,0-0.76,0.026-1.03,0.082
	c-0.269,0.054-0.481,0.121-0.64,0.203c-0.156,0.082-0.264,0.176-0.326,0.279c-0.06,0.104-0.09,0.217-0.09,0.34
	c0,0.239,0.064,0.409,0.196,0.505C49.617,15.41,49.806,15.46,50.059,15.46z"/>
<path fill="#FFFFFF" d="M56.804,16.842c-0.332,0-0.624-0.054-0.878-0.146c-0.252-0.097-0.467-0.23-0.64-0.409
	c-0.173-0.178-0.305-0.391-0.393-0.643c-0.091-0.251-0.134-0.532-0.134-0.84v-3.608h-0.592c-0.109,0-0.2-0.034-0.277-0.104
	c-0.077-0.069-0.114-0.175-0.114-0.31V9.97l1.109-0.215l0.41-1.704c0.056-0.219,0.207-0.324,0.458-0.324h1.092v2.041h1.698v1.428
	h-1.698v3.465c0,0.161,0.039,0.295,0.116,0.399c0.08,0.104,0.193,0.158,0.341,0.158c0.076,0,0.142-0.012,0.192-0.023
	c0.05-0.016,0.094-0.033,0.133-0.053c0.038-0.021,0.075-0.038,0.107-0.056c0.035-0.02,0.074-0.021,0.119-0.021
	c0.062,0,0.108,0.015,0.146,0.044c0.039,0.029,0.079,0.074,0.118,0.138l0.634,0.987c-0.271,0.202-0.569,0.354-0.905,0.455
	C57.514,16.789,57.165,16.842,56.804,16.842z"/>
<path fill="#FFFFFF" d="M61.6,7.841c0,0.167-0.033,0.319-0.104,0.468C61.43,8.455,61.34,8.58,61.221,8.693
	c-0.117,0.11-0.25,0.198-0.404,0.263c-0.153,0.065-0.317,0.102-0.496,0.102c-0.174,0-0.332-0.031-0.479-0.102
	c-0.148-0.062-0.279-0.148-0.395-0.263c-0.114-0.109-0.203-0.237-0.271-0.384c-0.064-0.146-0.098-0.3-0.098-0.468
	c0-0.17,0.031-0.33,0.098-0.479c0.066-0.146,0.155-0.278,0.271-0.391c0.113-0.112,0.246-0.199,0.395-0.266
	C59.99,6.643,60.148,6.61,60.32,6.61c0.177,0,0.341,0.033,0.496,0.096c0.151,0.062,0.287,0.149,0.404,0.266
	c0.117,0.108,0.209,0.242,0.274,0.391C61.564,7.51,61.6,7.671,61.6,7.841z M61.355,9.751v6.979H59.27V9.751H61.355z"/>
<path fill="#FFFFFF" d="M66.367,16.731h-1.899l-2.706-6.979h1.735c0.149,0,0.274,0.036,0.375,0.104
	c0.101,0.069,0.169,0.156,0.206,0.26l0.97,3.13c0.077,0.255,0.149,0.506,0.218,0.747c0.07,0.24,0.131,0.484,0.18,0.729
	c0.055-0.242,0.111-0.486,0.185-0.729s0.146-0.492,0.229-0.747l1.013-3.13c0.032-0.104,0.104-0.188,0.198-0.26
	c0.104-0.068,0.219-0.104,0.354-0.104h1.654L66.367,16.731z"/>
<path fill="#FFFFFF" d="M72.129,9.645c0.462,0,0.887,0.072,1.27,0.214c0.388,0.146,0.713,0.354,0.99,0.627
	c0.275,0.274,0.491,0.609,0.646,1.008c0.154,0.396,0.232,0.85,0.232,1.354c0,0.154-0.012,0.286-0.021,0.383
	c-0.014,0.098-0.038,0.179-0.075,0.237c-0.037,0.058-0.084,0.099-0.146,0.116c-0.062,0.022-0.137,0.034-0.231,0.034h-4.028
	c0.069,0.584,0.248,1.006,0.535,1.271c0.286,0.263,0.657,0.394,1.11,0.394c0.243,0,0.45-0.026,0.624-0.088
	c0.178-0.057,0.332-0.12,0.47-0.194c0.138-0.068,0.263-0.139,0.377-0.191c0.114-0.061,0.234-0.088,0.36-0.088
	c0.165,0,0.291,0.062,0.377,0.182l0.604,0.748c-0.215,0.246-0.447,0.448-0.695,0.604c-0.25,0.153-0.504,0.275-0.77,0.365
	c-0.262,0.085-0.523,0.146-0.785,0.183c-0.264,0.031-0.513,0.052-0.75,0.052c-0.49,0-0.949-0.081-1.377-0.242
	c-0.429-0.155-0.805-0.395-1.125-0.708s-0.574-0.703-0.761-1.169c-0.187-0.467-0.278-1.011-0.278-1.629
	c0-0.466,0.08-0.909,0.24-1.327c0.159-0.418,0.389-0.782,0.684-1.097c0.299-0.313,0.662-0.563,1.088-0.748
	C71.116,9.735,71.594,9.645,72.129,9.645z M72.169,11.084c-0.397,0-0.711,0.114-0.937,0.345c-0.228,0.226-0.371,0.553-0.443,0.979
	h2.605c0-0.165-0.021-0.329-0.063-0.481c-0.042-0.158-0.112-0.301-0.208-0.425c-0.098-0.125-0.221-0.224-0.38-0.3
	C72.586,11.122,72.395,11.084,72.169,11.084z"/>
<path fill="#FFFFFF" d="M81.982,8.916c-0.068,0.107-0.144,0.188-0.213,0.243c-0.072,0.058-0.168,0.081-0.285,0.081
	c-0.104,0-0.213-0.032-0.334-0.099c-0.118-0.064-0.252-0.138-0.403-0.219c-0.149-0.08-0.322-0.153-0.515-0.222
	c-0.192-0.062-0.412-0.099-0.66-0.099c-0.428,0-0.744,0.091-0.953,0.271c-0.209,0.185-0.312,0.431-0.312,0.736
	c0,0.197,0.063,0.361,0.188,0.492s0.289,0.242,0.493,0.336c0.207,0.095,0.438,0.181,0.701,0.26c0.265,0.077,0.531,0.166,0.806,0.266
	c0.274,0.097,0.543,0.209,0.806,0.339c0.264,0.13,0.496,0.295,0.702,0.499c0.202,0.202,0.367,0.446,0.492,0.735
	s0.188,0.641,0.188,1.048c0,0.449-0.078,0.876-0.233,1.271c-0.159,0.396-0.386,0.74-0.685,1.035
	c-0.303,0.292-0.666,0.522-1.104,0.688c-0.438,0.173-0.935,0.258-1.491,0.258c-0.307,0-0.615-0.03-0.934-0.099
	c-0.315-0.062-0.625-0.146-0.92-0.267c-0.295-0.113-0.573-0.25-0.834-0.407c-0.262-0.156-0.487-0.333-0.68-0.524l0.672-1.062
	c0.049-0.082,0.121-0.146,0.209-0.194c0.092-0.052,0.186-0.071,0.289-0.071c0.135,0,0.271,0.043,0.405,0.128
	c0.14,0.084,0.291,0.179,0.47,0.278c0.17,0.104,0.366,0.196,0.592,0.281s0.49,0.128,0.795,0.128c0.412,0,0.736-0.091,0.966-0.271
	c0.229-0.187,0.342-0.475,0.342-0.867c0-0.229-0.062-0.412-0.187-0.558c-0.127-0.146-0.291-0.264-0.498-0.356
	c-0.203-0.094-0.438-0.177-0.693-0.25c-0.262-0.069-0.527-0.149-0.803-0.238c-0.275-0.086-0.541-0.19-0.803-0.324
	c-0.266-0.127-0.49-0.295-0.699-0.503c-0.202-0.209-0.367-0.471-0.493-0.778c-0.126-0.312-0.188-0.697-0.188-1.155
	c0-0.368,0.074-0.729,0.223-1.077c0.149-0.349,0.365-0.663,0.652-0.937c0.288-0.274,0.641-0.492,1.059-0.656
	c0.416-0.164,0.896-0.246,1.438-0.246c0.306,0,0.599,0.021,0.88,0.07c0.284,0.048,0.559,0.113,0.811,0.209
	c0.26,0.092,0.496,0.198,0.721,0.329c0.223,0.129,0.421,0.271,0.598,0.435L81.982,8.916z"/>
<path fill="#FFFFFF" d="M85.725,16.842c-0.33,0-0.623-0.054-0.877-0.146c-0.252-0.097-0.469-0.23-0.641-0.409
	c-0.174-0.178-0.307-0.391-0.395-0.643c-0.09-0.251-0.142-0.532-0.142-0.84v-3.608H83.08c-0.104,0-0.193-0.034-0.271-0.104
	c-0.08-0.069-0.115-0.175-0.115-0.31V9.97l1.111-0.215l0.406-1.704c0.059-0.219,0.207-0.324,0.459-0.324h1.092v2.041h1.694v1.428
	h-1.694v3.465c0,0.161,0.041,0.295,0.116,0.399c0.077,0.104,0.19,0.158,0.345,0.158c0.071,0,0.137-0.012,0.188-0.023
	c0.049-0.016,0.094-0.033,0.134-0.053c0.037-0.021,0.073-0.038,0.105-0.056c0.033-0.02,0.07-0.021,0.117-0.021
	c0.062,0,0.11,0.015,0.147,0.044c0.039,0.029,0.079,0.074,0.117,0.138l0.633,0.987c-0.271,0.202-0.569,0.354-0.906,0.455
	C86.432,16.789,86.084,16.842,85.725,16.842z"/>
<path fill="#FFFFFF" d="M91.111,9.645c0.463,0,0.886,0.072,1.271,0.214c0.384,0.146,0.711,0.354,0.988,0.627
	c0.276,0.274,0.491,0.609,0.647,1.008c0.151,0.396,0.229,0.85,0.229,1.354c0,0.154-0.012,0.286-0.021,0.383
	c-0.016,0.098-0.039,0.179-0.074,0.237c-0.034,0.058-0.084,0.099-0.146,0.116c-0.062,0.022-0.137,0.034-0.229,0.034h-4.023
	c0.066,0.584,0.245,1.006,0.532,1.271c0.284,0.263,0.655,0.394,1.11,0.394c0.237,0,0.449-0.026,0.623-0.088
	c0.178-0.057,0.332-0.12,0.469-0.194c0.14-0.068,0.265-0.139,0.38-0.191c0.112-0.061,0.233-0.088,0.358-0.088
	c0.164,0,0.291,0.062,0.377,0.182l0.604,0.748c-0.214,0.246-0.444,0.448-0.692,0.604c-0.248,0.153-0.507,0.275-0.771,0.365
	c-0.264,0.085-0.521,0.146-0.786,0.183c-0.265,0.031-0.517,0.052-0.75,0.052c-0.49,0-0.949-0.081-1.379-0.242
	c-0.431-0.155-0.806-0.395-1.125-0.708s-0.574-0.703-0.763-1.169c-0.188-0.467-0.276-1.011-0.276-1.629
	c0-0.466,0.08-0.909,0.237-1.327c0.162-0.418,0.392-0.782,0.688-1.097c0.305-0.313,0.661-0.563,1.086-0.748
	C90.1,9.735,90.579,9.645,91.111,9.645z M91.154,11.084c-0.398,0-0.713,0.114-0.938,0.345c-0.226,0.226-0.373,0.553-0.442,0.979
	h2.604c0-0.165-0.021-0.329-0.063-0.481c-0.043-0.158-0.109-0.301-0.209-0.425c-0.098-0.125-0.223-0.224-0.379-0.3
	C91.568,11.122,91.376,11.084,91.154,11.084z"/>
<path fill="#FFFFFF" d="M99.52,16.731c-0.191,0-0.346-0.025-0.449-0.079c-0.098-0.055-0.184-0.167-0.25-0.338l-0.146-0.384
	c-0.176,0.146-0.343,0.275-0.506,0.392c-0.162,0.11-0.329,0.207-0.501,0.286c-0.174,0.077-0.355,0.138-0.555,0.175
	c-0.194,0.036-0.408,0.062-0.646,0.062c-0.316,0-0.607-0.044-0.867-0.128c-0.265-0.081-0.479-0.204-0.664-0.365
	c-0.185-0.163-0.322-0.364-0.422-0.604c-0.1-0.237-0.146-0.52-0.146-0.833c0-0.251,0.062-0.505,0.188-0.765
	c0.125-0.26,0.344-0.499,0.648-0.712c0.312-0.212,0.729-0.396,1.252-0.538c0.523-0.146,1.188-0.215,1.982-0.215v-0.3
	c0-0.414-0.082-0.71-0.25-0.896c-0.17-0.184-0.405-0.271-0.717-0.271c-0.248,0-0.449,0.023-0.604,0.077
	c-0.157,0.057-0.296,0.115-0.42,0.186c-0.124,0.066-0.243,0.128-0.362,0.183c-0.113,0.055-0.255,0.082-0.415,0.082
	c-0.146,0-0.271-0.035-0.364-0.104c-0.104-0.068-0.184-0.155-0.24-0.263l-0.377-0.649c0.424-0.373,0.893-0.649,1.401-0.831
	c0.517-0.187,1.062-0.271,1.65-0.271c0.424,0,0.804,0.067,1.146,0.206c0.34,0.139,0.625,0.328,0.859,0.57
	c0.232,0.247,0.416,0.537,0.543,0.873c0.124,0.335,0.188,0.704,0.188,1.104v4.361L99.52,16.731L99.52,16.731z M97.123,15.46
	c0.271,0,0.505-0.048,0.707-0.143s0.408-0.248,0.611-0.458v-0.955c-0.416,0-0.758,0.026-1.028,0.082
	c-0.271,0.054-0.481,0.121-0.642,0.203c-0.154,0.082-0.269,0.176-0.324,0.279c-0.061,0.104-0.092,0.217-0.092,0.34
	c0,0.239,0.062,0.409,0.192,0.505C96.68,15.41,96.872,15.46,97.123,15.46z"/>
<path fill="#FFFFFF" d="M101.417,16.731V9.751h1.295c0.131,0,0.24,0.03,0.328,0.091c0.086,0.06,0.147,0.146,0.185,0.263l0.114,0.378
	c0.114-0.122,0.237-0.231,0.363-0.334c0.126-0.1,0.26-0.188,0.407-0.262c0.146-0.076,0.304-0.136,0.47-0.18
	c0.171-0.042,0.354-0.062,0.56-0.062c0.418,0,0.771,0.11,1.045,0.326c0.277,0.218,0.486,0.509,0.631,0.873
	c0.113-0.221,0.263-0.4,0.432-0.557c0.168-0.149,0.354-0.271,0.544-0.366c0.19-0.1,0.397-0.164,0.62-0.208
	c0.218-0.048,0.434-0.067,0.646-0.067c0.397,0,0.754,0.061,1.063,0.18c0.31,0.117,0.569,0.292,0.776,0.521
	c0.209,0.228,0.367,0.505,0.476,0.835c0.106,0.329,0.161,0.704,0.161,1.122v4.434h-2.088v-4.434c0-0.727-0.309-1.084-0.93-1.084
	c-0.281,0-0.521,0.094-0.703,0.275c-0.188,0.188-0.278,0.455-0.278,0.809v4.434h-2.089v-4.434c0-0.401-0.077-0.684-0.234-0.846
	c-0.156-0.16-0.388-0.238-0.691-0.238c-0.188,0-0.367,0.043-0.535,0.127c-0.17,0.086-0.323,0.195-0.477,0.343v5.047L101.417,16.731
	L101.417,16.731z"/>
<path fill="#FFFFFF" d="M14.54,1.001c-5.915,0-10.727,4.812-10.727,10.729c0,5.914,4.812,10.726,10.727,10.726
	s10.727-4.812,10.727-10.726C25.267,5.814,20.455,1.001,14.54,1.001z M14.54,22.032c-5.684,0-10.307-4.622-10.307-10.304
	c0-5.684,4.623-10.308,10.307-10.308c5.682,0,10.306,4.624,10.306,10.308C24.845,17.409,20.222,22.032,14.54,22.032z"/>
</svg>
