<?xml version="1.0" encoding="utf-8"?>
<!-- Generator: Adobe Illustrator 16.0.0, SVG Export Plug-In . SVG Version: 6.00 Build 0)  -->
<!DOCTYPE svg PUBLIC "-//W3C//DTD SVG 1.1//EN" "http://www.w3.org/Graphics/SVG/1.1/DTD/svg11.dtd">
<svg version="1.1" id="Layer_1" xmlns="http://www.w3.org/2000/svg" xmlns:xlink="http://www.w3.org/1999/xlink" x="0px" y="0px"
	 width="100px" height="100px" viewBox="0 0 100 100" enable-background="new 0 0 100 100" xml:space="preserve">
<path fill="#FFFFFF" d="M50.54,7.595c-23.241,0-42.143,18.899-42.143,42.141c0,23.233,18.901,42.125,42.143,42.125
	c23.237,0,42.141-18.896,42.141-42.125C92.681,26.486,73.777,7.595,50.54,7.595z M77.012,62.653
	c-0.658,1.69-1.641,3.139-2.905,4.409c-1.274,1.261-2.848,2.223-4.709,2.935c-1.869,0.725-3.992,1.078-6.356,1.078
	c-1.307,0-2.631-0.134-3.979-0.408c-1.349-0.262-2.656-0.637-3.913-1.128c-0.558-0.241-1.1-0.454-1.624-0.708
	c-0.357,0.18-0.707,0.396-1.09,0.554c-2.529,1.133-5.535,1.687-8.997,1.687c-3.176,0-6.023-0.542-8.538-1.628
	c-2.514-1.074-4.652-2.568-6.402-4.463c-1.752-1.906-3.095-4.171-4.034-6.772c-0.937-2.614-1.407-5.455-1.407-8.51
	c0-3.11,0.533-5.987,1.609-8.613c1.07-2.594,2.564-4.862,4.488-6.761c1.923-1.873,4.225-3.368,6.906-4.417
	c2.672-1.041,5.63-1.561,8.867-1.561c1.563,0,3.047,0.125,4.434,0.416c1.292,0.267,2.5,0.625,3.64,1.062
	c-0.441,0.321-0.854,0.646-1.236,1.016c-1.228,1.153-2.158,2.498-2.789,3.992c-0.272,0.646-0.472,1.299-0.626,1.953
	c-0.264-0.067-0.528-0.138-0.826-0.196c-0.755-0.154-1.642-0.229-2.656-0.229c-1.757,0-3.368,0.292-4.821,0.928
	c-1.455,0.625-2.7,1.511-3.742,2.665c-1.045,1.157-1.855,2.564-2.444,4.208c-0.579,1.645-0.874,3.472-0.874,5.541
	c0,2.14,0.295,4.06,0.874,5.712c0.589,1.653,1.378,3.048,2.383,4.205c1.001,1.132,2.173,2.002,3.518,2.572
	c1.343,0.62,2.779,0.891,4.304,0.891c0.883,0,1.688-0.041,2.408-0.104c0.733-0.092,1.403-0.258,2.03-0.45
	c0.622-0.208,1.215-0.479,1.777-0.812c0.564-0.32,1.13-0.749,1.705-1.249c0.225-0.187,0.483-0.35,0.749-0.458
	c0.267-0.116,0.675-0.208,0.958-0.203c0.691,0.017,1.407,0.44,1.724,0.633c0.583,0.366,1.249,0.786,1.981,1.198
	c0.732,0.445,1.582,0.841,2.539,1.212c0.953,0.354,2.081,0.541,3.385,0.541c1.765,0,3.135-0.388,4.112-1.157
	c0.971-0.778,1.462-2.007,1.462-3.681c0-0.978-0.267-1.761-0.8-2.394c-0.532-0.607-1.24-1.111-2.114-1.507
	c-0.87-0.416-1.865-0.77-2.969-1.062c-1.103-0.301-2.252-0.642-3.413-1.017c-1.17-0.375-2.311-0.837-3.418-1.386
	c-1.107-0.542-2.103-1.258-2.973-2.148c-0.865-0.887-1.573-1.998-2.106-3.326c-0.536-1.332-0.801-2.956-0.801-4.908
	c0-1.573,0.318-3.105,0.947-4.591c0.628-1.507,1.564-2.823,2.784-3.997c1.225-1.157,2.728-2.102,4.513-2.789
	c1.773-0.691,3.813-1.041,6.111-1.041c1.282,0,2.531,0.091,3.747,0.283c1.215,0.204,2.364,0.5,3.455,0.896
	c1.091,0.395,2.114,0.861,3.063,1.407c0.94,0.541,1.79,1.157,2.539,1.865l-2.423,4.487c-0.295,0.462-0.599,0.808-0.907,1.032
	c-0.32,0.237-0.725,0.35-1.224,0.35c-0.433,0-0.912-0.142-1.42-0.433c-0.503-0.267-1.073-0.595-1.719-0.933
	c-0.642-0.345-1.374-0.649-2.198-0.937c-0.824-0.267-1.757-0.417-2.81-0.417c-1.819,0-3.173,0.387-4.067,1.153
	c-0.891,0.778-1.332,1.823-1.332,3.143c0,0.833,0.271,1.523,0.804,2.094c0.532,0.558,1.244,1.024,2.11,1.44
	c0.87,0.404,1.865,0.766,2.984,1.103c1.12,0.337,2.269,0.712,3.431,1.124c1.17,0.417,2.314,0.883,3.435,1.445
	c1.123,0.558,2.114,1.261,2.98,2.127c0.878,0.853,1.577,1.906,2.114,3.143c0.533,1.233,0.8,2.728,0.8,4.447
	C78.02,59.161,77.687,60.968,77.012,62.653z"/>
<path fill="#FFFFFF" d="M50.54,4.002c-25.214,0-45.727,20.51-45.727,45.733c0,25.211,20.513,45.722,45.727,45.722
	c25.215,0,45.729-20.515,45.729-45.722C96.27,24.517,75.755,4.002,50.54,4.002z M50.54,93.654c-24.23,0-43.937-19.703-43.937-43.923
	c0-24.228,19.707-43.939,43.937-43.939c24.224,0,43.931,19.711,43.931,43.939C94.471,73.947,74.764,93.654,50.54,93.654z"/>
</svg>
