<?xml version="1.0" encoding="UTF-8"?>
<svg width="197px" height="164px" viewBox="0 0 197 164" version="1.1" xmlns="http://www.w3.org/2000/svg" xmlns:xlink="http://www.w3.org/1999/xlink">
    <!-- Generator: Sketch 48.2 (47327) - http://www.bohemiancoding.com/sketch -->
    <title>Apricot</title>
    <desc>Created with Sketch.</desc>
    <defs></defs>
    <g id="Fruits" stroke="none" stroke-width="1" fill="none" fill-rule="evenodd" transform="translate(-451.000000, -741.000000)">
        <g id="Apricot" transform="translate(451.000000, 741.000000)">
            <path d="M49.729,59.57 C48.805,59.57 47.976,58.92 47.775,57.98 C45.536,47.49 40.53,28.08 32.164,15.97 C31.536,15.061 31.764,13.815 32.672,13.188 C33.582,12.56 34.827,12.788 35.455,13.696 C43.778,25.74 48.876,43.98 51.687,57.15 C51.917,58.23 51.229,59.29 50.148,59.52 C50.008,59.55 49.867,59.57 49.729,59.57" id="Fill-267" fill="#417505"></path>
            <path d="M50.465,162.6 C25.853,162.6 0.395,141.87 0.395,107.19 C0.395,78.18 16.545,54.58 36.397,54.58 C41.342,54.58 46.12,56 50.619,58.81 C55.101,56 59.876,54.58 64.833,54.58 C73.308,54.58 81.526,58.93 87.974,66.82 C88.672,67.68 88.545,68.94 87.689,69.63 C86.834,70.33 85.574,70.21 84.875,69.35 C79.202,62.4 72.084,58.58 64.833,58.58 C60.281,58.58 55.88,60.01 51.753,62.84 C51.072,63.31 50.175,63.31 49.494,62.85 C45.345,60.01 40.938,58.58 36.397,58.58 C18.751,58.58 4.395,80.38 4.395,107.19 C4.395,139.37 27.819,158.6 50.465,158.6 C58.839,158.6 67.782,155.4 75.645,149.57 C76.533,148.92 77.785,149.1 78.442,149.99 C79.099,150.88 78.912,152.13 78.024,152.79 C69.478,159.12 59.69,162.6 50.465,162.6" id="Fill-268" fill="#E2C84C"></path>
            <path d="M35.259,86.36 C35.058,86.36 34.854,86.33 34.653,86.26 C33.601,85.93 33.018,84.81 33.352,83.75 C38.977,66.03 51.313,54.58 64.782,54.58 C65.886,54.58 66.782,55.47 66.782,56.58 C66.782,57.68 65.886,58.58 64.782,58.58 C53.271,58.58 42.173,69.18 37.165,84.96 C36.895,85.81 36.107,86.36 35.259,86.36" id="Fill-269" fill="#E2C84C"></path>
            <path d="M75.089,4.511 C65.465,5.761 56.288,13.192 51.499,23.71 C46.535,34.63 49.297,49.29 52.477,57 C60.995,55.43 71.005,46.05 76.288,34.45 C81.057,23.96 80.561,12.344 75.089,4.511 Z M51.251,61.18 C50.481,61.18 49.773,60.73 49.441,60.03 C45.591,51.83 41.992,34.96 47.857,22.06 C53.403,9.874 64.356,1.381 75.761,0.417 C76.069,0.389 76.38,0.437 76.668,0.552 L76.807,0.607 C77.141,0.74 77.433,0.96 77.652,1.244 C84.58,10.229 85.473,23.91 79.929,36.11 C74.586,47.83 63.077,60.21 51.416,61.17 C51.361,61.17 51.306,61.18 51.251,61.18 Z" id="Fill-270" fill="#417505"></path>
            <path d="M140.859,73.62 C140.588,73.62 140.314,73.57 140.051,73.45 C139.041,73.01 138.584,71.82 139.031,70.81 C143.028,61.77 150.675,40.65 151.009,25.41 C151.033,24.3 151.941,23.45 153.052,23.45 C154.156,23.48 155.032,24.39 155.008,25.5 C154.661,41.33 147.101,62.45 142.689,72.43 C142.359,73.18 141.626,73.62 140.859,73.62" id="Fill-271" fill="#417505"></path>
            <path d="M106.784,163.86 C96.434,163.86 86.709,160.96 79.401,155.68 C59.475,141.27 50.977,109.58 71.246,81.5 L71.584,81.02 C72.214,80.13 73.432,79.92 74.331,80.52 C75.229,81.13 75.481,82.34 74.899,83.25 C74.81,83.39 74.706,83.54 74.602,83.68 L74.532,83.78 C74.525,83.79 74.518,83.8 74.511,83.81 L74.51,83.81 C60.264,104.13 59.274,135.08 82.277,151.7 C88.91,156.49 97.805,159.14 107.326,159.14 C124.211,159.14 139.677,151.24 149.758,137.48 C150.411,136.59 151.659,136.4 152.55,137.05 C153.441,137.7 153.638,138.95 152.99,139.84 L152.92,139.94 C152.832,140.07 152.742,140.2 152.642,140.32 C141.803,155.28 125.092,163.86 106.784,163.86" id="Fill-272" fill="#E2C84C"></path>
            <path d="M151.37,140.67 C150.968,140.67 150.563,140.55 150.211,140.29 C149.312,139.65 149.102,138.41 149.743,137.51 C165.138,115.9 166.142,90 151.981,79.78 C148.313,77.13 143.903,75.71 138.873,75.57 C138.05,75.55 137.325,75.02 137.046,74.25 C135.349,69.52 132.628,65.79 128.96,63.13 C114.817,52.9 90.532,61.98 74.824,83.36 C74.169,84.25 72.919,84.45 72.028,83.79 C71.138,83.14 70.947,81.89 71.601,81 C88.604,57.85 115.388,48.38 131.304,59.89 C135.301,62.78 138.333,66.73 140.329,71.64 C145.626,72 150.329,73.65 154.324,76.54 C170.261,88.04 169.667,116.44 153,139.83 C152.61,140.37 151.995,140.67 151.37,140.67" id="Fill-273" fill="#E2C84C"></path>
            <path d="M113.458,84.62 C112.827,84.62 112.206,84.33 111.817,83.77 C111.185,82.86 111.406,81.62 112.312,80.98 C121.915,74.28 132.382,70.89 141.045,71.7 C142.145,71.8 142.954,72.77 142.851,73.87 C142.749,74.97 141.781,75.78 140.674,75.68 C133.062,74.97 123.313,78.18 114.602,84.26 C114.253,84.51 113.854,84.62 113.458,84.62" id="Fill-274" fill="#E2C84C"></path>
            <path d="M141.474,71.44 C143.943,72.4 147.076,72.9 150.681,72.9 C158.886,72.9 168.797,70.27 175.931,66.21 C185.938,60.51 192.342,50.81 192.498,41.25 C188.79,39.25 184.373,38.2 179.653,38.2 C173.701,38.2 167.64,39.86 162.125,42.99 C155.359,46.85 150.924,54.98 147.012,62.15 C145.162,65.54 143.392,68.78 141.474,71.44 Z M150.681,76.9 C145.248,76.9 140.633,75.84 137.337,73.86 C136.831,73.55 136.485,73.04 136.394,72.45 C136.302,71.87 136.474,71.27 136.863,70.83 C139.138,68.22 141.257,64.34 143.5,60.23 C147.668,52.59 152.392,43.94 160.146,39.52 C166.264,36.04 173.009,34.2 179.653,34.2 C185.488,34.2 190.954,35.63 195.459,38.34 C195.751,38.51 195.993,38.76 196.163,39.06 L196.222,39.16 C196.386,39.44 196.478,39.76 196.488,40.09 C196.844,51.44 189.551,63.06 177.91,69.69 C170.099,74.13 159.666,76.9 150.681,76.9 Z" id="Fill-275" fill="#417505"></path>
        </g>
    </g>
</svg>