<?xml version="1.0" encoding="UTF-8"?>
<svg width="109px" height="195px" viewBox="0 0 109 195" version="1.1" xmlns="http://www.w3.org/2000/svg" xmlns:xlink="http://www.w3.org/1999/xlink">
    <!-- Generator: Sketch 48.2 (47327) - http://www.bohemiancoding.com/sketch -->
    <title>Asparagus</title>
    <desc>Created with Sketch.</desc>
    <defs></defs>
    <g id="Veg" stroke="none" stroke-width="1" fill="none" fill-rule="evenodd" transform="translate(-29.000000, -205.000000)" fill-opacity="0.970000029">
        <g id="Asparagus" transform="translate(30.000000, 206.000000)" fill="#417505" stroke="#417505" stroke-width="0.7">
            <path d="M97.7181704,51.9665792 L93.9970941,64.4455481 C86.7348276,64.7205172 81.022153,75.3595063 78.935472,79.2630388 C77.7636413,81.4525119 78.5885485,84.1765043 80.7780216,85.348335 C82.9700645,86.5227354 85.6940569,85.6978283 86.8658876,83.5057854 C90.9955628,75.783524 93.5139709,73.946114 94.2617839,73.5426548 C95.1586455,74.1105815 95.965564,75.4700079 93.8557548,82.4830033 L90.1886443,95.8614037 C90.101271,96.1800594 90.0601541,96.4858661 90.0473051,96.7839634 L90.0293165,96.7865332 L87.4132559,129.338242 C81.7082907,130.517782 76.3296906,131.417214 71.3108631,132.059665 L72.6779989,80.9488303 L72.6779989,80.9462605 L78.2519041,59.1954383 C79.9582541,52.573053 77.8587241,45.8710038 74.8109364,41.7901549 C75.9801973,30.3416774 82.8569931,22.7684646 84.8049047,22.4164015 C86.5575111,22.6374046 90.9261781,27.5483003 92.6607959,35.6123457 C89.759487,37.2313223 86.7759444,40.0015712 83.9902768,43.8511378 C82.5331978,45.8607246 82.9829135,48.6746601 84.99764,50.1291693 C87.0123664,51.588818 89.8211623,51.1365325 91.2756715,49.1218061 C91.9438206,48.1992464 92.593981,47.4026071 93.2158736,46.7113298 C94.9993177,44.7300108 96.5360605,43.6429836 97.4714692,43.1984075 C98.1241995,44.8019653 98.7512317,48.2223746 97.7181704,51.9665792 Z M83.4840253,178.30329 C83.3529653,180.760023 82.7516312,182.700225 81.8727581,183.489155 C81.6980115,183.648483 81.2123185,184.07764 79.8811599,183.995406 L72.9812358,183.653622 C71.5010287,183.576528 71.0590223,183.02659 70.7634949,182.517769 C70.3394772,181.787945 70.0902062,180.693208 70.0131121,179.372329 C70.0567987,178.732447 70.0979156,178.087427 70.0979156,177.38587 L71.0667318,141.167051 C75.9519294,140.568286 81.166062,139.7331 86.6680127,138.656352 L83.4840253,178.30329 Z M57.4827471,183.94401 L50.0328849,183.94401 C48.8713334,183.94401 46.1499109,183.94401 46.1473411,177.154588 L45.2273512,142.495639 C46.5739285,142.534186 47.9487737,142.559884 49.375015,142.559884 C53.2939664,142.559884 57.5598412,142.387708 62.0955455,142.045924 L61.1061709,177.265089 C61.1061709,183.94401 58.7496605,183.94401 57.4827471,183.94401 Z M34.2568573,183.653622 L27.3569332,183.995406 C26.0257747,184.07764 25.5400817,183.648483 25.365335,183.489155 C24.486462,182.700225 23.8851278,180.760023 23.7540678,178.30329 L20.629186,139.357908 C24.6098126,140.362702 29.813666,141.357216 36.2895724,141.96626 L37.1555964,177.265089 C37.1555964,177.976925 37.1812944,178.660493 37.2301207,179.315793 C37.1581662,180.66494 36.9063254,181.777665 36.4745983,182.517769 C36.1790708,183.02659 35.7396343,183.576528 34.2568573,183.653622 Z M43.7805514,87.9104297 L43.7754118,87.7536716 L43.772842,87.591774 L43.7522836,87.591774 L43.6494914,86.9107759 L40.0774637,72.9670186 C38.6383734,66.8097679 38.4687663,64.8901242 39.3039526,63.9135987 C41.5987877,65.5942506 46.1910277,71.4945209 49.729648,78.06551 C50.9066183,80.2524134 53.6331805,81.0670413 55.8226536,79.890071 C58.0095569,78.7131007 58.8267547,75.9865385 57.6472146,73.7996352 C54.0803264,67.1772499 47.9821812,57.519926 41.7761042,55.1248685 L38.2477631,40.5335206 C37.1967132,35.7639642 39.1471946,31.9169674 40.244501,30.6731822 C41.9225831,31.6779756 45.3635508,34.9364872 47.3191717,39.3257127 C48.326535,41.5948497 50.9862822,42.615062 53.2554193,41.605129 C55.5245563,40.5951959 56.5447686,37.9354487 55.5348356,35.6663116 C53.4712828,31.0329547 49.2131174,25.5078759 44.7133903,22.9149435 C47.000516,14.9202828 51.5876164,9.54425256 53.6126221,9.02258232 C56.3700219,10.1430169 64.1590982,19.8183295 64.1590982,32.4386376 L64.1590982,38.8580083 L63.6194394,39.0867209 C59.6311034,41.1168662 54.3604351,45.8735736 52.6309569,52.6013209 C52.0116341,55.0066575 53.4610036,57.4582507 55.8663403,58.0775735 C58.2562581,58.6917567 60.7232701,57.2449569 61.3425929,54.8396203 C62.3345373,50.9772046 65.7395278,48.1067334 67.6411828,47.114789 C68.8618398,48.7697429 70.6247254,52.7503695 69.5402681,56.9597087 L63.9663629,78.7105309 C63.8635708,79.1114203 63.8378727,79.5071702 63.8430123,79.9003502 L62.3499561,132.987364 C55.8946081,133.498755 50.109979,133.598977 44.9883594,133.43451 L43.7805514,87.9104297 Z M85.9279091,13.4940415 C83.2244751,13.147118 80.3205964,14.2264357 77.4886723,16.5932253 C75.6204247,18.1556662 73.7239092,20.3913958 72.0021405,23.0896902 C68.9569226,10.443684 60.4431615,0 53.7539613,0 C46.6304642,0 38.2246349,9.96827024 35.3695825,23.1282372 C30.9186817,26.5126693 27.6961474,34.4379452 29.484731,42.5585263 L33.0721776,57.3965754 C28.2897721,61.9733965 29.8830507,68.8733206 31.3735371,75.2490047 L34.9352856,89.1439357 L36.0659994,132.840885 C28.7600463,132.082793 23.3634576,130.828729 19.8608145,129.782818 L17.2113465,96.7865332 C17.177939,96.4858661 17.1368222,96.1800594 17.0494488,95.8614037 L13.3823383,82.4830033 C11.2750989,75.4700079 12.0794476,74.1105815 12.9763093,73.5426548 C13.7241223,73.946114 16.2425303,75.783524 20.3747754,83.5057854 C21.5466061,85.6978283 24.2680286,86.5227354 26.4600716,85.348335 C28.6495447,84.1765043 29.4770216,81.4525119 28.3026211,79.2630388 C26.2159402,75.3595063 20.5032656,64.7205172 13.2409991,64.4455481 L9.51992271,51.9665792 C8.48686144,48.2223746 9.11389365,44.8019653 9.7666239,43.1984075 C10.7020326,43.6429836 12.2387755,44.7300108 14.0222196,46.7113298 C14.6441122,47.4026071 15.2968424,48.1992464 15.9624217,49.1218061 C17.4169308,51.1365325 20.2282965,51.588818 22.243023,50.1291693 C24.2551796,48.6746601 24.7048953,45.8607246 23.2478164,43.8511378 C20.4621487,40.0015712 17.4811759,37.2313223 14.579867,35.6123457 C16.311915,27.5483003 20.6805821,22.6374046 22.4331885,22.4164015 C23.1116168,22.5397521 24.393949,23.5548247 25.8201903,25.2843029 C26.5911316,22.0078026 27.6421815,18.906049 28.9270835,16.0021704 C26.3598492,14.0902361 23.7540678,13.1805254 21.3101841,13.4940415 C14.6441122,14.3292279 7.7775955,22.9894678 5.58812238,34.7668802 C0.844263943,37.182496 -1.3554884,46.3618364 0.875101593,54.44901 L5.13840665,68.74997 C1.41476046,73.8561709 3.56825633,81.0824601 4.74008701,84.9680039 L8.20161318,97.5934517 L10.7559985,128.109876 C9.99276667,128.531324 9.34003642,129.176344 8.91858854,130.014101 C7.79815393,132.231842 8.68730617,134.935276 10.9024773,136.05571 C10.9692922,136.091687 11.1594577,136.181631 11.4061589,136.294702 L14.7803118,178.891775 C15.0347224,183.776973 16.6177217,187.719053 19.3519933,190.178355 C21.4129762,192.031184 24.0650141,193 27.0588359,193 C27.3106767,193 27.5650873,192.992291 27.8220678,192.979442 L34.7194221,192.637658 C37.5025199,192.488609 39.9181358,191.542921 41.8120815,189.936793 C44.1763013,192.036323 47.1469949,192.938325 50.0328849,192.938325 L57.4827471,192.938325 C59.0785955,192.938325 62.6095063,192.588831 65.5339434,190.031876 C67.4124703,191.581468 69.7921089,192.491179 72.5212409,192.637658 L79.4160254,192.979442 C79.6730058,192.992291 79.9274164,193 80.1792572,193 C83.1756488,193 85.8251169,192.031184 87.8886696,190.178355 C90.6203714,187.719053 92.2033708,183.776973 92.4577814,178.891775 L95.8010966,136.700731 L96.3793025,136.572241 C98.7949184,135.999174 100.290544,133.575849 99.7174781,131.157663 C99.3217282,129.495 98.0445356,128.289762 96.5000833,127.873454 L98.8720125,97.9455148 L102.500576,84.9680039 C103.669837,81.0824601 105.823333,73.8561709 102.099686,68.74997 L106.362992,54.44901 C108.596151,46.3618364 106.393829,37.182496 101.649971,34.7668802 C99.4604976,22.9894678 92.593981,14.3292279 85.9279091,13.4940415 Z" id="Fill-84"></path>
        </g>
    </g>
</svg>