<?xml version="1.0" encoding="UTF-8"?>
<svg width="184px" height="155px" viewBox="0 0 184 155" version="1.1" xmlns="http://www.w3.org/2000/svg" xmlns:xlink="http://www.w3.org/1999/xlink">
    <!-- Generator: Sketch 48.2 (47327) - http://www.bohemiancoding.com/sketch -->
    <title>Banana</title>
    <desc>Created with Sketch.</desc>
    <defs></defs>
    <g id="Fruits" stroke="none" stroke-width="1" fill="none" fill-rule="evenodd" transform="translate(-812.000000, -421.000000)">
        <g id="Banana" transform="translate(812.000000, 421.000000)" fill="#F8E71C">
            <path d="M69.9,122.372 C47.05,122.372 24.03,115.631 1.431,102.316 C0.605,101.83 0.241,100.826 0.562,99.923 L5.535,85.928 C5.84,85.073 6.684,84.541 7.586,84.605 C56.498,88.693 117.26,65.689 162.39,25.991 C163.22,25.261 164.48,25.343 165.21,26.172 C165.94,27.001 165.86,28.265 165.03,28.994 C119.6,68.962 58.46,92.286 8.792,88.711 L4.886,99.7 C27.286,112.607 50.054,118.886 72.573,118.34 C73.727,118.311 74.594,119.188 74.621,120.292 C74.647,121.396 73.773,122.313 72.669,122.339 C71.747,122.361 70.823,122.372 69.9,122.372" id="Fill-332"></path>
            <path d="M163.87,29.493 C163.73,29.493 163.58,29.477 163.42,29.442 C162.35,29.195 161.68,28.123 161.92,27.046 C162.38,25.074 168.41,3.219 168.67,2.29 C168.91,1.422 169.69,0.822 170.59,0.822 L180,0.822 C181.06,0.822 181.94,1.662 181.99,2.729 L183.14,27.399 C183.2,28.503 182.34,29.439 181.24,29.491 C180.18,29.545 179.2,28.69 179.15,27.586 L178.09,4.822 L172.12,4.822 C169.87,12.955 166.15,26.52 165.82,27.939 C165.61,28.866 164.79,29.493 163.87,29.493" id="Fill-333"></path>
            <path d="M38.739,148.24 C47.912,149.912 56.972,150.76 65.696,150.76 C65.698,150.76 65.706,150.76 65.708,150.76 C99.18,150.762 128.07,138.649 149.25,115.733 C168.94,94.442 179.78,65.961 179.78,35.536 C179.78,33.454 179.71,31.28 179.57,28.933 L165.33,28.933 C135.87,81.342 86.431,123.365 38.739,136.588 L38.739,148.24 Z M65.708,154.76 C65.704,154.76 65.7,154.76 65.696,154.76 C56.205,154.76 46.335,153.785 36.361,151.864 C35.419,151.683 34.739,150.858 34.739,149.9 L34.739,135.058 C34.739,134.15 35.35,133.356 36.227,133.125 C83.688,120.555 133.22,78.491 162.41,25.961 C162.76,25.327 163.43,24.933 164.15,24.933 L181.44,24.933 C182.49,24.933 183.36,25.743 183.43,26.788 C183.66,29.957 183.78,32.818 183.78,35.536 C183.78,66.971 172.56,96.417 152.19,118.448 C130.23,142.204 100.32,154.76 65.708,154.76 Z" id="Fill-334"></path>
        </g>
    </g>
</svg>