<?xml version="1.0" encoding="UTF-8"?>
<svg width="133px" height="133px" viewBox="0 0 133 133" version="1.1" xmlns="http://www.w3.org/2000/svg" xmlns:xlink="http://www.w3.org/1999/xlink">
    <!-- Generator: Sketch 48.2 (47327) - http://www.bohemiancoding.com/sketch -->
    <title>Biscuit</title>
    <desc>Created with Sketch.</desc>
    <defs></defs>
    <g id="Bread-and-pastry" stroke="none" stroke-width="1" fill="none" fill-rule="evenodd" transform="translate(-344.000000, -230.000000)">
        <g id="Biscuit" transform="translate(344.000000, 230.000000)" fill="#C58418">
            <path d="M25.5014037,24 C24.1229646,24 23,25.1229646 23,26.5014037 C23,27.8770354 24.1229646,29 25.5014037,29 C26.8798428,29 28,27.8770354 28,26.5014037 C28,25.1229646 26.8798428,24 25.5014037,24" id="Fill-37"></path>
            <path d="M42.502809,24 C41.1235955,24 40,25.1229646 40,26.5014037 C40,27.8770354 41.1235955,29 42.502809,29 C43.8792135,29 45,27.8770354 45,26.5014037 C45,25.1229646 43.8792135,24 42.502809,24" id="Fill-38"></path>
            <path d="M57.5014037,24 C56.1229646,24 55,25.1229646 55,26.5014037 C55,27.8770354 56.1229646,29 57.5014037,29 C58.8798428,29 60,27.8770354 60,26.5014037 C60,25.1229646 58.8798428,24 57.5014037,24" id="Fill-39"></path>
            <path d="M73.5014037,29 C74.8798428,29 76,27.8770354 76,26.5014037 C76,25.1229646 74.8798428,24 73.5014037,24 C72.1229646,24 71,25.1229646 71,26.5014037 C71,27.8770354 72.1229646,29 73.5014037,29" id="Fill-40"></path>
            <path d="M89.5,29 C90.8792135,29 92,27.8770354 92,26.5014037 C92,25.1229646 90.8792135,24 89.5,24 C88.1235955,24 87,25.1229646 87,26.5014037 C87,27.8770354 88.1235955,29 89.5,29" id="Fill-41"></path>
            <path d="M105.501404,29 C106.879843,29 108,27.8770354 108,26.5014037 C108,25.1229646 106.879843,24 105.501404,24 C104.122965,24 103,25.1229646 103,26.5014037 C103,27.8770354 104.122965,29 105.501404,29" id="Fill-42"></path>
            <path d="M25.4985963,39 C24.1229646,39 23,40.1229646 23,41.5014037 C23,42.8798428 24.1229646,44 25.4985963,44 C26.8770354,44 28,42.8798428 28,41.5014037 C28,40.1229646 26.8770354,39 25.4985963,39" id="Fill-43"></path>
            <path d="M25.4985963,56 C24.1229646,56 23,57.1235955 23,58.502809 C23,59.8792135 24.1229646,61 25.4985963,61 C26.8770354,61 28,59.8792135 28,58.502809 C28,57.1235955 26.8770354,56 25.4985963,56" id="Fill-44"></path>
            <path d="M25.4985963,71 C24.1229646,71 23,72.1229646 23,73.5014037 C23,74.8798428 24.1229646,76 25.4985963,76 C26.8770354,76 28,74.8798428 28,73.5014037 C28,72.1229646 26.8770354,71 25.4985963,71" id="Fill-45"></path>
            <path d="M25.4985963,89 C24.1229646,89 23,90.1229646 23,91.5014037 C23,92.8798428 24.1229646,94 25.4985963,94 C26.8770354,94 28,92.8798428 28,91.5014037 C28,90.1229646 26.8770354,89 25.4985963,89" id="Fill-46"></path>
            <path d="M25.4985963,104 C24.1229646,104 23,105.123596 23,106.502809 C23,107.879213 24.1229646,109 25.4985963,109 C26.8770354,109 28,107.879213 28,106.502809 C28,105.123596 26.8770354,104 25.4985963,104" id="Fill-47"></path>
            <path d="M42.5,39 C41.1207865,39 40,40.1229646 40,41.5014037 C40,42.8798428 41.1207865,44 42.5,44 C43.8792135,44 45,42.8798428 45,41.5014037 C45,40.1229646 43.8792135,39 42.5,39" id="Fill-48"></path>
            <path d="M42.5,56 C41.1207865,56 40,57.1235955 40,58.502809 C40,59.8792135 41.1207865,61 42.5,61 C43.8792135,61 45,59.8792135 45,58.502809 C45,57.1235955 43.8792135,56 42.5,56" id="Fill-49"></path>
            <path d="M42.5,71 C41.1207865,71 40,72.1229646 40,73.5014037 C40,74.8798428 41.1207865,76 42.5,76 C43.8792135,76 45,74.8798428 45,73.5014037 C45,72.1229646 43.8792135,71 42.5,71" id="Fill-50"></path>
            <path d="M42.5,89 C41.1207865,89 40,90.1229646 40,91.5014037 C40,92.8798428 41.1207865,94 42.5,94 C43.8792135,94 45,92.8798428 45,91.5014037 C45,90.1229646 43.8792135,89 42.5,89" id="Fill-51"></path>
            <path d="M42.5,104 C41.1207865,104 40,105.123596 40,106.502809 C40,107.879213 41.1207865,109 42.5,109 C43.8792135,109 45,107.879213 45,106.502809 C45,105.123596 43.8792135,104 42.5,104" id="Fill-52"></path>
            <path d="M57.5014037,39 C56.1229646,39 55,40.1229646 55,41.5014037 C55,42.8798428 56.1229646,44 57.5014037,44 C58.8770354,44 60,42.8798428 60,41.5014037 C60,40.1229646 58.8770354,39 57.5014037,39" id="Fill-53"></path>
            <path d="M57.5014037,56 C56.1229646,56 55,57.1235955 55,58.502809 C55,59.8792135 56.1229646,61 57.5014037,61 C58.8770354,61 60,59.8792135 60,58.502809 C60,57.1235955 58.8770354,56 57.5014037,56" id="Fill-54"></path>
            <path d="M57.5014037,71 C56.1229646,71 55,72.1229646 55,73.5014037 C55,74.8798428 56.1229646,76 57.5014037,76 C58.8770354,76 60,74.8798428 60,73.5014037 C60,72.1229646 58.8770354,71 57.5014037,71" id="Fill-55"></path>
            <path d="M57.5014037,89 C56.1229646,89 55,90.1229646 55,91.5014037 C55,92.8798428 56.1229646,94 57.5014037,94 C58.8770354,94 60,92.8798428 60,91.5014037 C60,90.1229646 58.8770354,89 57.5014037,89" id="Fill-56"></path>
            <path d="M57.5014037,104 C56.1229646,104 55,105.123596 55,106.502809 C55,107.879213 56.1229646,109 57.5014037,109 C58.8770354,109 60,107.879213 60,106.502809 C60,105.123596 58.8770354,104 57.5014037,104" id="Fill-57"></path>
            <path d="M73.4985963,39 C72.1229646,39 71,40.1229646 71,41.5014037 C71,42.8798428 72.1229646,44 73.4985963,44 C74.8770354,44 76,42.8798428 76,41.5014037 C76,40.1229646 74.8770354,39 73.4985963,39" id="Fill-58"></path>
            <path d="M73.4985963,56 C72.1229646,56 71,57.1235955 71,58.502809 C71,59.8792135 72.1229646,61 73.4985963,61 C74.8770354,61 76,59.8792135 76,58.502809 C76,57.1235955 74.8770354,56 73.4985963,56" id="Fill-59"></path>
            <path d="M73.4985963,71 C72.1229646,71 71,72.1229646 71,73.5014037 C71,74.8798428 72.1229646,76 73.4985963,76 C74.8770354,76 76,74.8798428 76,73.5014037 C76,72.1229646 74.8770354,71 73.4985963,71" id="Fill-60"></path>
            <path d="M73.4985963,89 C72.1229646,89 71,90.1229646 71,91.5014037 C71,92.8798428 72.1229646,94 73.4985963,94 C74.8770354,94 76,92.8798428 76,91.5014037 C76,90.1229646 74.8770354,89 73.4985963,89" id="Fill-61"></path>
            <path d="M73.4985963,104 C72.1229646,104 71,105.123596 71,106.502809 C71,107.879213 72.1229646,109 73.4985963,109 C74.8770354,109 76,107.879213 76,106.502809 C76,105.123596 74.8770354,104 73.4985963,104" id="Fill-62"></path>
            <path d="M89.5,39 C88.1207865,39 87,40.1229646 87,41.5014037 C87,42.8798428 88.1207865,44 89.5,44 C90.8792135,44 92,42.8798428 92,41.5014037 C92,40.1229646 90.8792135,39 89.5,39" id="Fill-63"></path>
            <path d="M89.5,56 C88.1207865,56 87,57.1235955 87,58.502809 C87,59.8792135 88.1207865,61 89.5,61 C90.8792135,61 92,59.8792135 92,58.502809 C92,57.1235955 90.8792135,56 89.5,56" id="Fill-64"></path>
            <path d="M89.5,71 C88.1207865,71 87,72.1229646 87,73.5014037 C87,74.8798428 88.1207865,76 89.5,76 C90.8792135,76 92,74.8798428 92,73.5014037 C92,72.1229646 90.8792135,71 89.5,71" id="Fill-65"></path>
            <path d="M89.5,89 C88.1207865,89 87,90.1229646 87,91.5014037 C87,92.8798428 88.1207865,94 89.5,94 C90.8792135,94 92,92.8798428 92,91.5014037 C92,90.1229646 90.8792135,89 89.5,89" id="Fill-66"></path>
            <path d="M89.5,104 C88.1207865,104 87,105.123596 87,106.502809 C87,107.879213 88.1207865,109 89.5,109 C90.8792135,109 92,107.879213 92,106.502809 C92,105.123596 90.8792135,104 89.5,104" id="Fill-67"></path>
            <path d="M105.5,39 C104.120787,39 103,40.1229646 103,41.5014037 C103,42.8798428 104.120787,44 105.5,44 C106.879213,44 108,42.8798428 108,41.5014037 C108,40.1229646 106.879213,39 105.5,39" id="Fill-68"></path>
            <path d="M105.5,56 C104.120787,56 103,57.1235955 103,58.502809 C103,59.8792135 104.120787,61 105.5,61 C106.879213,61 108,59.8792135 108,58.502809 C108,57.1235955 106.879213,56 105.5,56" id="Fill-69"></path>
            <path d="M105.5,71 C104.120787,71 103,72.1229646 103,73.5014037 C103,74.8798428 104.120787,76 105.5,76 C106.879213,76 108,74.8798428 108,73.5014037 C108,72.1229646 106.879213,71 105.5,71" id="Fill-70"></path>
            <path d="M105.5,89 C104.120787,89 103,90.1229646 103,91.5014037 C103,92.8798428 104.120787,94 105.5,94 C106.879213,94 108,92.8798428 108,91.5014037 C108,90.1229646 106.879213,89 105.5,89" id="Fill-71"></path>
            <path d="M105.5,104 C104.120787,104 103,105.123596 103,106.502809 C103,107.879213 104.120787,109 105.5,109 C106.879213,109 108,107.879213 108,106.502809 C108,105.123596 106.879213,104 105.5,104" id="Fill-72"></path>
            <path d="M114.59207,124.385356 C115.253585,124.385356 115.858589,124.784336 116.121201,125.396105 C117.048653,127.547273 118.983336,129.09997 121.300303,129.542173 C123.627242,129.99435 125.917615,129.279511 127.596335,127.597145 C129.278379,125.918104 129.986434,123.623969 129.544315,121.30656 C129.098873,118.989151 127.549796,117.050772 125.395715,116.123144 C124.784063,115.860482 124.385159,115.255362 124.385159,114.590395 C124.385159,113.928754 124.77409,113.326959 125.385743,113.064297 C127.985266,111.943828 129.663986,109.397005 129.663986,106.574221 C129.663986,103.748113 127.985266,101.204615 125.385743,100.087471 C124.77409,99.8248088 124.378511,99.2230138 124.378511,98.5580471 C124.378511,97.8930803 124.77409,97.2946103 125.385743,97.0319484 C127.985266,95.9148043 129.663986,93.3679816 129.663986,90.5418729 C129.663986,87.7157642 127.985266,85.1722664 125.385743,84.0551222 C124.77409,83.7924604 124.378511,83.1939903 124.378511,82.5256987 C124.378511,81.8640568 124.77409,81.2622619 125.385743,80.9996 C127.985266,79.8824559 129.663986,77.3356332 129.663986,74.5128494 C129.663986,71.6867407 127.985266,69.139918 125.385743,68.0227739 C124.77409,67.760112 124.378511,67.1583171 124.378511,66.4966752 C124.378511,65.8317084 124.77409,65.2299135 125.385743,64.9672516 C127.985266,63.8501075 129.663986,61.3066097 129.663986,58.480501 C129.663986,55.6543923 127.985266,53.1075696 125.385743,51.9904255 C124.77409,51.7277636 124.378511,51.1259687 124.378511,50.4643268 C124.378511,49.79936 124.77409,49.20089 125.385743,48.9349033 C127.985266,47.8177591 129.663986,45.2742613 129.663986,42.4481526 C129.663986,39.6253687 127.985266,37.0785461 125.385743,35.9614019 C124.77409,35.6987401 124.378511,35.0969452 124.378511,34.4319784 C124.378511,33.7703365 124.77409,33.1685416 125.385743,32.9058797 C127.985266,31.7887356 129.663986,29.2419129 129.663986,26.4158042 C129.663986,23.5930203 127.985266,21.0461977 125.385743,19.9290535 C124.77409,19.6663917 124.378511,19.0679216 124.378511,18.4029549 C124.378511,17.7379881 124.77409,17.1361932 125.385743,16.8735313 C127.795787,15.839508 129.378105,13.6584171 129.624096,11.0384481 C129.873411,8.43177841 128.723238,5.9980001 126.549212,4.52842358 C124.813981,3.35475726 122.656576,3.02227389 120.632139,3.61076946 C118.597729,4.20923954 116.952251,5.66219189 116.117877,7.59724514 C116.034772,7.79341033 115.915101,7.97295135 115.762188,8.12256887 C115.373256,8.51157442 114.828088,8.67781611 114.272947,8.58139593 C113.734426,8.47500125 113.279011,8.10926954 113.062938,7.60389481 C111.946008,5.00387481 109.399671,3.32483376 106.574103,3.32483376 C103.748534,3.32483376 101.205522,5.00387481 100.088591,7.60389481 C99.5666919,8.82410879 97.5555517,8.82410879 97.0369767,7.60389481 C95.9200459,5.00387481 93.3703856,3.32483376 90.5481409,3.32483376 C87.7258963,3.32483376 85.1762359,5.00387481 84.055981,7.60389481 C83.7933693,8.21566422 83.1950135,8.6079946 82.5301738,8.6079946 C81.8653341,8.6079946 81.2669783,8.21233938 81.0076908,7.60389481 C79.8907601,5.00387481 77.3444239,3.32483376 74.518855,3.32483376 C71.6966104,3.32483376 69.14695,5.00387481 68.0300193,7.60389481 C67.5114443,8.82410879 65.4969799,8.82410879 64.9784049,7.60389481 C63.8614742,5.00387481 61.315138,3.32483376 58.4895692,3.32483376 C55.6640003,3.32483376 53.1209884,5.00387481 52.0040576,7.60389481 C51.7447701,8.21233938 51.1430902,8.6079946 50.4782504,8.6079946 C49.8134107,8.6079946 49.2150549,8.21566422 48.9524433,7.60389481 C47.8321883,5.00387481 45.2825279,3.32483376 42.4636075,3.32483376 C39.6380386,3.32483376 37.0917025,5.00387481 35.9747717,7.60389481 C35.4528725,8.82410879 33.4417324,8.82410879 32.9231574,7.60389481 C31.8062266,5.00387481 29.2565663,3.32483376 26.4309974,3.32483376 C23.6087528,3.32483376 21.0624166,5.00387481 19.9454859,7.60389481 C19.6861984,8.21233938 19.0878426,8.6079946 18.4196787,8.6079946 C17.754839,8.6079946 17.153159,8.21233938 16.8938715,7.60389481 C15.9630959,5.43942803 14.0184397,3.88340583 11.6915006,3.44785261 C9.35791317,3.00564972 7.05091931,3.73046348 5.37884739,5.42945353 C3.71674807,7.11514424 3.01866635,9.4159292 3.47740576,11.7366632 C3.93282098,14.0673716 5.44533136,15.9359282 7.62268148,16.8735313 C8.23433403,17.1361932 8.62991367,17.7379881 8.62991367,18.4029549 C8.62991367,19.0679216 8.23433403,19.6663917 7.62268148,19.9290535 C5.02315814,21.0461977 3.34443782,23.5930203 3.34443782,26.4158042 C3.34443782,29.2419129 5.02315814,31.7887356 7.62268148,32.9058797 C8.23433403,33.1685416 8.62991367,33.7703365 8.62991367,34.4319784 C8.62991367,35.0969452 8.23433403,35.6987401 7.62268148,35.9614019 C5.02315814,37.0785461 3.34443782,39.6253687 3.34443782,42.4481526 C3.34443782,45.2742613 5.02315814,47.8177591 7.62268148,48.9349033 C8.23433403,49.20089 8.62991367,49.79936 8.62991367,50.4643268 C8.62991367,51.1259687 8.23433403,51.7277636 7.62268148,51.9904255 C5.02315814,53.1075696 3.34443782,55.6543923 3.34443782,58.480501 C3.34443782,61.3066097 5.02315814,63.8501075 7.62268148,64.9672516 C8.23433403,65.2299135 8.62991367,65.8317084 8.62991367,66.4966752 C8.62991367,67.1583171 8.23433403,67.760112 7.62268148,68.0227739 C5.02315814,69.139918 3.34443782,71.6867407 3.34443782,74.5128494 C3.34443782,77.3356332 5.02315814,79.8824559 7.62268148,80.9996 C8.23433403,81.2622619 8.62991367,81.8640568 8.62991367,82.5256987 C8.62991367,83.1939903 8.23433403,83.7924604 7.62268148,84.0551222 C5.02315814,85.1722664 3.34443782,87.7157642 3.34443782,90.5418729 C3.34443782,93.3679816 5.02315814,95.9148043 7.62268148,97.0319484 C8.23433403,97.2946103 8.62991367,97.8930803 8.62991367,98.5580471 C8.62991367,99.2230138 8.23433403,99.8248088 7.62268148,100.087471 C5.02315814,101.204615 3.34443782,103.748113 3.34443782,106.574221 C3.34443782,109.397005 5.02315814,111.943828 7.62268148,113.064297 C8.23433403,113.326959 8.62991367,113.925429 8.62991367,114.590395 C8.62991367,115.255362 8.23433403,115.853832 7.62268148,116.116494 C5.58827191,116.99425 4.05249213,118.799635 3.52394455,120.947478 C2.99872116,123.082021 3.50067516,125.239838 4.94670157,127.021949 C6.54896531,128.9969 8.88587696,129.941153 11.3790259,129.59537 C13.8455813,129.252912 15.9065845,127.680266 16.8938715,125.386131 C17.153159,124.777686 17.754839,124.382031 18.4196787,124.382031 C19.0878426,124.382031 19.6861984,124.777686 19.9454859,125.386131 C21.0624166,127.986151 23.6087528,129.668517 26.4309974,129.668517 C29.2565663,129.668517 31.8062266,127.986151 32.9231574,125.386131 C33.4417324,124.165917 35.4528725,124.165917 35.9747717,125.386131 C37.0917025,127.986151 39.6380386,129.668517 42.4636075,129.668517 C45.2825279,129.668517 47.8321883,127.986151 48.9524433,125.386131 C49.2150549,124.774361 49.8167349,124.382031 50.4782504,124.382031 C51.1430902,124.382031 51.7447701,124.777686 52.0040576,125.386131 C53.1209884,127.986151 55.6640003,129.668517 58.4895692,129.668517 C61.315138,129.668517 63.8614742,127.986151 64.9784049,125.386131 C65.4969799,124.165917 67.5114443,124.165917 68.0300193,125.386131 C69.14695,127.986151 71.6966104,129.668517 74.518855,129.668517 C77.3444239,129.668517 79.8907601,127.986151 81.0076908,125.386131 C81.2669783,124.777686 81.8653341,124.382031 82.5301738,124.382031 C83.1983377,124.382031 83.7933693,124.774361 84.055981,125.386131 C85.1762359,127.986151 87.7258963,129.668517 90.5481409,129.668517 C93.3703856,129.668517 95.9200459,127.986151 97.0369767,125.386131 C97.5555517,124.165917 99.5666919,124.165917 100.088591,125.386131 C101.205522,127.986151 103.748534,129.668517 106.574103,129.668517 C109.399671,129.668517 111.946008,127.986151 113.062938,125.386131 C113.322226,124.777686 113.92723,124.385356 114.59207,124.385356 Z M122.676521,133 C122.015005,133 121.343517,132.936828 120.675353,132.80716 C118.255337,132.345008 116.114553,131.054972 114.59207,129.206365 C112.650738,131.566997 109.728767,132.99335 106.574103,132.99335 C103.422762,132.99335 100.504116,131.566997 98.5627839,129.20969 C96.6214519,131.566997 93.7028054,132.99335 90.5481409,132.99335 C87.3934764,132.99335 84.47483,131.566997 82.5301738,129.206365 C80.592166,131.566997 77.6768438,132.99335 74.518855,132.99335 C71.3641905,132.99335 68.4455441,131.566997 66.5042121,129.20969 C64.5628801,131.566997 61.6442337,132.99335 58.4895692,132.99335 C55.3349047,132.99335 52.4162582,131.566997 50.4782504,129.206365 C48.5335942,131.566997 45.6149478,132.99335 42.4636075,132.99335 C39.3056188,132.99335 36.3902966,131.566997 34.4489646,129.20969 C32.5076325,131.566997 29.5889861,132.99335 26.4309974,132.99335 C23.2796571,132.99335 20.3643349,131.570321 18.4230029,129.213014 C16.7941455,131.201265 14.4738549,132.524549 11.8377654,132.886956 C8.21771304,133.39233 4.68408987,131.975951 2.36047502,129.113269 C0.276202468,126.539848 -0.475066427,123.271536 0.29614766,120.149518 C0.837992039,117.958452 2.08789073,116.010099 3.80650143,114.59372 C1.44632039,112.648693 0.0202391719,109.729489 0.0202391719,106.574221 C0.0202391719,103.418954 1.44632039,100.49975 3.80317723,98.5580471 C1.44632039,96.6163442 0.0202391719,93.6971401 0.0202391719,90.5418729 C0.0202391719,87.3866057 1.44632039,84.4674016 3.80317723,82.5256987 C1.44632039,80.5839958 0.0202391719,77.6647918 0.0202391719,74.5128494 C0.0202391719,71.3542573 1.44632039,68.4383781 3.80317723,66.4966752 C1.44632039,64.5549723 0.0202391719,61.6357682 0.0202391719,58.480501 C0.0202391719,55.3252337 1.44632039,52.4060297 3.80317723,50.4643268 C1.44632039,48.5226239 0.0202391719,45.6034198 0.0202391719,42.4481526 C0.0202391719,39.2928854 1.44632039,36.3736813 3.80317723,34.4319784 C1.44632039,32.4936003 0.0202391719,29.5710714 0.0202391719,26.4158042 C0.0202391719,23.260537 1.44632039,20.3413329 3.80317723,18.39963 C1.96821958,16.8901555 0.681754703,14.7722364 0.216366892,12.3783561 C-0.44182444,9.01029949 0.598649736,5.54249788 3.00869376,3.09542023 C5.43868297,0.62839358 8.92244315,-0.455502225 12.3064774,0.179541023 C14.743115,0.638368082 16.8905473,1.92840358 18.4196787,3.78366082 C20.3576865,1.42302885 23.2763329,0 26.4309974,0 C29.5889861,0 32.5076325,1.42302885 34.4489646,3.78033598 C36.3902966,1.42302885 39.3056188,0 42.4636075,0 C45.6149478,0 48.5335942,1.42302885 50.4782504,3.78366082 C52.4162582,1.42302885 55.3349047,0 58.4895692,0 C61.6442337,0 64.5628801,1.42302885 66.5042121,3.78033598 C68.4455441,1.42302885 71.3641905,0 74.518855,0 C77.6768438,0 80.592166,1.42302885 82.5301738,3.78366082 C84.47483,1.42302885 87.3934764,0 90.5481409,0 C93.7028054,0 96.6214519,1.42302885 98.5627839,3.78033598 C100.504116,1.42302885 103.422762,0 106.574103,0 C109.728767,0 112.650738,1.42302885 114.588746,3.78366082 C115.901804,2.19439028 117.666953,1.01739913 119.698039,0.422253887 C122.676521,-0.448852557 125.847806,0.0432228389 128.410764,1.77213639 C131.605318,3.93327834 133.297336,7.51412429 132.938322,11.3543073 C132.669062,14.1937153 131.326086,16.6873406 129.211895,18.4096045 C131.565428,20.3513074 132.988185,23.2671866 132.988185,26.4158042 C132.988185,29.5710714 131.562104,32.4936003 129.208571,34.4319784 C131.562104,36.3736813 132.988185,39.2928854 132.988185,42.4481526 C132.988185,45.6034198 131.562104,48.5226239 129.208571,50.4643268 C131.562104,52.4060297 132.988185,55.3252337 132.988185,58.480501 C132.988185,61.6357682 131.562104,64.5549723 129.208571,66.4966752 C131.562104,68.4383781 132.988185,71.3542573 132.988185,74.5128494 C132.988185,77.6647918 131.562104,80.5839958 129.208571,82.5256987 C131.562104,84.4674016 132.988185,87.3866057 132.988185,90.5418729 C132.988185,93.6971401 131.562104,96.6163442 129.208571,98.5580471 C131.562104,100.49975 132.988185,103.418954 132.988185,106.574221 C132.988185,109.726164 131.565428,112.645368 129.208571,114.587071 C131.043529,116.09987 132.343291,118.251037 132.808678,120.681491 C133.463545,124.09942 132.419747,127.477451 129.946543,129.951127 C127.961997,131.936053 125.385743,133 122.676521,133 Z" id="Fill-73"></path>
        </g>
    </g>
</svg>