<?xml version="1.0" encoding="UTF-8"?>
<svg width="111px" height="186px" viewBox="0 0 111 186" version="1.1" xmlns="http://www.w3.org/2000/svg" xmlns:xlink="http://www.w3.org/1999/xlink">
    <!-- Generator: Sketch 48.2 (47327) - http://www.bohemiancoding.com/sketch -->
    <title>Black cherry</title>
    <desc>Created with Sketch.</desc>
    <defs></defs>
    <g id="Fruits" stroke="none" stroke-width="1" fill="none" fill-rule="evenodd" transform="translate(-865.000000, -1036.000000)">
        <g id="Black-cherry" transform="translate(865.000000, 1036.000000)" fill="#481773">
            <path d="M9.61,135.66 C9.39,135.94 9.16,136.24 8.95,136.53 L8.77,136.81 C8.72,136.88 8.66,136.97 8.62,137.03 C8.47,137.22 8.34,137.44 8.22,137.64 C8.2,137.68 8.17,137.72 8.15,137.76 C7.97,138.02 7.81,138.29 7.66,138.58 L7.5,138.84 C1.12,150.44 4.29,168.28 14.2,176.22 C18.08,179.35 24.44,181.22 31.63,181.37 L32.51,181.37 C32.57,181.36 32.63,181.35 32.69,181.35 C40.79,181.15 47.92,178.02 52.92,172.51 C46.38,162.15 45.61,147.12 51.24,136.87 L51.34,136.69 C51.6,136.21 51.81,135.86 52.03,135.54 C52.21,135.24 52.41,134.92 52.61,134.64 L52.85,134.27 C52.88,134.23 52.91,134.19 52.94,134.16 L53.11,133.93 C51.8,132.67 50.32,131.63 48.7,130.84 C47.74,130.36 45.72,129.89 43.33,129.89 C41.05,129.89 36.74,130.35 33.55,133.42 C33.45,133.52 33.34,133.6 33.22,133.67 C33.14,133.79 33.05,133.9 32.94,133.99 C32.13,134.74 30.86,134.69 30.11,133.88 C27.27,130.79 23.39,130.01 20.62,129.9 C18.36,129.96 16.5,130.41 15.65,130.83 C15.12,131.09 14.67,131.33 14.25,131.59 C13.92,131.79 13.66,131.98 13.4,132.17 L12.94,132.47 C12.62,132.72 12.28,132.98 11.95,133.27 C11.91,133.31 11.86,133.35 11.8,133.39 C11.79,133.4 11.78,133.41 11.78,133.42 C11.43,133.71 11.09,134.05 10.77,134.37 C10.75,134.4 10.72,134.42 10.7,134.44 C10.39,134.77 10.08,135.12 9.79,135.47 C9.74,135.54 9.68,135.6 9.61,135.66 Z M32.74,185.37 L31.58,185.37 C23.49,185.2 16.25,183.01 11.69,179.34 C0.22,170.14 -3.36,150.29 4.03,136.86 L4.16,136.64 C4.33,136.32 4.56,135.92 4.82,135.54 C4.98,135.27 5.16,134.97 5.38,134.67 C5.44,134.59 5.5,134.5 5.56,134.41 L5.64,134.29 C5.95,133.85 6.25,133.45 6.56,133.08 C6.64,132.97 6.73,132.87 6.83,132.78 C7.15,132.39 7.49,132.01 7.83,131.66 C7.87,131.61 7.92,131.57 7.96,131.52 C8.31,131.17 8.68,130.8 9.1,130.44 C9.21,130.34 9.31,130.25 9.4,130.19 C9.74,129.89 10.15,129.57 10.59,129.24 C10.72,129.15 10.82,129.08 10.92,129.01 L11.08,128.91 C11.4,128.67 11.78,128.41 12.18,128.17 C12.67,127.87 13.24,127.55 13.89,127.24 C15.44,126.47 17.95,125.96 20.57,125.9 C20.58,125.9 20.58,125.89 20.59,125.89 C20.6,125.89 20.62,125.89 20.63,125.89 L21.01,125.89 C25.28,125.89 29.17,127.11 32.16,129.36 C35.15,127.11 39.05,125.89 43.33,125.89 C46.04,125.89 48.77,126.41 50.47,127.25 C53.06,128.52 55.36,130.29 57.28,132.51 C57.92,133.25 57.93,134.35 57.3,135.1 L57.16,135.27 C57.12,135.31 57.09,135.35 57.06,135.39 C56.99,135.49 56.91,135.57 56.83,135.65 C56.69,135.82 56.56,135.99 56.43,136.16 C56.34,136.29 56.24,136.42 56.14,136.55 L55.89,136.93 C55.71,137.18 55.56,137.43 55.42,137.66 C55.4,137.69 55.38,137.72 55.36,137.75 C55.18,138.01 55.03,138.28 54.88,138.56 L54.78,138.73 C49.56,148.24 50.55,162.3 57.06,171.51 C57.58,172.24 57.54,173.23 56.98,173.92 C51.25,180.99 42.75,185.04 33.03,185.34 C32.94,185.36 32.84,185.37 32.74,185.37 Z" id="Fill-262"></path>
            <path d="M56.14,136.55 L55.89,136.93 C55.71,137.18 55.56,137.43 55.42,137.66 C55.4,137.69 55.38,137.72 55.36,137.75 C55.18,138.01 55.03,138.28 54.88,138.56 L54.78,138.73 C48.34,150.45 51.52,168.29 61.41,176.22 C65.26,179.31 71.52,181.18 78.62,181.36 C78.66,181.36 78.71,181.35 78.75,181.35 C94.65,180.94 105.88,169.42 106.07,153.34 C106.13,148.27 105.15,135.95 94.77,130.84 C93.82,130.37 91.8,129.89 89.43,129.89 C87.67,129.89 84.59,130.17 81.8,131.8 C81.89,132.03 81.93,132.28 81.93,132.52 C81.93,133.08 81.71,133.62 81.26,134.02 C80.47,134.72 79.28,134.68 78.54,133.95 C77.94,134.04 77.32,133.87 76.85,133.42 C73.78,130.47 69.69,129.94 67.5,129.9 C65.24,130 63.59,130.46 62.86,130.83 C62.33,131.08 61.88,131.33 61.47,131.59 C61.44,131.61 61.41,131.63 61.38,131.65 C61.14,131.78 60.87,131.97 60.62,132.16 C60.58,132.19 60.54,132.21 60.5,132.24 C60.36,132.33 60.27,132.38 60.18,132.45 C59.84,132.71 59.5,132.97 59.17,133.27 C59.11,133.32 59,133.4 58.92,133.46 C58.62,133.73 58.33,134.01 58.04,134.3 C58.01,134.34 57.97,134.39 57.92,134.43 C57.61,134.76 57.29,135.11 57,135.47 C56.94,135.53 56.89,135.59 56.83,135.65 C56.69,135.82 56.56,135.99 56.43,136.16 C56.34,136.29 56.24,136.42 56.14,136.55 Z M78.8,185.37 C78.79,185.37 78.78,185.37 78.76,185.37 C70.71,185.2 63.47,183.01 58.91,179.34 C47.44,170.15 43.86,150.3 51.24,136.87 L51.34,136.69 C51.6,136.21 51.81,135.86 52.03,135.54 C52.21,135.24 52.41,134.92 52.61,134.64 L52.85,134.27 C52.88,134.23 52.91,134.19 52.94,134.16 L53.23,133.77 C53.41,133.52 53.6,133.27 53.79,133.04 C53.87,132.96 53.93,132.89 53.99,132.83 C54.3,132.46 54.63,132.09 54.96,131.74 C55.01,131.68 55.06,131.63 55.11,131.58 C55.51,131.17 55.93,130.76 56.36,130.39 C56.39,130.36 56.42,130.33 56.46,130.31 C56.49,130.28 56.55,130.23 56.61,130.2 C56.92,129.92 57.31,129.6 57.78,129.25 C57.96,129.12 58.14,129 58.33,128.88 C58.57,128.71 58.94,128.43 59.37,128.19 C59.9,127.85 60.46,127.54 61.09,127.24 C62.55,126.51 64.91,126 67.39,125.9 C67.43,125.9 67.47,125.9 67.51,125.89 C71.61,125.97 75.36,127.19 78.25,129.37 C81.23,127.12 85.16,125.89 89.43,125.89 C92.12,125.89 94.84,126.41 96.54,127.25 C105.28,131.55 110.22,141.08 110.07,153.38 C109.86,171.65 97.14,184.76 79.09,185.34 C78.99,185.36 78.9,185.37 78.8,185.37 Z" id="Fill-263"></path>
            <path d="M31.59,134.65 C31.56,134.65 31.52,134.65 31.49,134.65 C30.39,134.6 29.54,133.66 29.59,132.56 C29.67,130.72 32,87.1 62.62,57.38 C63.41,56.61 64.68,56.63 65.45,57.43 C66.22,58.22 66.2,59.48 65.41,60.25 C35.92,88.87 33.6,132.31 33.58,132.74 C33.53,133.82 32.65,134.65 31.59,134.65" id="Fill-264"></path>
            <path d="M79.94,131.62 C79.32,131.62 78.72,131.34 78.33,130.81 C63.76,111.17 58.37,84.18 62.71,52.79 C65.98,29.2 73.43,11.7 73.75,10.96 C74.18,9.95 75.36,9.48 76.38,9.92 C77.39,10.35 77.86,11.53 77.42,12.54 C77.12,13.24 47.8,82.91 81.54,128.43 C82.2,129.32 82.01,130.57 81.13,131.23 C80.77,131.5 80.35,131.62 79.94,131.62" id="Fill-265"></path>
            <path d="M35.78,4.79 C30.14,12.82 29.63,24.77 34.54,35.58 C39.46,46.4 48.9,54.03 58.81,55.29 C64.45,47.25 64.96,35.3 60.05,24.51 C55.12,13.7 45.68,6.06 35.78,4.79 Z M59.66,59.39 C59.6,59.39 59.55,59.38 59.49,59.38 C47.8,58.42 36.57,49.72 30.9,37.24 C25.21,24.72 26.12,10.7 33.22,1.52 C33.44,1.24 33.73,1.02 34.06,0.89 L34.2,0.84 C34.48,0.72 34.8,0.67 35.11,0.7 C46.79,1.68 58,10.38 63.69,22.85 C69.38,35.35 68.47,49.37 61.37,58.56 C61.14,58.85 60.84,59.08 60.5,59.21 L60.37,59.26 C60.14,59.34 59.9,59.39 59.66,59.39 Z" id="Fill-266"></path>
        </g>
    </g>
</svg>