<?xml version="1.0" encoding="UTF-8"?>
<svg width="154px" height="154px" viewBox="0 0 154 154" version="1.1" xmlns="http://www.w3.org/2000/svg" xmlns:xlink="http://www.w3.org/1999/xlink">
    <!-- Generator: Sketch 48.2 (47327) - http://www.bohemiancoding.com/sketch -->
    <title>Blossom</title>
    <desc>Created with Sketch.</desc>
    <defs></defs>
    <g id="Floral-Icons" stroke="none" stroke-width="1" fill="none" fill-rule="evenodd" transform="translate(-1060.000000, -197.000000)">
        <g id="Blossom" transform="translate(1060.000000, 197.000000)" fill="#F564D4">
            <path d="M127.489,63.761 C130.107,60.936 131.363,58.047 130.351,55.491 C129.173,52.525 125.467,51.327 120.682,51.378 C131.346,39.313 135.834,27.258 131.12,22.544 C126.542,17.966 115.519,21.754 103.732,31.73 C103.506,28.132 102.345,25.41 99.934,24.368 C97.229,23.2 93.731,24.64 90.065,28.41 C89.164,12.046 83.803,0.138 77.025,0.138 C69.846,0.138 65.299,12.728 64.149,26.171 C61.324,23.553 58.435,22.298 55.879,23.313 C53.015,24.45 51.797,27.945 51.764,32.494 C41.178,23.335 28.737,17.297 23.493,22.544 C18.414,27.623 24.09,39.72 32.783,50.043 C28.667,50.098 25.512,51.241 24.368,53.883 C23.213,56.557 24.608,60.007 28.287,63.63 C12.22,64.622 0.526,69.972 0.526,76.638 C0.526,83.818 13.118,88.365 26.563,89.513 C23.944,92.339 22.688,95.228 23.7,97.785 C24.854,100.69 28.43,101.902 33.073,101.902 C33.171,101.902 33.276,101.893 33.375,101.892 C22.706,113.957 18.217,126.015 22.933,130.731 C24.26,132.058 26.062,132.653 28.187,132.653 C34.242,132.653 42.903,127.811 50.585,121.308 C50.646,125.406 51.791,128.545 54.425,129.684 C55.039,129.949 55.694,130.08 56.383,130.08 C58.66,130.08 61.306,128.63 64.054,125.876 C65.025,139.964 69.545,153.138 77.025,153.138 C84.205,153.138 88.752,140.547 89.902,127.103 C92.065,129.106 94.264,130.313 96.322,130.313 C96.953,130.313 97.572,130.2 98.172,129.962 C100.957,128.857 102.42,125.267 102.29,119.852 C111.207,128.092 120.021,132.77 126.107,132.77 C128.397,132.77 130.302,132.109 131.681,130.731 C136.761,125.65 131.052,113.504 122.349,103.185 C126.155,102.92 128.724,101.616 129.685,99.391 C130.949,96.461 129.176,92.993 125.755,89.645 C141.828,88.654 153.526,83.304 153.526,76.638 C153.526,69.456 140.935,64.91 127.489,63.761 Z M127.562,56.597 C128.669,59.39 122.408,66.381 109.697,71.422 C103.172,74.01 96.687,75.317 92.005,75.048 C91.709,72.239 90.627,69.667 88.998,67.531 C92.23,64.128 97.928,60.607 104.393,58.044 C117.104,53.004 126.453,53.804 127.562,56.597 Z M77.025,88.701 C70.373,88.701 64.961,83.29 64.961,76.638 C64.961,69.985 70.373,64.573 77.025,64.573 C83.679,64.573 89.091,69.985 89.091,76.638 C89.091,83.29 83.679,88.701 77.025,88.701 Z M128.999,24.665 C132.261,27.928 127.911,39.535 116.286,51.723 C112.129,52.301 107.563,53.56 103.287,55.255 C100.51,56.356 97.893,57.609 95.521,58.956 C96.768,56.872 98.066,54.396 99.351,51.425 C101.587,46.248 103.18,40.616 103.64,35.803 C115.496,25.104 126.002,21.669 128.999,24.665 Z M92.041,30.678 C94.768,27.817 97.272,26.485 98.744,27.122 C101.501,28.314 102.019,37.683 96.597,50.235 C92.642,59.385 88.569,63.681 86.831,65.226 C84.719,63.407 82.099,62.174 79.215,61.751 C79.174,57.087 80.681,50.782 83.384,44.526 C85.812,38.906 88.887,33.988 92.041,30.678 Z M77.025,3.138 C81.634,3.138 86.893,14.888 87.185,31.811 C84.775,35.023 82.51,38.986 80.63,43.336 C79.306,46.4 78.269,49.489 77.519,52.437 C76.859,49.358 75.888,46.107 74.601,42.859 C72.604,37.825 69.89,32.913 66.951,29.228 C67.722,13.099 72.746,3.138 77.025,3.138 Z M56.985,26.102 C60.137,24.848 67.153,32.222 71.812,43.965 C74.399,50.491 75.707,56.974 75.437,61.659 C72.627,61.955 70.054,63.037 67.918,64.666 C64.512,61.441 61.023,55.805 58.433,49.271 C53.393,36.56 54.193,27.209 56.985,26.102 Z M25.614,24.665 C28.78,21.499 40.104,25.632 52.035,36.776 C52.57,41.092 53.866,45.893 55.644,50.376 C56.92,53.593 58.416,56.616 60.026,59.289 C57.494,57.53 54.592,55.836 51.425,54.468 C46.677,52.417 41.547,50.908 37.016,50.316 C26.099,38.335 22.578,27.702 25.614,24.665 Z M27.122,55.074 C28.314,52.316 37.685,51.798 50.235,57.222 C56.779,60.05 62.114,64.317 65.087,67.486 C63.406,69.674 62.305,72.325 62.033,75.221 C61.187,75.18 60.298,75.183 59.369,75.229 C55.053,74.748 49.752,72.691 44.527,70.434 C38.906,68.005 33.988,64.93 30.678,61.776 C27.816,59.049 26.486,56.544 27.122,55.074 Z M3.526,76.638 C3.526,72.025 14.793,66.892 31.617,66.491 C34.862,68.955 38.901,71.271 43.338,73.187 C46.09,74.377 48.872,75.512 51.565,76.412 C48.876,77.06 46.069,77.945 43.248,79.063 C38.214,81.061 33.304,83.773 29.619,86.712 C13.488,85.941 3.526,80.917 3.526,76.638 Z M26.489,96.679 C25.238,93.521 32.613,86.509 44.354,81.853 C49.663,79.748 55.031,78.479 59.382,78.234 C60.009,78.296 60.624,78.332 61.221,78.332 C61.506,78.332 61.78,78.312 62.058,78.297 C62.363,81.074 63.435,83.618 65.045,85.733 C61.881,88.756 56.216,92.63 49.66,95.229 C36.946,100.271 27.597,99.471 26.489,96.679 Z M25.054,128.609 C21.789,125.345 26.142,113.731 37.777,101.539 C41.934,100.961 46.491,99.713 50.766,98.019 C54.127,96.686 57.28,95.024 60.026,93.295 C58.198,96.052 56.479,99.225 55.009,102.627 C52.951,107.389 51.44,112.534 50.852,117.075 C38.808,128.102 28.115,131.667 25.054,128.609 Z M55.615,126.93 C52.857,125.738 52.341,116.368 57.763,103.817 C60.59,97.276 64.32,91.667 67.869,88.572 C70.059,90.255 72.712,91.358 75.61,91.629 C75.563,92.603 75.568,93.627 75.637,94.708 C75.22,98.402 73.692,103.238 70.977,109.523 C68.549,115.145 65.474,120.064 62.317,123.374 C59.633,126.192 57.071,127.557 55.615,126.93 Z M77.025,150.138 C72.503,150.138 67.398,139.099 66.894,122.612 C69.41,119.336 71.778,115.232 73.731,110.713 C75.044,107.674 76.092,104.938 76.885,102.468 C77.523,105.044 78.386,107.726 79.452,110.417 C81.449,115.451 84.162,120.362 87.101,124.047 C86.328,140.176 81.305,150.138 77.025,150.138 Z M97.066,127.173 C93.906,128.43 86.898,121.05 82.241,109.311 C80.198,104.158 78.939,98.944 78.643,94.663 C78.751,93.563 78.773,92.544 78.711,91.601 C81.383,91.302 83.838,90.294 85.903,88.781 C88.901,91.788 92.932,97.228 95.618,104.005 C97.876,109.697 99.181,115.349 99.291,119.92 C99.387,123.871 98.555,126.583 97.066,127.173 Z M129.56,128.609 C126.092,132.08 114.13,127.557 101.859,115.289 C101.271,111.416 100.098,107.16 98.407,102.899 C97.138,99.696 95.575,96.771 93.949,94.218 C96.55,95.886 99.491,97.452 102.627,98.808 C108.107,101.176 113.608,102.673 118.286,103.102 C129.098,115.023 132.577,125.592 129.56,128.609 Z M126.931,98.201 C126.295,99.671 123.562,100.421 119.612,100.205 C115.047,99.957 109.437,98.482 103.816,96.054 C97.377,93.271 91.846,89.612 88.724,86.111 C90.528,83.887 91.716,81.143 92.015,78.14 C96.494,78.305 103.13,80.078 109.527,82.841 C121.12,87.852 128.277,95.083 126.931,98.201 Z M122.407,86.784 C119.06,84.252 114.94,81.913 110.717,80.087 C107.791,78.823 104.842,77.767 102.041,76.956 C104.876,76.302 107.844,75.384 110.803,74.211 C115.838,72.214 120.749,69.501 124.434,66.562 C140.564,67.332 150.526,72.357 150.526,76.638 C150.526,81.252 139.247,86.387 122.407,86.784 Z" id="Fill-34"></path>
        </g>
    </g>
</svg>