<?xml version="1.0" encoding="UTF-8"?>
<svg width="98px" height="191px" viewBox="0 0 98 191" version="1.1" xmlns="http://www.w3.org/2000/svg" xmlns:xlink="http://www.w3.org/1999/xlink">
    <!-- Generator: Sketch 48.2 (47327) - http://www.bohemiancoding.com/sketch -->
    <title>Blueberry</title>
    <desc>Created with Sketch.</desc>
    <defs></defs>
    <g id="Fruits" stroke="none" stroke-width="1" fill="none" fill-rule="evenodd" transform="translate(-837.000000, -1369.000000)">
        <g id="Blueberry" transform="translate(837.000000, 1369.000000)">
            <path d="M56.98,25.066 C56.93,25.066 56.87,25.064 56.82,25.059 C55.73,24.968 54.92,24.044 54.99,22.958 C55.01,22.51 55.48,18.106 62.81,1.495 C63.25,0.485 64.43,0.027 65.44,0.473 C66.46,0.918 66.91,2.099 66.47,3.11 C59.49,18.926 58.99,23.085 58.97,23.254 C58.87,24.282 58,25.066 56.98,25.066" id="Fill-401" fill="#417505"></path>
            <path d="M63.55,71.23 C62.75,71.23 61.99,70.74 61.68,69.94 C61.29,68.91 61.8,67.75 62.84,67.36 L64.48,66.73 C77.22,61.87 86.06,58.5 91.97,47.01 C85.63,49.08 75.84,52.01 72.85,51.42 C71.43,51.14 70.94,50.27 70.77,49.78 C70.28,48.35 71.19,47.29 72.34,45.95 C74.64,43.28 79.1,38.12 78.79,27.555 C77.91,28.71 76.89,29.99 75.75,31.28 C70.69,37.04 66.04,40.14 61.94,40.5 C60.95,40.6 60.03,39.92 59.81,38.95 C58.8,34.48 55.7,23.119 52.33,18.392 C48.95,23.118 45.84,34.48 44.83,38.95 C44.61,39.92 43.69,40.6 42.71,40.5 C38.61,40.14 33.96,37.04 28.9,31.28 C27.76,29.99 26.73,28.71 25.86,27.555 C25.56,38.1 30.01,43.27 32.31,45.94 C33.47,47.28 34.38,48.34 33.89,49.78 C33.68,50.38 33.15,51.16 31.8,51.42 C28.82,52.01 19.06,49.1 12.72,47.03 C18.23,56.87 28.96,62.1 38.04,65.61 C39.07,66.01 39.58,67.17 39.18,68.2 C38.79,69.23 37.63,69.74 36.6,69.34 C25.55,65.07 12.22,58.37 7.1,44.35 C6.83,43.62 7.01,42.81 7.55,42.26 C8.09,41.71 8.9,41.52 9.63,41.77 C16.25,44.06 23.92,46.35 28.14,47.19 C25.04,43.36 20.2,35.76 22.41,21.671 C22.53,20.847 23.16,20.189 23.98,20.021 C24.8,19.855 25.63,20.212 26.08,20.917 C28.46,24.711 35.45,34.13 41.39,36.15 C42.67,30.99 46.33,17.808 51.05,13.878 C51.79,13.26 52.87,13.259 53.61,13.879 C58.32,17.809 61.97,30.99 63.26,36.15 C69.21,34.13 76.19,24.713 78.56,20.919 C79,20.212 79.84,19.856 80.66,20.021 C81.48,20.188 82.1,20.845 82.23,21.669 C84.46,35.75 79.63,43.35 76.53,47.19 C80.75,46.35 88.41,44.06 95.02,41.77 C95.76,41.52 96.58,41.71 97.12,42.28 C97.66,42.84 97.82,43.67 97.53,44.4 C91.03,60.89 79.94,65.12 65.91,70.47 L64.27,71.09 C64.03,71.18 63.79,71.23 63.55,71.23" id="Fill-402" fill="#417505"></path>
            <path d="M53.4775014,158 C53.1575014,158 52.8375014,158.01 52.5175014,158.03 C48.6675014,158.27 45.1475014,160 42.5975014,162.89 C40.0475014,165.78 38.7875014,169.5 39.0275014,173.35 C39.5275014,181.25 46.3675014,187.38 54.3475014,186.86 C58.2075014,186.61 61.7375014,184.88 64.2875014,181.97 C66.8375014,179.08 68.0975014,175.37 67.8475014,171.53 C67.3675014,163.94 61.0575014,158 53.4775014,158 Z M53.4075014,190.89 C43.7175014,190.89 35.6475014,183.3 35.0375014,173.6 C34.7275014,168.68 36.3475014,163.94 39.5975014,160.25 C42.8475014,156.55 47.3475014,154.35 52.2675014,154.04 C52.6675014,154.01 53.0675014,154 53.4775014,154 C63.1575014,154 71.2275014,161.59 71.8375014,171.27 C72.1575014,176.18 70.5475014,180.92 67.2975014,184.62 C64.0375014,188.32 59.5275014,190.54 54.5975014,190.85 C54.1975014,190.88 53.7975014,190.89 53.4075014,190.89 Z" id="Fill-403" fill="#481773"></path>
            <path d="M20.46,99 C12.49,99 6,105.48 6,113.44 C6,121.41 12.49,127.88 20.46,127.88 C28.41,127.88 34.89,121.41 34.89,113.44 C34.89,105.48 28.41,99 20.46,99 Z M20.46,131.88 C10.28,131.88 2,123.61 2,113.44 C2,103.28 10.28,95 20.46,95 C30.62,95 38.89,103.28 38.89,113.44 C38.89,123.61 30.62,131.88 20.46,131.88 Z" id="Fill-405" fill="#481773"></path>
            <path d="M35.46,69 C31.25,69 27.25,70.83 24.5,74.02 C22.25,76.64 21,80 21,83.46 C21,91.42 27.49,97.91 35.46,97.91 C43.42,97.91 49.89,91.42 49.89,83.46 C49.89,75.48 43.42,69 35.46,69 Z M17,83.46 C17,79.04 18.59,74.76 21.47,71.41 C24.98,67.34 30.08,65 35.46,65 C45.63,65 53.89,73.28 53.89,83.46 C53.89,93.63 45.63,101.91 35.46,101.91 C25.28,101.91 17,93.63 17,83.46 Z" id="Fill-406" fill="#481773"></path>
            <path d="M69.45,69 C61.48,69 55,75.48 55,83.46 C55,91.42 61.48,97.91 69.45,97.91 C77.42,97.91 83.9,91.42 83.9,83.46 C83.9,75.48 77.42,69 69.45,69 Z M51,83.46 C51,73.28 59.28,65 69.45,65 C79.62,65 87.9,73.28 87.9,83.46 C87.9,93.63 79.62,101.91 69.45,101.91 C59.28,101.91 51,93.63 51,83.46 Z" id="Fill-407" fill="#481773"></path>
            <path d="M55.0375,145.14 C55.8875,152.42 62.0175,157.89 69.3775,157.89 C77.3575,157.89 83.8475,151.41 83.8475,143.44 C83.8475,135.47 77.3575,129 69.3775,129 C61.8975,129 55.6175,134.8 55.0075,142.23 C55.0675,142.85 55.0875,143.42 55.0875,143.97 C55.0875,144.37 55.0675,144.74 55.0375,145.12 L55.0375,145.14 Z M69.3775,161.89 C59.9075,161.89 52.0175,154.79 51.0375,145.38 C51.0275,145.26 51.0275,145.15 51.0275,145.03 L51.0475,144.82 C51.0675,144.54 51.0875,144.26 51.0875,143.97 C51.0875,143.5 51.0675,143 51.0075,142.45 C50.9975,142.34 50.9975,142.22 51.0075,142.11 C51.6875,132.51 59.7575,125 69.3775,125 C79.5575,125 87.8475,133.27 87.8475,143.44 C87.8475,153.61 79.5575,161.89 69.3775,161.89 Z" id="Fill-408" fill="#481773"></path>
            <path d="M53.45,99 C45.48,99 39,105.48 39,113.44 C39,121.41 45.48,127.88 53.45,127.88 C61.42,127.88 67.9,121.41 67.9,113.44 C67.9,112.96 67.87,112.47 67.81,111.93 C67.05,104.55 60.88,99 53.45,99 Z M53.45,131.88 C43.27,131.88 35,123.61 35,113.44 C35,103.28 43.27,95 53.45,95 C62.94,95 70.82,102.1 71.79,111.5 C71.86,112.18 71.9,112.81 71.9,113.44 C71.9,123.61 63.62,131.88 53.45,131.88 Z" id="Fill-409" fill="#481773"></path>
            <path d="M18.43,158 C10.47,158 4,164.48 4,172.46 C4,180.41 10.47,186.88 18.43,186.88 C20.77,186.88 22.98,186.34 25.02,185.28 C25.63,184.98 26.1,184.71 26.52,184.41 C30.52,181.69 32.89,177.23 32.89,172.46 C32.89,164.48 26.41,158 18.43,158 Z M18.43,190.88 C8.27,190.88 0,182.61 0,172.46 C0,162.28 8.27,154 18.43,154 C28.61,154 36.89,162.28 36.89,172.46 C36.89,178.55 33.87,184.25 28.8,187.69 C28.23,188.1 27.59,188.47 26.82,188.85 C24.25,190.19 21.41,190.88 18.43,190.88 Z" id="Fill-412" fill="#481773"></path>
            <path d="M26,189.020438 C25.26,189.020438 24.55,188.600438 24.21,187.900438 C24.07,187.610438 24,187.310438 24,187.020438 C24,186.280438 24.41,185.570438 25.12,185.220438 C25.69,184.940438 26.16,184.670438 26.58,184.370438 C27.48,183.730438 28.73,183.940438 29.37,184.840438 C29.62,185.190438 29.74,185.600438 29.74,186.000438 C29.74,186.620438 29.44,187.240438 28.89,187.630438 C28.29,188.060438 27.65,188.430438 26.88,188.810438 C26.6,188.950438 26.3,189.020438 26,189.020438" id="Fill-413" fill="#481773"></path>
            <path d="M25.9979581,189.022341 C25.3079581,189.022341 24.6279581,188.652341 24.2679581,188.012341 C23.7379581,187.092341 24.0179581,185.932341 24.8979581,185.352341 C25.4879581,184.952341 26.1379581,184.582341 26.8079581,184.222341 C27.7379581,183.742341 28.8879581,184.062341 29.4379581,184.962341 C29.9879581,185.852341 29.7479581,187.022341 28.8879581,187.632341 C28.2879581,188.062341 27.6479581,188.432341 26.8779581,188.812341 C26.5979581,188.952341 26.2979581,189.022341 25.9979581,189.022341" id="Fill-414" fill="#481773"></path>
            <path d="M27.1235161,183.997934 L28.0035161,185.797934 L27.1235161,183.997934 Z M28.0035161,187.797934 C27.3035161,187.797934 26.6235161,187.427934 26.2635161,186.787934 C25.7435161,185.867934 26.0135161,184.707934 26.8935161,184.127934 C27.2335161,183.897934 27.5835161,183.657934 27.9035161,183.417934 C28.3535161,183.057934 28.9435161,182.927934 29.5135161,183.037934 C29.6835161,183.077934 29.8535161,183.127934 30.0235161,183.197934 C30.7935161,183.437934 31.3535161,184.117934 31.4335161,184.927934 C31.5135161,185.787934 31.0335161,186.597934 30.2435161,186.947934 C29.8735161,187.107934 29.5235161,187.257934 29.1735161,187.427934 C29.0635161,187.497934 28.9535161,187.547934 28.8735161,187.597934 C28.5935161,187.727934 28.2935161,187.797934 28.0035161,187.797934 Z" id="Fill-415" fill="#481773"></path>
            <path d="M26.0059586,188.853491 C25.2859586,188.853491 24.5859586,188.463491 24.2359586,187.783491 C23.7159586,186.813491 24.0859586,185.613491 25.0459586,185.093491 C25.2859586,184.973491 25.5059586,184.843491 25.7359586,184.713491 C25.9459586,184.593491 26.1559586,184.463491 26.3559586,184.323491 C27.2759586,183.723491 28.5059586,183.983491 29.1159586,184.893491 C29.7259586,185.803491 29.4859586,187.033491 28.5759586,187.653491 C28.3059586,187.833491 28.0359586,188.003491 27.7459586,188.173491 C27.4759586,188.333491 27.1959586,188.483491 26.9159586,188.633491 C26.6259586,188.783491 26.3059586,188.853491 26.0059586,188.853491" id="Fill-416" fill="#481773"></path>
            <path d="M26,189.020438 C25.26,189.020438 24.55,188.600438 24.21,187.900438 C24.07,187.610438 24,187.310438 24,187.020438 C24,186.280438 24.41,185.570438 25.12,185.220438 C25.69,184.940438 26.16,184.670438 26.58,184.370438 C27.48,183.730438 28.73,183.940438 29.37,184.840438 C29.62,185.190438 29.74,185.600438 29.74,186.000438 C29.74,186.620438 29.44,187.240438 28.89,187.630438 C28.29,188.060438 27.65,188.430438 26.88,188.810438 C26.6,188.950438 26.3,189.020438 26,189.020438" id="Fill-417" fill="#481773"></path>
            <path d="M25.9979581,189.022341 C25.3079581,189.022341 24.6279581,188.652341 24.2679581,188.012341 C23.7379581,187.092341 24.0179581,185.932341 24.8979581,185.352341 C25.4879581,184.952341 26.1379581,184.582341 26.8079581,184.222341 C27.7379581,183.742341 28.8879581,184.062341 29.4379581,184.962341 C29.9879581,185.852341 29.7479581,187.022341 28.8879581,187.632341 C28.2879581,188.062341 27.6479581,188.432341 26.8779581,188.812341 C26.5979581,188.952341 26.2979581,189.022341 25.9979581,189.022341" id="Fill-418" fill="#481773"></path>
            <path d="M36.43,129 C28.47,129 22,135.49 22,143.46 C22,151.43 28.47,157.91 36.43,157.91 C44.39,157.91 50.88,151.43 50.88,143.46 C50.88,135.49 44.39,129 36.43,129 Z M36.43,161.91 C26.27,161.91 18,153.63 18,143.46 C18,133.28 26.27,125 36.43,125 C46.6,125 54.88,133.28 54.88,143.46 C54.88,153.63 46.6,161.91 36.43,161.91 Z" id="Fill-420" fill="#481773"></path>
        </g>
    </g>
</svg>