<?xml version="1.0" encoding="UTF-8"?>
<svg width="133px" height="133px" viewBox="0 0 133 133" version="1.1" xmlns="http://www.w3.org/2000/svg" xmlns:xlink="http://www.w3.org/1999/xlink">
    <!-- Generator: Sketch 48.2 (47327) - http://www.bohemiancoding.com/sketch -->
    <title>Bread and bread dough</title>
    <desc>Created with Sketch.</desc>
    <defs></defs>
    <g id="Bread-and-pastry" stroke="none" stroke-width="1" fill="none" fill-rule="evenodd" transform="translate(-344.000000, -918.000000)">
        <g id="Bread-and-bread-dough" transform="translate(344.000000, 918.000000)" fill="#C58418">
            <path d="M21.9324787,54.73816 C1.30939646,75.3615721 -2.83251957,104.774637 12.6971704,120.304575 C28.2268604,135.834513 57.6394544,131.689204 78.2625367,111.065792 L111.065181,78.2626231 C121.115565,68.2120782 127.582942,55.8127466 129.279631,43.3402233 C130.956358,31.0373715 127.769245,20.1551033 120.307143,12.6928814 C104.78078,-2.83373003 75.3648589,1.30825223 54.7417766,21.9316643 L21.9324787,54.73816 Z M37.0928895,133 C26.8062996,133 17.3181514,129.629857 10.3450944,122.656688 C-6.48539009,105.829262 -2.34014722,74.30362 19.5804027,52.3827195 L52.3897006,19.5795507 C74.3135774,-2.34467671 105.828734,-6.48000518 122.659219,10.3407678 C139.48305,27.1648676 135.341134,58.6938362 113.417257,80.6147368 L80.6146127,113.417906 C67.7763365,126.256387 51.6378347,133 37.0928895,133 Z" id="Fill-259"></path>
            <path d="M13.4130648,107 C12.6316275,107 11.9343967,106.463803 11.7693518,105.682677 C9.00063842,92.588885 13.4299061,72.2862256 29.5504196,56.4452527 L65.1226601,21.4865489 C65.7828399,20.837817 66.8472115,20.837817 67.5073913,21.4865489 C68.1642029,22.1319709 68.1642029,23.1778855 67.5073913,23.8266174 L31.9317826,58.7853212 C16.6971226,73.7558019 12.4867921,92.7874764 15.0635144,105.010776 C15.2555054,105.904438 14.6694274,106.781549 13.759996,106.966901 C13.6421068,106.99338 13.5275858,107 13.4130648,107" id="Fill-260"></path>
            <path d="M32.7563359,68.2298508 C31.3511644,71.7107616 29.9122959,78.413867 34.4748909,86.5718318 L50.2451601,114.778634 C51.6503315,111.297723 53.0858304,104.594617 48.5232354,96.4400126 L32.7563359,68.2298508 Z M50.2990755,120 C50.2687481,120 50.2384206,120 50.2114629,119.99664 C49.6318718,119.9664 49.1061962,119.643845 48.8265098,119.136492 L31.5331291,88.2047688 C23.867026,74.5062422 31.0175626,64.1508683 31.3275764,63.7140745 C31.6611783,63.2470411 32.2441391,62.9446454 32.7934027,63.0084845 C33.3729938,63.038724 33.8952998,63.3646394 34.1749862,63.8686323 L51.4683669,94.8037157 C59.1311002,108.502242 51.9839334,118.857616 51.6739195,119.29105 C51.3571662,119.737924 50.8449695,120 50.2990755,120 Z" id="Fill-261"></path>
            <path d="M49.7553669,52.227253 C48.3500397,55.7081126 46.9143818,62.4077594 51.4741123,70.5656042 L67.2461292,98.7753507 C68.6514564,95.294491 70.0871143,88.5914843 65.5273838,80.4336396 L49.7553669,52.227253 Z M67.3000507,104 C67.2697199,104 67.2393891,104 67.2090583,103.99664 C66.632773,103.966401 66.1070391,103.64049 65.8273217,103.136505 L48.5320245,72.201877 C40.8684419,58.5001921 48.0164009,48.1483306 48.3264491,47.7115432 C48.6600879,47.2445167 49.2127825,46.9421254 49.7890678,47.0093235 C50.3687231,47.0362027 50.894457,47.3621133 51.1741744,47.8660988 L68.4694716,78.8007267 C76.1296841,92.4990517 68.9850952,102.854273 68.675047,103.29106 C68.3582586,103.734568 67.8460051,104 67.3000507,104 Z" id="Fill-262"></path>
            <path d="M65.7488404,35.2272505 C64.3503018,38.7148301 62.9146935,45.4178372 67.4708964,53.5689625 L83.2457382,81.7753504 C84.6510168,78.2944906 86.0866251,71.5948435 81.5236822,63.4369984 L65.7488404,35.2272505 Z M83.2996578,87 C83.269328,87 83.2389983,87 83.2086685,86.9966401 C82.6290332,86.966401 82.1066875,86.6404904 81.8269798,86.1365049 L64.5289103,55.2052354 C56.8723326,41.5069097 64.0133045,31.1516879 64.323342,30.7149004 C64.6535993,30.244514 65.2433445,29.9421227 65.7859101,30.0093208 C66.3655454,30.0395599 66.8878912,30.3621106 67.1675989,30.869456 L84.4656683,61.8040854 C92.132356,75.502411 84.9846441,85.854273 84.6746066,86.2910604 C84.3578292,86.7379275 83.8455934,87 83.2996578,87 Z" id="Fill-263"></path>
            <path d="M82.752302,19.2313217 C81.3468846,22.7121337 79.9145047,29.4116887 84.4745281,37.5694218 L100.247558,65.7754222 C101.652975,62.2946102 103.088725,55.5916953 98.5253318,47.4339623 L82.752302,19.2313217 Z M100.298113,71 C100.27115,71 100.240817,71 100.210485,70.9966401 C99.630792,70.9664014 99.1083947,70.6404953 98.8286593,70.1365167 L81.5322514,39.2023124 C73.8681766,25.5041749 81.0165946,15.1524552 81.3266627,14.7156738 C81.6569527,14.2452938 82.2130531,13.9395468 82.7893753,14.0101038 C83.3690679,14.0403425 83.8914652,14.3628888 84.1712006,14.8702272 L101.467609,45.8010717 C109.131683,59.4992091 101.983265,69.8542887 101.676567,70.2910702 C101.359759,70.7379311 100.847472,71 100.298113,71 Z" id="Fill-264"></path>
        </g>
    </g>
</svg>