<?xml version="1.0" encoding="UTF-8"?>
<svg width="132px" height="133px" viewBox="0 0 132 133" version="1.1" xmlns="http://www.w3.org/2000/svg" xmlns:xlink="http://www.w3.org/1999/xlink">
    <!-- Generator: Sketch 48.2 (47327) - http://www.bohemiancoding.com/sketch -->
    <title>Brioche</title>
    <desc>Created with Sketch.</desc>
    <defs></defs>
    <g id="Bread-and-pastry" stroke="none" stroke-width="1" fill="none" fill-rule="evenodd" transform="translate(-781.000000, -678.000000)">
        <g id="Brioche" transform="translate(781.000000, 678.000000)" fill="#C58418">
            <path d="M11.6142289,109 C10.918749,109 10.2736662,108.574508 10.0317601,107.896381 C6.36957111,97.7111697 7.66309658,87.2567024 13.8720188,76.8155316 C14.3423917,76.0243828 15.3772121,75.7684228 16.1734862,76.2271562 C16.9697603,76.6925379 17.2385448,77.7130535 16.768172,78.5042024 C11.0833795,88.0544996 9.88392861,97.5649069 13.1933379,106.779464 C13.5057999,107.643745 13.0488663,108.597777 12.1786764,108.900275 C11.9905272,108.970083 11.7990183,109 11.6142289,109" id="Fill-253"></path>
            <path d="M90.8844619,93.7184206 L90.8844619,45.6987346 C91.018257,44.9306591 91.1085686,44.1393085 91.1152584,43.3113829 C91.7641642,40.0030054 93.7911589,38.117729 95.5572533,37.1036032 C97.4370734,36.0229774 99.7684518,35.481002 102.063036,35.481002 C104.203757,35.481002 106.311029,35.9531523 107.976777,36.9107531 C109.351521,37.6987787 110.99051,39.1518047 110.99051,41.6023316 L110.99051,70.5930283 C110.99051,79.3411098 98.8251968,89.9777928 90.8844619,93.7184206 Z M67.4301936,117.033338 L67.4301936,116.863763 C67.5405745,116.228687 67.6710247,115.596937 67.6710247,114.928611 L67.6710247,85.9379148 C67.6710247,85.3194643 67.5572989,84.7342639 67.4301936,84.1557134 L67.4301936,69.0003521 C67.5639886,68.2356015 67.6509554,67.4509009 67.66099,66.6329503 C68.3098959,63.3179228 70.3368906,61.4326464 72.1063298,60.4185207 C73.9828051,59.3378949 76.3141834,58.7925944 78.6087682,58.7925944 C80.7494886,58.7925944 82.8567603,59.2680698 84.5258532,60.2256705 C85.9005972,61.0103711 87.5395862,62.4667222 87.5395862,64.913924 L87.5395862,93.9079457 C87.5395862,102.656027 75.3709285,113.29271 67.4301936,117.033338 Z M60.1517441,122.253592 C55.4822976,125.618494 48.2908149,126.682495 43.7484737,125.74152 L44.2201012,89.8813677 C44.2167563,85.1232892 46.755517,82.6627873 48.8895477,81.4391864 C52.5254275,79.3544098 57.867194,79.2746098 61.312416,81.2463363 C62.3861211,81.8647867 63.5969661,82.9088375 64.0853179,84.4981887 L64.0853179,116.837163 C63.5902763,118.898664 62.2857748,120.720766 60.1517441,122.253592 Z M28.485806,129.289297 C24.6626131,128.358297 21.6923634,125.96762 20.6721764,123.011693 L20.7658329,113.196285 C20.762488,108.554582 23.1607639,106.203805 25.1710342,105.050029 C28.699878,103.015128 33.8309173,103.015128 37.3664509,105.046704 C38.844886,105.891255 40.6109803,107.444031 40.6109803,110.000958 L40.5005994,118.250289 L40.3969083,126.303445 C37.2092418,129.219472 32.7940059,130.333348 28.485806,129.289297 Z M6.06175936,109.020082 C2.39243073,100.843901 -0.724993412,84.5148137 17.4343367,64.5282237 C17.4343367,64.5814238 17.4209572,64.6379488 17.4209572,64.6944739 L17.4209572,93.6851706 C17.4209572,93.8347957 17.4711303,93.9677958 17.4778201,94.1174209 L17.3339904,121.339216 C14.0994956,120.235315 9.11563086,115.816387 6.06175936,109.020082 Z M40.8752288,41.5657565 L40.8752255,89.7417176 C40.8785704,94.4997962 38.3364649,96.960298 36.1990893,98.1838989 C32.5732441,100.272 27.2314776,100.355126 23.7795659,98.3767491 C22.4784092,97.6286235 20.9865947,96.2553975 20.8260406,94.0376208 L20.9932844,62.6562473 C22.6255838,54.3603661 33.5399131,45.0270841 40.8752288,41.5657565 Z M44.2201012,76.957083 C44.6482453,77.2995583 45.0563201,77.6520086 45.5613964,77.9412838 C46.0363687,78.213934 46.5481347,78.4466842 47.0665904,78.6594843 C45.9795058,79.3045348 45.032906,80.0759354 44.2201012,80.943761 L44.2201012,76.957083 Z M20.7925919,100.288626 C21.2107013,100.624451 21.6120864,100.970251 22.107128,101.256201 C22.6322735,101.555451 23.1875229,101.814802 23.7594966,102.040902 C23.6758747,102.087452 23.5822182,102.120702 23.4985963,102.167252 C22.45834,102.765752 21.5552235,103.487278 20.7691778,104.301904 L20.7925919,100.288626 Z M40.6979471,103.374228 C40.1861811,102.945302 39.6643805,102.523027 39.0388888,102.163927 C38.4869843,101.848052 37.9049759,101.575401 37.309588,101.336001 C37.4935562,101.239576 37.6975936,101.166426 37.874872,101.063351 C38.9753361,100.431601 39.9319706,99.670175 40.7581549,98.8123244 L40.6979471,103.374228 Z M64.0853179,79.1748597 C63.7240713,78.9022095 63.3996184,78.6062843 62.9848538,78.3668841 C62.5098815,78.0942339 61.9981155,77.8648087 61.4763149,77.6520086 C62.4530186,77.0734581 63.329376,76.4018076 64.0853179,75.6403821 L64.0853179,79.1748597 Z M64.326149,18.2508391 L64.326149,66.2871501 C64.1956988,67.0519006 64.108732,67.8366012 64.0953525,68.6545518 C63.4497915,71.9695793 61.4227969,73.8548557 59.6533576,74.8689815 C56.0275124,76.953758 50.682401,77.0402081 47.2338342,75.0618316 C45.8590903,74.273806 44.2201012,72.8174549 44.2201012,70.3702531 L44.2201012,41.3795564 C44.2201012,32.6347999 56.3854141,21.9981169 64.326149,18.2508391 Z M67.6710247,53.6421656 C68.0991687,53.9846408 68.5105885,54.3370911 69.0156647,54.6296913 C70.3870637,55.4143919 71.9691899,55.9231173 73.6282483,56.2123925 C72.50437,56.5448928 71.4172854,56.9704931 70.4305471,57.5390685 C69.3869459,58.134244 68.4671051,58.8457945 67.6710247,59.6471201 L67.6710247,53.6421656 Z M87.5395862,58.3304191 C87.1114422,57.9879438 86.7033673,57.6354936 86.1982911,57.3462184 C84.8235472,56.5581928 83.2347312,56.0494674 81.572328,55.7601922 C82.702896,55.4276919 83.7933255,55.0054166 84.7834087,54.4368412 C85.823665,53.8383407 86.7435058,53.1267902 87.5395862,52.3254646 L87.5395862,58.3304191 Z M71.8487744,10.7363335 C75.4411709,8.15280653 80.5253819,6.92588061 84.7432702,6.92588061 C86.0109781,6.92588061 87.1984089,7.0389307 88.2486999,7.25505586 L87.7837622,42.9622576 C87.6466223,43.7303332 87.5596555,44.5183588 87.5496209,45.3429594 C86.900715,48.6546619 84.8770652,50.5432633 83.107626,51.557389 C79.4851256,53.6454906 74.1400142,53.7252906 70.6881025,51.7469142 C69.3133586,50.9588886 67.6710247,49.5058625 67.6710247,47.0553357 L67.6710247,18.064639 C67.6710247,15.1984868 69.0758724,12.73466 71.8487744,10.7363335 Z M103.521402,3.7106032 C107.34125,4.6382789 110.30481,7.02895569 111.324997,9.9848829 L111.234686,19.8002903 C111.23803,24.5982688 108.68589,27.0687457 106.54517,28.3023216 C102.91598,30.3804482 97.79832,30.4735482 94.3731673,28.4984968 C93.008458,27.7171212 91.3761587,26.2640951 91.3761587,23.8301933 L91.6002653,6.69313044 C94.7912767,3.77377825 99.1931331,2.65657742 103.521402,3.7106032 Z M125.935414,23.9798184 C129.621467,32.1859245 132.758961,48.6081118 114.3588,68.7077519 L114.663183,11.6573592 C117.901023,12.76126 122.881543,17.1801883 125.935414,23.9798184 Z M111.194547,35.1618018 C110.71623,34.7628015 110.231223,34.3638012 109.649215,34.0313009 C108.311264,33.2632253 106.769277,32.76115 105.153702,32.4685497 C106.224062,32.1360495 107.264318,31.7270742 108.217608,31.1784488 C109.37828,30.5134483 110.371708,29.6988227 111.227996,28.784447 L111.194547,35.1618018 Z M91.2925368,30.3438731 C91.7374052,30.7062984 92.1688942,31.0753737 92.7007294,31.3779489 C94.0052309,32.1260745 95.4803211,32.6214998 97.0156191,32.9207501 C95.915155,33.2532503 94.8514845,33.6688756 93.8814705,34.224151 C92.8813527,34.7993765 91.9916158,35.477677 91.2156046,36.2424276 L91.2925368,30.3438731 Z M113.850378,74.0477059 C137.709377,50.3337881 132.387679,30.184273 128.989286,22.6198924 C125.186162,14.147786 118.633551,8.79785701 114.178176,8.16943154 C112.58936,4.5019538 108.926721,1.60255163 104.314138,0.482025788 C98.9489572,-0.828025193 93.4800855,0.575125857 89.4762693,4.16945355 C84.2080901,2.87602758 75.651898,3.90345335 69.8920221,8.04640645 C67.446918,9.80200777 65.8514123,11.9665844 65.0185382,14.3738862 C57.3654627,17.1336383 44.1164101,27.434496 41.4037159,37.7519787 C34.3393384,40.3687556 22.699171,49.2265623 18.7756318,58.6130443 C18.5548701,58.6928444 18.3274185,58.7693194 18.153485,58.9422196 C-5.70885819,82.6627873 -0.387160967,102.812302 3.00788786,110.373358 C6.82104614,118.858764 13.3000703,124.112268 17.8123077,124.800544 C19.3944339,128.481322 23.0637625,131.394024 27.6897256,132.51455 C29.0310207,132.8404 30.3723159,133 31.7002315,133 C35.697358,133 39.490447,131.500424 42.4941454,128.807172 C43.8956483,129.156297 45.4710847,129.379072 47.2338342,129.379072 C52.0905937,129.379072 57.8772286,127.999196 62.1151861,124.946844 C63.6571738,123.836293 64.8211906,122.546192 65.7309968,121.159666 C65.7410314,121.159666 65.7477211,121.166316 65.7577558,121.166316 C65.9350342,121.166316 66.1156575,121.136391 66.2862461,121.083191 C73.8590447,118.572814 87.5931043,108.055831 90.3559716,97.5321984 C98.0759447,94.6760213 111.2581,84.3585386 113.850378,74.0477059 Z" id="Fill-254"></path>
            <path d="M25.6238631,65 C25.429129,65 25.2311494,64.9660781 25.0429064,64.8982342 C24.2055498,64.5929368 23.7868715,63.7017152 24.1081827,62.9060918 C26.1496452,57.8455566 29.9826614,53.5837287 35.5066187,50.2377929 C36.256345,49.7875564 37.2624712,49.9941718 37.7460609,50.7096161 C38.226405,51.4281443 38.0057064,52.3810421 37.2494889,52.8405301 C32.3292073,55.8225761 28.9246061,59.5786589 27.136298,64.0100964 C26.8896348,64.623775 26.2762224,65 25.6238631,65" id="Fill-255"></path>
            <path d="M48.6236965,43 C48.4289824,43 48.2342683,42.9660829 48.0427994,42.8982486 C47.2055287,42.5929945 46.7868933,41.7018991 47.1081716,40.9063884 C49.1494246,35.8434866 52.9852927,31.5853457 58.5054379,28.2398838 C59.2583325,27.7866277 60.2611102,27.9932138 60.7446502,28.7116402 C61.2281903,29.4269832 61.0042691,30.3828294 60.2481292,30.8391689 C55.3283526,33.8207926 51.927346,37.5794267 50.1392214,42.0071532 C49.8925835,42.6238282 49.2759888,43 48.6236965,43" id="Fill-256"></path>
            <path d="M71.5958017,19 C71.4044327,19 71.2130638,18.9653721 71.0248843,18.8961164 C70.2019977,18.5844656 69.7905545,17.6746972 70.1063133,16.8625163 C72.2974879,11.2244704 78.4595685,9.65677248 83.537225,10.0597149 C84.4143327,10.1289706 85.0649872,10.8907837 84.9948186,11.7564803 C84.92465,12.6221769 84.1368477,13.2706624 83.2756874,13.1951107 C81.3651873,13.0408593 75.046822,12.9369757 73.0852901,17.9894959 C72.8428894,18.6159455 72.2368877,19 71.5958017,19" id="Fill-257"></path>
            <path d="M106.432878,13 C106.150535,13 105.865055,12.9153371 105.607809,12.7460114 C103.41181,11.2830367 99.4966557,10.7208752 96.2748103,12.4784766 C95.5030733,12.8916315 94.5556562,12.566526 94.1697877,11.7334433 C93.7776449,10.9003605 94.088222,9.8810194 94.859959,9.45770499 C99.3147014,7.02957351 104.406284,7.96425174 107.254809,9.86408682 C107.992038,10.3551315 108.221049,11.3981783 107.766163,12.1940094 C107.471272,12.7155327 106.956781,13 106.432878,13" id="Fill-258"></path>
        </g>
    </g>
</svg>