<?xml version="1.0" encoding="UTF-8"?>
<svg width="141px" height="119px" viewBox="0 0 141 119" version="1.1" xmlns="http://www.w3.org/2000/svg" xmlns:xlink="http://www.w3.org/1999/xlink">
    <!-- Generator: Sketch 48.2 (47327) - http://www.bohemiancoding.com/sketch -->
    <title>Butter</title>
    <desc>Created with Sketch.</desc>
    <defs></defs>
    <g id="Dairy" stroke="none" stroke-width="1" fill="none" fill-rule="evenodd" transform="translate(-590.000000, -649.000000)">
        <g id="Butter" transform="translate(590.000000, 649.000000)" fill="#F8E71C">
            <path d="M130.766,80.743 L138.763,80.743 L138.763,75.874 L130.766,75.874 L130.766,32.814 C130.766,25.692 124.972,19.897 117.849,19.897 L80.805,19.897 C82.27,17.914 83.148,15.471 83.148,12.821 C83.148,6.236 77.79,0.877 71.203,0.877 C64.617,0.877 59.259,6.236 59.259,12.821 C59.259,15.471 60.136,17.914 61.602,19.897 L24.557,19.897 C17.435,19.897 11.641,25.692 11.641,32.814 L11.641,75.874 L3.643,75.874 L3.643,80.743 L130.766,80.743 Z M16.51,32.814 C16.51,28.376 20.12,24.766 24.557,24.766 L117.849,24.766 C122.286,24.766 125.897,28.376 125.897,32.814 L125.897,75.874 L16.51,75.874 L16.51,32.814 Z M64.128,12.821 C64.128,8.92 67.302,5.746 71.203,5.746 C75.105,5.746 78.279,8.92 78.279,12.821 C78.279,16.723 75.105,19.897 71.203,19.897 C67.302,19.897 64.128,16.723 64.128,12.821 Z" id="Fill-17"></path>
            <path d="M7.065,104.273 C16.384,113.592 29.294,118.528 44.4,118.549 L44.453,118.549 L79.86,117.073 C84.59,116.783 88.265,114.659 89.942,111.358 C106.893,113.809 118.159,115.117 125.786,115.117 C132.09,115.117 135.965,114.207 138.35,112.167 C139.776,110.95 140.469,109.295 140.469,107.108 C140.469,105.151 139.894,103.625 138.712,102.443 C136.401,100.132 132.298,99.102 125.408,99.102 C117.153,99.102 104.758,100.656 89.454,102.9 C89.154,102.46 88.826,102.034 88.437,101.644 C86.432,99.639 83.467,98.551 79.866,98.496 L0.751,97.132 L4.262,101.241 C5.153,102.284 6.096,103.304 7.065,104.273 Z M84.994,105.087 C85.995,106.089 86.296,107.468 85.799,108.779 C85.059,110.735 82.727,112.019 79.61,112.211 L44.355,113.68 C31.357,113.651 20.197,109.689 11.941,102.195 L79.787,103.364 C82.101,103.4 83.902,103.996 84.994,105.087 Z M135.269,105.885 C135.393,106.009 135.6,106.217 135.6,107.108 C135.6,108.113 135.352,108.324 135.187,108.465 C133.804,109.648 130.64,110.248 125.786,110.248 C119.074,110.248 108.894,109.118 94.496,107.088 C107.596,105.218 118.219,103.971 125.408,103.971 C131.975,103.971 134.395,105.012 135.269,105.885 Z" id="Fill-18"></path>
        </g>
    </g>
</svg>