<?xml version="1.0" encoding="UTF-8"?>
<svg width="135px" height="131px" viewBox="0 0 135 131" version="1.1" xmlns="http://www.w3.org/2000/svg" xmlns:xlink="http://www.w3.org/1999/xlink">
    <!-- Generator: Sketch 48.2 (47327) - http://www.bohemiancoding.com/sketch -->
    <title>Camomile</title>
    <desc>Created with Sketch.</desc>
    <defs></defs>
    <g id="Floral-Icons" stroke="none" stroke-width="1" fill="none" fill-rule="evenodd" transform="translate(-266.000000, -206.000000)">
        <g id="Camomile" transform="translate(266.000000, 206.000000)" fill="#F8E71C">
            <path d="M131.359412,47.5521149 C128.921471,45.7119189 125.692941,45.2436824 122.270294,46.2368041 L98.7538235,53.0488041 L120.217941,41.4960203 C123.307941,39.8337365 125.235,37.2845473 125.646176,34.3202297 C126.052059,31.387777 124.912941,28.4508986 122.439706,26.0512973 L108.022941,12.071473 C105.529412,9.65328378 102.503824,8.56987838 99.4994118,9.01244595 C96.5320588,9.45147297 93.9847059,11.3323851 92.3276471,14.3082095 L80.0002941,36.4472095 L87.4014706,12.4219865 C88.3897059,9.21337162 87.9811765,6.14903378 86.25,3.79368919 C84.4508824,1.34717568 81.4905882,0 77.9135294,0 L57.5267647,0 C53.9541176,0 50.9814706,1.34894595 49.1576471,3.79811486 C47.4017647,6.15611486 46.9570588,9.22664865 47.9064706,12.4441149 L54.6979412,35.4620541 L42.6,14.3241419 C40.9085294,11.3695608 38.3302941,9.50812162 35.3426471,9.08414189 C32.3197059,8.65573649 29.2861765,9.74887838 26.7952941,12.1617568 L12.3794118,26.1424662 C9.90441176,28.5429527 8.77235294,31.4700946 9.19235294,34.3830743 C9.61764706,37.3305743 11.565,39.8514392 14.6788235,41.480973 L38.1494118,53.7701892 L12.7279412,46.4058649 C9.30705882,45.4145135 6.07764706,45.8809797 3.63970588,47.7211757 C1.29264706,49.4914459 0,52.3088311 0,55.6546419 L0,75.4250203 C0,78.7672905 1.29352941,81.5952973 3.64235294,83.3885811 C5.27735294,84.6357365 7.26529412,85.2739189 9.43235294,85.2739189 C10.5026471,85.2739189 11.6170588,85.11725 12.7517647,84.803027 L37.1073529,78.0450203 L14.8014706,89.7243784 C11.6894118,91.353027 9.74117647,93.8730068 9.31588235,96.8196216 C8.89588235,99.7343716 10.0279412,102.660628 12.5038235,105.061115 L26.9197059,119.042709 C29.055,121.113926 31.5917647,122.212378 34.1770588,122.212378 C34.605,122.212378 35.0347059,122.183169 35.4635294,122.122095 C38.4529412,121.698115 41.0311765,119.836676 42.7244118,116.881209 L54.4420588,96.4080338 L47.9064706,118.55677 C46.9570588,121.773351 47.4017647,124.843885 49.1576471,127.201885 C50.9814706,129.651054 53.9541176,131 57.5267647,131 L77.9135294,131 C81.4905882,131 84.4508824,129.652824 86.25,127.206311 C87.9811765,124.850966 88.3897059,121.786628 87.4014706,118.578014 L79.8238235,93.9801081 L92.4511765,116.656385 C94.1073529,119.633095 96.6547059,121.514007 99.6229412,121.953919 C100.063235,122.019419 100.503529,122.051284 100.942941,122.051284 C103.501765,122.051284 106.017353,120.957257 108.144706,118.894892 L122.560588,104.915953 C125.034706,102.516351 126.173824,99.5803581 125.767941,96.6470203 C125.357647,93.6827027 123.429706,91.1335135 120.339706,89.4703446 L99.7641176,78.3955338 L122.248235,84.6339662 C123.383824,84.9490743 124.497353,85.1048581 125.568529,85.1048581 C127.733824,85.1048581 129.723529,84.4675608 131.356765,83.2204054 C133.705588,81.4271216 135,78.5982297 135,75.2559595 L135,55.4864662 C135,52.1406554 133.706471,49.3223851 131.359412,47.5521149 Z M67.5,84.8738378 C56.4582353,84.8738378 47.4758824,76.1835811 47.4758824,65.5008851 C47.4758824,54.8181892 56.4582353,46.1270473 67.5,46.1270473 C78.5408824,46.1270473 87.5241176,54.8181892 87.5241176,65.5008851 C87.5241176,76.1835811 78.5408824,84.8738378 67.5,84.8738378 Z M94.6385294,15.6031622 C95.8861765,13.3628851 97.7497059,11.9555203 99.8858824,11.639527 C102.058235,11.318223 104.294118,12.1493649 106.183235,13.9807095 L120.6,27.9605338 C122.449412,29.7547027 123.311471,31.8834527 123.023824,33.9546689 C122.732647,36.05775 121.291765,37.905027 118.966765,39.155723 L87.8920588,55.8830068 C85.7320588,51.5759392 82.1664706,48.0557568 77.7811765,45.8774392 L94.6385294,15.6031622 Z M51.2779412,5.38781757 C52.5908824,3.62551351 54.8091176,2.65540541 57.5267647,2.65540541 L77.9135294,2.65540541 C80.6285294,2.65540541 82.8326471,3.61931757 84.1191176,5.37011486 C85.3394118,7.02974324 85.6067647,9.25497297 84.8726471,11.6386419 L74.7123529,44.6214324 C72.4447059,43.8796892 70.0208824,43.4716419 67.5,43.4716419 C64.9358824,43.4716419 62.4723529,43.8938514 60.1720588,44.6586081 L50.445,11.6908649 C49.7382353,9.29657432 50.0347059,7.05806757 51.2779412,5.38781757 Z M11.8120588,34.0033514 C11.5173529,31.9569189 12.3723529,29.8432162 14.2191176,28.0525878 L28.635,14.0718784 C30.525,12.2387635 32.7776471,11.4023108 34.9711765,11.7138784 C37.1347059,12.0201351 39.0282353,13.4168784 40.3041176,15.6465338 L57.5205882,45.7269662 C53.1097059,47.8371284 49.5061765,51.3006622 47.2808824,55.5555068 L15.9035294,39.1273986 C13.5652941,37.9032568 12.1120588,36.0834189 11.8120588,34.0033514 Z M12.0458824,82.2432162 C9.42882353,82.969027 7.01382353,82.6247095 5.24558824,81.2748784 C3.57,79.9958581 2.64705882,77.9175608 2.64705882,75.4250203 L2.64705882,55.6546419 C2.64705882,53.1638716 3.56470588,51.0997365 5.22970588,49.8428446 C6.98735294,48.5177973 9.38911765,48.2035743 11.9938235,48.9568243 L45.9114706,58.7818243 C45.2108824,60.9008378 44.8288235,63.1579324 44.8288235,65.5008851 C44.8288235,68.0553851 45.2841176,70.5072095 46.11,72.7908581 L12.0458824,82.2432162 Z M40.4285294,115.557932 C39.1517647,117.788473 37.2564706,119.186101 35.0938235,119.492358 C32.9011765,119.806581 30.6494118,118.965703 28.7594118,117.133473 L14.3435294,103.151878 C12.4958824,101.360365 11.6408824,99.2466622 11.9355882,97.2002297 C12.2355882,95.1210473 13.6888235,93.3020946 16.0270588,92.0788378 L47.3911765,75.6542703 C49.6561765,79.8719392 53.28,83.2956419 57.7005882,85.3633176 L57.69,85.398723 L40.4285294,115.557932 Z M84.12,125.629885 C82.8326471,127.380682 80.6285294,128.344595 77.9135294,128.344595 L57.5267647,128.344595 C54.8091176,128.344595 52.59,127.374486 51.2779412,125.612182 C50.0347059,123.942818 49.7382353,121.704311 50.445,119.31002 L60.1411765,86.4502635 L60.1976471,86.3502432 C62.4908824,87.1105743 64.9455882,87.5292432 67.5,87.5292432 C70.0208824,87.5292432 72.4447059,87.1211959 74.7123529,86.3803378 L84.8726471,119.362243 C85.6067647,121.745027 85.3394118,123.971142 84.12,125.629885 Z M119.088529,91.8106419 C121.414412,93.062223 122.855294,94.9095 123.146471,97.0125811 C123.432353,99.0829122 122.571176,101.211662 120.72,103.005831 L106.305,116.985655 C104.416765,118.817 102.180882,119.650797 100.009412,119.326838 C97.8723529,119.010845 96.0088235,117.602595 94.7620588,115.362318 L77.8932353,85.0685676 C82.2317647,82.8831689 85.7585294,79.3806892 87.9,75.1037162 L88.2088235,75.1886892 L119.088529,91.8106419 Z M132.352941,75.2559595 C132.352941,77.7502703 131.43,79.8276824 129.753529,81.1075878 C127.985294,82.4574189 125.572059,82.8017365 122.954118,82.0750405 L89.1979412,72.7085405 L88.9623529,72.5819662 C89.7423529,70.3576216 90.1711765,67.9774932 90.1711765,65.5008851 C90.1711765,63.1012838 89.7688235,60.7919662 89.0355882,58.6286959 L123.004412,48.7868784 C125.609118,48.0336284 128.01,48.3478514 129.768529,49.6737838 C131.435294,50.9315608 132.352941,52.9956959 132.352941,55.4864662 L132.352941,75.2559595 Z" id="Fill-5"></path>
            <path d="M68.0004481,56 C62.4857719,56 58,60.4859727 58,66 C58,71.5140273 62.4857719,76 68.0004481,76 C73.5142281,76 78,71.5140273 78,66 C78,60.4859727 73.5142281,56 68.0004481,56 Z M68.0004481,73.2314507 C63.9690791,73.2314507 60.6887744,69.9876338 60.6887744,66 C60.6887744,62.0123662 63.9690791,58.7685493 68.0004481,58.7685493 C72.0318172,58.7685493 75.3112256,62.0123662 75.3112256,66 C75.3112256,69.9876338 72.0318172,73.2314507 68.0004481,73.2314507 Z" id="Fill-6"></path>
        </g>
    </g>
</svg>