<?xml version="1.0" encoding="UTF-8"?>
<svg width="135px" height="170px" viewBox="0 0 135 170" version="1.1" xmlns="http://www.w3.org/2000/svg" xmlns:xlink="http://www.w3.org/1999/xlink">
    <!-- Generator: Sketch 48.2 (47327) - http://www.bohemiancoding.com/sketch -->
    <title>Capsicum</title>
    <desc>Created with Sketch.</desc>
    <defs></defs>
    <g id="Veg" stroke="none" stroke-width="1" fill="none" fill-rule="evenodd" transform="translate(-513.000000, -217.000000)">
        <g id="Capsicum" transform="translate(513.000000, 217.000000)" fill="#DE1B33">
            <path d="M66.5210619,170 C65.0965012,170 63.628376,169.806609 62.03827,169.408961 C58.3919174,168.500673 54.8849713,168.581072 51.9508991,168.874419 C50.8508943,168.985238 49.8075233,169.089539 48.7467266,169.089539 C46.5031524,169.089539 44.6647285,168.607147 42.7827401,167.525025 C42.5257093,167.375092 42.2251139,167.225159 41.8896669,167.053497 C37.426479,164.780605 28.1385175,160.050121 23.0349308,132.049654 C17.9857998,104.34688 20.1683836,86.146359 22.8889896,75.755374 C26.3044501,62.704714 31.8545734,56.0902936 35.9104328,54.2519889 C37.6486582,53.4632127 39.5567854,53.0633923 41.584715,53.0633923 C46.5619646,53.0633923 50.9097064,55.4753524 52.1926823,56.2619556 C52.9354578,56.4118883 54.9002189,56.7595582 57.3681505,56.7595582 C60.7596505,56.7595582 65.573533,56.0968124 69.2438461,52.9286702 C72.1822749,50.3950256 75.7458548,49 79.2832961,49 C82.4264782,49 85.2995601,50.138619 87.3732325,52.209428 C92.1500851,56.9703331 102.538051,114.322834 90.1330466,144.300673 C82.779351,162.073126 75.4953587,170 66.5210619,170 Z M55.8978471,164.278657 C58.2721149,164.278657 60.6246005,164.576349 63.0947103,165.195636 C64.3362999,165.50202 65.4559087,165.651953 66.5210619,165.651953 C71.206429,165.651953 77.6670514,163.035737 86.1055042,142.642722 C98.2796169,113.225501 86.9049136,58.5826524 84.2540109,55.2385023 C83.0233125,54.0151387 81.2916217,53.3458741 79.2832961,53.3458741 C76.8284338,53.3458741 74.2080263,54.3910568 72.0929675,56.216324 C67.4097787,60.2579869 61.5002479,61.1054323 57.3681505,61.1054323 C53.6586293,61.1054323 50.9358451,60.4383407 50.8225773,60.4079195 C50.5764376,60.3470773 50.3411891,60.2427763 50.129901,60.1015354 C50.0950494,60.0776331 46.0435465,57.4092664 41.584715,57.4092664 C40.1841148,57.4092664 38.8815349,57.6787106 37.7118268,58.2067343 C33.3684414,60.1797612 17.8616408,79.3711412 27.319504,131.271743 C32.0397227,157.157942 40.0294607,161.22568 43.8696755,163.183496 C44.2791823,163.392098 44.6451245,163.576798 44.9609675,163.759325 C46.8690946,164.856658 48.6726669,164.837102 51.5174318,164.550274 C52.7895166,164.422071 54.2315031,164.278657 55.8978471,164.278657 Z" id="Fill-71"></path>
            <path d="M41.1509423,58 C40.3471892,58 39.5756721,57.5424475 39.2081806,56.7596206 C38.6988504,55.6775413 39.1566029,54.3872865 40.2268411,53.8711846 C40.3364438,53.8191407 51.2257951,48.5215063 54.5461123,40.7105855 C56.9939061,34.9402191 58.3542691,23.2845559 59.3492898,14.7753796 C59.7898497,11.000029 60.1702355,7.73644328 60.5592177,5.77612337 C60.7805722,4.6593482 61.4704245,3.07851499 63.5077454,1.89017947 C69.5229998,-1.63145719 83.7412647,0.660642533 86.7112831,1.66031895 C87.7471361,2.00727823 88.4971625,2.75974616 88.8238215,3.77460204 C89.7070904,6.51558033 87.1948244,10.3429748 82.9547041,16.3171799 C81.6566642,18.1473901 80.4316927,19.8735125 79.9631949,20.816808 C79.6343868,21.4803676 79.1594417,22.3282494 78.6135772,23.3019038 C77.0060709,26.1621494 72.7380125,33.7648945 74.6399419,35.684013 C78.5684467,39.6523597 82.8988282,49.5797321 83.0814993,49.9982517 C83.5585935,51.0976789 83.0621577,52.3749227 81.9747269,52.8541602 C80.8894452,53.3312292 79.6214923,52.8368123 79.1443982,51.7395536 C77.9903462,49.0788096 74.3863513,41.5628043 71.6011531,38.7524341 C67.3846725,34.497846 71.8912779,26.4700757 74.8741908,21.1615988 C75.3770738,20.2660102 75.8176337,19.4875203 76.1185039,18.8803416 C76.7374368,17.6269512 77.9989425,15.8509534 79.4581628,13.7930512 C80.9775572,11.6527461 83.9540228,7.46104436 84.5837011,5.55276833 C80.5541899,4.52056449 69.5745776,3.34957693 65.6654144,5.63950815 C64.8767047,6.0992292 64.7993381,6.49606387 64.7735492,6.6240051 C64.4189522,8.41518237 64.0471626,11.5985337 63.6173481,15.2828076 C62.5922404,24.0543718 61.188896,36.0678367 58.4961079,42.4171915 C54.5310688,51.750396 42.5757775,57.5467844 42.0685964,57.7896559 C41.7720244,57.9306081 41.4582597,58 41.1509423,58" id="Fill-72"></path>
            <path d="M27.0259467,166 C21.5888644,166 16.6594746,161.511755 15.1884682,160.037419 C7.32357464,152.152547 4.6571045,124.16408 2.0774194,97.0997902 C1.55236995,91.5829894 1.04033825,86.1966608 0.49576217,81.1756546 C-1.02948478,67.0759556 0.968740599,56.4772615 6.43402805,49.6796584 C10.4196307,44.7282373 16.1713087,41.8187065 23.5285099,41.0380477 C29.5492216,40.4291773 43.2677656,47.318111 44.8147089,48.107468 C45.8821648,48.6511023 46.3074114,49.9601737 45.7628353,51.0322205 C45.2182593,52.1020928 43.9143141,52.523953 42.8446886,51.9803187 C37.4401507,49.2230056 27.5423177,45.006578 23.986301,45.3610276 C17.8158851,46.0177378 13.0470476,48.3901578 9.81213545,52.410877 C5.09536891,58.2756037 3.4139089,67.7957274 4.81114793,80.7081291 C5.35572401,85.7443571 5.86992533,91.152431 6.39931403,96.6866281 C8.66874265,120.52173 11.4935955,150.182417 18.2563192,156.962624 C20.6776216,159.391582 24.6220013,162.057564 27.7788069,161.596562 C29.4168744,161.355189 30.7381765,160.265746 31.8121413,158.262997 C32.3784136,157.203997 33.6932069,156.803882 34.7519843,157.37796 C35.8064224,157.945514 36.2012943,159.265458 35.6328524,160.322283 C33.4588873,164.375621 30.5038569,165.591187 28.410168,165.899971 C27.9458681,165.967382 27.4837378,166 27.0259467,166" id="Fill-73"></path>
            <path d="M91.2837945,169 C89.7590596,169 88.2798716,168.880591 86.8744261,168.646114 C81.4456759,167.738603 77.8669952,165.196269 77.0558276,161.674778 C76.7868843,160.506737 77.5156338,159.340867 78.6825006,159.071653 C79.8428607,158.795926 81.0118964,159.529751 81.2830086,160.699963 C81.6625656,162.347812 84.1372776,163.787238 87.5901622,164.362574 C94.4395402,165.517588 107.008301,163.405128 113.556202,152.903616 C119.034837,144.117257 122.366263,123.50937 125.044851,106.952718 C126.213887,99.7186809 127.320025,92.8841225 128.456527,87.9644562 C132.078586,72.2393272 131.265249,60.6001698 126.044713,53.3704749 C122.322885,48.2185032 116.191412,45.2137291 107.821637,44.4429958 C94.318082,43.1729143 87.8352476,54.2258802 87.7701807,54.3366053 C87.1737339,55.3765524 85.8485376,55.7326094 84.8096358,55.1377336 C83.7707339,54.5385157 83.4128658,53.2119861 84.0093126,52.172039 C84.3281405,51.6205848 92.0082062,38.633187 108.220714,40.1182054 C117.891828,41.0105191 125.070878,44.6145111 129.558327,50.8259697 C135.548821,59.1173224 136.598568,71.9397182 132.681539,88.939271 C131.579739,93.7199881 130.484446,100.482901 129.326255,107.645292 C126.44379,125.469855 123.177431,145.676093 117.236821,155.200618 C111.343927,164.649157 100.495102,169 91.2837945,169" id="Fill-74"></path>
            <path d="M118.836991,48 C117.924148,48 117.076199,47.4121962 116.77985,46.4844313 C114.354975,38.9109746 110.532715,34.3423357 105.425553,32.9035324 C93.7878861,29.6223592 78.7324654,42.7295058 78.581046,42.8611037 C77.6768555,43.6572707 76.3140803,43.5607656 75.5310254,42.6439672 C74.7458073,41.7293621 74.8431484,40.3453913 75.7451758,39.5514175 C76.4308896,38.9460674 92.7214605,24.7861379 106.582831,28.6748546 C113.17823,30.5325777 117.991205,36.0706542 120.894133,45.1289734 C121.261866,46.282648 120.641046,47.5174745 119.5054,47.8925284 C119.282597,47.9649072 119.057631,48 118.836991,48" id="Fill-75"></path>
            <path d="M27.1241752,44 C26.9182883,44 26.7102789,43.9712448 26.5022695,43.9096265 C25.3815657,43.5789416 24.7511698,42.4307873 25.0928995,41.3463052 C27.0753567,35.0632925 30.6263747,30.9389743 35.6461939,29.0801556 C45.5903177,25.4077049 57.4765704,32.2534981 57.977491,32.5492659 C58.9793323,33.1366937 59.2998366,34.395761 58.6927887,35.3672762 C58.0878634,36.3346835 56.7824981,36.6448289 55.7806568,36.0656169 C55.6766521,36.0019446 45.1445833,29.9469197 37.1489558,32.9230836 C33.4238891,34.3053874 30.7325019,37.5424021 29.1533283,42.5458081 C28.8731524,43.4310577 28.0326245,44 27.1241752,44" id="Fill-76"></path>
            <path d="M37.3759057,98 C36.2325211,98 35.2588575,97.1587408 35.1538984,96.0392189 C33.820694,81.8650798 41.5787376,70.4390542 41.9092473,69.9601835 C42.5925983,68.9679291 43.9771656,68.7026089 45.0044253,69.3626738 C46.0294518,70.0227387 46.3085984,71.3601251 45.6274806,72.3523796 C45.5560191,72.4559192 38.4143312,83.0299003 39.6023794,95.6466313 C39.714038,96.8351796 38.8096029,97.885675 37.5791245,97.9913717 C37.5121293,97.9978429 37.4429009,98 37.3759057,98" id="Fill-77"></path>
        </g>
    </g>
</svg>