<?xml version="1.0" encoding="UTF-8"?>
<svg width="132px" height="118px" viewBox="0 0 132 118" version="1.1" xmlns="http://www.w3.org/2000/svg" xmlns:xlink="http://www.w3.org/1999/xlink">
    <!-- Generator: Sketch 48.2 (47327) - http://www.bohemiancoding.com/sketch -->
    <title>Cheese</title>
    <desc>Created with Sketch.</desc>
    <defs></defs>
    <g id="Dairy" stroke="none" stroke-width="1" fill="none" fill-rule="evenodd" transform="translate(-325.000000, -652.000000)">
        <g id="Cheese" transform="translate(325.000000, 652.000000)" fill="#F8E71C">
            <path d="M26.249,66.553 C18.949,66.553 13.011,72.491 13.011,79.791 C13.011,87.091 18.949,93.029 26.249,93.029 C33.548,93.029 39.487,87.091 39.487,79.791 C39.487,72.491 33.548,66.553 26.249,66.553 Z M26.249,88.16 C21.634,88.16 17.88,84.406 17.88,79.791 C17.88,75.176 21.634,71.422 26.249,71.422 C30.864,71.422 34.618,75.176 34.618,79.791 C34.618,84.406 30.864,88.16 26.249,88.16 Z" id="Fill-12"></path>
            <path d="M103.64,79.339 C110.94,79.339 116.878,73.4 116.878,66.101 C116.878,58.801 110.94,52.862 103.64,52.862 C96.34,52.862 90.402,58.801 90.402,66.101 C90.402,73.4 96.34,79.339 103.64,79.339 Z M103.64,57.732 C108.255,57.732 112.009,61.486 112.009,66.101 C112.009,70.715 108.255,74.47 103.64,74.47 C99.025,74.47 95.271,70.715 95.271,66.101 C95.271,61.486 99.025,57.732 103.64,57.732 Z" id="Fill-13"></path>
            <path d="M84.969,105.741 C90.171,105.741 94.403,101.509 94.403,96.307 C94.403,91.104 90.171,86.872 84.969,86.872 C79.767,86.872 75.535,91.104 75.535,96.307 C75.535,101.509 79.767,105.741 84.969,105.741 Z M84.969,91.742 C87.486,91.742 89.534,93.789 89.534,96.307 C89.534,98.824 87.486,100.871 84.969,100.871 C82.452,100.871 80.404,98.824 80.404,96.307 C80.404,93.789 82.452,91.742 84.969,91.742 Z" id="Fill-14"></path>
            <path d="M131.596,36.926 L80.32,16.965 L79.472,19.31 C78.819,21.113 77.096,22.324 75.185,22.324 C72.668,22.324 70.62,20.277 70.62,17.759 C70.62,17.152 70.738,16.56 70.972,16 L71.933,13.699 L37.561,0.319 L0.331,37.583 L0.331,117.652 L131.596,117.652 L131.596,99.046 L129.161,99.046 C126.644,99.046 124.596,96.998 124.596,94.481 C124.596,91.963 126.644,89.916 129.161,89.916 L131.596,89.916 L131.596,36.926 Z M38.758,6.01 L65.828,16.548 C65.777,16.947 65.751,17.352 65.751,17.759 C65.751,22.961 69.983,27.193 75.185,27.193 C78.288,27.193 81.15,25.653 82.89,23.19 L116.196,36.156 L60.284,36.156 C58.992,30.482 53.916,26.23 47.856,26.23 C41.796,26.23 36.719,30.482 35.428,36.156 L8.639,36.156 L38.758,6.01 Z M47.856,44.526 C41.857,44.526 39.97,38.985 39.97,38.985 C39.97,34.637 43.508,31.099 47.856,31.099 C52.204,31.099 55.742,34.637 55.742,38.985 C55.742,38.985 53.855,44.526 47.856,44.526 Z M126.726,85.365 C122.701,86.441 119.727,90.12 119.727,94.481 C119.727,98.841 122.701,102.52 126.726,103.596 L126.726,112.783 L5.2,112.783 L5.2,41.025 L35.557,41.025 C37.502,45.92 42.276,49.395 47.856,49.395 C53.435,49.395 58.21,45.92 60.154,41.025 L126.726,41.025 L126.726,85.365 Z" id="Fill-15"></path>
            <path d="M51.752,73.1 C51.752,78.302 55.984,82.534 61.186,82.534 C66.388,82.534 70.62,78.302 70.62,73.1 C70.62,67.898 66.388,63.666 61.186,63.666 C55.984,63.666 51.752,67.898 51.752,73.1 Z M65.751,73.1 C65.751,75.617 63.703,77.665 61.186,77.665 C58.669,77.665 56.621,75.617 56.621,73.1 C56.621,70.583 58.669,68.535 61.186,68.535 C63.703,68.535 65.751,70.583 65.751,73.1 Z" id="Fill-16"></path>
        </g>
    </g>
</svg>