<?xml version="1.0" encoding="UTF-8"?>
<svg width="133px" height="133px" viewBox="0 0 133 133" version="1.1" xmlns="http://www.w3.org/2000/svg" xmlns:xlink="http://www.w3.org/1999/xlink">
    <!-- Generator: Sketch 48.2 (47327) - http://www.bohemiancoding.com/sketch -->
    <title>Chocolate</title>
    <desc>Created with Sketch.</desc>
    <defs></defs>
    <g id="Bread-and-pastry" stroke="none" stroke-width="1" fill="none" fill-rule="evenodd" transform="translate(-98.000000, -245.000000)">
        <g id="Chocolate" transform="translate(98.000000, 245.000000)" fill="#8B572A">
            <path d="M75.0241219,21.8424022 L84.9257358,10.6761644 L78.4879374,5.6394434 C77.2108741,4.65346213 75.3127732,4.80135932 74.2368912,6.00918637 L66.2683662,14.9980489 L75.0241219,21.8424022 Z M39.7124477,31.9158442 L39.9486169,31.5954002 L39.7211947,31.4803691 L39.7124477,31.9158442 Z M89.3517222,33.0415061 L99.2445891,21.8670517 L89.0018419,13.8641705 L79.108975,25.0304083 L89.3517222,33.0415061 Z M61.2563302,37.3798237 L71.6302826,25.6795126 L62.8745268,18.8351593 L52.5093215,30.5354704 L61.2563302,37.3798237 Z M55.8156908,43.5339901 L57.8624908,41.2087176 L49.1067351,34.3643643 L48.1445641,35.4489437 L49.5090975,36.7225028 C50.9086189,38.0864436 52.6055386,39.8119108 54.075036,41.4469964 L55.8156908,43.5339901 Z M103.679323,44.2323935 L113.572189,33.0661556 L103.329442,25.0550578 L93.4365753,36.2295122 L103.679323,44.2323935 Z M75.5839305,48.5789276 L85.9578829,36.8786165 L75.7063886,28.8675187 L65.3411833,40.5678298 L75.5839305,48.5789276 Z M116.668631,54.4044335 L124.645902,45.399138 C125.704291,44.2159605 125.52935,42.4247612 124.261034,41.4141304 L117.648295,36.2623782 L107.746682,47.4286161 L116.668631,54.4044335 Z M65.6823166,59.7451654 L72.1900911,52.4078215 L61.9473439,44.4049402 L55.8506788,51.273943 L55.1071831,51.8408823 L54.9060019,52.1366766 L56.6728976,53.4266688 C59.069578,54.8563416 61.7724037,56.0559522 63.7317337,57.5842231 L65.6823166,59.7451654 Z M89.9202778,59.7698149 L100.276736,48.0695039 L90.0339889,40.0666226 L79.6687836,51.7587171 L89.9202778,59.7698149 Z M102.909586,69.9336385 L113.274791,58.2333275 L104.361589,51.2657265 L93.9963839,62.957821 L102.909586,69.9336385 Z M73.8957578,77.8543547 L86.5176914,63.6069254 L76.2661972,55.6040441 L67.2742722,65.7596511 L67.2742722,65.7925172 C67.3792363,66.5730857 67.5279355,66.7538489 67.6941286,66.8935296 C67.9740329,67.1235919 68.8137457,67.5837165 71.1841851,67.8219953 C71.3241373,67.8302118 71.4553424,67.8466448 71.5778005,67.8712943 C73.7732997,68.2410373 74.9279048,69.7364422 75.120339,71.4454764 C75.2952792,73.1462941 74.5167954,75.0853906 74.053204,76.2767846 C73.8957578,76.6465276 73.7645527,76.975188 73.6508416,77.2791989 L73.5371305,77.5667768 L73.8957578,77.8543547 Z M21.5624046,80.4261225 C20.8976319,80.4754215 20.1978712,80.2864418 19.6293157,79.8509667 C18.5096985,78.9718001 18.3609994,77.3942301 19.2969293,76.3343002 L34.7528938,58.9974629 C35.6888237,57.9293166 37.3682494,57.7978524 38.4878665,58.6852355 C39.6162306,59.5644022 39.7649298,61.1419722 38.8202528,62.1936856 L23.3642884,79.5387393 C22.9006969,80.064596 22.2446713,80.3686069 21.5624046,80.4261225 Z M86.8938128,88.0181782 L99.5157464,73.7707489 L90.6025445,66.803148 L77.9806109,81.0423608 L86.8938128,88.0181782 Z M82.4590794,93.0220332 L83.4912264,91.8470721 L82.5465495,91.1075862 L82.5203084,92.2825472 L82.4590794,93.0220332 Z M86.8150897,99.135117 L126.159135,55.0535379 L126.920125,53.6813806 C127.287499,52.7939975 127.514921,51.8162327 127.611138,50.8220349 L127.602391,49.8524867 L85.1619051,97.7711763 L85.3455922,97.943723 L86.8150897,99.135117 Z M56.8041028,120.678808 C57.5825865,120.604859 58.3260823,120.267982 58.8509028,119.668177 L72.2075851,104.574447 L72.2775612,104.475849 L72.3825253,104.385467 L72.7061646,104.032157 C72.9335869,103.761012 73.2134911,103.5556 73.5283835,103.415919 L73.5983595,103.383053 L75.111592,102.150576 C76.1349921,101.542555 77.2283681,101.10708 78.3742263,100.811285 L80.5172434,100.457975 L80.1586161,100.129315 C78.5054314,98.4449301 76.8260057,96.1443072 77.097163,93.6300549 C77.3508263,91.1322357 77.2721032,89.8504601 77.088416,89.1274072 C76.9572109,88.6015505 76.7822707,88.3797047 76.3274262,88.0428278 C75.129086,87.1225786 71.9539219,85.6764727 68.3763953,81.0916598 C67.6678876,80.1878437 67.6853816,79.1854294 67.7291167,78.6842222 C67.7990927,77.9283033 68.052756,77.1313017 68.2801782,76.52328 C68.5163475,75.8906086 68.8312398,75.1429062 69.076156,74.5348844 C69.3823013,73.7378829 69.5922295,73.1709437 69.7146876,72.7601181 L68.6650466,72.5054063 C66.8281748,72.1520963 65.3324363,71.5769406 64.1953251,70.6566914 C62.5858755,69.3256167 62.1660191,67.6576651 61.9998259,66.400539 C61.6674396,63.730173 61.9910789,62.7195422 60.3204003,61.413117 C58.028684,59.6219177 54.4686514,58.4305237 51.013583,55.7437248 C49.6140616,54.6427124 49.2729282,53.171957 49.4828565,51.8573153 C49.7277727,50.452292 50.6462086,49.1130007 51.1797761,48.3324322 C51.5121625,47.8558746 51.7658257,47.5025647 51.993248,47.1574712 L51.6871027,46.6398311 C51.3372223,46.1797065 50.8386428,45.5634682 50.1563761,44.7993327 C48.9055539,43.4107424 47.3135983,41.7756568 45.6779077,40.1816538 C44.8294478,39.3517862 43.989735,38.5547847 43.2112512,37.8235152 L43.036311,37.6674015 L42.8263828,37.5605869 L42.6077076,37.2976586 L42.3977794,38.5958672 C42.1003811,39.8694264 41.6892717,41.0936864 41.1731982,42.2357814 L39.9486169,44.3309916 L39.9311229,44.4213732 C39.8349058,44.7336006 39.6687127,45.029395 39.4325434,45.3005398 L8.45063851,80.2617923 C7.38350344,81.4696193 7.56719063,83.2608186 8.83550689,84.2550164 L54.5998566,120.029703 C55.2383882,120.53091 56.043113,120.74454 56.8041028,120.678808 Z M57.1539831,127.999719 C60.049243,128.007935 62.7083337,126.520747 64.3877593,124.721331 L81.3744503,105.404315 L81.1907631,105.396098 C80.2110981,105.48648 79.2926622,105.724758 78.4704434,106.102718 L76.4411374,107.606339 L62.9357559,122.856183 C61.4662584,124.515918 59.4107114,125.460817 57.2939353,125.64158 C55.1684121,125.822343 52.9729129,125.247188 51.2060172,123.866814 L5.38918545,88.0428278 L5.41542648,89.0041595 C5.52039058,89.5464492 5.68658375,89.9326252 5.91400598,90.1133884 L52.5355625,126.578262 L54.1974942,127.432779 C55.1946532,127.818955 56.1918122,127.991502 57.1539831,127.999719 Z M57.8624908,132.978924 C55.2121472,133.126821 52.3343813,132.510583 49.4916035,130.678301 C49.4216274,130.629002 49.3603983,130.579703 49.2904223,130.530404 L2.47643155,93.9094163 C-1.69589162,90.5159974 0.228450302,83.1047049 2.26650334,79.5880384 C2.45019052,79.275811 2.67761275,79.0293157 2.94877002,78.8321194 L3.30739737,78.6513562 L3.4298555,78.3884279 C3.68351875,77.9365198 3.99841106,77.5010447 4.35703842,77.0737862 L34.99781,42.5151428 L35.032798,42.4247612 C36.992128,39.8447768 38.1204921,35.4982428 37.1583212,32.1212569 C36.7034767,30.5272539 37.998034,28.9661169 39.7561827,28.9825499 C40.4471964,28.9989829 40.972017,29.2619112 41.033246,29.2947773 C41.1994392,29.3769424 41.3481383,29.467324 41.4531024,29.5330561 C41.7592477,29.7302523 42.2053452,30.0835623 42.7651538,30.5436869 L44.3658563,31.9240607 L70.1607851,2.81296377 C73.108527,-0.490073477 78.3479853,-0.958414579 81.8817768,1.80233297 L127.654873,37.5852364 C128.529574,38.2754233 129.220588,39.1052909 129.719168,40.0091071 L129.727915,40.0337566 L130.051554,40.2720354 C133.305441,43.9119496 134.416311,52.5064196 130.523892,57.904667 C130.47141,57.9786156 130.418928,58.0443477 130.357699,58.1100798 L90.7862317,102.446371 L91.101124,102.84898 C91.2760642,103.095475 91.4422573,103.440569 91.5209804,103.834961 C91.8446197,105.379665 90.7687377,106.52176 89.5529034,106.866853 C88.8881308,107.055833 88.1796231,106.981885 87.5760795,106.694307 L87.2174521,106.579276 L68.4288774,127.966853 C66.1634021,130.366074 62.3059713,132.732429 57.8624908,132.978924 Z" id="Fill-13"></path>
        </g>
    </g>
</svg>