<?xml version="1.0" encoding="UTF-8"?>
<svg width="129px" height="116px" viewBox="0 0 129 116" version="1.1" xmlns="http://www.w3.org/2000/svg" xmlns:xlink="http://www.w3.org/1999/xlink">
    <!-- Generator: Sketch 48.2 (47327) - http://www.bohemiancoding.com/sketch -->
    <title>Cinnamon</title>
    <desc>Created with Sketch.</desc>
    <defs></defs>
    <g id="Artboard" stroke="none" stroke-width="1" fill="none" fill-rule="evenodd" transform="translate(-2197.000000, -1531.000000)" stroke-linecap="round" stroke-linejoin="round">
        <g id="Cinnamon" transform="translate(2199.000000, 1532.000000)" stroke="#8B572A" stroke-width="2">
            <path d="M8.37164107,77.0151789 C8.56986404,69.0767284 21.2903595,70.8049392 22.8690129,77.0759147 C24.7043579,84.3669764 14.4566583,89.0491576 7.79551101,86.4692647 C-0.505610516,83.2557866 -1.12309645,72.7167378 1.11297271,66.1558866 C4.48276315,56.2711285 11.420567,50.974687 22.118903,48.6681054 C30.3330346,46.8971035 42.1936131,48.4983212 44.0860007,58.3623739 C45.1740879,64.0356536 40.2156616,70.4253401 34.123514,71.5116835 C28.6445742,72.4889784 19.8343476,68.6833258 21.2261866,62.3737001 C22.0205045,58.7737212 30.1134206,55.1254296 31.736282,60.0464131 L39.9333009,52.3205381 L8.37164107,77.0151789 Z M12.1592684,52.3205381 C12.1592684,52.3205381 67.1354814,25.6188537 93.253853,2.15549405 C100.769213,-4.59584683 105.780404,6.28139016 103.274808,10.5950152 L12.1592684,52.3205381 Z M42.2264126,66.0426971 C60.892171,39.2899394 103.274808,10.5950152 103.274808,10.5950152 L42.2264126,66.0426971 Z M22.8162485,80.5820292 L31.2913499,71.609689 L22.8162485,80.5820292 Z M10.8529933,72.5773214 L21.5983894,66.0426971 L10.8529933,72.5773214 Z M24.6344808,58.6757156 L37.3763672,49.9228527 L24.6344808,58.6757156 Z M57.3384182,89.9022201 L53.2227961,96.6107698 C50.8483986,99.809064 56.6154035,103.259964 59.2037106,102.162578 C63.742874,100.236976 62.3225137,93.034257 59.3505953,90.0347347 C56.0478299,86.7011652 49.9214567,86.4278539 46.8497138,89.6233874 C41.50625,95.1793365 45.617594,103.316559 50.2622861,107.677116 C56.3130779,113.355917 62.6091527,115.353298 70.2328936,113.082606 C75.2925705,111.575253 81.605758,106.517614 80.035661,99.8960267 C78.77502,94.5802602 71.436492,90.2376476 67.6745338,94.6175299 C64.4402195,98.3859128 68.8424807,107.11807 73.8836187,103.725145 L76.7542866,96.0241168 L57.3384182,89.9022201 Z M48.3684725,88.4583635 C48.3684725,88.4583635 92.016029,37.5700108 100.913245,17.3863866 C109.77481,9.45759858 111.767022,20.9587583 111.767022,20.9587583 L48.3684725,88.4583635 Z M62.0401529,96.0241168 C80.1069642,56.3884591 111.975228,21.8780781 111.975228,21.8780781 L62.0401529,96.0241168 Z M67.6745338,94.6175299 C94.0952311,51.3529057 115.624527,23.5096636 115.624527,23.5096636 C127.643399,15.0052655 125.913582,25.271003 125.913582,25.271003 C125.913582,25.271003 94.1479954,68.5659952 80.2495707,102.601532 L67.6745338,94.6175299 Z" id="Stroke-7"></path>
        </g>
    </g>
</svg>