<?xml version="1.0" encoding="UTF-8"?>
<svg width="167px" height="139px" viewBox="0 0 167 139" version="1.1" xmlns="http://www.w3.org/2000/svg" xmlns:xlink="http://www.w3.org/1999/xlink">
    <!-- Generator: Sketch 48.2 (47327) - http://www.bohemiancoding.com/sketch -->
    <title>Clove</title>
    <desc>Created with Sketch.</desc>
    <defs></defs>
    <g id="Artboard" stroke="none" stroke-width="1" fill="none" fill-rule="evenodd" transform="translate(-1985.000000, -1511.000000)" stroke-linecap="round" stroke-linejoin="round">
        <g id="Clove" transform="translate(1986.000000, 1511.000000)" stroke="#8B572A" stroke-width="2">
            <path d="M37.6875362,13.2187006 C32.6313152,3.69788316 22.6023091,-1.30907321 15.2858998,2.03507684 C7.96949056,5.3792269 6.1357529,15.8102315 11.1919739,25.331049 C12.3452447,27.5017805 16.2148205,28.0764405 20.9243187,27.1013723 C22.9879688,26.673158 24.035554,23.2251984 26.2660762,22.2074942 C29.0083391,20.952511 32.5460251,22.1537357 34.3371176,20.5780552 C37.3204178,17.9513032 38.7239966,15.1706906 37.6875362,13.2187006 Z M34.4502198,8.46014563 C38.3476076,5.3440058 46.808017,3.6997369 48.2746363,6.4636658 C49.6837775,9.11451645 48.0743899,14.8759457 43.3667459,20.4520008 C42.4470959,21.5420009 40.3852999,27.1588383 41.7814621,31.5633286 C45.9921984,44.8342656 64.1126414,71.5429762 66.5174521,82.0203243 C67.101504,84.5692192 59.9649456,87.0031821 59.3642065,87.2775359 C56.8796681,88.4138795 37.0645475,54.5645558 26.9001897,39.9385337 C23.9076189,35.6341454 18.1727851,33.3874105 16.806289,33.4485839 C8.39223291,33.8267473 1.87866326,30.9979374 0.336024507,28.0931241 C-1.02676334,25.5256919 1.72847848,20.6429362 9.09865763,20.0497388 L34.4502198,8.46014563 Z M22.767327,31.6096722 C30.6288514,30.5697231 37.1702331,25.0251816 37.1702331,25.0251816 L22.767327,31.6096722 Z M39.2468621,36.4256931 C42.1356015,45.6109833 61.2646929,77.8920415 61.2646929,77.8920415 L39.2468621,36.4256931 Z M139.987477,72.8202042 C150.791511,76.3070924 161.723479,73.3411056 164.402702,66.1930776 C167.081924,59.0450495 160.496043,50.4232968 149.690156,46.9364087 C147.227867,46.1411535 144.036904,48.2525653 141.420722,52.0138072 C140.274868,53.6636373 142.136417,56.8020221 141.320599,58.9801686 C140.315658,61.6606791 136.887366,63.1084514 136.805784,65.3978224 C136.668579,69.2128228 137.771788,72.1065137 139.987477,72.8202042 Z M145.892891,74.099286 C145.475711,78.857841 140.695756,85.5405799 137.558563,84.5284369 C134.549304,83.5570762 131.336092,78.405528 130.470212,71.3687245 C130.301486,69.9932481 127.518432,64.6507645 123.190885,62.4244207 C110.150767,55.7157294 77.0396575,48.4991129 67.3981653,42.6042143 C65.054541,41.1694182 68.2937116,34.7869855 68.5143534,34.1993493 C69.4247328,31.7728014 109.147681,42.9731089 127.451683,46.7640107 C132.839794,47.8818169 138.622835,45.7463065 139.549901,44.8120207 C145.256923,39.0617139 152.035634,36.8335163 155.332283,37.8975641 C158.245126,38.8374111 159.976886,44.1094525 155.17839,49.3332967 L145.892891,74.099286 Z M136.698245,50.0043512 C131.884915,55.8658825 131.423236,64.0761046 131.423236,64.0761046 L136.698245,50.0043512 Z M121.316356,57.3099473 C112.310832,52.6496406 74.2621661,42.1222414 74.2621661,42.1222414 L121.316356,57.3099473 Z M16.8971415,101.06752 C6.2136265,104.863983 -0.0811554447,113.67111 2.83539595,120.737574 C5.75194735,127.804037 16.778477,130.456742 27.4601379,126.660279 C29.8964688,125.794581 30.8698887,122.272472 30.2543165,117.832761 C29.9854672,115.886332 26.3828866,114.599835 25.4929027,112.447641 C24.3989641,109.79679 26.0139141,106.639868 24.4861084,104.839885 C21.9422377,101.842385 19.0868727,100.288949 16.8971415,101.06752 Z M11.4923435,103.621977 C8.50718916,99.7328264 7.51893621,91.7672983 10.6190468,90.664322 C13.5967846,89.6076892 19.6301337,91.6245602 25.1832624,96.4869247 C26.2660762,97.4360404 32.1047414,99.8570271 36.960716,98.9709386 C51.5916805,96.2996968 81.9197359,82.0147631 93.3856951,80.7542188 C96.1724572,80.4483514 98.1304217,87.2664134 98.3696049,87.8466346 C99.3615661,90.2472301 61.2109231,105.442351 44.5830573,113.491297 C39.6881458,115.860379 36.7493448,120.950754 36.6900126,122.220567 C36.3210401,130.028527 32.6869392,135.786249 29.4273731,136.944838 C26.5479044,137.968103 21.5602863,134.97431 21.5992231,128.109905 L11.4923435,103.621977 Z M35.2623301,116.54441 C34.871108,109.183202 29.5200798,102.630225 29.5200798,102.630225 L35.2623301,116.54441 Z M46.0645096,106.228337 C56.1880765,104.404256 90.6730983,88.2507503 90.6730983,88.2507503 L46.0645096,106.228337 Z" id="Stroke-7"></path>
        </g>
    </g>
</svg>