<?xml version="1.0" encoding="UTF-8"?>
<svg width="159px" height="146px" viewBox="0 0 159 146" version="1.1" xmlns="http://www.w3.org/2000/svg" xmlns:xlink="http://www.w3.org/1999/xlink">
    <!-- Generator: Sketch 48.2 (47327) - http://www.bohemiancoding.com/sketch -->
    <title>Coconut</title>
    <desc>Created with Sketch.</desc>
    <defs></defs>
    <g id="Fruits" stroke="none" stroke-width="1" fill="none" fill-rule="evenodd" transform="translate(-111.000000, -1078.000000)">
        <g id="Coconut" transform="translate(111.000000, 1078.000000)" fill="#8B572A">
            <path d="M16.341,30.51 C11.635,41.01 9.164,52.66 9.164,64.48 C9.164,106.87 40.427,141.36 78.855,141.36 C117.285,141.36 148.549,106.87 148.549,64.48 C148.549,52.67 146.074,41 141.363,30.48 C136.181,42.83 110.582,51.94 78.855,51.94 C47.141,51.94 21.549,42.84 16.341,30.51 Z M78.855,145.36 C38.221,145.36 5.164,109.08 5.164,64.48 C5.164,50.58 8.435,36.87 14.624,24.85 C14.99,24.14 15.746,23.72 16.547,23.77 L17.516,23.84 C18.561,23.92 19.371,24.79 19.371,25.84 C19.371,36.51 43.273,47.94 78.855,47.94 C114.427,47.94 138.322,36.51 138.322,25.84 C138.322,24.79 139.134,23.92 140.181,23.84 L141.177,23.77 C141.971,23.72 142.731,24.14 143.097,24.85 C149.281,36.89 152.549,50.6 152.549,64.48 C152.549,109.08 119.49,145.36 78.855,145.36 Z" id="Fill-483"></path>
            <path d="M46.444,73.96 C46.179,73.96 45.91,73.91 45.651,73.8 C44.637,73.36 44.171,72.18 44.609,71.17 L47.715,63.98 C48.154,62.97 49.333,62.5 50.345,62.94 C51.359,63.38 51.825,64.55 51.387,65.57 L48.281,72.75 C47.954,73.51 47.217,73.96 46.444,73.96" id="Fill-484"></path>
            <path d="M117.387,91.44 C116.605,91.44 115.863,90.97 115.542,90.21 L112.512,82.98 C112.084,81.96 112.564,80.79 113.583,80.37 C114.601,79.94 115.773,80.42 116.2,81.44 L119.23,88.66 C119.658,89.68 119.178,90.85 118.16,91.28 C117.907,91.38 117.645,91.44 117.387,91.44" id="Fill-485"></path>
            <path d="M28.981,127.05 C28.716,127.05 28.447,127 28.188,126.89 C27.174,126.45 26.708,125.27 27.146,124.26 L30.254,117.08 C30.692,116.06 31.869,115.6 32.883,116.03 C33.897,116.47 34.363,117.65 33.925,118.66 L30.817,125.85 C30.491,126.6 29.754,127.05 28.981,127.05" id="Fill-486"></path>
            <path d="M81.905,84.16 C81.759,84.16 81.61,84.14 81.462,84.11 C80.384,83.87 79.708,82.8 79.952,81.72 L81.682,74.07 C81.925,72.99 82.994,72.32 84.073,72.56 C85.151,72.8 85.827,73.87 85.583,74.95 L83.854,82.6 C83.644,83.53 82.818,84.16 81.905,84.16" id="Fill-487"></path>
            <path d="M38.605,104 C37.979,104 37.361,103.7 36.972,103.15 C36.333,102.25 36.545,101 37.446,100.36 L43.845,95.83 C44.746,95.19 45.994,95.4 46.633,96.3 C47.272,97.2 47.06,98.45 46.158,99.09 L39.76,103.63 C39.409,103.88 39.005,104 38.605,104" id="Fill-488"></path>
            <path d="M73.075,122.66 C72.906,122.66 72.735,122.64 72.564,122.59 C71.496,122.31 70.858,121.22 71.14,120.15 L73.142,112.55 C73.423,111.48 74.521,110.84 75.585,111.13 C76.653,111.41 77.291,112.5 77.01,113.57 L75.008,121.17 C74.771,122.07 73.961,122.66 73.075,122.66" id="Fill-489"></path>
            <path d="M134.824,123.46 C134.13,123.46 133.456,123.1 133.086,122.46 L129.186,115.64 C128.637,114.68 128.969,113.46 129.928,112.91 C130.887,112.36 132.108,112.7 132.657,113.66 L136.558,120.47 C137.106,121.43 136.774,122.65 135.815,123.2 C135.502,123.38 135.161,123.46 134.824,123.46" id="Fill-490"></path>
            <path d="M133.963,70.38 C133.096,70.38 132.298,69.81 132.044,68.93 L129.86,61.41 C129.552,60.35 130.162,59.24 131.223,58.94 C132.286,58.63 133.393,59.24 133.701,60.3 L135.885,67.82 C136.193,68.88 135.583,69.99 134.522,70.29 C134.336,70.35 134.148,70.38 133.963,70.38" id="Fill-491"></path>
            <path d="M107.259,115.06 C106.517,115.06 105.804,114.65 105.458,113.93 L102.038,106.89 C101.556,105.89 101.971,104.7 102.964,104.21 C103.958,103.73 105.155,104.15 105.637,105.14 L109.057,112.19 C109.539,113.18 109.124,114.38 108.13,114.86 C107.849,115 107.552,115.06 107.259,115.06" id="Fill-492"></path>
            <path d="M2.193,79.18 C1.497,79.18 0.82,78.82 0.452,78.17 C-0.094,77.21 0.243,75.99 1.204,75.45 L8.015,71.58 C8.976,71.03 10.197,71.37 10.742,72.33 C11.287,73.29 10.951,74.51 9.99,75.06 L3.178,78.92 C2.867,79.1 2.527,79.18 2.193,79.18" id="Fill-493"></path>
            <path d="M156.248,77.82 C155.913,77.82 155.574,77.74 155.263,77.56 L148.458,73.7 C147.498,73.15 147.16,71.93 147.705,70.97 C148.25,70.01 149.471,69.68 150.432,70.22 L157.236,74.08 C158.197,74.63 158.534,75.85 157.989,76.81 C157.621,77.46 156.944,77.82 156.248,77.82" id="Fill-494"></path>
            <path d="M139.551,31.68 C139.357,31.68 139.159,31.65 138.964,31.59 C137.908,31.26 137.314,30.14 137.638,29.09 C137.88,28.3 138.003,27.53 138.003,26.81 C138.003,16.13 114.097,4.7 78.508,4.7 C47.761,4.7 21.672,13.78 19.238,25.12 C19.339,25.38 19.386,25.67 19.366,25.97 C19.294,27.07 18.343,27.91 17.239,27.83 L16.973,27.82 C16.431,27.78 15.927,27.53 15.577,27.11 C15.227,26.7 15.06,26.16 15.115,25.62 C16.566,11.41 43.819,0.7 78.508,0.7 C114.113,0.7 142.003,12.17 142.003,26.81 C142.003,27.93 141.821,29.09 141.462,30.26 C141.198,31.12 140.407,31.68 139.551,31.68" id="Fill-495"></path>
            <path d="M46.796,26.8 C47.681,28.13 56.88,32.27 79.562,32.27 C102.399,32.27 111.567,28.07 112.339,26.77 C111.422,24.85 99.797,21.33 79.562,21.33 C59.522,21.33 47.928,24.78 46.796,26.8 Z M79.562,36.27 C78.06,36.27 42.761,36.16 42.761,26.81 C42.761,17.44 78.06,17.33 79.562,17.33 C81.064,17.33 116.356,17.44 116.356,26.81 C116.356,36.16 81.064,36.27 79.562,36.27 Z" id="Fill-496"></path>
        </g>
    </g>
</svg>