<?xml version="1.0" encoding="UTF-8"?>
<svg width="135px" height="140px" viewBox="0 0 135 140" version="1.1" xmlns="http://www.w3.org/2000/svg" xmlns:xlink="http://www.w3.org/1999/xlink">
    <!-- Generator: Sketch 48.2 (47327) - http://www.bohemiancoding.com/sketch -->
    <title>Cream</title>
    <desc>Created with Sketch.</desc>
    <defs></defs>
    <g id="Dairy" stroke="none" stroke-width="1" fill="none" fill-rule="evenodd" transform="translate(-1130.000000, -636.000000)">
        <g id="Cream" transform="translate(1130.000000, 636.000000)" fill="#4A90E2">
            <path d="M134.566,49.032 C134.566,29.498 118.673,13.605 99.139,13.605 L87.661,13.605 L87.661,0.215 L16.966,0.215 L32.006,15.647 C31.724,32.302 24.27,41.439 16.386,51.101 C8.736,60.476 0.827,70.169 0.827,86.66 C0.827,105.653 12.9,120.711 20.385,128.218 L24.441,139.125 L95.234,139.125 L99.29,128.218 C106.775,120.711 118.848,105.653 118.848,86.66 C118.848,83.876 118.611,81.305 118.209,78.885 C128.185,72.512 134.566,61.384 134.566,49.032 Z M113.979,86.66 C113.979,104.213 102.389,118.303 95.482,125.14 L95.1,125.518 L91.851,134.256 L27.824,134.256 L24.575,125.518 L24.193,125.14 C17.286,118.303 5.696,104.213 5.696,86.66 C5.696,71.903 12.721,63.294 20.158,54.179 C28.38,44.102 36.884,33.681 36.884,14.665 L36.884,13.674 L28.511,5.084 L82.791,5.084 L82.791,14.665 C82.791,33.879 91.292,44.188 99.514,54.159 C106.953,63.18 113.979,71.701 113.979,86.66 Z M117.04,73.785 C114.269,64.433 108.711,57.66 103.27,51.061 C95.849,42.062 88.823,33.509 87.801,18.474 L99.139,18.474 C115.989,18.474 129.697,32.182 129.697,49.032 C129.697,59.073 124.802,68.168 117.04,73.785 Z" id="Fill-3"></path>
            <path d="M43.708,124.245 C36.74,117.125 26.091,103.494 26.091,86.66 C26.091,72.998 34.708,59.928 38.899,54.379 L32.864,54.379 C28.046,61.353 21.221,73.545 21.221,86.66 C21.221,102.743 29.878,116.001 37.076,124.245 L43.708,124.245" id="Fill-20"></path>
        </g>
    </g>
</svg>