<?xml version="1.0" encoding="UTF-8"?>
<svg width="179px" height="133px" viewBox="0 0 179 133" version="1.1" xmlns="http://www.w3.org/2000/svg" xmlns:xlink="http://www.w3.org/1999/xlink">
    <!-- Generator: Sketch 48.2 (47327) - http://www.bohemiancoding.com/sketch -->
    <title>Dill</title>
    <desc>Created with Sketch.</desc>
    <defs></defs>
    <g id="Artboard" stroke="none" stroke-width="1" fill="none" fill-rule="evenodd" transform="translate(-2340.000000, -1315.000000)" stroke-linecap="round" stroke-linejoin="round">
        <g id="Dill" transform="translate(2341.000000, 1316.000000)" stroke="#417505" stroke-width="2">
            <path d="M97.6513316,10.1025305 C97.6513316,38.757597 81.2083717,61.9886331 60.9246769,61.9886331 C40.6409821,61.9886331 24.1980222,38.757597 24.1980222,10.1025305 L97.6513316,10.1025305 Z M77.9364872,9.02809014 C77.9364872,40.2845382 68.9442746,61.9886331 60.9246769,61.9886331 C52.9050792,61.9886331 43.2505338,40.2845382 43.2505338,9.02809014 L77.9364872,9.02809014 Z M115.607911,16.2003287 C115.607911,41.4885494 91.1254635,61.9886331 60.9246769,61.9886331 C30.7238903,61.9886331 6.24343185,41.4885494 6.24343185,16.2003287 L115.607911,16.2003287 Z M61.1215867,5.80676233 C61.1215867,5.80676233 61.3662322,26.2231234 60.9246769,61.9886331 C60.4851107,97.7521494 36.832071,131 36.832071,131 L61.1215867,5.80676233 Z M0,16.2003287 C0,12.9929546 2.79452747,10.3935664 6.24343185,10.3935664 C9.69034723,10.3935664 12.4868637,12.9929546 12.4868637,16.2003287 C12.4868637,19.4077027 9.69034723,22.007091 6.24343185,22.007091 C2.79452747,22.007091 0,19.4077027 0,16.2003287 Z M17.9545904,10.3935664 C17.9545904,7.18619231 20.7491179,4.58680402 24.1980222,4.58680402 C27.6469266,4.58680402 30.4414541,7.18619231 30.4414541,10.3935664 C30.4414541,13.6009404 27.6469266,16.2003287 24.1980222,16.2003287 C20.7491179,16.2003287 17.9545904,13.6009404 17.9545904,10.3935664 Z M37.0051129,9.02809014 C37.0051129,5.8207161 39.8016294,3.22132781 43.2505338,3.22132781 C46.6974492,3.22132781 49.4939656,5.8207161 49.4939656,9.02809014 C49.4939656,12.2354642 46.6974492,14.8348525 43.2505338,14.8348525 C39.8016294,14.8348525 37.0051129,12.2354642 37.0051129,9.02809014 Z M54.9457804,5.80676233 C54.9457804,2.59938829 57.7403079,0 61.1892123,0 C64.6361277,0 67.4326441,2.59938829 67.4326441,5.80676233 C67.4326441,9.01413637 64.6361277,11.6135247 61.1892123,11.6135247 C57.7403079,11.6135247 54.9457804,9.01413637 54.9457804,5.80676233 Z M71.6930554,9.02809014 C71.6930554,5.8207161 74.4875829,3.22132781 77.9364872,3.22132781 C81.3834026,3.22132781 84.1799191,5.8207161 84.1799191,9.02809014 C84.1799191,12.2354642 81.3834026,14.8348525 77.9364872,14.8348525 C74.4875829,14.8348525 71.6930554,12.2354642 71.6930554,9.02809014 Z M91.4078998,10.1025305 C91.4078998,6.8951565 94.2044162,4.29576822 97.6513316,4.29576822 C101.100236,4.29576822 103.894763,6.8951565 103.894763,10.1025305 C103.894763,13.3099046 101.100236,15.9092929 97.6513316,15.9092929 C94.2044162,15.9092929 91.4078998,13.3099046 91.4078998,10.1025305 Z M109.364479,16.2003287 C109.364479,12.9929546 112.159007,10.3935664 115.607911,10.3935664 C119.054826,10.3935664 121.851343,12.9929546 121.851343,16.2003287 C121.851343,19.4077027 119.054826,22.007091 115.607911,22.007091 C112.159007,22.007091 109.364479,19.4077027 109.364479,16.2003287 Z M42.6359366,121.662933 C84.8720868,95.7527733 169.091786,98.334221 169.091786,98.334221 L42.6359366,121.662933 Z M76.1185526,108.137742 C100.135577,77.2999072 111.512586,56.1360226 111.512586,56.1360226 L76.1185526,108.137742 Z M124.142656,100.050535 C148.833948,78.3304929 138.011867,65.8139599 138.011867,65.8139599 L124.142656,100.050535 Z M91.1871221,87.8429782 C108.875188,76.2673281 126.634858,60.5234871 126.634858,60.5234871 L91.1871221,87.8429782 Z M133.482942,90.308809 C154.245983,76.0081866 157.991246,67.879118 157.991246,67.879118 L133.482942,90.308809 Z M144.808237,98.6611379 C176.305843,86.4615548 177,76.1377574 177,76.1377574 L144.808237,98.6611379 Z M95.9766041,103.776192 C111.651815,94.9793356 122.611136,76.1377574 122.611136,76.1377574 L95.9766041,103.776192 Z M68.9164288,70.330995 C89.7291943,82.3312385 85.792988,95.3381469 85.792988,95.3381469 L68.9164288,70.330995 Z M86.0893471,105.725733 C120.114957,120.271543 164.928835,126.594595 164.928835,126.594595 L86.0893471,105.725733 Z M117.616788,116.161161 C143.006214,115.754508 163.124823,108.137742 163.124823,108.137742 L117.616788,116.161161 Z" id="Stroke-8"></path>
        </g>
    </g>
</svg>