<?xml version="1.0" encoding="UTF-8"?>
<svg width="154px" height="154px" viewBox="0 0 154 154" version="1.1" xmlns="http://www.w3.org/2000/svg" xmlns:xlink="http://www.w3.org/1999/xlink">
    <!-- Generator: Sketch 48.2 (47327) - http://www.bohemiancoding.com/sketch -->
    <title>Elderflower</title>
    <desc>Created with Sketch.</desc>
    <defs></defs>
    <g id="Floral-Icons" stroke="none" stroke-width="1" fill="none" fill-rule="evenodd" transform="translate(-266.000000, -417.000000)">
        <g id="Elderflower" transform="translate(266.000000, 417.000000)">
            <g fill="#EFE562" id="Fill-8">
                <path d="M133.477,67.315 C125.852,67.315 119.497,69.208 116.106,72.13 C115.886,70.505 115.565,68.91 115.139,67.356 C116.559,67.81 118.251,68.051 120.195,68.051 C124.001,68.051 128.492,67.109 132.839,65.399 C143.464,61.22 149.94,54.134 147.903,48.916 C146.776,46.032 143.377,44.443 138.331,44.443 C134.524,44.443 130.033,45.385 125.684,47.095 C118.495,49.923 113.217,54.08 111.178,58.09 C110.276,56.579 109.272,55.135 108.172,53.765 C112.731,53.361 118.6,50.023 123.754,44.848 C131.824,36.749 134.933,27.655 130.983,23.694 C129.873,22.58 128.283,21.99 126.385,21.99 C121.718,21.99 115.398,25.423 109.894,30.95 C104.435,36.428 101.258,42.357 100.989,46.849 C99.504,45.747 97.937,44.746 96.297,43.855 C100.354,41.846 104.669,36.679 107.65,29.925 C112.272,19.455 111.906,9.848 106.8,7.579 C106.107,7.271 105.354,7.114 104.562,7.114 C99.688,7.114 93.59,13.222 89.729,21.967 C86.539,29.193 85.728,36.006 87.209,40.283 C85.347,39.805 83.43,39.458 81.47,39.25 C84.982,36.26 87.331,29.285 87.331,20.737 C87.331,9.283 83.118,0.646 77.531,0.646 C71.945,0.646 67.733,9.283 67.733,20.737 C67.733,29.233 70.054,36.17 73.531,39.19 C71.115,39.408 68.765,39.843 66.495,40.468 C68.349,36.265 67.646,29.087 64.269,21.435 C60.408,12.69 54.31,6.581 49.438,6.581 C48.646,6.581 47.893,6.737 47.2,7.045 C42.095,9.315 41.728,18.923 46.348,29.394 C49.509,36.552 54.169,41.937 58.429,43.658 C56.522,44.669 54.717,45.835 53.018,47.127 C53.118,42.555 49.901,36.234 44.106,30.417 C38.601,24.891 32.281,21.458 27.614,21.458 C25.716,21.458 24.126,22.046 23.017,23.161 C19.069,27.122 22.176,36.216 30.244,44.315 C35.698,49.789 41.948,53.204 46.602,53.268 C45.312,54.821 44.148,56.477 43.118,58.216 C41.35,54.008 35.901,49.545 28.316,46.562 C23.967,44.852 19.476,43.91 15.67,43.91 C10.624,43.91 7.224,45.499 6.095,48.383 C4.058,53.602 10.535,60.687 21.161,64.866 C25.508,66.576 29.998,67.519 33.804,67.519 C33.805,67.519 33.805,67.519 33.806,67.519 C36.036,67.519 37.922,67.191 39.456,66.595 C38.94,68.331 38.547,70.116 38.289,71.944 C35.012,68.822 28.448,66.782 20.522,66.782 C9.108,66.782 0.5,71.008 0.5,76.611 C0.5,82.216 9.108,86.442 20.522,86.442 C28.345,86.442 34.847,84.456 38.165,81.402 C38.404,83.479 38.819,85.503 39.388,87.466 C37.97,87.013 36.278,86.773 34.337,86.773 C30.53,86.773 26.04,87.715 21.693,89.425 C11.069,93.604 4.592,100.69 6.629,105.908 C7.756,108.793 11.157,110.381 16.204,110.381 C20.01,110.381 24.501,109.44 28.849,107.729 C36.119,104.869 41.442,100.649 43.429,96.599 C44.386,98.156 45.453,99.642 46.621,101.046 C42.028,101.34 36.034,104.7 30.778,109.976 C22.707,118.075 19.6,127.169 23.55,131.13 C24.661,132.245 26.25,132.833 28.147,132.833 C32.814,132.833 39.133,129.401 44.639,123.875 C50.26,118.233 53.463,112.113 53.56,107.577 C55.174,108.76 56.883,109.824 58.676,110.759 C54.494,112.601 49.971,117.9 46.882,124.898 C42.261,135.368 42.626,144.975 47.732,147.246 C48.425,147.554 49.179,147.71 49.971,147.71 C54.844,147.71 60.943,141.602 64.803,132.856 C68.137,125.303 68.861,118.213 67.096,113.989 C69.335,114.567 71.653,114.952 74.029,115.137 C70.573,118.173 68.268,125.088 68.268,133.554 C68.268,145.008 72.479,153.646 78.065,153.646 C83.652,153.646 87.865,145.008 87.865,133.554 C87.865,124.951 85.487,117.94 81.936,114.981 C83.945,114.745 85.907,114.361 87.811,113.841 C86.246,118.104 87.029,124.999 90.264,132.324 C94.123,141.069 100.222,147.177 105.095,147.177 C105.888,147.177 106.641,147.021 107.334,146.712 C112.438,144.444 112.805,134.836 108.185,124.365 C105.132,117.451 100.681,112.2 96.542,110.298 C98.283,109.336 99.941,108.249 101.505,107.048 C101.604,111.583 104.808,117.701 110.426,123.341 C115.932,128.868 122.251,132.301 126.919,132.301 C128.817,132.301 130.407,131.711 131.518,130.597 C135.465,126.636 132.357,117.543 124.288,109.444 C118.935,104.07 112.817,100.685 108.191,100.502 C109.405,98.987 110.506,97.382 111.477,95.697 C113.312,99.859 118.725,104.25 126.216,107.196 C130.565,108.906 135.056,109.848 138.863,109.849 C138.864,109.849 138.864,109.849 138.864,109.849 C143.91,109.849 147.31,108.26 148.438,105.375 C150.474,100.156 143.997,93.07 133.371,88.892 C129.025,87.182 124.536,86.24 120.73,86.24 C118.495,86.24 116.605,86.569 115.07,87.167 C115.528,85.538 115.875,83.867 116.106,82.16 C119.497,85.083 125.852,86.976 133.477,86.976 C144.893,86.976 153.5,82.749 153.5,77.145 C153.5,71.541 144.893,67.315 133.477,67.315 Z M92.474,23.179 C96.22,14.693 101.497,10.114 104.562,10.114 C104.937,10.114 105.269,10.181 105.581,10.32 C108.524,11.628 108.972,19.504 104.906,28.713 C101.16,37.2 95.881,41.779 92.815,41.779 C92.44,41.779 92.107,41.711 91.798,41.574 C88.855,40.264 88.409,32.387 92.474,23.179 Z M49.092,28.183 C45.029,18.972 45.476,11.095 48.419,9.787 C48.73,9.648 49.063,9.581 49.438,9.581 C52.502,9.581 57.778,14.16 61.524,22.647 C65.589,31.855 65.143,39.731 62.201,41.041 C61.89,41.179 61.557,41.246 61.182,41.246 C58.118,41.246 52.839,36.667 49.092,28.183 Z M33.805,64.519 C30.365,64.519 26.265,63.65 22.259,62.074 C12.916,58.4 7.714,52.485 8.889,49.475 C9.518,47.869 12.052,46.91 15.67,46.91 C19.109,46.91 23.211,47.778 27.219,49.354 C36.56,53.028 41.76,58.942 40.584,61.952 C39.956,63.559 37.423,64.519 33.806,64.519 C33.805,64.519 33.805,64.519 33.805,64.519 Z M27.75,104.937 C23.744,106.513 19.644,107.381 16.204,107.381 C12.585,107.381 10.051,106.422 9.424,104.817 C8.248,101.806 13.45,95.891 22.791,92.217 C26.797,90.641 30.897,89.773 34.337,89.773 C37.956,89.773 40.491,90.732 41.119,92.34 C42.294,95.348 37.093,101.262 27.75,104.937 Z M62.059,131.646 C58.313,140.131 53.035,144.71 49.971,144.71 C49.596,144.71 49.262,144.643 48.951,144.504 C46.008,143.196 45.561,135.319 49.626,126.11 C53.373,117.624 58.651,113.045 61.717,113.045 C62.091,113.045 62.425,113.112 62.735,113.25 C65.677,114.56 66.123,122.437 62.059,131.646 Z M105.44,125.576 C109.504,134.788 109.058,142.664 106.115,143.971 C105.804,144.11 105.47,144.177 105.095,144.177 C102.03,144.177 96.753,139.598 93.008,131.113 C88.943,121.904 89.389,114.028 92.331,112.718 C92.642,112.58 92.976,112.513 93.351,112.513 C96.415,112.513 101.693,117.091 105.44,125.576 Z M132.273,91.684 C141.616,95.358 146.817,101.273 145.643,104.283 C145.016,105.89 142.481,106.849 138.864,106.849 L138.863,106.849 C135.423,106.848 131.321,105.98 127.313,104.404 C117.972,100.73 112.773,94.817 113.948,91.808 C114.576,90.2 117.111,89.24 120.73,89.24 C124.169,89.24 128.269,90.108 132.273,91.684 Z M77.186,42.02 C92.167,42.02 105.055,50.861 110.58,63.439 C110.597,63.483 110.602,63.531 110.619,63.576 C110.644,63.641 110.687,63.695 110.714,63.759 C112.477,67.887 113.457,72.407 113.457,77.146 C113.457,96.514 97.187,112.271 77.186,112.271 C57.186,112.271 40.914,96.514 40.914,77.146 C40.914,57.777 57.186,42.02 77.186,42.02 Z M126.781,49.887 C130.79,48.311 134.892,47.443 138.331,47.443 C141.947,47.443 144.481,48.402 145.108,50.007 C146.284,53.018 141.083,58.933 131.741,62.607 C127.734,64.183 123.635,65.051 120.195,65.051 C116.673,65.051 114.191,64.137 113.482,62.606 C113.449,62.526 113.42,62.445 113.385,62.365 C112.381,59.323 117.556,53.516 126.781,49.887 Z M112.019,33.067 C116.831,28.236 122.604,24.99 126.385,24.99 C127.483,24.99 128.315,25.267 128.858,25.812 C131.137,28.097 128.727,35.606 121.629,42.731 C116.817,47.56 111.045,50.806 107.265,50.806 C106.167,50.806 105.334,50.53 104.791,49.984 C102.514,47.699 104.922,40.19 112.019,33.067 Z M70.733,20.737 C70.733,10.665 74.316,3.646 77.531,3.646 C80.747,3.646 84.331,10.665 84.331,20.737 C84.331,30.809 80.747,37.827 77.531,37.827 C74.316,37.827 70.733,30.809 70.733,20.737 Z M25.142,25.278 C25.685,24.733 26.516,24.458 27.614,24.458 C31.394,24.458 37.168,27.703 41.981,32.534 C49.077,39.658 51.486,47.168 49.209,49.452 C48.666,49.997 47.834,50.273 46.736,50.273 L46.735,50.273 C42.955,50.273 37.181,47.028 32.369,42.198 C25.273,35.074 22.864,27.564 25.142,25.278 Z M20.522,83.442 C10.491,83.442 3.5,79.842 3.5,76.611 C3.5,73.381 10.491,69.782 20.522,69.782 C30.553,69.782 37.543,73.381 37.543,76.611 C37.543,79.842 30.553,83.442 20.522,83.442 Z M42.514,121.758 C37.701,126.588 31.927,129.833 28.147,129.833 C27.05,129.833 26.219,129.558 25.675,129.012 C23.396,126.727 25.804,119.217 32.903,112.094 C37.715,107.263 43.487,104.018 47.267,104.018 C48.366,104.018 49.198,104.294 49.741,104.84 C52.019,107.125 49.61,114.634 42.514,121.758 Z M84.865,133.554 C84.865,143.626 81.281,150.646 78.065,150.646 C74.85,150.646 71.268,143.626 71.268,133.554 C71.268,123.483 74.85,116.466 78.065,116.466 C81.281,116.466 84.865,123.483 84.865,133.554 Z M129.393,128.479 C128.85,129.024 128.018,129.301 126.919,129.301 C123.138,129.301 117.364,126.055 112.551,121.224 C105.455,114.101 103.046,106.591 105.323,104.307 C105.866,103.761 106.699,103.485 107.797,103.485 C111.578,103.485 117.352,106.731 122.163,111.562 C129.261,118.685 131.67,126.195 129.393,128.479 Z M133.477,83.976 C123.447,83.976 116.457,80.375 116.457,77.145 C116.457,73.915 123.447,70.315 133.477,70.315 C143.509,70.315 150.5,73.915 150.5,77.145 C150.5,80.375 143.509,83.976 133.477,83.976 Z"></path>
            </g>
            <path d="M91.5009356,78 C93.4300989,78 95,76.4302295 95,74.5009338 C95,72.5707044 93.4300989,71 91.5009356,71 C89.5708367,71 88,72.5707044 88,74.5009338 C88,76.4302295 89.5708367,78 91.5009356,78 Z M91.5009356,73.8014941 C91.8826517,73.8014941 92.1932638,74.1152615 92.1932638,74.5009338 C92.1932638,74.8866062 91.8826517,75.1985059 91.5009356,75.1985059 C91.1173483,75.1985059 90.8076717,74.8866062 90.8076717,74.5009338 C90.8076717,74.1152615 91.1173483,73.8014941 91.5009356,73.8014941 Z" id="Fill-19" fill="#B8E986"></path>
            <path d="M48.4984611,80 C46.5696908,80 45,81.569883 45,83.5 C45,85.4290936 46.5696908,87 48.4984611,87 C50.4292833,87 52,85.4290936 52,83.5 C52,81.569883 50.4292833,80 48.4984611,80 Z M48.4984611,83.9298246 C48.2665983,83.9298246 48.077825,83.7364035 48.077825,83.5 C48.077825,83.2625731 48.2665983,83.0701754 48.4984611,83.0701754 C48.7323758,83.0701754 48.922175,83.2625731 48.922175,83.5 C48.922175,83.7364035 48.7323758,83.9298246 48.4984611,83.9298246 Z" id="Fill-9" fill="#B8E986"></path>
            <path d="M91.5,53 C93.4299736,53 95,51.4306815 95,49.5 C95,47.5703422 93.4299736,46 91.5,46 C89.5700264,46 88,47.5703422 88,49.5 C88,51.4306815 89.5700264,53 91.5,53 Z M91.5,49.0710734 C91.7327864,49.0710734 91.9235277,49.264551 91.9235277,49.5 C91.9235277,49.7364727 91.7327864,49.9289266 91.5,49.9289266 C91.2661881,49.9289266 91.0764723,49.7364727 91.0764723,49.5 C91.0764723,49.264551 91.2661881,49.0710734 91.5,49.0710734 Z" id="Fill-10" fill="#B8E986"></path>
            <path d="M61.000483,97 C63.2060138,97 65,95.2055174 65,92.9995181 C65,90.7935189 63.2060138,89 61.000483,89 C58.7949523,89 57,90.7935189 57,92.9995181 C57,95.2055174 58.7949523,97 61.000483,97 Z M61.000483,91.8912179 C61.6081391,91.8912179 62.1017993,92.3885074 62.1017993,92.9995181 C62.1017993,93.6114926 61.6081391,94.1087821 61.000483,94.1087821 C60.392827,94.1087821 59.8982007,93.6114926 59.8982007,92.9995181 C59.8982007,92.3885074 60.392827,91.8912179 61.000483,91.8912179 Z" id="Fill-11" fill="#B8E986"></path>
            <path d="M104.500468,76 C106.430405,76 108,74.43002 108,72.499533 C108,70.56998 106.430405,69 104.500468,69 C102.570531,69 101,70.56998 101,72.499533 C101,74.43002 102.570531,76 104.500468,76 Z M104.500468,71.8018679 C104.882337,71.8018679 105.192138,72.1147432 105.192138,72.499533 C105.192138,72.8852568 104.882337,73.1981321 104.500468,73.1981321 C104.118599,73.1981321 103.807862,72.8852568 103.807862,72.499533 C103.807862,72.1147432 104.118599,71.8018679 104.500468,71.8018679 Z" id="Fill-12" fill="#B8E986"></path>
            <path d="M93.5009361,94 C91.5707408,94 90,95.5701895 90,97.4990659 C90,99.4298105 91.5707408,101 93.5009361,101 C95.4301952,101 97,99.4298105 97,97.4990659 C97,95.5701895 95.4301952,94 93.5009361,94 Z M93.5009361,98.1977582 C93.1190158,98.1977582 92.8082375,97.8848412 92.8082375,97.4990659 C92.8082375,97.1142247 93.1190158,96.8022418 93.5009361,96.8022418 C93.8819203,96.8022418 94.1917625,97.1142247 94.1917625,97.4990659 C94.1917625,97.8848412 93.8819203,98.1977582 93.5009361,98.1977582 Z" id="Fill-13" fill="#B8E986"></path>
            <path d="M69.5004848,51 C71.430115,51 73,49.4301506 73,47.5014509 C73,45.5708166 71.430115,44 69.5004848,44 C67.569885,44 66,45.5708166 66,47.5014509 C66,49.4301506 67.569885,51 69.5004848,51 Z M69.5004848,46.9017549 C69.8253221,46.9017549 70.0910098,47.1706508 70.0910098,47.5014509 C70.0910098,47.8303164 69.8253221,48.0982451 69.5004848,48.0982451 C69.1746779,48.0982451 68.9089902,47.8303164 68.9089902,47.5014509 C68.9089902,47.1706508 69.1746779,46.9017549 69.5004848,46.9017549 Z" id="Fill-14" fill="#B8E986"></path>
            <path d="M68,72.5004836 C68,74.4301506 69.5701025,76 71.5,76 C73.4298975,76 75,74.4301506 75,72.5004836 C75,70.5708166 73.4298975,69 71.5,69 C69.5701025,69 68,70.5708166 68,72.5004836 Z M72.0906068,72.5004836 C72.0906068,72.8303164 71.825852,73.0982451 71.5,73.0982451 C71.174148,73.0982451 70.9093932,72.8303164 70.9093932,72.5004836 C70.9093932,72.1706508 71.174148,71.9017549 71.5,71.9017549 C71.825852,71.9017549 72.0906068,72.1706508 72.0906068,72.5004836 Z" id="Fill-15" fill="#B8E986"></path>
            <path d="M102,87.499491 C102,89.980319 104.017804,92 106.5,92 C108.982196,92 111,89.980319 111,87.499491 C111,85.018663 108.982196,83 106.5,83 C104.017804,83 102,85.018663 102,87.499491 Z M107.938081,87.499491 C107.938081,88.2965728 107.293037,88.9460468 106.5,88.9460468 C105.706963,88.9460468 105.061919,88.2965728 105.061919,87.499491 C105.061919,86.7024092 105.706963,86.0539532 106.5,86.0539532 C107.293037,86.0539532 107.938081,86.7024092 107.938081,87.499491 Z" id="Fill-16" fill="#B8E986"></path>
            <path d="M78.5010204,109 C80.9826531,109 83,106.981565 83,104.5 C83,102.019453 80.9826531,100 78.5010204,100 C76.0193878,100 74,102.019453 74,104.5 C74,106.981565 76.0193878,109 78.5010204,109 Z M78.5010204,103.054626 C79.294898,103.054626 79.9387755,103.703008 79.9387755,104.5 C79.9387755,105.29801 79.294898,105.946392 78.5010204,105.946392 C77.7071429,105.946392 77.0612245,105.29801 77.0612245,104.5 C77.0612245,103.703008 77.7071429,103.054626 78.5010204,103.054626 Z" id="Fill-17" fill="#B8E986"></path>
            <path d="M90,85.500467 C90,87.43002 91.5707408,89 93.5009361,89 C95.4301952,89 97,87.43002 97,85.500467 C97,83.56998 95.4301952,82 93.5009361,82 C91.5707408,82 90,83.56998 90,85.500467 Z M94.1917625,85.500467 C94.1917625,85.8852568 93.8819203,86.1981321 93.5009361,86.1981321 C93.1190158,86.1981321 92.8082375,85.8852568 92.8082375,85.500467 C92.8082375,85.1147432 93.1190158,84.8018679 93.5009361,84.8018679 C93.8819203,84.8018679 94.1917625,85.1147432 94.1917625,85.500467 Z" id="Fill-18" fill="#B8E986"></path>
            <path d="M83.4989796,96 C85.9816327,96 88,93.980319 88,91.498473 C88,89.0176451 85.9816327,87 83.4989796,87 C81.0173469,87 79,89.0176451 79,91.498473 C79,93.980319 81.0173469,96 83.4989796,96 Z M83.4989796,90.0539532 C84.2928571,90.0539532 84.9387755,90.7024092 84.9387755,91.498473 C84.9387755,92.2975908 84.2928571,92.9460468 83.4989796,92.9460468 C82.7061224,92.9460468 82.0612245,92.2975908 82.0612245,91.498473 C82.0612245,90.7024092 82.7061224,90.0539532 83.4989796,90.0539532 Z" id="Fill-20" fill="#B8E986"></path>
            <path d="M66.5010204,66 C68.9816327,66 71,63.981337 71,61.500509 C71,59.019681 68.9816327,57 66.5010204,57 C64.0193878,57 62,59.019681 62,61.500509 C62,63.981337 64.0193878,66 66.5010204,66 Z M66.5010204,60.0539532 C67.2938776,60.0539532 67.9387755,60.7034272 67.9387755,61.500509 C67.9387755,62.2975908 67.2938776,62.9460468 66.5010204,62.9460468 C65.7071429,62.9460468 65.0612245,62.2975908 65.0612245,61.500509 C65.0612245,60.7034272 65.7071429,60.0539532 66.5010204,60.0539532 Z" id="Fill-21" fill="#B8E986"></path>
        </g>
    </g>
</svg>