<?xml version="1.0" encoding="UTF-8"?>
<svg width="150px" height="144px" viewBox="0 0 150 144" version="1.1" xmlns="http://www.w3.org/2000/svg" xmlns:xlink="http://www.w3.org/1999/xlink">
    <!-- Generator: Sketch 48.2 (47327) - http://www.bohemiancoding.com/sketch -->
    <title>Geranium</title>
    <desc>Created with Sketch.</desc>
    <defs></defs>
    <g id="Floral-Icons" stroke="none" stroke-width="1" fill="none" fill-rule="evenodd" transform="translate(-670.000000, -192.000000)">
        <g id="Geranium" transform="translate(670.000000, 192.000000)" fill="#D0021B">
            <path d="M148.815,55.678 L141.895,53.682 C138.998,52.846 134.936,48.208 132.984,45.977 C130.587,43.247 125.527,38.667 118.574,38.667 C116.072,38.667 113.56,39.276 111.109,40.478 C110.531,40.713 105.167,42.911 98.991,45.768 C100.036,39.429 100.689,34.079 100.776,33.36 C102.636,25.145 98.349,17.796 89.291,13.691 C87.264,12.773 81.096,9.982 79.379,7.254 L75.418,0.976 C75.142,0.538 74.66,0.284 74.139,0.276 C73.621,0.28 73.141,0.551 72.87,0.994 L69.111,7.137 C67.551,9.693 61.993,12.398 59.324,13.696 C50.822,17.823 46.678,25.161 48.228,33.333 C48.295,33.892 48.871,38.638 49.805,44.483 C44.442,41.773 40.006,39.741 39.489,39.505 C36.884,38.095 34.186,37.379 31.47,37.379 C24.81,37.379 19.802,41.597 17.409,44.111 C15.365,46.259 11.113,50.727 8.186,51.444 L1.191,53.159 C0.687,53.283 0.283,53.658 0.122,54.151 C-0.039,54.644 0.066,55.185 0.4,55.583 L5.183,61.262 C7.258,63.728 8.044,70.451 8.302,72.661 C9.461,82.539 15.159,88.856 23.55,89.577 C24.204,89.702 28.727,90.558 34.379,91.419 C29.757,95.919 26.036,99.857 25.539,100.384 C19.166,105.891 18.257,114.349 23.112,123.031 C24.199,124.971 27.507,130.873 27.272,134.093 L26.733,141.498 C26.696,142.015 26.928,142.515 27.348,142.82 C27.768,143.125 28.315,143.191 28.795,142.996 L35.464,140.281 C36.262,139.956 37.406,139.791 38.865,139.791 C41.392,139.791 44.38,140.282 47.235,140.812 C48.765,141.095 50.3,141.239 51.798,141.239 C59.145,141.239 64.832,137.813 67.82,131.589 C68.121,131.058 70.88,126.175 73.898,120.25 C76.628,126.081 79.119,130.875 79.455,131.519 C82.05,138.062 87.718,141.664 95.426,141.664 C96.935,141.664 98.49,141.524 100.049,141.247 C102.159,140.872 105.274,140.373 107.964,140.373 C109.66,140.373 110.972,140.567 111.862,140.951 L118.68,143.892 C118.871,143.974 119.073,144.015 119.274,144.015 C119.576,144.015 119.876,143.923 120.131,143.746 C120.557,143.449 120.8,142.954 120.772,142.435 L120.394,135.248 C120.238,132.238 123.292,126.879 124.759,124.303 C129.438,116.092 128.707,107.696 122.809,101.832 C122.41,101.377 118.787,97.261 114.258,92.538 C119.865,91.913 124.343,91.253 124.994,91.156 C133.41,90.777 139.359,84.697 140.916,74.874 C141.264,72.677 142.323,65.989 144.499,63.612 L149.507,58.131 C149.857,57.748 149.984,57.211 149.843,56.712 C149.702,56.213 149.314,55.822 148.815,55.678 Z M142.285,61.588 C139.818,64.283 138.674,69.854 137.953,74.405 C137.319,78.407 134.766,87.758 124.79,88.163 C124.735,88.165 124.68,88.17 124.626,88.178 C124.563,88.187 118.237,89.142 110.887,89.877 C110.312,89.935 109.822,90.317 109.626,90.86 C109.429,91.402 109.561,92.01 109.966,92.421 C115.648,98.205 120.538,103.792 120.586,103.847 C120.61,103.875 120.635,103.901 120.661,103.927 C127.737,110.921 124.061,119.468 122.153,122.818 C119.755,127.026 117.212,131.816 117.397,135.404 L117.649,140.18 L113.05,138.196 C111.764,137.642 110.101,137.373 107.964,137.373 C105.037,137.373 101.745,137.898 99.524,138.293 C98.139,138.539 96.76,138.664 95.426,138.664 C90.886,138.664 84.909,137.221 82.218,130.348 C82.198,130.296 82.175,130.246 82.149,130.197 C82.115,130.132 78.672,123.562 75.322,116.173 C75.083,115.645 74.56,115.302 73.981,115.292 C73.407,115.292 72.868,115.607 72.611,116.127 C68.974,123.491 65.223,130.086 65.186,130.152 C65.168,130.184 65.151,130.216 65.135,130.249 C61.987,136.853 56.145,138.239 51.798,138.239 C50.483,138.239 49.132,138.112 47.782,137.862 C44.788,137.306 41.635,136.791 38.865,136.791 C36.99,136.791 35.507,137.024 34.333,137.502 L29.901,139.307 L30.265,134.311 C30.531,130.661 27.981,125.582 25.73,121.566 C23.752,118.029 19.97,109.101 27.553,102.609 C27.594,102.573 27.634,102.536 27.671,102.496 C27.722,102.442 32.787,97.046 38.656,91.465 C39.073,91.068 39.226,90.468 39.05,89.92 C38.875,89.372 38.401,88.973 37.831,88.893 C30.463,87.855 24.103,86.628 24.04,86.616 C23.986,86.606 23.931,86.598 23.876,86.594 C13.926,85.785 11.754,76.336 11.282,72.313 C10.747,67.737 9.832,62.126 7.478,59.33 L4.251,55.498 L8.9,54.358 C12.389,53.503 16.243,49.688 19.582,46.18 C21.644,44.013 25.93,40.379 31.47,40.379 C33.695,40.379 35.927,40.98 38.102,42.166 C38.133,42.183 38.166,42.2 38.2,42.215 C38.26,42.242 44.343,45.007 51.079,48.507 C51.585,48.769 52.195,48.724 52.655,48.387 C53.115,48.052 53.345,47.484 53.249,46.923 C51.982,39.517 51.21,32.992 51.202,32.927 C51.197,32.891 51.192,32.854 51.185,32.818 C49.301,23.049 57.165,18.079 60.635,16.395 C64.998,14.271 69.81,11.75 71.671,8.701 L74.169,4.619 L76.841,8.854 C78.788,11.946 83.856,14.524 88.054,16.424 C91.744,18.097 100.084,23.037 97.835,32.765 C97.822,32.818 97.812,32.873 97.806,32.927 C97.798,32.999 96.943,40.208 95.553,48.085 C95.456,48.638 95.675,49.2 96.122,49.54 C96.57,49.88 97.169,49.94 97.676,49.7 C105.129,46.146 112.217,43.265 112.288,43.237 C112.321,43.223 112.355,43.208 112.388,43.192 C114.438,42.18 116.519,41.667 118.574,41.667 C124.346,41.667 128.667,45.607 130.728,47.955 C133.917,51.598 137.61,55.567 141.064,56.565 L145.663,57.891 L142.285,61.588 Z" id="Fill-2"></path>
            <path d="M111.323,62.56 C108.599,62.56 106.381,64.672 106.159,67.341 C106.158,67.342 106.157,67.342 106.156,67.342 L85.593,72.371 C84.109,68.568 80.647,65.757 76.474,65.205 L76.474,44.591 C78.612,43.942 80.184,41.976 80.184,39.629 C80.184,36.757 77.846,34.42 74.974,34.42 C72.101,34.42 69.764,36.757 69.764,39.629 C69.764,41.976 71.335,43.942 73.474,44.591 L73.474,65.205 C69.032,65.793 65.385,68.935 64.083,73.113 L44.961,67.409 C44.772,64.707 42.537,62.56 39.788,62.56 C36.916,62.56 34.579,64.896 34.579,67.769 C34.579,70.641 36.916,72.978 39.788,72.978 C41.721,72.978 43.391,71.907 44.29,70.34 L63.591,76.097 C63.586,76.231 63.57,76.363 63.57,76.499 C63.57,79.744 64.94,82.67 67.123,84.749 L55.51,102.095 C54.925,101.867 54.294,101.731 53.63,101.731 C50.758,101.731 48.421,104.067 48.421,106.94 C48.421,109.812 50.758,112.148 53.63,112.148 C56.502,112.148 58.839,109.812 58.839,106.94 C58.839,105.825 58.479,104.796 57.881,103.948 L69.544,86.525 C71.159,87.404 73.009,87.903 74.974,87.903 C76.979,87.903 78.862,87.379 80.501,86.467 L93.152,102.621 C92.395,103.525 91.921,104.674 91.921,105.942 C91.921,108.816 94.258,111.153 97.13,111.153 C100.002,111.153 102.339,108.816 102.339,105.942 C102.339,103.071 100.002,100.734 97.13,100.734 C96.619,100.734 96.136,100.831 95.669,100.969 L82.908,84.674 C85.044,82.6 86.378,79.705 86.378,76.499 C86.378,76.088 86.353,75.683 86.311,75.283 L106.788,70.276 C107.677,71.878 109.365,72.978 111.323,72.978 C114.197,72.978 116.534,70.641 116.534,67.769 C116.534,64.896 114.197,62.56 111.323,62.56 Z M39.788,69.978 C38.57,69.978 37.579,68.987 37.579,67.769 C37.579,66.55 38.57,65.56 39.788,65.56 C41.006,65.56 41.997,66.55 41.997,67.769 C41.997,68.987 41.006,69.978 39.788,69.978 Z M53.63,109.148 C52.412,109.148 51.421,108.158 51.421,106.94 C51.421,105.721 52.412,104.731 53.63,104.731 C54.848,104.731 55.839,105.721 55.839,106.94 C55.839,108.158 54.848,109.148 53.63,109.148 Z M99.339,105.942 C99.339,107.162 98.348,108.153 97.13,108.153 C95.912,108.153 94.921,107.162 94.921,105.942 C94.921,104.725 95.912,103.734 97.13,103.734 C98.348,103.734 99.339,104.725 99.339,105.942 Z M72.764,39.629 C72.764,38.411 73.755,37.42 74.974,37.42 C76.192,37.42 77.184,38.411 77.184,39.629 C77.184,40.847 76.192,41.838 74.974,41.838 C73.755,41.838 72.764,40.847 72.764,39.629 Z M79.971,83.24 C79.951,83.254 79.93,83.264 79.91,83.279 C79.897,83.289 79.889,83.301 79.877,83.311 C78.495,84.309 76.804,84.903 74.974,84.903 C73.155,84.903 71.475,84.316 70.098,83.331 C70.051,83.291 70.008,83.248 69.956,83.213 C69.939,83.202 69.921,83.196 69.904,83.186 C67.883,81.65 66.57,79.228 66.57,76.499 C66.57,71.865 70.34,68.095 74.974,68.095 C79.608,68.095 83.378,71.865 83.378,76.499 C83.378,79.26 82.034,81.707 79.971,83.24 Z M111.323,69.978 C110.106,69.978 109.116,68.987 109.116,67.769 C109.116,66.55 110.106,65.56 111.323,65.56 C112.542,65.56 113.534,66.55 113.534,67.769 C113.534,68.987 112.542,69.978 111.323,69.978 Z" id="Fill-3"></path>
        </g>
    </g>
</svg>