<?xml version="1.0" encoding="UTF-8"?>
<svg width="130px" height="181px" viewBox="0 0 130 181" version="1.1" xmlns="http://www.w3.org/2000/svg" xmlns:xlink="http://www.w3.org/1999/xlink">
    <!-- Generator: Sketch 48.2 (47327) - http://www.bohemiancoding.com/sketch -->
    <title>Grape</title>
    <desc>Created with Sketch.</desc>
    <defs></defs>
    <g id="Fruits" stroke="none" stroke-width="1" fill="none" fill-rule="evenodd" transform="translate(-1543.000000, -75.000000)">
        <g id="Grape" transform="translate(1543.000000, 75.000000)">
            <path d="M74.91,54.173 C76.4,54.364 78.08,54.7 79.91,55.069 C83.62,55.813 87.82,56.657 92.17,56.657 C99.43,56.657 104.96,54.29 109.37,49.25 L103.11,47.16 C102.39,46.919 101.87,46.293 101.76,45.542 C101.66,44.79 101.99,44.043 102.61,43.614 C102.67,43.57 107.87,39.981 111.11,36.275 C108.33,35.841 104.84,35.146 103.4,34.237 C102.91,33.926 102.58,33.415 102.49,32.838 C102.41,32.261 102.58,31.675 102.96,31.235 C103.35,30.778 112,20.433 104.94,6.733 L74.91,54.173 Z M92.17,60.657 C87.42,60.657 82.82,59.733 79.13,58.991 C76.5,58.464 74.24,58.009 72.65,58.009 C72.27,58.009 71.96,58.035 71.7,58.084 C70.92,58.236 70.12,57.912 69.67,57.258 C69.22,56.604 69.2,55.744 69.62,55.068 L69.98,54.476 L103.31,1.818 C103.68,1.244 104.31,0.894 104.99,0.888 L105,0.888 C105.68,0.888 106.31,1.228 106.68,1.793 C115.48,15.253 110.51,26.772 107.61,31.528 C109.55,31.99 112.42,32.468 114.91,32.758 C115.57,32.835 116.15,33.238 116.46,33.832 C116.76,34.426 116.75,35.132 116.43,35.715 C114.63,38.947 110.77,42.375 108,44.575 L113.34,46.357 C113.94,46.558 114.42,47.034 114.61,47.638 C114.81,48.242 114.7,48.903 114.33,49.419 C108.92,56.981 101.67,60.657 92.17,60.657 Z" id="Fill-222" fill="#417505"></path>
            <path d="M96.2,93.104 C88.75,93.104 82.68,99.174 82.68,106.635 C82.68,114.096 88.75,120.167 96.2,120.167 C103.66,120.167 109.74,114.096 109.74,106.635 C109.74,99.174 103.66,93.104 96.2,93.104 Z M96.2,124.167 C86.54,124.167 78.68,116.302 78.68,106.635 C78.68,96.968 86.54,89.104 96.2,89.104 C105.87,89.104 113.74,96.968 113.74,106.635 C113.74,116.302 105.87,124.167 96.2,124.167 Z" id="Fill-223" fill="#B0E377"></path>
            <path d="M64.86,93.104 C57.4,93.104 51.33,99.174 51.33,106.635 C51.33,114.096 57.4,120.167 64.86,120.167 C72.32,120.167 78.39,114.096 78.39,106.635 C78.39,99.174 72.32,93.104 64.86,93.104 Z M64.86,124.167 C55.2,124.167 47.33,116.302 47.33,106.635 C47.33,96.968 55.2,89.104 64.86,89.104 C74.53,89.104 82.39,96.968 82.39,106.635 C82.39,116.302 74.53,124.167 64.86,124.167 Z" id="Fill-224" fill="#B0E377"></path>
            <path d="M33.79,93.104 C26.34,93.104 20.28,99.174 20.28,106.635 C20.28,114.096 26.34,120.167 33.79,120.167 C41.26,120.167 47.33,114.096 47.33,106.635 C47.33,99.174 41.26,93.104 33.79,93.104 Z M33.79,124.167 C24.13,124.167 16.28,116.302 16.28,106.635 C16.28,96.968 24.13,89.104 33.79,89.104 C43.46,89.104 51.33,96.968 51.33,106.635 C51.33,116.302 43.46,124.167 33.79,124.167 Z" id="Fill-225" fill="#B0E377"></path>
            <path d="M111.6,63.126 C104.14,63.126 98.07,69.197 98.07,76.659 C98.07,84.117 104.14,90.184 111.6,90.184 C119.05,90.184 125.11,84.117 125.11,76.659 C125.11,69.197 119.05,63.126 111.6,63.126 Z M111.6,94.184 C101.93,94.184 94.07,86.322 94.07,76.659 C94.07,66.991 101.93,59.126 111.6,59.126 C121.26,59.126 129.11,66.991 129.11,76.659 C129.11,86.322 121.26,94.184 111.6,94.184 Z" id="Fill-226" fill="#B0E377"></path>
            <path d="M80.25,63.126 C72.79,63.126 66.72,69.197 66.72,76.659 C66.72,84.117 72.79,90.184 80.25,90.184 C87.71,90.184 93.77,84.117 93.77,76.659 C93.77,69.197 87.71,63.126 80.25,63.126 Z M80.25,94.184 C70.58,94.184 62.72,86.322 62.72,76.659 C62.72,66.991 70.58,59.126 80.25,59.126 C89.91,59.126 97.77,66.991 97.77,76.659 C97.77,86.322 89.91,94.184 80.25,94.184 Z" id="Fill-227" fill="#B0E377"></path>
            <path d="M35.76,78.235 C36.55,85.059 42.3,90.184 49.2,90.184 C56.65,90.184 62.72,84.117 62.72,76.659 C62.72,69.197 56.65,63.126 49.2,63.126 C42.2,63.126 36.32,68.548 35.72,75.501 C35.78,76.105 35.79,76.69 35.79,77.146 C35.79,77.52 35.78,77.873 35.76,78.235 Z M49.2,94.184 C40.19,94.184 32.69,87.437 31.76,78.489 C31.75,78.376 31.75,78.263 31.76,78.15 C31.78,77.812 31.79,77.491 31.79,77.146 C31.79,76.747 31.78,76.228 31.73,75.756 C31.71,75.632 31.71,75.508 31.72,75.384 C32.38,66.267 40.06,59.126 49.2,59.126 C58.86,59.126 66.72,66.991 66.72,76.659 C66.72,86.322 58.86,94.184 49.2,94.184 Z" id="Fill-228" fill="#B0E377"></path>
            <path d="M33.75,80.282 C32.72,80.282 31.86,79.504 31.76,78.48 C31.69,77.783 31.66,77.205 31.66,76.659 C31.66,76.357 31.68,76.065 31.7,75.778 L31.72,75.433 C31.77,74.392 32.61,73.564 33.65,73.529 C34.7,73.516 35.58,74.265 35.7,75.299 C35.78,75.973 35.79,76.64 35.79,77.146 C35.79,77.582 35.78,77.988 35.75,78.415 C35.68,79.453 34.82,80.265 33.78,80.282 C33.77,80.282 33.76,80.282 33.75,80.282" id="Fill-229" fill="#B0E377"></path>
            <path d="M18.28,63.627 C10.81,63.627 4.73,69.691 4.73,77.146 C4.73,84.614 10.81,90.691 18.28,90.691 C25.73,90.691 31.79,84.614 31.79,77.146 C31.79,76.747 31.78,76.228 31.73,75.756 C31.73,75.726 31.72,75.694 31.72,75.664 C30.97,68.797 25.21,63.627 18.28,63.627 Z M18.28,94.691 C8.6,94.691 0.73,86.82 0.73,77.146 C0.73,67.486 8.6,59.627 18.28,59.627 C27.28,59.627 34.77,66.368 35.71,75.307 C35.71,75.328 35.71,75.349 35.71,75.371 C35.78,76.02 35.79,76.657 35.79,77.146 C35.79,86.82 27.93,94.691 18.28,94.691 Z" id="Fill-230" fill="#B0E377"></path>
            <path d="M33.79,79.146 C32.69,79.146 31.79,78.25 31.79,77.146 C31.79,76.952 31.79,76.729 31.78,76.495 C31.77,76.251 31.76,75.998 31.73,75.756 C31.72,75.68 31.72,75.604 31.72,75.528 C31.72,74.467 32.54,73.583 33.6,73.524 C34.66,73.476 35.59,74.237 35.7,75.292 C35.75,75.734 35.77,76.167 35.78,76.555 C35.79,76.767 35.79,76.966 35.79,77.146 C35.79,78.25 34.89,79.146 33.79,79.146" id="Fill-231" fill="#B0E377"></path>
            <path d="M73.98,148.105 C74.4,148.345 74.8,148.548 75.2,148.727 C76.94,149.498 78.79,149.891 80.68,149.891 C88.14,149.891 94.2,143.821 94.2,136.359 C94.2,128.897 88.14,122.827 80.68,122.827 C73.22,122.827 67.14,128.897 67.14,136.359 C67.14,140.673 69.14,144.63 72.62,147.215 C72.99,147.483 73.37,147.736 73.86,148.028 C73.9,148.053 73.94,148.079 73.98,148.105 Z M80.68,153.891 C78.23,153.891 75.84,153.383 73.57,152.382 C73.04,152.145 72.53,151.882 71.99,151.576 C71.82,151.503 71.67,151.41 71.54,151.298 C71.06,151.004 70.64,150.726 70.25,150.432 C65.73,147.079 63.14,141.952 63.14,136.359 C63.14,126.692 71.01,118.827 80.68,118.827 C90.34,118.827 98.2,126.692 98.2,136.359 C98.2,146.026 90.34,153.891 80.68,153.891 Z" id="Fill-232" fill="#B0E377"></path>
            <path d="M74.38,152.553 C74.11,152.553 73.83,152.497 73.56,152.378 C73.01,152.13 72.46,151.849 71.89,151.518 C71.24,151.147 70.88,150.474 70.88,149.782 C70.88,149.443 70.97,149.101 71.15,148.787 C71.7,147.83 72.93,147.5 73.88,148.051 C74.34,148.314 74.77,148.535 75.2,148.727 C75.94,149.06 76.38,149.789 76.38,150.552 C76.38,150.826 76.33,151.104 76.21,151.37 C75.88,152.113 75.15,152.553 74.38,152.553" id="Fill-233" fill="#B0E377"></path>
            <path d="M72.83,151.744 C72.49,151.744 72.15,151.658 71.84,151.479 C71.33,151.187 70.82,150.854 70.25,150.432 C69.71,150.041 69.43,149.435 69.43,148.821 C69.43,148.409 69.56,147.993 69.82,147.636 C70.47,146.747 71.73,146.555 72.62,147.209 C72.99,147.483 73.37,147.736 73.86,148.028 C74.8,148.593 75.11,149.809 74.55,150.755 C74.18,151.389 73.51,151.744 72.83,151.744" id="Fill-234" fill="#B0E377"></path>
            <path d="M49.33,122.827 C41.87,122.827 35.79,128.897 35.79,136.359 C35.79,143.821 41.87,149.891 49.33,149.891 C51.49,149.891 53.57,149.385 55.51,148.386 C55.96,148.151 56.49,147.862 56.96,147.554 C60.64,145.023 62.86,140.833 62.86,136.359 C62.86,128.897 56.79,122.827 49.33,122.827 Z M49.33,153.891 C39.66,153.891 31.79,146.026 31.79,136.359 C31.79,126.692 39.66,118.827 49.33,118.827 C59,118.827 66.86,126.692 66.86,136.359 C66.86,142.152 64,147.576 59.2,150.868 C58.56,151.293 57.91,151.646 57.36,151.936 C54.82,153.236 52.13,153.891 49.33,153.891 Z" id="Fill-235" fill="#B0E377"></path>
            <path d="M56.43,152.166 C55.71,152.166 55.01,151.776 54.66,151.094 C54.5,150.798 54.43,150.481 54.43,150.168 C54.43,149.448 54.82,148.752 55.5,148.394 C55.96,148.151 56.49,147.862 56.96,147.554 C57.88,146.94 59.12,147.19 59.73,148.11 C59.96,148.451 60.07,148.837 60.07,149.218 C60.07,149.864 59.75,150.498 59.17,150.883 C58.56,151.293 57.91,151.646 57.36,151.936 C57.06,152.092 56.74,152.166 56.43,152.166" id="Fill-236" fill="#B0E377"></path>
            <path d="M57.46,151.88 C53.81,154.417 51.63,158.567 51.63,163.007 C51.63,170.473 57.69,176.546 65.14,176.546 C72.61,176.546 78.68,170.473 78.68,163.007 C78.68,158.776 76.74,154.88 73.36,152.285 C72.36,151.826 71.37,151.249 70.43,150.565 C68.75,149.846 66.97,149.481 65.14,149.481 C63,149.481 60.96,149.974 59.08,150.945 C58.53,151.303 57.96,151.616 57.46,151.88 Z M65.14,180.546 C55.48,180.546 47.63,172.678 47.63,163.007 C47.63,157.207 50.5,151.789 55.3,148.513 C55.36,148.469 55.43,148.43 55.5,148.394 C55.96,148.151 56.49,147.862 56.96,147.554 C57.01,147.516 57.07,147.48 57.13,147.448 C59.62,146.143 62.31,145.481 65.14,145.481 C67.6,145.481 69.99,145.99 72.25,146.994 C72.38,147.054 72.5,147.127 72.62,147.215 C73.46,147.833 74.32,148.34 75.19,148.722 C75.32,148.782 75.46,148.858 75.58,148.948 C80.09,152.304 82.68,157.429 82.68,163.007 C82.68,172.678 74.81,180.546 65.14,180.546 Z" id="Fill-237" fill="#B0E377"></path>
            <path d="M56.43,152.166 C55.75,152.166 55.09,151.818 54.71,151.199 C54.17,150.292 54.42,149.118 55.29,148.518 C55.82,148.154 56.42,147.809 57.17,147.432 C58.11,146.957 59.26,147.299 59.79,148.213 C60.33,149.127 60.05,150.297 59.17,150.883 C58.56,151.293 57.91,151.646 57.36,151.936 C57.06,152.091 56.74,152.166 56.43,152.166" id="Fill-238" fill="#B0E377"></path>
            <path d="M74.38,152.553 C74.11,152.553 73.84,152.498 73.58,152.383 C72.43,151.881 71.31,151.223 70.24,150.427 C69.42,149.819 69.19,148.693 69.7,147.813 C70.22,146.932 71.31,146.58 72.24,146.993 C73.42,147.516 74.54,148.174 75.58,148.951 C76.39,149.56 76.62,150.683 76.11,151.561 C75.74,152.192 75.07,152.553 74.38,152.553" id="Fill-239" fill="#B0E377"></path>
            <path d="M74.08,148.861 C73.91,148.921 73.69,149.026 73.48,149.211 L74.38,150.245 L74.45,150.086 L74.08,148.861 Z M74.66,152.771 C74.29,152.771 73.92,152.67 73.6,152.473 C73.46,152.387 73.35,152.297 73.23,152.199 C72.37,151.679 72.02,150.582 72.45,149.647 C72.92,148.65 74.09,148.214 75.09,148.664 C75.09,148.666 75.1,148.668 75.1,148.67 C75.11,148.672 75.11,148.673 75.11,148.675 C75.12,148.676 75.12,148.678 75.12,148.68 L75.25,148.741 C75.33,148.777 75.41,148.816 75.49,148.846 C76.15,149.091 76.63,149.667 76.76,150.362 C76.89,151.057 76.64,151.767 76.1,152.23 C75.83,152.471 75.5,152.635 75.12,152.716 C74.97,152.753 74.81,152.771 74.66,152.771 Z" id="Fill-240" fill="#B0E377"></path>
            <path d="M74.27,152.487 C73.99,152.487 73.71,152.43 73.44,152.31 C72.65,151.953 71.9,151.543 71.2,151.092 C70.88,150.883 70.56,150.663 70.24,150.431 C69.73,150.054 69.43,149.456 69.43,148.821 C69.43,148.061 69.86,147.359 70.54,147.022 C71.22,146.684 72.04,146.758 72.64,147.218 C72.88,147.399 73.12,147.569 73.37,147.73 C73.92,148.083 74.48,148.386 75.07,148.654 C75.07,148.655 75.07,148.656 75.08,148.657 C75.08,148.659 75.08,148.661 75.09,148.663 C75.83,148.997 76.27,149.726 76.27,150.489 C76.27,150.763 76.21,151.042 76.09,151.309 C75.76,152.049 75.03,152.487 74.27,152.487" id="Fill-241" fill="#B0E377"></path>
            <path d="M57.93,151.278 C57.29,151.278 56.66,150.979 56.28,150.419 C55.67,149.527 55.86,148.319 56.73,147.681 C56.76,147.661 56.79,147.636 56.83,147.612 L56.83,147.613 L56.83,147.612 C56.84,147.607 56.85,147.603 56.85,147.598 C56.86,147.597 56.86,147.597 56.86,147.596 C57.09,147.444 57.37,147.24 57.69,146.974 C58.32,146.465 59.2,146.385 59.91,146.771 C60.71,147.034 61.25,147.766 61.28,148.607 C61.31,149.447 60.8,150.212 60.02,150.524 C59.61,150.688 59.29,150.834 59,150.986 C58.96,151.008 58.92,151.029 58.87,151.048 C58.87,151.049 58.87,151.05 58.87,151.05 C58.87,151.05 58.88,151.041 58.91,151.029 C58.6,151.197 58.26,151.278 57.93,151.278" id="Fill-242" fill="#B0E377"></path>
            <path d="M56.54,152.096 C55.81,152.096 55.11,151.699 54.76,151.009 C54.61,150.717 54.54,150.406 54.54,150.099 C54.54,149.372 54.93,148.671 55.62,148.316 C56.07,148.086 56.46,147.863 56.8,147.634 C57.72,147.02 58.96,147.268 59.57,148.186 C59.8,148.528 59.91,148.915 59.91,149.297 C59.91,149.942 59.6,150.575 59.02,150.96 C58.55,151.275 58.04,151.575 57.45,151.875 C57.16,152.025 56.84,152.096 56.54,152.096" id="Fill-243" fill="#B0E377"></path>
            <path d="M65.15,75.003 C64.23,75.003 63.4,74.358 63.2,73.418 C61.48,65.343 52.04,24.046 34.57,3.993 C33.84,3.16 33.93,1.896 34.76,1.171 C35.59,0.445 36.86,0.533 37.58,1.365 C55.71,22.163 65.36,64.343 67.11,72.587 C67.34,73.667 66.65,74.729 65.57,74.959 C65.43,74.989 65.29,75.003 65.15,75.003" id="Fill-244" fill="#417505"></path>
            <path d="M33.75,80.282 C32.72,80.282 31.86,79.504 31.76,78.48 C31.69,77.783 31.66,77.205 31.66,76.659 C31.66,76.357 31.68,76.065 31.7,75.778 L31.72,75.433 C31.77,74.392 32.61,73.564 33.65,73.529 C34.7,73.516 35.58,74.265 35.7,75.299 C35.78,75.973 35.79,76.64 35.79,77.146 C35.79,77.582 35.78,77.988 35.75,78.415 C35.68,79.453 34.82,80.265 33.78,80.282 C33.77,80.282 33.76,80.282 33.75,80.282" id="Fill-245" fill="#B0E377"></path>
            <path d="M33.79,79.146 C32.69,79.146 31.79,78.25 31.79,77.146 C31.79,76.952 31.79,76.729 31.78,76.495 C31.77,76.251 31.76,75.998 31.73,75.756 C31.72,75.68 31.72,75.604 31.72,75.528 C31.72,74.467 32.54,73.583 33.6,73.524 C34.66,73.476 35.59,74.237 35.7,75.292 C35.75,75.734 35.77,76.167 35.78,76.555 C35.79,76.767 35.79,76.966 35.79,77.146 C35.79,78.25 34.89,79.146 33.79,79.146" id="Fill-246" fill="#B0E377"></path>
            <path d="M74.38,152.553 C74.11,152.553 73.83,152.497 73.56,152.378 C73.01,152.13 72.46,151.849 71.89,151.518 C71.24,151.147 70.88,150.474 70.88,149.782 C70.88,149.443 70.97,149.101 71.15,148.787 C71.7,147.83 72.93,147.5 73.88,148.051 C74.34,148.314 74.77,148.535 75.2,148.727 C75.94,149.06 76.38,149.789 76.38,150.552 C76.38,150.826 76.33,151.104 76.21,151.37 C75.88,152.113 75.15,152.553 74.38,152.553" id="Fill-247" fill="#B0E377"></path>
            <path d="M72.83,151.744 C72.49,151.744 72.15,151.658 71.84,151.479 C71.33,151.187 70.82,150.854 70.25,150.432 C69.71,150.041 69.43,149.435 69.43,148.821 C69.43,148.409 69.56,147.993 69.82,147.636 C70.47,146.747 71.73,146.555 72.62,147.209 C72.99,147.483 73.37,147.736 73.86,148.028 C74.8,148.593 75.11,149.809 74.55,150.755 C74.18,151.389 73.51,151.744 72.83,151.744" id="Fill-248" fill="#B0E377"></path>
            <path d="M56.43,152.166 C55.71,152.166 55.01,151.776 54.66,151.094 C54.5,150.798 54.43,150.481 54.43,150.168 C54.43,149.448 54.82,148.752 55.5,148.394 C55.96,148.151 56.49,147.862 56.96,147.554 C57.88,146.94 59.12,147.19 59.73,148.11 C59.96,148.451 60.07,148.837 60.07,149.218 C60.07,149.864 59.75,150.498 59.17,150.883 C58.56,151.293 57.91,151.646 57.36,151.936 C57.06,152.092 56.74,152.166 56.43,152.166" id="Fill-249" fill="#B0E377"></path>
            <path d="M57.46,151.88 C53.81,154.417 51.63,158.567 51.63,163.007 C51.63,170.473 57.69,176.546 65.14,176.546 C72.61,176.546 78.68,170.473 78.68,163.007 C78.68,158.776 76.74,154.88 73.36,152.285 C72.36,151.826 71.37,151.249 70.43,150.565 C68.75,149.846 66.97,149.481 65.14,149.481 C63,149.481 60.96,149.974 59.08,150.945 C58.53,151.303 57.96,151.616 57.46,151.88 Z M65.14,180.546 C55.48,180.546 47.63,172.678 47.63,163.007 C47.63,157.207 50.5,151.789 55.3,148.513 C55.36,148.469 55.43,148.43 55.5,148.394 C55.96,148.151 56.49,147.862 56.96,147.554 C57.01,147.516 57.07,147.48 57.13,147.448 C59.62,146.143 62.31,145.481 65.14,145.481 C67.6,145.481 69.99,145.99 72.25,146.994 C72.38,147.054 72.5,147.127 72.62,147.215 C73.46,147.833 74.32,148.34 75.19,148.722 C75.32,148.782 75.46,148.858 75.58,148.948 C80.09,152.304 82.68,157.429 82.68,163.007 C82.68,172.678 74.81,180.546 65.14,180.546 Z" id="Fill-250" fill="#B0E377"></path>
            <path d="M56.43,152.166 C55.75,152.166 55.09,151.818 54.71,151.199 C54.17,150.292 54.42,149.118 55.29,148.518 C55.82,148.154 56.42,147.809 57.17,147.432 C58.11,146.957 59.26,147.299 59.79,148.213 C60.33,149.127 60.05,150.297 59.17,150.883 C58.56,151.293 57.91,151.646 57.36,151.936 C57.06,152.091 56.74,152.166 56.43,152.166" id="Fill-251" fill="#B0E377"></path>
            <path d="M74.38,152.553 C74.11,152.553 73.84,152.498 73.58,152.383 C72.43,151.881 71.31,151.223 70.24,150.427 C69.42,149.819 69.19,148.693 69.7,147.813 C70.22,146.932 71.31,146.58 72.24,146.993 C73.42,147.516 74.54,148.174 75.58,148.951 C76.39,149.56 76.62,150.683 76.11,151.561 C75.74,152.192 75.07,152.553 74.38,152.553" id="Fill-252" fill="#B0E377"></path>
            <path d="M33.75,80.282 C32.72,80.282 31.86,79.504 31.76,78.48 C31.69,77.783 31.66,77.205 31.66,76.659 C31.66,76.357 31.68,76.065 31.7,75.778 L31.72,75.433 C31.77,74.392 32.61,73.564 33.65,73.529 C34.7,73.516 35.58,74.265 35.7,75.299 C35.78,75.973 35.79,76.64 35.79,77.146 C35.79,77.582 35.78,77.988 35.75,78.415 C35.68,79.453 34.82,80.265 33.78,80.282 C33.77,80.282 33.76,80.282 33.75,80.282" id="Fill-253" fill="#B0E377"></path>
            <path d="M56.43,152.166 C55.75,152.166 55.09,151.818 54.71,151.199 C54.17,150.292 54.42,149.118 55.29,148.518 C55.82,148.154 56.42,147.809 57.17,147.432 C58.11,146.957 59.26,147.299 59.79,148.213 C60.33,149.127 60.05,150.297 59.17,150.883 C58.56,151.293 57.91,151.646 57.36,151.936 C57.06,152.091 56.74,152.166 56.43,152.166" id="Fill-254" fill="#B0E377"></path>
            <path d="M74.38,152.553 C74.11,152.553 73.84,152.498 73.58,152.383 C72.43,151.881 71.31,151.223 70.24,150.427 C69.42,149.819 69.19,148.693 69.7,147.813 C70.22,146.932 71.31,146.58 72.24,146.993 C73.42,147.516 74.54,148.174 75.58,148.951 C76.39,149.56 76.62,150.683 76.11,151.561 C75.74,152.192 75.07,152.553 74.38,152.553" id="Fill-255" fill="#B0E377"></path>
            <path d="M71.22,58.069 C70.33,58.069 69.51,57.465 69.29,56.56 C68.91,55.096 67.16,52.728 65.3,50.221 C59.3,42.138 50.24,29.924 58.94,14.295 C59.25,13.739 59.8,13.364 60.43,13.284 C61.06,13.202 61.69,13.428 62.13,13.888 L66.02,17.963 C66.83,14.52 68.28,9.563 70.44,6.559 C70.83,6.017 71.41,5.709 72.13,5.727 C72.79,5.749 73.41,6.101 73.76,6.667 C75.08,8.782 76.74,11.17 77.98,12.732 C79.02,11.13 80.67,8.971 83.05,6.917 C87.19,3.337 94.42,-0.607 105.28,0.907 C106.37,1.06 107.14,2.071 106.98,3.165 C106.83,4.259 105.81,5.016 104.73,4.869 C86.92,2.376 80.51,16.246 80.24,16.838 C80,17.37 79.54,17.774 78.99,17.94 C78.42,18.106 77.82,18.023 77.33,17.709 C75.9,16.789 73.78,13.933 72.2,11.604 C70.23,16.122 69.2,22.357 69.19,22.434 C69.06,23.183 68.53,23.799 67.8,24.024 C67.08,24.25 66.29,24.043 65.76,23.494 L61.21,18.717 C55.96,30.92 63.16,40.627 68.51,47.837 C70.79,50.916 72.6,53.347 73.16,55.577 C73.43,56.648 72.79,57.736 71.71,58.007 C71.55,58.049 71.38,58.069 71.22,58.069" id="Fill-256" fill="#417505"></path>
            <path d="M64.86,71.292 C64.54,71.292 64.22,71.216 63.92,71.056 C62.95,70.535 62.58,69.323 63.1,68.349 L71.33,52.935 C71.85,51.96 73.06,51.591 74.04,52.113 C75.01,52.633 75.38,53.845 74.86,54.819 L66.63,70.234 C66.27,70.908 65.58,71.292 64.86,71.292" id="Fill-257" fill="#417505"></path>
        </g>
    </g>
</svg>