<?xml version="1.0" encoding="UTF-8"?>
<svg width="144px" height="148px" viewBox="0 0 144 148" version="1.1" xmlns="http://www.w3.org/2000/svg" xmlns:xlink="http://www.w3.org/1999/xlink">
    <!-- Generator: Sketch 48.2 (47327) - http://www.bohemiancoding.com/sketch -->
    <title>Grapefruit</title>
    <desc>Created with Sketch.</desc>
    <defs></defs>
    <g id="Fruits" stroke="none" stroke-width="1" fill="none" fill-rule="evenodd" transform="translate(-1536.000000, -1070.000000)">
        <g id="Grapefruit" transform="translate(1536.000000, 1070.000000)" fill="#EFD78D">
            <path d="M71.92,8.31 C34.51,8.31 4.08,38.74 4.08,76.15 C4.08,113.57 34.51,144.01 71.92,144.01 C109.33,144.01 139.77,113.57 139.77,76.15 C139.77,38.74 109.33,8.31 71.92,8.31 Z M71.92,148.01 C32.31,148.01 0.08,115.77 0.08,76.15 C0.08,36.54 32.31,4.31 71.92,4.31 C111.54,4.31 143.77,36.54 143.77,76.15 C143.77,115.77 111.54,148.01 71.92,148.01 Z" id="Fill-427"></path>
            <path d="M71.92,11.03 C71.72,11.03 71.51,11 71.3,10.93 C70.25,10.59 69.68,9.46 70.02,8.41 C70.79,6.06 72.18,2.8 74.47,0.61 C75.27,-0.16 76.54,-0.13 77.3,0.67 C78.06,1.46 78.04,2.73 77.24,3.49 C75.55,5.12 74.45,7.74 73.82,9.65 C73.55,10.5 72.76,11.03 71.92,11.03" id="Fill-428"></path>
            <path d="M23.18,71.49 C23.09,71.49 23,71.49 22.9,71.47 C21.81,71.33 21.04,70.32 21.19,69.22 C23.21,54.42 31.82,40.58 44.21,32.21 C45.13,31.59 46.37,31.83 46.99,32.75 C47.61,33.66 47.37,34.91 46.45,35.52 C34.99,43.27 27.03,56.07 25.16,69.76 C25.02,70.77 24.16,71.49 23.18,71.49" id="Fill-429"></path>
            <path d="M79,119.12 C78.03,119.12 77.12,118.73 76.44,118.04 C75.79,117.39 75.41,116.49 75.41,115.52 C75.41,114.55 75.78,113.64 76.47,112.96 C77.79,111.62 80.19,111.6 81.56,112.97 C82.24,113.64 82.61,114.55 82.61,115.52 C82.61,116.49 82.23,117.39 81.55,118.07 C80.88,118.74 79.97,119.12 79,119.12" id="Fill-430"></path>
            <path d="M122.24,84.94 C121.28,84.94 120.37,84.56 119.69,83.88 C119.02,83.22 118.64,82.31 118.64,81.34 C118.64,80.37 119.02,79.47 119.71,78.79 C120.35,78.13 121.26,77.74 122.24,77.74 C123.21,77.74 124.12,78.12 124.8,78.83 C125.46,79.47 125.84,80.37 125.84,81.34 C125.84,82.3 125.46,83.21 124.78,83.89 C124.1,84.57 123.2,84.94 122.24,84.94" id="Fill-431"></path>
            <path d="M104.93,108.35 C103.97,108.35 103.06,107.97 102.38,107.28 C100.99,105.89 100.99,103.61 102.38,102.2 C103.75,100.83 106.09,100.83 107.47,102.17 C108.87,103.61 108.87,105.89 107.49,107.28 C106.79,107.98 105.89,108.35 104.93,108.35" id="Fill-432"></path>
            <path d="M82.1,96.88 C81.13,96.88 80.22,96.51 79.54,95.82 C78.86,95.11 78.49,94.2 78.51,93.22 C78.52,92.27 78.9,91.39 79.58,90.73 C80.2,90.08 81.12,89.69 82.1,89.69 C83.07,89.69 83.98,90.07 84.67,90.78 C85.3,91.38 85.69,92.27 85.7,93.22 C85.71,94.2 85.34,95.12 84.66,95.82 C83.96,96.51 83.06,96.88 82.1,96.88" id="Fill-433"></path>
            <path d="M100.66,84.41 C99.7,84.41 98.79,84.03 98.11,83.34 C96.71,81.95 96.7,79.72 98.09,78.28 C99.51,76.87 101.83,76.9 103.2,78.24 C104.62,79.71 104.6,82 103.2,83.37 C102.53,84.03 101.63,84.41 100.66,84.41" id="Fill-434"></path>
        </g>
    </g>
</svg>