<?xml version="1.0" encoding="UTF-8"?>
<svg width="124px" height="157px" viewBox="0 0 124 157" version="1.1" xmlns="http://www.w3.org/2000/svg" xmlns:xlink="http://www.w3.org/1999/xlink">
    <!-- Generator: Sketch 48.2 (47327) - http://www.bohemiancoding.com/sketch -->
    <title>Green Apple</title>
    <desc>Created with Sketch.</desc>
    <defs></defs>
    <g id="Fruits" stroke="none" stroke-width="1" fill="none" fill-rule="evenodd" transform="translate(-99.000000, -101.000000)">
        <g id="Green-Apple" transform="translate(99.000000, 101.000000)" fill="#7ED321">
            <path d="M61.9990981,150.147755 C62.3589712,150.147755 62.7179579,150.257727 63.0255341,150.478565 C65.6767174,152.377596 69.2488567,153.423672 73.0860257,153.423672 L75.0112581,153.423672 C95.090581,153.423672 111.030477,139.800543 117.650015,116.982673 C126.77005,85.5485348 113.457404,59.9536465 97.2285463,49.4750042 C92.4092606,46.3618104 86.4270352,44.5763284 80.8153196,44.5763284 C75.8063471,44.5763284 66.9194319,46.0515639 63.6823468,55.9347474 C63.442136,56.6670007 62.76405,57.1614281 61.9990981,57.1614281 C61.2341462,57.1614281 60.5551738,56.6670007 60.3158493,55.9347474 C57.0778779,46.0515639 48.1927354,44.5763284 43.1846493,44.5763284 C37.5738201,44.5763284 31.5933675,46.3618104 26.776741,49.4750042 C10.5452237,59.9536465 -2.77008064,85.5485348 6.349068,116.981779 C12.9677191,139.800543 28.9076151,153.423672 48.9869381,153.423672 L50.9183752,153.423672 C54.7564305,153.423672 58.3267971,152.377596 60.9708892,150.479459 C61.2784655,150.258621 61.639225,150.147755 61.9990981,150.147755 Z M75.0112581,157 L73.0860257,157 C68.9864862,157 65.0996795,155.967335 61.9999845,154.073669 C58.9047213,155.967335 55.0196875,157 50.9183752,157 L48.9869381,157 C27.5682845,157 9.92652562,142.050947 2.94622861,117.986728 C-0.804074452,105.060088 -0.979579063,90.996177 2.45162471,78.3860431 C6.22142829,64.5340291 13.9711091,53.4956914 24.8648044,46.4628416 C30.2363091,42.9920149 36.9134618,41 43.1846493,41 C51.7444878,41 58.3985944,44.5799047 61.9990981,50.9663332 C65.5987154,44.5799047 72.2545948,41 80.8153196,41 C87.0865071,41 93.7663189,42.9911208 99.1404828,46.4628416 C110.032405,53.4956914 117.7812,64.5349232 121.549231,78.3869372 C124.979548,90.996177 124.804043,105.060088 121.052854,117.986728 C114.071671,142.050947 96.4299116,157 75.0112581,157 Z" id="Fill-258"></path>
            <path d="M19.8290558,96 C19.7998106,96 19.7696514,95.9991206 19.7404062,95.9973619 C18.7323596,95.9507548 17.9537053,95.1267768 18.0021427,94.1568218 C18.7433266,79.2557464 25.9157196,66.2163161 37.1870145,59.2780166 C38.037868,58.7530274 39.167465,58.9939772 39.7112435,59.8117996 C40.255936,60.6296219 40.0073515,61.7174136 39.156498,62.2406441 C28.8813688,68.5668959 22.3386622,80.5607447 21.6532271,94.3247832 C21.6066175,95.266598 20.7978041,96 19.8290558,96" id="Fill-259" fill-opacity="0.501726676"></path>
            <path d="M61.7436685,58 C61.6600703,58 61.5756012,57.9928152 61.4902613,57.9802419 C60.5384603,57.8374446 59.8792533,56.9258768 60.0185837,55.9442576 C60.186651,54.7506876 64.2699034,26.5441773 74.8250541,10.7763007 C75.3710552,9.95993117 76.4552201,9.75426712 77.247662,10.3182716 C78.0392329,10.881378 78.2377788,12.0004059 77.6917777,12.8167755 C67.5946757,27.9003027 63.5053276,56.1786607 63.4652702,56.4624591 C63.339002,57.356065 62.594455,58 61.7436685,58" id="Fill-260"></path>
            <path d="M52.5891193,46 C52.1770514,46 51.7614159,45.8594212 51.4242694,45.5703062 C48.0831302,42.7092178 42.0287647,36.9118886 39.0229881,30.2286476 C34.3841026,19.8947779 35.133317,8.32399147 40.9317009,0.749533795 C41.089571,0.543528351 41.2902535,0.374656936 41.5212612,0.254413415 L41.6175888,0.20313309 C41.9199503,0.0457555402 42.2624483,-0.0214393686 42.6013786,0.00596908108 C52.1672403,0.817612848 61.3397645,8.0056998 65.9715146,18.3174659 C68.7775007,24.5710131 69.6729902,31.4204731 68.4929776,37.604173 C68.3101337,38.5634687 67.3798592,39.1920948 66.4085563,39.0126136 C65.4408211,38.8304801 64.8039889,37.9056659 64.9868329,36.9463702 C66.0339491,31.4620278 65.2258679,25.3579009 62.7124322,19.7559674 C58.7558669,10.9472453 51.1861263,4.71668584 43.2328592,3.63361001 C38.7125993,10.2036806 38.317478,19.9575521 42.2820705,28.7892619 C44.2710562,33.212632 48.4532777,38.3530426 53.756645,42.8940038 C54.5022917,43.5323554 54.5843485,44.6481445 53.9403809,45.3872885 C53.5880718,45.7922263 53.0894875,46 52.5891193,46" id="Fill-261"></path>
        </g>
    </g>
</svg>