<?xml version="1.0" encoding="UTF-8"?>
<svg width="207px" height="128px" viewBox="0 0 207 128" version="1.1" xmlns="http://www.w3.org/2000/svg" xmlns:xlink="http://www.w3.org/1999/xlink">
    <!-- Generator: Sketch 48.2 (47327) - http://www.bohemiancoding.com/sketch -->
    <title>Juniper</title>
    <desc>Created with Sketch.</desc>
    <defs></defs>
    <g id="Artboard" stroke="none" stroke-width="1" fill="none" fill-rule="evenodd" transform="translate(-2068.000000, -1315.000000)" stroke-linecap="round" stroke-linejoin="round">
        <g id="Juniper" transform="translate(2069.000000, 1316.000000)" stroke="#771FC5" stroke-width="2">
            <path d="M103.938026,101.18334 C103.938026,114.445978 92.3510899,125.197117 78.0574826,125.197117 C63.7615853,125.197117 52.1746495,114.445978 52.1746495,101.18334 C52.1746495,87.9207013 63.7615853,77.1695622 78.0574826,77.1695622 C92.3510899,77.1695622 103.938026,87.9207013 103.938026,101.18334 Z M117.588169,73.5339555 C131.881776,73.5339555 143.471002,84.2850946 143.471002,97.5477328 C143.471002,110.810371 131.881776,121.56151 117.588169,121.56151 C110.441365,121.56151 103.972374,118.873725 99.287222,114.528397 L117.588169,73.5339555 Z M73.5440734,77.6686568 C70.2237064,73.6301113 68.2520954,68.5865083 68.2520954,63.1170724 C68.2520954,49.8544341 79.8390312,39.103295 94.1326385,39.103295 C108.426246,39.103295 120.013182,49.8544341 120.013182,63.1170724 C120.013182,74.8091651 111.009262,84.5483785 99.0834202,86.6912801 L73.5440734,77.6686568 Z M71.6732183,107.852434 C73.8303119,111.462857 72.9853358,115.723477 69.784044,117.369573 C66.5850422,119.01567 62.2433761,117.419941 60.0862826,113.809518 C57.929189,110.196805 58.7741651,105.936186 61.973167,104.292378 C65.1721688,102.646282 69.5161248,104.239722 71.6732183,107.852434 Z M64.6042716,111.524672 C64.7347963,111.746746 64.6821284,112.005451 64.4874862,112.106186 C64.292844,112.20692 64.0272147,112.108475 63.8966899,111.88869 C63.7661651,111.668905 63.8165431,111.407911 64.0111853,111.309466 C64.2058275,111.208731 64.4714569,111.304887 64.6042716,111.524672 Z M83.8624,60.7292022 C82.6441688,64.7013544 78.8039927,67.1670649 75.2866936,66.2375584 C71.7671046,65.3080519 69.9031193,61.3358998 71.1213505,57.3660371 C72.3395817,53.393885 76.1797578,50.9281744 79.6970569,51.8553915 C83.214356,52.784898 85.0806312,56.7570501 83.8624,60.7292022 Z M76.0583927,58.7053506 C75.9851156,58.9457403 75.751545,59.0968423 75.5362936,59.0396067 C75.3210422,58.9846605 75.2088367,58.7419814 75.2821138,58.4993024 C75.3553908,58.2566234 75.5912514,58.1055213 75.8042128,58.162757 C76.0194642,58.2199926 76.1339596,58.4626716 76.0583927,58.7053506 Z M124.471633,105.20128 C127.498892,102.17466 132.126796,101.595436 134.808279,103.903176 C137.487472,106.213206 137.205813,110.537929 134.178554,113.564549 C131.149006,116.588879 126.521101,117.170393 123.841908,114.860364 C121.160426,112.550334 121.442084,108.22561 124.471633,105.20128 Z M130.432264,110.290672 C130.617747,110.107518 130.899406,110.070887 131.064279,110.212831 C131.226862,110.352486 131.210833,110.61577 131.02535,110.801213 C130.839868,110.986657 130.558209,111.020998 130.395626,110.881343 C130.230752,110.739399 130.249072,110.476115 130.432264,110.290672 Z M111.185585,43.1578664 L107.592719,19.5561855 L111.185585,43.1578664 Z M130.729952,63.1170724 L121.377967,2.89375139 L130.729952,63.1170724 Z M145.900594,0.116679035 L143.471002,54.8224861 L145.900594,0.116679035 Z M165.653343,2.89375139 L153.551178,48.2609944 L165.653343,2.89375139 Z M179.417982,6.95519109 L159.601116,46.7614212 L179.417982,6.95519109 Z M159.601116,51.6607904 C162.717681,49.8613024 193.033776,19.5561855 193.033776,19.5561855 L159.601116,51.6607904 Z M149.358356,54.8224861 L204.593233,54.8224861 L149.358356,54.8224861 Z M139.083538,62.8972876 L201.254547,69.8823228 L139.083538,62.8972876 Z M124.693754,67.6272393 L189.6928,82.5176586 L124.693754,67.6272393 Z M120.013182,71.0751132 C119.05142,69.6259072 158.094356,49.6209128 158.094356,49.6209128 L120.013182,71.0751132 Z M137.76455,82.5176586 L170.169042,98.7267866 L137.76455,82.5176586 Z M52.1746495,25.5773729 L68.4329982,60.3491577 L52.1746495,25.5773729 Z M35.5522055,22.2096289 L60.3038239,63.9229499 L35.5522055,22.2096289 Z M20.7845872,22.2096289 L45.5362055,63.9229499 L20.7845872,22.2096289 Z" id="Stroke-6"></path>
            <path d="M8.40763303,40.8020482 L33.1592514,65.168397 L8.40763303,40.8020482 Z M0.814297248,59.9118776 L25.5659156,66.3222672 L0.814297248,59.9118776 Z M39.0717945,105.405039 L63.8234128,67.9798108 L39.0717945,105.405039 Z M25.5659156,105.405039 L50.3198239,67.9798108 L25.5659156,105.405039 Z M13.1912514,92.7674137 L37.9428697,67.9798108 L13.1912514,92.7674137 Z M4.94071193,76.4506827 L29.6923303,70.6172282 L4.94071193,76.4506827 Z M29.6923303,67.6272393 L68.2520954,66.434449 L29.6923303,67.6272393 Z M65.8797505,14.8193655 L72.8662606,49.4446271 L65.8797505,14.8193655 Z M84.235655,19.5561855 L95.4104073,39.103295 L84.235655,19.5561855 Z" id="Stroke-7"></path>
        </g>
    </g>
</svg>