<?xml version="1.0" encoding="UTF-8"?>
<svg width="137px" height="154px" viewBox="0 0 137 154" version="1.1" xmlns="http://www.w3.org/2000/svg" xmlns:xlink="http://www.w3.org/1999/xlink">
    <!-- Generator: Sketch 48.2 (47327) - http://www.bohemiancoding.com/sketch -->
    <title>Lime</title>
    <desc>Created with Sketch.</desc>
    <defs></defs>
    <g id="Fruits" stroke="none" stroke-width="1" fill="none" fill-rule="evenodd" transform="translate(-2200.000000, -110.000000)">
        <g id="Lime" transform="translate(2268.500000, 186.500000) rotate(-18.000000) translate(-2268.500000, -186.500000) translate(2198.000000, 116.000000)" fill="#B8E986">
            <path d="M31.7,128.138 C32.05,128.138 32.4,128.229 32.72,128.418 C41.95,133.887 52.75,136.778 63.96,136.778 C82.42,136.779 100.86,128.917 114.56,115.209 C137.38,92.399 142.81,58.738 127.76,33.352 C127.49,32.893 127.41,32.344 127.54,31.828 C127.68,31.312 128.01,30.871 128.48,30.603 C128.93,30.336 129.29,30.067 129.58,29.781 C131.08,28.279 131.63,25.952 131.14,23.214 C130.59,20.208 128.89,17.144 126.33,14.586 C123.22,11.478 119.29,9.621 115.83,9.621 C114.48,9.621 112.57,9.92 111.15,11.346 C110.85,11.645 110.58,12.014 110.31,12.467 C110.04,12.924 109.6,13.255 109.08,13.387 C108.57,13.52 108.02,13.44 107.57,13.169 C98.34,7.697 87.54,4.804 76.32,4.804 C57.86,4.804 39.41,12.658 25.71,26.351 C2.88,49.183 -2.54,82.845 12.53,108.21 C12.8,108.67 12.88,109.221 12.74,109.739 C12.61,110.257 12.27,110.698 11.8,110.965 C11.39,111.205 11.01,111.488 10.69,111.807 C7.47,115.025 8.96,121.986 13.95,126.993 C17.06,130.1 20.98,131.956 24.44,131.956 C25.79,131.956 27.7,131.657 29.13,130.23 C29.43,129.925 29.71,129.557 29.99,129.102 C30.37,128.482 31.03,128.138 31.7,128.138 Z M63.97,140.778 C63.97,140.778 63.97,140.778 63.96,140.778 C52.66,140.778 41.73,138.009 32.25,132.755 C32.15,132.861 32.05,132.964 31.95,133.064 C30.05,134.955 27.46,135.956 24.44,135.956 C19.94,135.956 14.96,133.662 11.12,129.82 C4.37,123.052 2.95,113.893 7.87,108.965 C7.97,108.866 8.08,108.769 8.18,108.675 C-6.69,81.934 -0.77,47.181 22.89,23.522 C37.33,9.084 56.81,0.804 76.32,0.804 C87.63,0.804 98.55,3.572 108.03,8.825 C108.12,8.722 108.22,8.623 108.31,8.525 C110.22,6.622 112.81,5.621 115.83,5.621 C120.33,5.621 125.31,7.915 129.16,11.757 C132.29,14.887 134.39,18.703 135.07,22.502 C135.81,26.57 134.86,30.156 132.42,32.6 C132.32,32.7 132.21,32.798 132.11,32.894 C146.96,59.654 141.04,94.403 117.38,118.038 C102.95,132.489 83.48,140.778 63.97,140.778 Z" id="Fill-335"></path>
            <path d="M60.87,94.725 C59.16,94.725 57.61,94.117 56.51,93.013 C55.72,92.234 55.72,90.967 56.5,90.185 C57.28,89.402 58.55,89.4 59.33,90.18 C59.78,90.629 60.41,90.725 60.87,90.725 C60.87,90.725 60.87,90.725 60.88,90.725 C62.15,90.722 63.61,90.022 64.78,88.853 C66.77,86.854 67.07,84.372 66.1,83.391 C65.32,82.607 65.32,81.341 66.1,80.563 C66.89,79.783 68.15,79.787 68.93,80.57 C71.66,83.317 71.08,88.195 67.61,91.676 C65.69,93.606 63.24,94.719 60.88,94.725 L60.87,94.725" id="Fill-336"></path>
            <path d="M88.84,98.381 C87.13,98.381 85.57,97.781 84.45,96.663 C83.67,95.882 83.67,94.616 84.45,93.834 C85.23,93.052 86.5,93.05 87.28,93.832 C87.92,94.465 88.9,94.418 89.43,94.333 C90.56,94.152 91.76,93.49 92.73,92.516 C94.72,90.513 95.02,88.028 94.05,87.052 C93.27,86.271 93.27,85.004 94.05,84.223 C94.83,83.443 96.1,83.442 96.88,84.224 C99.62,86.963 99.04,91.845 95.57,95.337 C93.99,96.921 92.04,97.966 90.06,98.283 C89.65,98.349 89.24,98.381 88.84,98.381" id="Fill-337"></path>
            <path d="M84.31,71.315 C82.6,71.315 81.05,70.706 79.94,69.6 C79.16,68.819 79.16,67.553 79.94,66.771 C80.72,65.989 81.99,65.989 82.77,66.77 C83.22,67.22 83.85,67.315 84.31,67.315 C84.31,67.315 84.31,67.315 84.32,67.315 C85.6,67.312 87.05,66.612 88.21,65.442 C90.21,63.438 90.52,60.946 89.54,59.96 C88.76,59.175 88.77,57.909 89.55,57.132 C90.34,56.355 91.61,56.36 92.38,57.146 C95.11,59.898 94.52,64.782 91.05,68.263 C89.13,70.196 86.68,71.31 84.33,71.315 C84.32,71.315 84.31,71.315 84.31,71.315" id="Fill-338"></path>
        </g>
    </g>
</svg>