<?xml version="1.0" encoding="UTF-8"?>
<svg width="195px" height="183px" viewBox="0 0 195 183" version="1.1" xmlns="http://www.w3.org/2000/svg" xmlns:xlink="http://www.w3.org/1999/xlink">
    <!-- Generator: Sketch 48.2 (47327) - http://www.bohemiancoding.com/sketch -->
    <title>Mango</title>
    <desc>Created with Sketch.</desc>
    <defs></defs>
    <g id="Fruits" stroke="none" stroke-width="1" fill="none" fill-rule="evenodd" transform="translate(-452.000000, -1369.000000)">
        <g id="Mango" transform="translate(452.000000, 1369.000000)">
            <path d="M113.608,42.74 C103.616,42.74 94.244,45.61 87.218,50.84 C76.077,59.12 70.222,70.78 64.022,83.13 C61.146,88.86 58.17,94.79 54.631,100.3 C48.198,110.34 38.959,115.16 30.024,119.82 C22.158,123.93 14.728,127.8 9.163,135 C5.253,140.06 3.979,145.31 5.377,150.6 C8.124,160.99 20.13,169.29 30.449,173.61 C37.601,176.61 45.562,178.13 54.113,178.13 C75.79,178.13 101.439,168.25 122.727,151.69 C138.047,139.76 155.684,115.67 158.203,90.98 C159.54,77.87 156.333,66.67 148.671,57.68 C140.702,48.32 127.594,42.74 113.608,42.74 Z M54.117,182.13 C54.115,182.13 54.115,182.13 54.113,182.13 C45.027,182.13 36.545,180.5 28.904,177.29 C17.708,172.62 4.629,163.41 1.51,151.62 C-0.223,145.07 1.287,138.65 5.998,132.56 C12.1,124.66 20.271,120.4 28.174,116.28 C37.035,111.66 45.404,107.29 51.264,98.15 C54.69,92.8 57.617,86.97 60.448,81.34 C66.583,69.12 72.928,56.48 84.831,47.63 C92.542,41.89 102.762,38.74 113.608,38.74 C128.751,38.74 142.997,44.85 151.715,55.09 C160.113,64.94 163.635,77.15 162.183,91.39 C159.544,117.25 141.154,142.41 125.184,154.85 C103.218,171.93 76.652,182.13 54.117,182.13 Z" id="Fill-421" fill="#F5A623"></path>
            <path d="M132.403,45.09 C132.124,45.09 131.84,45.04 131.569,44.91 C130.566,44.45 130.126,43.26 130.587,42.26 C133.213,36.54 139.847,18.26 139.015,2.45 C138.957,1.35 139.804,0.41 140.907,0.35 C141.998,0.29 142.951,1.14 143.009,2.24 C143.884,18.85 136.962,37.97 134.222,43.93 C133.885,44.66 133.161,45.09 132.403,45.09" id="Fill-422" fill="#417505"></path>
            <path d="M137.892,41.83 C142.085,44.2 147.134,45.44 152.564,45.44 C158.982,45.44 165.515,43.71 171.458,40.42 C182.595,34.25 189.799,23.59 190.063,13.04 C185.859,10.68 180.81,9.43 175.389,9.43 C168.985,9.43 162.451,11.17 156.493,14.46 C145.33,20.62 138.127,31.28 137.892,41.83 Z M152.564,49.44 C146.011,49.44 139.911,47.81 134.923,44.72 C134.634,44.54 134.395,44.3 134.229,44 L134.145,43.85 C133.985,43.56 133.898,43.24 133.892,42.91 C133.647,30.57 141.76,18.03 154.559,10.96 C161.108,7.34 168.311,5.43 175.389,5.43 C181.935,5.43 188.039,7.06 193.042,10.16 C193.321,10.33 193.554,10.57 193.719,10.85 L193.796,10.99 C193.968,11.28 194.061,11.62 194.066,11.96 C194.283,24.29 186.169,36.84 173.396,43.92 C166.859,47.53 159.657,49.44 152.564,49.44 Z" id="Fill-423" fill="#F5A623"></path>
            <path d="M137.892,41.83 C142.085,44.2 147.134,45.44 152.564,45.44 C158.982,45.44 165.515,43.71 171.458,40.42 C182.595,34.25 189.799,23.59 190.063,13.04 C185.859,10.68 180.81,9.43 175.389,9.43 C168.985,9.43 162.451,11.17 156.493,14.46 C145.33,20.62 138.127,31.28 137.892,41.83 Z M152.564,49.44 C146.011,49.44 139.911,47.81 134.923,44.72 C134.634,44.54 134.395,44.3 134.229,44 L134.145,43.85 C133.985,43.56 133.898,43.24 133.892,42.91 C133.647,30.57 141.76,18.03 154.559,10.96 C161.108,7.34 168.311,5.43 175.389,5.43 C181.935,5.43 188.039,7.06 193.042,10.16 C193.321,10.33 193.554,10.57 193.719,10.85 L193.796,10.99 C193.968,11.28 194.061,11.62 194.066,11.96 C194.283,24.29 186.169,36.84 173.396,43.92 C166.859,47.53 159.657,49.44 152.564,49.44 Z" id="Fill-424" fill="#417505"></path>
            <path d="M113.608,42.74 C103.616,42.74 94.244,45.61 87.218,50.84 C76.077,59.12 70.222,70.78 64.022,83.13 C61.146,88.86 58.17,94.79 54.631,100.3 C48.198,110.34 38.959,115.16 30.024,119.82 C22.158,123.93 14.728,127.8 9.163,135 C5.253,140.06 3.979,145.31 5.377,150.6 C8.124,160.99 20.13,169.29 30.449,173.61 C37.601,176.61 45.562,178.13 54.113,178.13 C75.79,178.13 101.439,168.25 122.727,151.69 C138.047,139.76 155.684,115.67 158.203,90.98 C159.54,77.87 156.333,66.67 148.671,57.68 C140.702,48.32 127.594,42.74 113.608,42.74 Z M54.117,182.13 C54.115,182.13 54.115,182.13 54.113,182.13 C45.027,182.13 36.545,180.5 28.904,177.29 C17.708,172.62 4.629,163.41 1.51,151.62 C-0.223,145.07 1.287,138.65 5.998,132.56 C12.1,124.66 20.271,120.4 28.174,116.28 C37.035,111.66 45.404,107.29 51.264,98.15 C54.69,92.8 57.617,86.97 60.448,81.34 C66.583,69.12 72.928,56.48 84.831,47.63 C92.542,41.89 102.762,38.74 113.608,38.74 C128.751,38.74 142.997,44.85 151.715,55.09 C160.113,64.94 163.635,77.15 162.183,91.39 C159.544,117.25 141.154,142.41 125.184,154.85 C103.218,171.93 76.652,182.13 54.117,182.13 Z" id="Fill-425" fill="#F5A623"></path>
            <path d="M72.027,109.92 C71.552,109.92 71.075,109.75 70.693,109.41 C69.871,108.67 69.801,107.41 70.539,106.58 C73.625,103.14 76.574,97.36 79.697,91.24 C85.233,80.4 91.508,68.1 101.56,61.9 C102.499,61.32 103.731,61.61 104.312,62.55 C104.892,63.49 104.6,64.73 103.66,65.31 C94.562,70.92 88.557,82.68 83.26,93.06 C80.016,99.42 76.951,105.42 73.517,109.25 C73.122,109.69 72.576,109.92 72.027,109.92" id="Fill-426" fill="#F5A623"></path>
        </g>
    </g>
</svg>