<?xml version="1.0" encoding="UTF-8"?>
<svg width="186px" height="182px" viewBox="0 0 186 182" version="1.1" xmlns="http://www.w3.org/2000/svg" xmlns:xlink="http://www.w3.org/1999/xlink">
    <!-- Generator: Sketch 48.2 (47327) - http://www.bohemiancoding.com/sketch -->
    <title>Melon</title>
    <desc>Created with Sketch.</desc>
    <defs></defs>
    <g id="Fruits" stroke="none" stroke-width="1" fill="none" fill-rule="evenodd" transform="translate(-97.000000, -732.000000)">
        <g id="Melon" transform="translate(97.000000, 732.000000)" fill="#7ED321">
            <path d="M56.098,181.37 C25.667,181.37 0.911,143.52 0.911,97 C0.911,50.48 25.667,12.631 56.098,12.631 C86.528,12.631 111.285,50.48 111.285,97 C111.285,112.72 108.451,128.05 103.089,141.34 C102.676,142.36 101.512,142.86 100.486,142.45 C99.462,142.03 98.967,140.87 99.38,139.84 C104.551,127.03 107.285,112.21 107.285,97 C107.285,52.69 84.322,16.631 56.098,16.631 C27.873,16.631 4.911,52.69 4.911,97 C4.911,141.32 27.873,177.37 56.098,177.37 C62.69,177.37 69.116,175.42 75.196,171.56 C76.128,170.96 77.365,171.24 77.957,172.17 C78.548,173.1 78.272,174.34 77.34,174.93 C70.608,179.21 63.461,181.37 56.098,181.37" id="Fill-497"></path>
            <path d="M56.1,16.631 C56.074,16.631 56.049,16.631 56.023,16.63 C54.919,16.588 54.058,15.66 54.1,14.557 C54.113,14.184 54.498,5.395 59.442,1.351 C60.297,0.651 61.558,0.777 62.257,1.633 C62.956,2.488 62.83,3.748 61.975,4.447 C59.018,6.865 58.173,12.672 58.097,14.706 C58.056,15.785 57.169,16.631 56.1,16.631" id="Fill-498"></path>
            <path d="M29.163,115.17 C36.377,151.35 67.96,177.37 105.147,177.37 C142.333,177.37 173.916,151.35 181.129,115.17 L157.073,115.17 C145.355,132.44 126.027,142.71 105.147,142.71 C84.265,142.71 64.936,132.44 53.22,115.17 L29.163,115.17 Z M105.147,181.37 C65.205,181.37 31.41,152.83 24.79,113.5 C24.692,112.92 24.855,112.32 25.235,111.87 C25.615,111.42 26.174,111.17 26.762,111.17 L54.291,111.17 C54.965,111.17 55.595,111.51 55.964,112.07 C66.873,128.75 85.258,138.71 105.147,138.71 C125.034,138.71 143.419,128.75 154.329,112.07 C154.698,111.51 155.328,111.17 156.002,111.17 L183.53,111.17 C184.118,111.17 184.677,111.42 185.057,111.87 C185.437,112.32 185.6,112.92 185.502,113.5 C178.883,152.83 145.089,181.37 105.147,181.37 Z" id="Fill-499"></path>
            <path d="M74.853,134.25 C74.631,134.25 74.406,134.21 74.185,134.14 C73.144,133.77 72.599,132.63 72.968,131.58 L75.928,123.24 C76.297,122.2 77.439,121.65 78.481,122.02 C79.522,122.39 80.067,123.53 79.698,124.57 L76.738,132.92 C76.447,133.74 75.676,134.25 74.853,134.25" id="Fill-500"></path>
            <path d="M135.44,134.25 C134.617,134.25 133.846,133.74 133.555,132.92 L130.595,124.57 C130.226,123.53 130.771,122.39 131.812,122.02 C132.853,121.65 133.996,122.19 134.365,123.24 L137.325,131.58 C137.694,132.63 137.149,133.77 136.108,134.14 C135.887,134.21 135.662,134.25 135.44,134.25" id="Fill-501"></path>
            <path d="M89.52,140.75 C89.364,140.75 89.206,140.73 89.047,140.69 C87.974,140.43 87.314,139.35 87.574,138.28 L89.658,129.67 C89.918,128.59 90.996,127.93 92.073,128.2 C93.146,128.46 93.806,129.54 93.546,130.61 L91.462,139.22 C91.24,140.13 90.421,140.75 89.52,140.75" id="Fill-502"></path>
            <path d="M120.774,139.61 C119.873,139.61 119.054,139 118.832,138.08 L116.746,129.48 C116.486,128.41 117.146,127.33 118.219,127.07 C119.292,126.8 120.374,127.46 120.634,128.54 L122.72,137.14 C122.98,138.22 122.32,139.3 121.247,139.56 C121.089,139.6 120.93,139.61 120.774,139.61" id="Fill-503"></path>
            <path d="M22.182,90.13 C22.149,90.13 22.117,90.13 22.084,90.12 C20.981,90.07 20.129,89.13 20.183,88.03 C20.597,79.42 22.086,71.15 24.608,63.46 C27.5,54.64 31.74,46.8 36.87,40.78 C37.586,39.94 38.849,39.84 39.689,40.55 C40.53,41.27 40.631,42.53 39.915,43.37 C35.119,49 31.14,56.38 28.409,64.71 C25.999,72.06 24.575,79.97 24.178,88.22 C24.126,89.29 23.242,90.13 22.182,90.13" id="Fill-504"></path>
        </g>
    </g>
</svg>