<?xml version="1.0" encoding="UTF-8"?>
<svg width="143px" height="139px" viewBox="0 0 143 139" version="1.1" xmlns="http://www.w3.org/2000/svg" xmlns:xlink="http://www.w3.org/1999/xlink">
    <!-- Generator: Sketch 48.2 (47327) - http://www.bohemiancoding.com/sketch -->
    <title>Mint</title>
    <desc>Created with Sketch.</desc>
    <defs></defs>
    <g id="Artboard" stroke="none" stroke-width="1" fill="none" fill-rule="evenodd" transform="translate(-2371.000000, -1509.000000)" stroke-linecap="round" stroke-linejoin="round">
        <g id="Mint" transform="translate(2373.000000, 1511.000000)" stroke="#417505">
            <path d="M46.4947261,127.086709 C42.8690244,125.640052 40.8999919,122.159904 41.3906146,118.701006 C38.9653031,120.822769 35.3265181,121.537106 32.0687834,120.237568 C27.6956998,118.493407 25.6759697,113.790548 27.5550546,109.733372 C27.5910336,109.656544 27.6466375,109.592793 27.6858873,109.5176 C25.4715436,110.578481 22.8009207,110.779542 20.3330885,109.795488 C15.9600049,108.051328 13.9402748,103.348469 15.8209951,99.2912928 C16.0368691,98.8237858 16.3067116,98.3938755 16.6010852,97.9852156 C14.7481668,98.4854154 12.7169889,98.4494533 10.8068312,97.6860765 C6.43374754,95.9419158 4.41238203,91.239057 6.29310237,87.1835156 C6.78536047,86.1209997 7.50494043,85.2186785 8.36353014,84.4830906 C7.31032676,84.453667 6.2440401,84.2591449 5.21700325,83.8504849 C0.843919623,82.1063242 -1.17744588,77.4034654 0.703274451,73.3462894 C2.08355964,70.3696102 5.18429507,68.5845835 8.46329009,68.5257365 C7.39700343,66.503687 7.21874385,64.0942279 8.25232233,61.8662138 C10.1330427,57.8090377 15.2028105,55.9341059 19.5758942,57.6782666 C20.8400653,58.1833703 21.87855,58.9532856 22.7126086,59.8654147 C22.7371397,58.869919 22.9513783,57.8613462 23.4011158,56.8903702 C25.2818361,52.8331941 30.351604,50.9598968 34.7246876,52.7040575 C36.6103142,53.4559919 38.0233075,54.7751462 38.9096992,56.3378619 C39.0258132,55.8572778 39.1795417,55.3783283 39.3970511,54.9091867 C41.276136,50.8520106 46.3459039,48.9787134 50.7189875,50.7228741 C53.0510807,51.6529841 54.6848543,53.4314723 55.4436841,55.4960224 C55.4862047,55.3914054 55.5025588,55.2851538 55.551621,55.1805369 C57.4323414,51.1249955 62.5004738,49.2500636 66.8751929,50.9942243 C70.0560633,52.2627048 71.9678565,55.1004395 72.0643456,58.1130808 C74.3866263,55.1854408 78.6403251,54.0035962 82.3935887,55.5009263 C86.7666724,57.245087 88.7880379,61.9479458 86.9073175,66.0051219 C86.889328,66.0427186 86.8615261,66.0737767 86.8435366,66.1113735 C88.7978503,65.4885757 90.9892984,65.4853064 93.0384658,66.3026263 C97.4115495,68.046787 99.4312796,72.7496458 97.5505592,76.8051873 C96.889854,78.2305932 95.8219319,79.3666679 94.5430421,80.192161 C94.5888336,80.2085074 94.634625,80.2134113 94.6804165,80.2313923 C96.7933649,81.0748665 102.11335,94.4543935 88.7209861,100.978241 C92.4611665,115.438265 82.5522234,124.337244 75.2223203,121.184024 C74.8298222,121.015656 74.4683968,120.81623 74.1102422,120.6119 C74.1347734,121.720186 73.9303472,122.848087 73.4282767,123.933488 C71.5475563,127.990664 66.4777885,129.863962 62.1047049,128.119801 C59.8429342,127.21748 58.2287856,125.519089 57.438883,123.533002 C55.3390179,127.129209 50.6224984,128.734426 46.4947261,127.086709 Z M11.2173188,75.8309419 C39.7895492,68.1170765 88.7209861,100.978241 88.7209861,100.978241 C102.450245,110.374151 111.917627,135 111.917627,135 L11.2173188,75.8309419 Z M62.093257,86.1667696 C43.8241032,84.903193 23.8197805,101.586327 23.8197805,101.586327 L62.093257,86.1667696 Z M97.4409868,89.6698028 C110.283854,98.5704167 122.032632,89.8921138 121.80531,82.4005594 C121.793862,81.998438 121.739894,81.612663 121.677748,81.226888 C122.765295,81.6862218 123.96405,81.957572 125.236398,81.957572 C129.997074,81.957572 133.856639,78.3777108 133.856639,73.9625486 C133.856639,71.6789567 132.811612,69.630753 131.156578,68.1742889 C135.547652,67.8048603 139,64.4211559 139,60.2511897 C139,56.5895964 136.331013,53.5377239 132.711852,52.5896328 C135.771703,51.3620182 137.915724,48.5422645 137.915724,45.2533692 C137.915724,40.8365723 134.056159,37.2567111 129.295483,37.2567111 C129.205536,37.2567111 129.120494,37.2795961 129.030547,37.2828653 C130.955423,35.8165934 132.209782,33.6180028 132.209782,31.1268117 C132.209782,26.7116495 128.350217,23.1317883 123.591177,23.1317883 C123.041679,23.1317883 122.508536,23.1906353 121.988476,23.2821752 C123.215032,21.9009045 123.982039,20.1551092 123.982039,18.2262342 C123.982039,13.8094373 120.122474,10.2295761 115.361799,10.2295761 C114.117252,10.2295761 112.939758,10.4862145 111.8702,10.9275673 C112.257792,10.0170729 112.48675,9.03301972 112.48675,7.99665807 C112.48675,3.57986124 108.627184,0 103.868144,0 C100.373275,0 97.3821121,1.9370482 96.0279935,4.70776272 C94.446553,3.00119874 92.1308139,1.89781685 89.5157949,1.89781685 C84.7551193,1.89781685 80.8955541,5.47767808 80.8955541,9.89284028 C80.8955541,11.169494 81.2488025,12.3595118 81.822831,13.4302009 C80.8268669,13.057503 79.7442262,12.8417305 78.6043461,12.8417305 C73.8436706,12.8417305 69.9841054,16.4215918 69.9841054,20.836754 C69.9841054,22.7411094 70.7314873,24.4656544 71.9286066,25.8387519 C71.4069112,25.7488467 70.8737678,25.6899996 70.322635,25.6899996 C65.5619595,25.6899996 61.7023942,29.2682262 61.7023942,33.6850231 C61.7023942,36.0389044 62.8193786,38.1328781 64.56436,39.5958807 C64.4449751,39.5909768 64.3321319,39.5631879 64.2094762,39.5631879 C59.4504361,39.5631879 55.5908709,43.1430491 55.5908709,47.5582113 C55.5908709,49.1650623 56.1043893,50.6558538 56.9858747,51.903084 L97.4409868,89.6698028 Z" id="Stroke-8" stroke-width="3"></path>
            <path d="M102.475796,10 C90.8652999,22.9555048 91.3036487,48.3198549 93.4018124,66.0862887 L102.475796,10 Z M92.5760093,57.2144606 C98.5651339,41.2214162 123.084754,30.8137351 123.084754,30.8137351 L92.5760093,57.2144606 Z M69.9033639,33.3875903 C81.0607352,36.8074661 92.5760093,51.248388 92.5760093,51.248388 L69.9033639,33.3875903 Z M48.0039853,61.8887247 C47.7971241,71.7692698 55.7120281,82.9822975 55.7120281,82.9822975 L48.0039853,61.8887247 Z M97.5784387,90.3312884 C100.893143,108.441011 104.600228,119 104.600228,119 L97.5784387,90.3312884 Z M82.3889155,96.5251358 C61.591155,95.8206609 49.2238098,119 49.2238098,119 L82.3889155,96.5251358 Z M71.2775133,90.3312884 C65.7447968,75.2525972 73.731938,70.2578214 73.731938,70.2578214 L71.2775133,90.3312884 Z M129,57.2144606 C112.068574,55.5679742 104.600228,64.3828587 104.600228,64.3828587 L129,57.2144606 Z" id="Stroke-9" stroke-width="2"></path>
        </g>
    </g>
</svg>