<?xml version="1.0" encoding="UTF-8"?>
<svg width="156px" height="168px" viewBox="0 0 156 168" version="1.1" xmlns="http://www.w3.org/2000/svg" xmlns:xlink="http://www.w3.org/1999/xlink">
    <!-- Generator: Sketch 48.2 (47327) - http://www.bohemiancoding.com/sketch -->
    <title>Mushroom</title>
    <desc>Created with Sketch.</desc>
    <defs></defs>
    <g id="Veg" stroke="none" stroke-width="1" fill="none" fill-rule="evenodd" transform="translate(-214.000000, -217.000000)">
        <g id="Mushroom" transform="translate(214.000000, 217.000000)" fill="#8B572A">
            <path d="M84.8154613,88 C82.6115823,88 80.3473231,87.9826061 78.0162143,87.9478184 C75.6592283,87.9826061 73.3928126,88 71.1889336,88 C41.710435,88 23.516573,84.8908435 8.39132134,77.2679745 C-0.833917682,72.6151109 -1.58220145,57.7933488 1.97160732,50.0291545 C8.72556913,35.259574 29.6020392,0.921875772 77.9170182,0 C126.404512,0.921875772 147.278826,35.259574 154.01338,49.9791471 C157.588753,57.7933488 156.838313,72.6172852 147.610917,77.2679745 C132.489978,84.8908435 114.298273,88 84.8154613,88 Z M77.925644,83.5993477 C80.3904519,83.6341355 82.6331467,83.6515294 84.8154613,83.6515294 C113.575866,83.6515294 131.206898,80.6750012 145.680906,73.3782675 C152.771272,69.8059989 152.581505,57.2323961 150.118854,51.8511637 C143.703453,37.8251717 123.883637,5.22251322 78.0075886,4.34847062 C32.1229145,5.22251322 12.3030987,37.8251717 5.91141837,51.8011563 C3.42288966,57.2323961 3.23527961,69.8038247 10.3213328,73.3782675 C25.8972798,81.2294312 45.1952377,84.0950734 77.925644,83.5993477 Z" id="Fill-33"></path>
            <path d="M83.7765215,100.99908 C80.9770817,100.99908 78.0021351,100.986829 78.0021351,100.986829 C77.9978016,100.988871 71.2895464,101.015416 68.5442753,100.986829 C58.6487322,100.894942 52.2221544,98.6631105 49.4508823,94.352593 C46.3545978,89.5418022 49.1583712,84.2246125 49.2797091,84 L53.1430228,85.84999 L51.2124493,84.924995 L53.1473563,85.8418223 C53.1278555,85.8765351 51.3121198,89.4090767 53.1711905,92.2596131 C55.0995972,95.2204139 60.4319667,96.827414 68.5876103,96.9029655 C71.3177142,96.9335945 77.9783009,96.9029655 77.9804677,96.9029655 C78.0216359,96.9029655 84.6865561,96.9315525 87.4101597,96.9029655 C95.5679701,96.827414 100.898173,95.2204139 102.828746,92.2596131 C104.68565,89.4090767 102.869915,85.8765351 102.852581,85.8418223 L106.720228,84 C106.839399,84.2246125 109.645339,89.5418022 106.551221,94.352593 C103.775616,98.6610686 97.3512046,100.894942 87.4534947,100.986829 C86.5369598,100.997038 85.1784081,100.99908 83.7765215,100.99908" id="Fill-34"></path>
            <path d="M79.0925145,168 C78.5730311,168 78.0450317,167.989075 77.5085161,167.965039 C64.891884,168.48946 56.8036989,162.913111 53.4398314,151.408612 C51.2256402,143.837275 51.855833,130.294087 53.3802186,120.915681 C54.0806694,116.600129 54.8769267,113.46671 55.6455065,110.43599 C56.4715702,107.182391 57.2529242,104.110154 57.7532463,100 L61.9772419,100.544087 C61.4428554,104.936118 60.6274369,108.14383 59.7673087,111.537275 C59.0200192,114.476221 58.2493103,117.511311 57.5786658,121.634576 C56.0883448,130.814139 55.5901518,143.555398 57.519053,150.152185 C60.3272436,159.766581 66.5844629,164.036247 77.3211615,163.599229 L77.5936773,163.597044 C88.3601823,164.036247 94.6706274,159.768766 97.480947,150.15437 C99.4098482,143.555398 98.9116552,130.814139 97.4192051,121.634576 C96.7506897,117.511311 95.9799808,114.476221 95.2326913,111.537275 C94.3725631,108.14383 93.5571446,104.936118 93.0227581,100.544087 L97.2467537,100 C97.7470758,104.110154 98.5284298,107.182391 99.3544935,110.43599 C100.123073,113.46671 100.919331,116.600129 101.619781,120.915681 C103.144167,130.294087 103.77436,143.837275 101.560169,151.408612 C98.3389461,162.42365 90.7851475,168 79.0925145,168" id="Fill-35"></path>
            <path d="M23.1447009,53 C22.9946223,53 22.8402557,52.9825946 22.6858892,52.9499596 C21.5281402,52.6932303 20.7970431,51.5335973 21.0500327,50.3587346 C25.7003246,28.7282071 43.6068428,24.2376209 44.3679555,24.0570401 C45.5149847,23.7850812 46.6748776,24.5117555 46.9428751,25.6800912 C47.2130165,26.8484268 46.4990713,28.0145868 45.3498982,28.2930728 C44.6959844,28.4518968 29.2979225,32.4116192 25.237225,51.2877464 C25.0185391,52.3059607 24.1309315,53 23.1447009,53" id="Fill-36"></path>
        </g>
    </g>
</svg>