<?xml version="1.0" encoding="UTF-8"?>
<svg width="182px" height="158px" viewBox="0 0 182 158" version="1.1" xmlns="http://www.w3.org/2000/svg" xmlns:xlink="http://www.w3.org/1999/xlink">
    <!-- Generator: Sketch 48.2 (47327) - http://www.bohemiancoding.com/sketch -->
    <title>Nectarine</title>
    <desc>Created with Sketch.</desc>
    <defs></defs>
    <g id="Fruits" stroke="none" stroke-width="1" fill="none" fill-rule="evenodd" transform="translate(-2180.000000, -418.000000)">
        <g id="Nectarine" transform="translate(2180.000000, 417.000000)">
            <path d="M127.84,59.904 C126.85,59.904 125.98,59.158 125.86,58.142 C125.06,51.431 125.53,30.918 128,22.017 C128.29,20.952 129.39,20.325 130.46,20.624 C131.52,20.918 132.15,22.021 131.85,23.085 C129.68,30.929 129,50.661 129.83,57.667 C129.96,58.764 129.18,59.759 128.08,59.89 C128,59.9 127.92,59.904 127.84,59.904" id="Fill-286" fill="#417505"></path>
            <path d="M51.92,158.595 C23.66,158.595 0.67,135.602 0.67,107.34 C0.67,79.085 23.66,56.099 51.92,56.099 C67.89,56.099 82.67,63.355 92.47,76.007 C93.14,76.881 92.98,78.137 92.11,78.813 C91.24,79.49 89.98,79.33 89.3,78.456 C80.28,66.79 66.65,60.099 51.92,60.099 C25.86,60.099 4.67,81.291 4.67,107.34 C4.67,133.396 25.86,154.595 51.92,154.595 C66.72,154.595 80.39,147.842 89.42,136.067 C90.09,135.191 91.35,135.025 92.22,135.697 C93.1,136.369 93.27,137.625 92.59,138.501 C82.8,151.271 67.98,158.595 51.92,158.595" id="Fill-287" fill="#F5A623"></path>
            <path d="M129.92,59.925 C103.88,59.925 82.7,81.121 82.7,107.174 C82.7,133.223 103.88,154.416 129.92,154.416 C155.98,154.416 177.18,133.223 177.18,107.174 C177.18,81.121 155.98,59.925 129.92,59.925 Z M129.92,158.416 C101.68,158.416 78.7,135.429 78.7,107.174 C78.7,78.915 101.68,55.925 129.92,55.925 C158.19,55.925 181.18,78.915 181.18,107.174 C181.18,135.429 158.19,158.416 129.92,158.416 Z" id="Fill-288" fill="#F5A623"></path>
            <path d="M86.58,15.991 C83.93,25.093 87.17,36.188 95,44.556 C101.46,51.453 110.3,55.57 118.65,55.571 C120.25,55.571 121.82,55.419 123.32,55.121 C125.98,46.002 122.74,34.91 114.91,26.557 C108.44,19.664 99.59,15.548 91.23,15.548 C89.63,15.548 88.08,15.697 86.58,15.991 Z M118.65,59.571 C109.08,59.57 99.4,55.094 92.08,47.291 C82.97,37.555 79.45,24.378 83.11,13.721 C83.21,13.416 83.39,13.14 83.62,12.918 L83.73,12.816 C83.98,12.578 84.29,12.41 84.63,12.327 C86.74,11.811 88.96,11.548 91.23,11.548 C100.81,11.548 110.5,16.021 117.82,23.82 C126.94,33.543 130.46,46.726 126.79,57.405 C126.66,57.771 126.43,58.093 126.13,58.331 L126.01,58.421 C125.79,58.594 125.53,58.718 125.26,58.786 C123.15,59.307 120.92,59.571 118.65,59.571 Z" id="Fill-289" fill="#417505"></path>
            <path d="M29.36,64.052 C28.58,64.052 27.84,63.59 27.52,62.824 C24.48,55.56 15.97,40.995 6.08,32.835 C5.23,32.132 5.11,30.872 5.81,30.02 C6.52,29.168 7.78,29.048 8.63,29.75 C20.39,39.455 28.91,55.8 31.21,61.28 C31.63,62.299 31.15,63.47 30.13,63.897 C29.88,64.002 29.62,64.052 29.36,64.052" id="Fill-290" fill="#417505"></path>
            <path d="M44.53,5.215 C35.37,8.262 27.81,17.243 25.13,28.402 C22.45,39.542 25.12,50.781 31.93,57.38 C41.09,54.337 48.64,45.359 51.32,34.201 C54.01,23.061 51.34,11.818 44.53,5.215 Z M31.49,61.606 C31.33,61.606 31.17,61.588 31.02,61.55 L30.88,61.518 C30.57,61.441 30.28,61.29 30.03,61.075 C21.57,53.623 18.12,40.43 21.24,27.467 C24.35,14.528 33.45,4.164 44.42,1.063 C44.78,0.964 45.15,0.963 45.51,1.063 L45.65,1.103 C45.94,1.184 46.21,1.33 46.43,1.528 C54.89,8.988 58.33,22.18 55.21,35.136 C52.11,48.072 43.01,58.434 32.03,61.531 C31.85,61.582 31.67,61.606 31.49,61.606 Z" id="Fill-291" fill="#417505"></path>
        </g>
    </g>
</svg>