<?xml version="1.0" encoding="UTF-8"?>
<svg width="209px" height="137px" viewBox="0 0 209 137" version="1.1" xmlns="http://www.w3.org/2000/svg" xmlns:xlink="http://www.w3.org/1999/xlink">
    <!-- Generator: Sketch 48.2 (47327) - http://www.bohemiancoding.com/sketch -->
    <title>Nutmeg</title>
    <desc>Created with Sketch.</desc>
    <defs></defs>
    <g id="Artboard" stroke="none" stroke-width="1" fill="none" fill-rule="evenodd" transform="translate(-1730.000000, -1500.000000)" stroke-linecap="round" stroke-linejoin="round">
        <g id="Nutmeg" transform="translate(1731.000000, 1501.000000)" stroke="#8B572A" stroke-width="2">
            <path d="M99.0833117,15.9220634 C111.257726,34.3692539 100.04451,61.4469788 74.0416855,76.4027258 C48.0388611,91.3561651 17.090109,88.5247037 4.91569436,70.0775132 C-7.25642622,51.6303228 3.95449599,24.5525978 29.9573205,9.59915849 C55.962439,-5.3565885 86.9111911,-2.52512706 99.0833117,15.9220634 Z M15.8834494,69.5606042 C11.029283,69.8098282 6.12235388,67.3845096 3.6126856,63.4961538 L15.8834494,69.5606042 Z M13.6215363,60.6370008 C11.3091546,55.1817646 10.2997816,49.2511567 10.6828845,43.3967006 C10.7585875,42.2498087 10.8962293,41.0752253 11.4513844,40.0483301 C12.1854739,38.691444 13.5550095,37.756854 14.7364347,36.7091902 C19.4758997,32.5093045 21.3524158,26.301781 24.5869974,21.001156 C25.1880331,20.0157982 27.0599612,19.219666 27.2434836,20.3388663 L13.6215363,60.6370008 Z" id="Stroke-9"></path>
            <path d="M27.2712439,38.0736603 C28.4733168,27.5053586 36.435336,17.8331394 47.126015,13.9637957 C52.1468405,12.1488295 57.6864313,11.5149594 62.3438926,9 L27.2712439,38.0736603 Z M23,59.8258931 C28.4367519,54.3809946 28.7726924,47.3286197 32.8725381,41.5075034 C37.2557622,35.2805277 46.7809332,33.9398241 50.3597283,27.7972124 L23,59.8258931 Z M40.4689077,44.2208322 C52.8552865,42.8618877 64.1241489,34.8336265 68.7176215,24.0965967 C69.7460109,21.6888024 70.8703833,18.7930649 73.5807606,18.1569147 L40.4689077,44.2208322 Z M26.1217331,65.9001015 C25.8589225,68.7411163 29.2548928,70.6427266 32.2623604,71.2560757 C35.269828,71.8671448 38.7206458,72.0860352 40.7042946,74.2680988 C41.7852461,75.4583153 42.2148844,77.0429905 43.1678585,78.3221312 C45.0943746,80.9168944 49.2673502,81.7970162 52.2199704,80.2351421 L26.1217331,65.9001015 Z M24.5768637,74.188295 C23.5781834,78.7621921 30.8386124,81.582686 34.1865912,85.0712517 L24.5768637,74.188295 Z M34.1865912,65.3574357 C42.0503421,66.6890189 50.8556405,67.8017117 56.8934289,61.7069824 C64.6223464,53.8998917 67.7692179,57.4066982 78.5353122,56.2096414 C83.8189483,55.6213735 88.1016188,52.1122869 92.0094984,48.7696482 L34.1865912,65.3574357 Z M70.3996095,36.1606495 C76.0786042,35.0479567 79.6619699,30.0225981 82.9551012,25.5946279 C86.2482326,21.1666576 90.8714142,21.1164953 96.6715303,21.3809878 C96.669245,30.5037009 91.3010524,39.4736468 82.9482453,44.3143166 C77.2441122,47.6181935 69.96083,49.4012381 66.5328654,54.7640528 L70.3996095,36.1606495 Z M71.546835,13.3983288 C78.8255465,12.7188566 86.1065434,12.0393843 93.3852549,11.3576319 C92.0963402,11.296069 90.8074255,11.2345061 89.5162255,11.1729432 L71.546835,13.3983288 Z M205.934475,108.300995 C200.052087,129.004377 171.428583,139.973978 142.00522,132.805318 C112.579571,125.634377 93.4972351,103.038505 99.3819077,82.3351218 C105.26658,61.6317388 133.890085,50.6598579 163.313448,57.8307984 C192.736811,64.9994587 211.819147,87.5976116 205.934475,108.300995 Z M100.193193,90.4796684 C106.242408,93.2043978 105.885899,101.864249 111.162679,105.726752 C113.571396,107.489276 116.759403,107.947578 119.657176,108.886982 C122.557234,109.824107 125.55556,111.689235 125.930351,114.509729 C126.076611,115.597341 125.8138,116.757916 126.284574,117.761164 C126.961026,119.197632 128.821268,119.738018 130.464406,120.111955 C134.397424,121.012598 138.330442,121.910961 142.26346,122.811603 L100.193193,90.4796684 Z M135.800604,114.09931 C140.165545,112.343626 145.282354,113.184986 149.64501,114.94523 C154.007667,116.705474 157.906405,119.318478 162.175364,121.26569 C171.094928,125.331123 181.602782,126.32525 191.226221,124.013221 L135.800604,114.09931 Z M149.231369,127.565629 C154.615559,127.693315 159.981466,128.372787 165.203399,129.590365 L149.231369,127.565629 Z M112.325902,92.8464208 C121.263749,90.2539377 129.826804,96.9186941 137.685984,101.636238 C145.814831,106.51567 155.10233,109.648539 164.652639,111.15341 C167.895494,111.661874 171.296035,112.031252 174.047548,113.700291 L112.325902,92.8464208 Z M196.964634,89.6975913 C198.70604,95.5232679 192.314029,100.778917 187.914807,105.245649 C186.687596,99.800751 184.836495,94.4766982 182.400355,89.3897767 C179.013526,85.8829702 175.624411,82.3761637 172.235297,78.8693572 C168.711349,75.221184 165.116557,71.5182882 160.593929,68.9828078 C156.069016,66.4473274 150.399162,65.2092287 145.426328,66.8691475 L196.964634,89.6975913 Z M133.284478,83.35205 C141.913807,81.9041813 151.185309,84.1569282 157.936114,89.3441745 C159.787215,90.7669621 161.496627,92.4200406 163.674527,93.3685656 C165.477636,94.1529228 167.593833,94.4538971 169.040434,95.7239174 C171.906213,98.2365967 171.323459,103.759019 175.146782,104.668782 C176.031197,104.878552 177.05273,104.775947 177.765747,105.304932 C178.476478,105.833917 182.418637,114.051428 181.586785,113.700291 L133.284478,83.35205 Z M202.437951,106.417625 C199.181384,110.695108 192.645398,112.528315 187.370904,110.642666 L202.437951,106.417625 Z M107.714147,77.0612314 C114.122156,70.2528281 126.855901,69.787686 133.826096,76.1035859 L107.714147,77.0612314 Z M178.803277,70.6586874 C183.552151,75.8550541 187.981081,81.3022327 192.060359,86.9637415 L178.803277,70.6586874 Z" id="Stroke-10"></path>
        </g>
    </g>
</svg>