<?xml version="1.0" encoding="UTF-8"?>
<svg width="150px" height="150px" viewBox="0 0 150 150" version="1.1" xmlns="http://www.w3.org/2000/svg" xmlns:xlink="http://www.w3.org/1999/xlink">
    <!-- Generator: Sketch 48.2 (47327) - http://www.bohemiancoding.com/sketch -->
    <title>Orange peel</title>
    <desc>Created with Sketch.</desc>
    <defs></defs>
    <g id="Fruits" stroke="none" stroke-width="1" fill="none" fill-rule="evenodd" transform="translate(-1533.000000, -1389.000000)">
        <g id="Orange-peel" transform="translate(1533.000000, 1389.000000)" fill="#F5A623">
            <g id="Fill-319">
                <path d="M27.15,5.32 C-3.91,37.88 -3.45,89.64 28.53,121.62 C44.26,137.35 65.17,146 87.4,146.01 C108.97,146.01 129.29,137.86 144.85,123.02 L27.15,5.32 Z M87.4,150.01 C87.4,150.01 87.41,150.01 87.4,150.01 C64.1,150 42.19,140.93 25.71,124.45 C-8.31,90.44 -8.3,35.08 25.72,1.06 C26.47,0.31 27.8,0.31 28.55,1.06 L149.11,121.62 C149.48,121.99 149.69,122.5 149.69,123.03 C149.69,123.56 149.48,124.07 149.11,124.45 C132.63,140.93 110.71,150.01 87.4,150.01 Z"></path>
            </g>
            <path d="M30.14,8.31 C13.76,40.2 19.84,79.67 45.34,105.17 C61.06,120.89 81.96,129.55 104.17,129.55 C117.41,129.55 130.5,126.38 142.21,120.37 L30.14,8.31 Z M104.17,133.55 C80.89,133.55 58.99,124.48 42.52,108 C15.13,80.62 9.12,37.86 27.9,4.02 C28.2,3.47 28.75,3.09 29.37,3.01 C29.99,2.92 30.62,3.13 31.06,3.57 L146.94,119.45 C147.39,119.9 147.6,120.52 147.51,121.14 C147.42,121.77 147.05,122.31 146.5,122.62 C133.62,129.77 118.98,133.55 104.17,133.55 Z" id="Fill-320"></path>
            <path d="M43.75,108.41 C43.24,108.41 42.73,108.22 42.34,107.83 C41.56,107.05 41.55,105.79 42.33,105 L85.81,61.16 C86.59,60.38 87.86,60.37 88.64,61.15 C89.42,61.93 89.43,63.2 88.65,63.98 L45.17,107.82 C44.78,108.21 44.26,108.41 43.75,108.41" id="Fill-321"></path>
            <path d="M85.74,64.58 L20.52,64.57 C19.42,64.57 18.52,63.68 18.52,62.57 C18.52,61.47 19.42,60.57 20.52,60.57 L85.74,60.58 C86.85,60.58 87.74,61.48 87.74,62.58 C87.74,63.69 86.85,64.58 85.74,64.58" id="Fill-322"></path>
            <path d="M87.31,131.36 C86.2,131.36 85.31,130.46 85.31,129.36 L85.31,64.15 C85.31,63.05 86.21,62.15 87.31,62.15 C88.41,62.15 89.31,63.05 89.31,64.15 L89.31,129.36 C89.31,130.46 88.41,131.36 87.31,131.36" id="Fill-323"></path>
        </g>
    </g>
</svg>