<?xml version="1.0" encoding="UTF-8"?>
<svg width="133px" height="133px" viewBox="0 0 133 133" version="1.1" xmlns="http://www.w3.org/2000/svg" xmlns:xlink="http://www.w3.org/1999/xlink">
    <!-- Generator: Sketch 48.2 (47327) - http://www.bohemiancoding.com/sketch -->
    <title>Pastry</title>
    <desc>Created with Sketch.</desc>
    <defs></defs>
    <g id="Bread-and-pastry" stroke="none" stroke-width="1" fill="none" fill-rule="evenodd" transform="translate(-1210.000000, -918.000000)">
        <g id="Pastry" transform="translate(1210.000000, 918.000000)" fill="#C58418">
            <path d="M18.2813069,107 C17.6773911,107 17.0940633,106.690485 16.7818113,106.141344 C8.05591377,90.8752442 5.0294719,74.9468477 8.26179416,61.2948873 C8.4711059,60.4029503 9.37011698,59.8271851 10.3205982,60.0468412 C11.2401973,60.2498567 11.8166624,61.1451218 11.6073506,62.0403868 C8.56375208,74.8902696 11.4666657,89.9799791 19.7842338,104.530533 C20.2440334,105.33261 19.9455068,106.347688 19.1116912,106.793656 C18.8509094,106.933438 18.5626768,107 18.2813069,107" id="Fill-421"></path>
            <path d="M53.3036901,129 C53.2629245,129 53.2221589,129 53.1779961,128.996532 C44.9195605,128.382736 31.8711644,120.888876 23.4700492,111.931616 C22.8245935,111.241529 22.8449763,110.145712 23.5244033,109.4799 C24.2004332,108.817555 25.2739279,108.845297 25.9261779,109.535384 C33.6852346,117.809493 46.0236295,124.987785 53.4225898,125.535694 C54.3601991,125.608517 55.0634061,126.437315 54.9954634,127.390953 C54.9309178,128.306445 54.1835481,129 53.3036901,129" id="Fill-422"></path>
            <path d="M104.335055,19 C104.062131,19 103.782549,18.9313495 103.529594,18.7871834 C88.9780375,10.466741 73.8839594,7.56282425 61.0365191,10.6074746 C60.1411923,10.8340213 59.2491939,10.2470594 59.042836,9.32027743 C58.8364782,8.39692801 59.3956414,7.47357858 60.2909682,7.26076199 C73.9505264,4.03075527 89.8667076,7.05481045 105.140517,15.7837234 C105.945978,16.2436818 106.235545,17.2871697 105.792874,18.1178409 C105.486665,18.6842076 104.920845,19 104.335055,19" id="Fill-423"></path>
            <path d="M127.261974,57 C126.363849,57 125.600964,56.3205504 125.535078,55.4236769 C124.987188,48.0244704 117.805662,35.6856651 109.53529,27.9263503 C108.841758,27.2740786 108.820952,26.2005482 109.479808,25.5244958 C110.142131,24.8484434 111.241379,24.8212654 111.931444,25.4701398 C120.888413,33.8715345 128.382028,46.923762 128.995804,55.179075 C129.06169,56.1167155 128.343884,56.9286578 127.390277,56.9966028 C127.348665,57 127.307053,57 127.261974,57" id="Fill-424"></path>
            <path d="M123.954184,64.0811323 C122.138762,65.288077 120.958405,65.3512504 120.752258,65.2382033 C119.6384,64.2673277 118.34832,62.9340362 116.848769,61.3846251 C112.493086,56.8826883 106.607927,50.8047411 98.0628092,46.1565079 L100.716118,40.3778031 L109.510607,21.249559 C121.433873,28.7339458 128.948257,44.5339487 129.643171,53.0922836 C130.052139,58.1361818 126.833589,62.1626556 123.954184,64.0811323 Z M85.8768726,45.1523831 C83.7123311,45.1523831 81.391517,45.4715751 79.1205771,46.3593278 L54.9980752,8.01306666 C70.1565158,1.92181977 89.7105383,5.08714021 107.971156,16.63125 L107.259617,18.183986 C107.259617,18.183986 107.256292,18.1873109 107.256292,18.1906358 L94.3820911,46.1964069 L94.3820911,46.1997318 L94.2091938,46.5820972 C92.446971,45.9836122 89.3747185,45.1523831 85.8768726,45.1523831 Z M60.3944667,60.3938 C53.5783221,67.2132036 50.3497971,73.6402671 49.0497422,76.8122373 L8.98078687,51.6791941 L8.13957488,51.1505324 L8.13292498,51.1472074 L6.36737729,50.0400103 C6.71649689,48.0483853 7.84697941,43.2106319 10.9724311,37.2091578 C11.6806451,37.5283498 12.3921841,37.8541916 13.0904233,38.1733836 C14.8925454,39.0012877 16.860915,39.905665 18.9689324,40.7834429 L19.4610248,40.9929127 C25.7318778,43.6195967 28.3020631,44.1449335 36.2220906,36.2216576 C44.1387931,28.3116814 43.630076,25.7381961 40.9933918,19.4607539 L40.78392,18.9686663 C39.9061336,16.8639942 39.0017476,14.8956437 38.1738354,13.093539 C37.8513154,12.3953065 37.5287954,11.6804495 37.2096003,10.9722423 C43.2111325,7.84682084 48.0456077,6.71634926 50.0372519,6.36723303 L51.1477847,8.13276365 C51.1477847,8.13276365 51.1477847,8.13608857 51.1511097,8.13941349 L51.6731266,8.97064259 L76.8097379,49.0491852 C73.6410619,50.3525524 67.2139363,53.5777214 60.3944667,60.3938 Z M46.1570369,98.0617782 C50.805315,106.606813 56.883321,112.491915 61.3853014,116.850881 C62.9314025,118.347093 64.2680318,119.637161 65.225617,120.731058 C65.3419902,120.957153 65.2854661,122.137498 64.0818347,123.949577 C62.1666643,126.828955 58.1434765,130.03085 53.0862298,129.641834 C44.534462,128.946927 28.7343064,121.432616 21.2498471,109.509465 L40.7905699,100.528866 L46.1570369,98.0617782 Z M16.6314935,107.970029 C5.09059704,89.7129131 1.92192104,70.1590796 8.01322683,54.9974607 L46.3598588,79.1197293 C44.0357197,85.0646799 45.6183952,91.3620716 46.5793054,94.2082001 L46.2035862,94.3810957 C46.2002612,94.3810957 46.2002612,94.3810957 46.2002612,94.3810957 L18.1875695,107.255172 L16.6314935,107.970029 Z M3.67084399,35.2408073 L3.68081884,35.2341574 C4.20283576,34.695521 5.86198511,35.1244352 7.91347838,35.9157653 C6.97251793,37.7411444 6.17453027,39.470101 5.55276489,41.0461113 C4.02993844,38.9547389 2.67668437,36.3180802 3.67084399,35.2408073 Z M6.83951999,32.0721619 L32.0725547,6.83937116 C32.3917498,8.04631583 32.9004669,9.38293223 33.5255573,10.8458955 C33.5521569,10.9090689 33.5554818,10.9788921 33.5887313,11.0420655 C33.6020311,11.0653399 33.6219808,11.0753147 33.6352806,11.0952642 C34.1007734,12.1658873 34.6028406,13.2797343 35.1547821,14.4800291 C35.9660695,16.2555345 36.8538308,18.183986 37.7216424,20.2554089 L37.9277892,20.7474966 C40.1488548,26.0374386 40.6110227,27.1379859 33.8713519,33.8709417 C27.1350061,40.6105473 26.0344481,40.1417341 20.7477799,37.9273397 L20.2523625,37.7211949 C18.1842445,36.8533917 16.2491245,35.965639 14.4802518,35.1510345 C11.5343474,33.7977935 8.98743677,32.6407226 6.83951999,32.0721619 Z M41.046591,5.55595342 C39.4705653,6.17438788 37.7415921,6.97236782 35.9161953,7.91331917 C35.1248575,5.86517065 34.6959392,4.20603736 35.2312559,3.68402548 L35.2478806,3.66740089 C36.3284889,2.6765758 38.9585232,4.02981679 41.046591,5.55595342 Z M110.893786,18.2338598 L111.59535,16.7077231 C111.941145,15.9596169 111.685123,15.0718642 110.996859,14.6230005 C91.2599644,1.7057002 69.7974213,-1.74556305 53.2225526,5.18356278 L52.2782672,3.68070056 C51.9457724,3.14871393 51.3173571,2.86277112 50.7155414,2.90931995 C50.5526189,2.92594453 48.2783541,3.17863818 44.7472587,4.26256093 C42.9118871,2.64000172 36.7308077,-2.28752442 32.963641,1.25018665 C32.9536661,1.25683649 32.9503412,1.27013615 32.9436913,1.27678599 C32.9370414,1.28343582 32.9303915,1.28343582 32.9237416,1.29008565 L1.28685586,32.9233405 C1.28353091,32.9299904 1.28020597,32.9366402 1.27688102,32.9399651 C1.27023112,32.9499399 1.26025627,32.9532648 1.25360638,32.9599146 C-2.29078881,36.7303698 2.64010993,42.9113895 4.25935989,44.7467433 C3.1787516,48.2778046 2.92605551,50.5520474 2.90943077,50.7149683 C2.84958169,51.3400526 3.14882707,51.9451874 3.68081884,52.277679 L5.1836956,53.2219553 C-1.74549724,69.8066384 1.70912433,91.2623241 14.6232246,110.995703 C14.9390947,111.477816 15.4677615,111.747134 16.0130531,111.747134 C16.2457995,111.747134 16.4851958,111.700585 16.7079674,111.594188 L18.2341188,110.892631 C26.2971191,124.109173 43.2477069,132.178746 52.8202339,132.953451 C53.1926281,132.9867 53.5583725,133 53.9274417,133 C60.1051962,133 65.4384137,128.810605 67.6495045,124.425041 C68.8631108,122.017801 68.8963602,119.883205 67.745928,118.563213 C66.6786195,117.346293 65.2987659,116.009677 63.6994656,114.460266 C59.3936572,110.294146 53.6148966,104.648438 49.2126647,96.6553386 L49.382237,96.5788655 C50.2101492,96.199825 50.5792185,95.2222996 50.2034993,94.3877456 C50.1702499,94.3112725 47.0647479,87.2225507 49.2957884,80.7988121 C49.4952853,80.8786101 49.6914573,80.9717078 49.904254,80.9717078 C50.1037509,80.9717078 50.3065727,80.9384586 50.4960948,80.8619855 C50.9848623,80.6791151 51.3572565,80.2701504 51.5035542,79.7714129 C51.5268289,79.691615 53.9839659,71.5089956 62.7452054,62.7445159 C71.5097698,53.9833612 79.6891433,51.5262479 79.772267,51.5029735 C80.2710093,51.3566772 80.6766531,50.9842865 80.8628502,50.4955238 C81.0124729,50.0998588 80.9659236,49.6809193 80.8129759,49.295229 C87.210177,47.0908094 94.3155921,50.1730069 94.388741,50.2029312 C94.6115125,50.3060036 94.840934,50.3525524 95.0637055,50.3525524 C95.6954458,50.3525524 96.3005864,49.9901365 96.5798821,49.3816768 L96.6563559,49.2121061 C104.649532,53.6142954 110.295295,59.3930002 114.458131,63.698767 C116.007557,65.3013767 117.347511,66.681217 118.564442,67.7418653 C119.206157,68.3037762 120.040719,68.5863941 121.004954,68.5863941 C122.025714,68.5863941 123.192771,68.270527 124.429651,67.6520926 C129.074605,65.3047016 133.496786,59.4628234 132.95482,52.8229653 C132.180107,43.247206 124.110456,26.2967821 110.893786,18.2338598 Z" id="Fill-425"></path>
        </g>
    </g>
</svg>