<?xml version="1.0" encoding="UTF-8"?>
<svg width="134px" height="188px" viewBox="0 0 134 188" version="1.1" xmlns="http://www.w3.org/2000/svg" xmlns:xlink="http://www.w3.org/1999/xlink">
    <!-- Generator: Sketch 48.2 (47327) - http://www.bohemiancoding.com/sketch -->
    <title>Peach</title>
    <desc>Created with Sketch.</desc>
    <defs></defs>
    <g id="Fruits" stroke="none" stroke-width="1" fill="none" fill-rule="evenodd" transform="translate(-837.000000, -729.000000)">
        <g id="Peach" transform="translate(837.000000, 729.000000)" fill="#EDB04C">
            <path d="M44.382,4.882 C39.348,12.303 38.911,23.295 43.333,33.24 C47.767,43.18 56.226,50.21 65.103,51.42 C70.16,44 70.6,33.01 66.15,23.068 C61.744,13.123 53.283,6.096 44.382,4.882 Z M65.983,55.53 C65.927,55.53 65.871,55.53 65.814,55.53 C55.131,54.62 44.872,46.51 39.679,34.86 C34.5,23.222 35.334,10.171 41.804,1.615 C42.032,1.313 42.341,1.083 42.695,0.949 L42.817,0.903 C43.096,0.798 43.394,0.755 43.691,0.783 C54.396,1.695 64.647,9.804 69.81,21.441 C75.01,33.07 74.17,46.12 67.69,54.68 C67.53,54.89 67.32,55.07 67.08,55.21 L66.97,55.27 C66.67,55.44 66.33,55.53 65.983,55.53 Z" id="Fill-217"></path>
            <path d="M66.25,64.87 C66.16,64.87 66.06,64.86 65.962,64.85 C64.87,64.69 64.113,63.67 64.272,62.58 C64.465,61.26 69.14,29.94 81.22,12.438 C81.85,11.53 83.09,11.301 84,11.929 C84.91,12.556 85.14,13.802 84.51,14.711 C72.96,31.44 68.28,62.84 68.23,63.16 C68.08,64.15 67.23,64.87 66.25,64.87" id="Fill-218"></path>
            <path d="M67.1,58.81 C32.731,58.81 4.771,86.78 4.771,121.16 C4.771,155.53 32.731,183.5 67.1,183.5 C101.48,183.5 129.45,155.53 129.45,121.16 C129.45,86.78 101.48,58.81 67.1,58.81 Z M67.1,187.5 C30.526,187.5 0.771,157.74 0.771,121.16 C0.771,84.58 30.526,54.81 67.1,54.81 C103.69,54.81 133.45,84.58 133.45,121.16 C133.45,157.74 103.69,187.5 67.1,187.5 Z" id="Fill-219"></path>
            <path d="M101.84,125.68 C100.74,125.68 99.84,124.79 99.84,123.68 C99.84,87.29 86.26,63.83 62.574,59.34 C61.488,59.14 60.775,58.09 60.981,57.01 C61.187,55.92 62.237,55.2 63.319,55.41 C89.07,60.3 103.84,85.18 103.84,123.68 C103.84,124.79 102.95,125.68 101.84,125.68" id="Fill-220"></path>
            <path d="M22.2,117 C22.109,117 22.017,117 21.924,116.99 C20.83,116.83 20.065,115.83 20.216,114.73 C22.104,101.06 30.06,88.28 41.497,80.55 C42.413,79.93 43.655,80.17 44.274,81.09 C44.893,82 44.652,83.25 43.737,83.87 C33.225,90.97 25.914,102.71 24.178,115.28 C24.04,116.28 23.183,117 22.2,117" id="Fill-221"></path>
        </g>
    </g>
</svg>