<?xml version="1.0" encoding="UTF-8"?>
<svg width="95px" height="157px" viewBox="0 0 95 157" version="1.1" xmlns="http://www.w3.org/2000/svg" xmlns:xlink="http://www.w3.org/1999/xlink">
    <!-- Generator: Sketch 48.2 (47327) - http://www.bohemiancoding.com/sketch -->
    <title>Pear</title>
    <desc>Created with Sketch.</desc>
    <defs></defs>
    <g id="Fruits" stroke="none" stroke-width="1" fill="none" fill-rule="evenodd" transform="translate(-477.000000, -99.000000)">
        <g id="Pear" transform="translate(477.000000, 99.000000)" fill="#7ED321">
            <path d="M66.8254937,3.58064 C58.8240572,4.65927132 51.199241,10.9836957 47.2124717,19.9379924 C43.2326768,28.8792096 43.6293486,38.7734938 48.1670994,45.4510675 C56.1702794,44.3663324 63.8221217,38.0166207 67.7870959,29.1102826 C71.770378,20.1620897 71.370219,10.2608296 66.8254937,3.58064 Z M47.7512478,49 C47.6710417,49 47.5908355,48.9965121 47.5106294,48.9930242 L47.5106294,48.9912803 C47.0049818,49.0357509 46.4592312,48.8622282 46.08697,48.4898955 C46.0294308,48.4323452 45.9657889,48.3608434 45.9169678,48.2963173 C40.1299188,40.6281816 39.3880118,28.9402477 44.0268921,18.5192914 C48.6718751,8.08699948 57.8572243,0.820843607 67.4279117,0.00729225362 C67.6955562,-0.0179949803 67.9640725,0.0229877781 68.2151527,0.122392767 L68.3232566,0.164247499 C68.6214143,0.281963932 68.8820843,0.479901936 69.0747535,0.736262169 C74.8696487,8.40614181 75.6141711,20.1010515 70.9726754,30.5289836 C66.4113858,40.7764171 57.3663974,48.0233896 47.9290963,48.9912803 C47.8706853,48.9965121 47.8114025,49 47.7512478,49 Z" id="Fill-204"></path>
            <path d="M47.8994733,49 C47.7056392,49 47.5109077,48.9654353 47.3260475,48.896306 L47.221054,48.8577911 C46.3882853,48.5476966 45.8812655,47.6203758 46.0239489,46.6663908 C46.1603507,45.7499331 46.8567177,45.0675277 47.6894864,45.0141994 C47.879731,44.992473 48.0188249,45.0003735 48.1704821,45.0072864 C49.1270893,45.0072864 49.9499868,45.8338759 49.997548,46.8856296 C50.0460065,47.9363956 49.3711767,48.8459403 48.4199538,48.9516095 L48.1085629,48.9871617 C48.0394646,48.9960498 47.969469,49 47.8994733,49" id="Fill-205"></path>
            <path d="M31.2407355,137 C30.941111,137 30.6379719,136.924672 30.3603141,136.768024 C21.5552213,131.792093 17.1039091,121.51752 18.1503981,108.578217 C18.2259632,107.63576 19.0703593,106.928704 20.0395258,107.005744 C21.0078136,107.07936 21.7300755,107.903688 21.6536317,108.846145 C20.7187331,120.420127 24.5347712,129.5177 32.1237929,133.806262 C32.9637957,134.281343 33.2493615,135.328231 32.7625816,136.146568 C32.4365973,136.693552 31.8470137,137 31.2407355,137" id="Fill-206" fill-opacity="0.509227808"></path>
            <path d="M47.1431037,48.4792946 C33.8253064,48.656633 23.0295184,59.2691228 23.0295184,72.2443867 C23.0295184,78.3738646 19.4553772,81.7667666 15.998619,85.0483974 C14.3742448,86.5905465 12.6937683,88.184854 11.2368376,90.1373157 C6.21698602,96.8770465 3.4524426,105.175443 3.4524426,113.502527 C3.4524426,135.569864 21.9100639,153.522775 44.5969273,153.522775 L50.4108407,153.522775 C73.0933886,153.522775 91.5475574,135.569864 91.5475574,113.502527 C91.5475574,105.165012 88.783014,96.8666148 83.7631624,90.1373157 C82.3070948,88.1805075 80.6274814,86.5844614 79.0022441,85.0397043 C75.5506646,81.7606814 71.9817021,78.3703873 71.9817021,72.2443867 C71.9765234,59.3082416 61.1738305,48.6670647 47.8810634,48.4784253 L47.675643,48.5001579 C47.4969791,48.5210213 47.3174521,48.5131975 47.1431037,48.4792946 Z M50.4108407,157 L44.5969273,157 C20.0060418,157 0,137.486684 0,113.502527 C0,104.42784 3.00966684,95.387925 8.47574659,88.0492423 C10.1113413,85.8585907 11.9005697,84.1599665 13.6311065,82.5178471 C16.9532194,79.3640043 19.5770758,76.8734421 19.5770758,72.2443867 C19.5770758,57.2818889 32.043846,45.0603134 47.3666494,45.0003313 C47.4391507,44.9985927 47.5133782,45.0038085 47.5858795,45.0133709 C47.6549284,45.0072857 47.761091,45.0020699 47.8197825,45.0003313 C63.0398757,45.1568064 75.4281029,57.3783819 75.4341447,72.2435174 C75.4341447,76.8699649 78.0545486,79.3596578 81.3714828,82.5108926 C83.1020197,84.1556199 84.8921112,85.8559828 86.5251165,88.0501116 C91.9894701,95.376624 95,104.41567 95,113.502527 C95,137.486684 74.9974107,157 50.4108407,157 Z" id="Fill-207"></path>
            <path d="M47.8994733,49 C47.7056392,49 47.5109077,48.9654353 47.3260475,48.896306 L47.221054,48.8577911 C46.3882853,48.5476966 45.8812655,47.6203758 46.0239489,46.6663908 C46.1603507,45.7499331 46.8567177,45.0675277 47.6894864,45.0141994 C47.879731,44.992473 48.0188249,45.0003735 48.1704821,45.0072864 C49.1270893,45.0072864 49.9499868,45.8338759 49.997548,46.8856296 C50.0460065,47.9363956 49.3711767,48.8459403 48.4199538,48.9516095 L48.1085629,48.9871617 C48.0394646,48.9960498 47.969469,49 47.8994733,49" id="Fill-208"></path>
            <path d="M47.2374242,49 C46.4240549,49 45.6934309,48.4443926 45.5173769,47.6321515 C43.6177546,38.9040166 39.3757342,22.7602937 32.3115688,12.7101068 C31.7596396,11.9237883 31.9603411,10.848001 32.7605064,10.3062189 C33.5615519,9.76357279 34.6574879,9.96144854 35.2094171,10.7469029 C42.2498153,20.7625263 46.5728205,35.9410649 48.9609925,46.9097754 C49.1634546,47.8429885 48.557829,48.7615122 47.6071375,48.9611161 C47.4830195,48.9870387 47.3589014,49 47.2374242,49" id="Fill-209"></path>
            <path d="M47.8994733,49 C47.7056392,49 47.5109077,48.9654353 47.3260475,48.896306 L47.221054,48.8577911 C46.3882853,48.5476966 45.8812655,47.6203758 46.0239489,46.6663908 C46.1603507,45.7499331 46.8567177,45.0675277 47.6894864,45.0141994 C47.879731,44.992473 48.0188249,45.0003735 48.1704821,45.0072864 C49.1270893,45.0072864 49.9499868,45.8338759 49.997548,46.8856296 C50.0460065,47.9363956 49.3711767,48.8459403 48.4199538,48.9516095 L48.1085629,48.9871617 C48.0394646,48.9960498 47.969469,49 47.8994733,49" id="Fill-210"></path>
        </g>
    </g>
</svg>