<?xml version="1.0" encoding="UTF-8"?>
<svg width="114px" height="192px" viewBox="0 0 114 192" version="1.1" xmlns="http://www.w3.org/2000/svg" xmlns:xlink="http://www.w3.org/1999/xlink">
    <!-- Generator: Sketch 48.2 (47327) - http://www.bohemiancoding.com/sketch -->
    <title>Pineapple</title>
    <desc>Created with Sketch.</desc>
    <defs></defs>
    <g id="Fruits" stroke="none" stroke-width="1" fill="none" fill-rule="evenodd" transform="translate(-491.000000, -1033.000000)">
        <g id="Pineapple" transform="translate(491.000000, 1033.000000)">
            <path d="M43.63,27.49 C43.509,27.49 43.386,27.47 43.263,27.45 C42.177,27.25 41.459,26.21 41.661,25.12 C43.933,12.87 48.641,4.69 55.654,0.82 C55.95,0.65 56.28,0.57 56.62,0.57 L56.75,0.57 C57.09,0.57 57.42,0.65 57.71,0.82 C65.42,5.06 70.89,13.82 72.74,24.85 C72.92,25.94 72.19,26.97 71.1,27.15 C70,27.33 68.98,26.6 68.8,25.51 C67.23,16.15 62.84,8.69 56.69,4.85 C49.956,9.2 46.94,18.59 45.594,25.85 C45.416,26.81 44.575,27.49 43.63,27.49" id="Fill-292" fill="#417505"></path>
            <path d="M86,43.34 C85.88,43.34 85.77,43.33 85.65,43.31 C84.56,43.12 83.83,42.08 84.02,41 L84.27,39.62 C84.29,39.51 84.31,39.4 84.35,39.3 C84.53,38.79 88.36,28.11 96.3,19.85 C90.21,19.8 78.44,21.42 67.81,32.58 C67.05,33.38 65.78,33.41 64.98,32.65 C64.18,31.88 64.15,30.62 64.91,29.82 C81.69,12.22 100.61,16.11 101.4,16.29 C102.15,16.45 102.74,17.03 102.92,17.78 C103.1,18.52 102.84,19.3 102.24,19.79 C93.4,27.01 88.72,39.03 88.18,40.48 L87.96,41.69 C87.79,42.66 86.95,43.34 86,43.34" id="Fill-293" fill="#417505"></path>
            <path d="M48.899,33.2 C48.367,33.2 47.835,32.99 47.442,32.57 C47.172,32.28 46.904,32.01 46.637,31.74 C46.409,31.51 46.181,31.28 45.955,31.05 C45.583,30.66 45.399,30.16 45.399,29.66 C45.399,29.14 45.605,28.61 46.015,28.22 C46.813,27.46 48.079,27.48 48.843,28.28 C49.053,28.5 49.264,28.71 49.477,28.92 C49.768,29.22 50.062,29.51 50.356,29.83 C50.719,30.21 50.899,30.71 50.899,31.2 C50.899,31.73 50.688,32.26 50.269,32.66 C49.883,33.02 49.391,33.2 48.899,33.2" id="Fill-294" fill="#417505"></path>
            <path d="M45.936,30.31 C45.423,30.31 44.912,30.12 44.524,29.73 C44.492,29.7 44.455,29.66 44.43,29.64 C44.072,29.25 43.895,28.76 43.895,28.28 C43.895,27.74 44.109,27.2 44.534,26.81 C45.324,26.07 46.548,26.1 47.306,26.86 C47.338,26.89 47.375,26.93 47.4,26.95 C47.758,27.34 47.935,27.83 47.935,28.31 C47.936,28.85 47.721,29.38 47.296,29.78 C46.911,30.14 46.423,30.31 45.936,30.31" id="Fill-295" fill="#417505"></path>
            <path d="M47.398,31.66 C46.902,31.66 46.404,31.48 46.017,31.11 C45.545,30.66 45.068,30.22 44.602,29.8 C44.16,29.41 43.935,28.86 43.935,28.31 C43.935,27.84 44.103,27.36 44.445,26.98 C45.181,26.16 46.445,26.09 47.269,26.82 C47.767,27.27 48.276,27.74 48.781,28.22 C49.192,28.61 49.399,29.14 49.399,29.66 C49.399,30.16 49.215,30.66 48.845,31.04 C48.452,31.46 47.926,31.66 47.398,31.66" id="Fill-296" fill="#417505"></path>
            <path d="M45.894,30.27 C45.435,30.27 44.973,30.12 44.597,29.8 C43.785,29.1 42.72,28.21 41.679,27.43 C41.152,27.04 40.874,26.44 40.874,25.83 C40.873,25.41 41.002,24.99 41.27,24.63 C41.929,23.75 43.183,23.57 44.068,24.22 C45.204,25.07 46.335,26.02 47.193,26.75 C47.657,27.15 47.895,27.71 47.895,28.28 C47.895,28.73 47.738,29.2 47.416,29.57 C47.021,30.04 46.459,30.27 45.894,30.27" id="Fill-297" fill="#417505"></path>
            <path d="M57.17,191.49 L56.9,191.49 C55.811,191.49 54.891,190.61 54.871,189.52 C54.851,188.43 55.676,187.53 56.77,187.49 C72.5,186.9 109.1,180.9 109.1,137.87 C109.1,137.34 109.31,136.86 109.65,136.5 C109.32,114.79 101.31,87.96 89,67.42 C88.22,67.14 87.66,66.4 87.66,65.53 C87.66,64.43 88.56,63.53 89.66,63.53 L90.2,63.53 C90.89,63.53 91.54,63.89 91.9,64.49 C105.12,86.15 113.66,114.95 113.66,137.87 C113.66,156.66 107.11,170.9 94.21,180.19 C82.12,188.91 67.39,191.15 57.17,191.49" id="Fill-298" fill="#F5A623"></path>
            <path d="M56.84,191.49 C56.82,191.49 56.79,191.49 56.77,191.48 C46.574,191.11 31.901,188.82 19.88,180.1 C7.064,170.8 0.566,156.59 0.566,137.87 C0.566,114.95 9.094,86.14 22.292,64.49 C22.867,63.55 24.095,63.25 25.041,63.82 C25.983,64.4 26.282,65.63 25.708,66.57 C12.864,87.64 4.566,115.63 4.566,137.87 C4.566,180.9 41.174,186.9 56.91,187.49 C58.02,187.53 58.88,188.46 58.84,189.56 C58.8,190.64 57.91,191.49 56.84,191.49" id="Fill-299" fill="#F5A623"></path>
            <path d="M18.933,19.83 C26.608,27.76 36.095,41.99 40.305,48.52 L46.582,31.69 C36.011,21.14 24.655,19.77 18.933,19.83 Z M40.772,54.99 C40.085,54.99 39.441,54.64 39.074,54.04 C38.91,53.78 22.61,27.61 13.048,19.79 C12.454,19.3 12.19,18.52 12.369,17.78 C12.547,17.03 13.137,16.45 13.886,16.29 C13.973,16.27 16.042,15.82 19.349,15.82 C25.952,15.82 38.76,17.64 50.348,29.82 C50.875,30.37 51.04,31.18 50.773,31.9 L42.647,53.69 C42.38,54.4 41.73,54.9 40.971,54.98 C40.905,54.99 40.838,54.99 40.772,54.99 Z" id="Fill-300" fill="#417505"></path>
            <path d="M25.848,62.86 L44.407,62.86 C41.246,56.61 37.528,51.45 33.331,47.5 L29.645,44.44 C22.625,39.35 15.774,38.28 11.258,38.28 C10.721,38.28 10.213,38.29 9.736,38.32 C19.852,46.98 24.469,58.74 25.848,62.86 Z M47.586,66.86 L24.376,66.86 C23.478,66.86 22.688,66.25 22.448,65.39 C22.401,65.22 17.54,48.13 3.653,38.69 C3.015,38.26 2.683,37.5 2.8,36.74 C2.917,35.97 3.461,35.35 4.199,35.12 C4.313,35.09 7.048,34.28 11.258,34.28 C16.379,34.28 24.143,35.49 32.05,41.25 C32.084,41.27 32.117,41.3 32.149,41.33 L35.932,44.46 C35.963,44.49 35.994,44.51 36.023,44.54 C41.239,49.44 45.742,55.99 49.406,64.03 C49.688,64.65 49.637,65.37 49.269,65.94 C48.901,66.51 48.267,66.86 47.586,66.86 Z" id="Fill-301" fill="#417505"></path>
            <path d="M34.654,48 C34.204,48 33.751,47.85 33.378,47.54 L29.596,44.4 C28.763,43.71 28.63,42.48 29.297,41.63 C29.964,40.78 31.188,40.61 32.06,41.25 C33.406,42.25 34.699,43.32 36.012,44.53 C36.808,45.27 36.874,46.5 36.16,47.32 C35.765,47.77 35.211,48 34.654,48" id="Fill-302" fill="#417505"></path>
            <path d="M41.095,117.42 C36.306,117.42 32.559,114.47 32.559,110.7 C32.559,109.6 33.455,108.7 34.559,108.7 C35.664,108.7 36.559,109.6 36.559,110.7 C36.559,111.99 38.419,113.42 41.088,113.42 C42.644,113.42 44.089,112.9 44.947,112.03 C45.24,111.74 45.589,111.27 45.586,110.7 C45.581,109.6 46.472,108.7 47.577,108.69 C47.58,108.69 47.583,108.69 47.586,108.69 C48.687,108.69 49.581,109.58 49.586,110.68 C49.594,112.19 48.955,113.67 47.787,114.85 C46.174,116.48 43.734,117.41 41.095,117.42" id="Fill-303" fill="#F5A623"></path>
            <path d="M9.391,117.42 C7.384,117.42 6.049,117.34 4.38,116.13 C3.484,115.49 3.282,114.24 3.928,113.34 C4.575,112.44 5.825,112.24 6.72,112.89 C7.371,113.36 7.695,113.42 9.384,113.42 C12.043,113.41 13.9,111.98 13.9,110.69 C13.9,109.59 14.795,108.69 15.9,108.69 C17.004,108.69 17.9,109.59 17.9,110.69 C17.9,114.45 14.162,117.41 9.391,117.42" id="Fill-304" fill="#F5A623"></path>
            <path d="M72.4,117.42 C67.63,117.42 63.89,114.47 63.89,110.7 C63.89,109.6 64.78,108.7 65.89,108.7 C66.99,108.7 67.89,109.6 67.89,110.7 C67.89,111.99 69.74,113.42 72.39,113.42 C75.05,113.41 76.91,111.98 76.91,110.69 C76.91,109.59 77.8,108.69 78.91,108.69 C80.01,108.69 80.91,109.59 80.91,110.69 C80.91,114.45 77.17,117.41 72.4,117.42" id="Fill-305" fill="#F5A623"></path>
            <path d="M102.97,117.42 C98.21,117.42 94.46,114.48 94.43,110.72 C94.42,109.61 95.31,108.71 96.42,108.7 C97.54,108.66 98.42,109.58 98.43,110.69 C98.44,111.98 100.31,113.42 102.97,113.42 C104.54,113.42 106.05,112.87 106.91,111.97 C107.67,111.17 108.93,111.14 109.73,111.9 C110.53,112.66 110.57,113.93 109.8,114.73 C108.17,116.44 105.68,117.42 102.97,117.42" id="Fill-306" fill="#F5A623"></path>
            <path d="M41.096,92.51 C36.306,92.51 32.559,89.57 32.559,85.81 C32.559,84.71 33.455,83.81 34.559,83.81 C35.664,83.81 36.559,84.71 36.559,85.81 C36.559,87.09 38.419,88.51 41.088,88.51 C42.647,88.51 44.091,87.99 44.942,87.13 C45.372,86.7 45.589,86.24 45.586,85.77 C45.581,84.66 46.472,83.76 47.577,83.76 C47.58,83.76 47.583,83.76 47.586,83.76 C48.687,83.76 49.581,84.65 49.586,85.75 C49.594,87.28 48.953,88.77 47.783,89.95 C46.177,91.57 43.739,92.5 41.096,92.51" id="Fill-307" fill="#F5A623"></path>
            <path d="M72.4,92.51 C67.63,92.51 63.89,89.57 63.89,85.81 C63.89,84.71 64.78,83.81 65.89,83.81 C66.99,83.81 67.89,84.71 67.89,85.81 C67.89,87.09 69.74,88.51 72.39,88.51 C75.05,88.5 76.91,87.05 76.91,85.76 C76.91,84.65 77.8,83.76 78.91,83.76 C80.01,83.76 80.91,84.65 80.91,85.76 C80.91,89.53 77.17,92.5 72.4,92.51" id="Fill-308" fill="#F5A623"></path>
            <path d="M39.923,170.62 C37.299,170.62 34.869,169.7 33.258,168.09 C32.083,166.91 31.435,165.43 31.435,163.91 C31.435,162.8 32.331,161.91 33.435,161.91 C34.54,161.91 35.435,162.8 35.435,163.91 C35.435,164.49 35.788,164.96 36.084,165.26 C36.938,166.11 38.374,166.62 39.927,166.62 C39.931,166.62 39.935,166.62 39.938,166.62 C42.601,166.62 44.455,165.17 44.455,163.88 C44.455,162.77 45.35,161.88 46.455,161.88 C47.559,161.88 48.455,162.77 48.455,163.88 C48.455,167.66 44.715,170.62 39.942,170.62 C39.936,170.62 39.93,170.62 39.923,170.62" id="Fill-309" fill="#F5A623"></path>
            <path d="M73.52,170.62 C68.77,170.62 65.03,167.67 65.01,163.91 C65.01,162.81 65.9,161.91 67,161.91 C67.01,161.91 67.01,161.91 67.01,161.91 C68.11,161.91 69.01,162.79 69.01,163.9 C69.02,165.18 70.87,166.62 73.53,166.62 C73.53,166.62 73.53,166.62 73.54,166.62 C75.1,166.62 76.54,166.1 77.39,165.25 C77.69,164.95 78.04,164.47 78.04,163.88 C78.04,162.78 78.93,161.88 80.04,161.88 C81.14,161.88 82.04,162.77 82.04,163.87 C82.05,165.4 81.4,166.89 80.23,168.07 C78.62,169.69 76.18,170.62 73.54,170.62 C73.54,170.62 73.53,170.62 73.52,170.62" id="Fill-310" fill="#F5A623"></path>
            <path d="M24.62,145.12 C19.882,145.12 16.156,142.19 16.13,138.43 C16.123,137.33 17.012,136.42 18.117,136.42 C18.122,136.42 18.126,136.42 18.131,136.42 C19.229,136.42 20.123,137.3 20.13,138.4 C20.139,139.69 21.985,141.12 24.623,141.12 C24.634,141.12 24.644,141.12 24.655,141.12 C26.23,141.12 27.679,140.6 28.534,139.74 C28.826,139.44 29.174,138.97 29.17,138.4 C29.164,137.3 30.055,136.4 31.159,136.39 C31.163,136.39 31.167,136.39 31.17,136.39 C32.27,136.39 33.164,137.28 33.17,138.38 C33.179,139.89 32.542,141.38 31.375,142.55 C29.765,144.18 27.321,145.12 24.67,145.12 C24.653,145.12 24.637,145.12 24.62,145.12" id="Fill-311" fill="#F5A623"></path>
            <path d="M89.54,145.12 C84.81,145.12 81.1,142.19 81.08,138.43 C81.08,137.32 81.97,136.42 83.07,136.42 C83.08,136.42 83.08,136.42 83.08,136.42 C84.18,136.42 85.08,137.31 85.08,138.41 C85.09,139.7 86.92,141.12 89.54,141.12 C89.55,141.12 89.56,141.12 89.58,141.12 C92.25,141.12 94.11,139.68 94.11,138.39 C94.11,137.29 95,136.39 96.11,136.39 C97.21,136.39 98.11,137.29 98.11,138.39 C98.11,142.15 94.37,145.11 89.59,145.12 C89.57,145.12 89.56,145.12 89.54,145.12" id="Fill-312" fill="#F5A623"></path>
            <path d="M57.07,145.12 C54.456,145.12 52.04,144.21 50.435,142.61 C49.253,141.44 48.603,139.95 48.603,138.42 C48.603,137.31 49.499,136.42 50.603,136.42 C51.708,136.42 52.603,137.31 52.603,138.42 C52.603,139 52.958,139.48 53.257,139.78 C54.105,140.62 55.529,141.12 57.07,141.12 C57.08,141.12 57.09,141.12 57.1,141.12 C58.68,141.12 60.13,140.6 60.98,139.74 C61.27,139.45 61.61,138.98 61.61,138.41 C61.6,137.3 62.49,136.4 63.59,136.39 C63.6,136.39 63.6,136.39 63.61,136.39 C64.71,136.39 65.6,137.27 65.61,138.37 C65.62,139.89 64.99,141.37 63.82,142.55 C62.21,144.18 59.77,145.12 57.12,145.12 C57.1,145.12 57.08,145.12 57.07,145.12" id="Fill-313" fill="#F5A623"></path>
            <path d="M34.654,48 C34.204,48 33.751,47.85 33.378,47.54 L29.596,44.4 C28.763,43.71 28.63,42.48 29.297,41.63 C29.964,40.78 31.188,40.61 32.06,41.25 C33.406,42.25 34.699,43.32 36.012,44.53 C36.808,45.27 36.874,46.5 36.16,47.32 C35.765,47.77 35.211,48 34.654,48" id="Fill-314" fill="#417505"></path>
            <path d="M47.966,62.86 L66.91,62.86 C67.18,62.12 67.4,61.38 67.61,60.65 C68,59.33 68.4,57.97 69.08,56.67 C68.4,47.91 65.89,33.29 56.93,27.47 C48.216,33.11 45.634,47.11 44.876,55.54 C45.76,57.08 46.379,58.72 47.031,60.45 C47.328,61.24 47.631,62.05 47.966,62.86 Z M68.25,66.86 L46.658,66.86 C45.878,66.86 45.169,66.4 44.842,65.7 C44.232,64.38 43.752,63.1 43.287,61.86 C42.625,60.11 42.001,58.45 41.141,57.09 C40.906,56.73 40.799,56.29 40.834,55.86 C42.543,35.01 49.965,26.72 55.89,23.43 C56.19,23.27 56.52,23.18 56.86,23.18 L56.99,23.18 C57.33,23.18 57.67,23.27 57.97,23.43 C69.53,29.86 72.42,47.21 73.12,56.98 C73.15,57.4 73.05,57.81 72.83,58.16 C72.21,59.19 71.86,60.39 71.45,61.78 C71.09,62.98 70.69,64.34 70.06,65.7 C69.73,66.41 69.02,66.86 68.25,66.86 Z" id="Fill-315" fill="#417505"></path>
            <path d="M48.899,33.2 C48.365,33.2 47.832,32.99 47.438,32.56 C46.992,32.09 46.557,31.64 46.111,31.21 C45.709,30.81 45.508,30.29 45.508,29.77 C45.508,29.27 45.698,28.77 46.078,28.38 C46.851,27.59 48.117,27.57 48.906,28.34 C49.395,28.82 49.871,29.31 50.359,29.83 C50.721,30.22 50.899,30.71 50.899,31.2 C50.898,31.73 50.686,32.27 50.265,32.66 C49.879,33.02 49.389,33.2 48.899,33.2" id="Fill-316" fill="#417505"></path>
            <path d="M43.671,29.02 C43.679,29.03 43.687,29.03 43.695,29.04 L45.089,27.61 L43.671,29.02 Z M45.089,29.61 C44.588,29.61 44.086,29.42 43.698,29.04 C43.168,28.66 42.881,28.05 42.881,27.43 C42.881,27.05 42.987,26.67 43.21,26.33 C43.817,25.41 45.057,25.15 45.98,25.76 C46.151,25.87 46.302,26 46.485,26.18 C46.888,26.57 47.089,27.09 47.089,27.61 C47.089,28.11 46.9,28.62 46.522,29 C46.13,29.41 45.61,29.61 45.089,29.61 Z" id="Fill-317" fill="#417505"></path>
            <path d="M70.22,62.86 L88.76,62.86 C90.13,58.74 94.75,46.98 104.89,38.32 C104.41,38.29 103.9,38.28 103.36,38.28 C95.49,38.28 81,41.55 70.22,62.86 Z M90.23,66.86 L67.04,66.86 C66.36,66.86 65.72,66.51 65.36,65.94 C64.99,65.37 64.94,64.65 65.22,64.03 C77.04,38.14 94.19,34.28 103.36,34.28 C107.58,34.28 110.32,35.09 110.43,35.12 C111.17,35.35 111.71,35.97 111.83,36.74 C111.95,37.5 111.61,38.26 110.97,38.69 C97.07,48.13 92.2,65.22 92.15,65.39 C91.92,66.25 91.13,66.86 90.23,66.86 Z" id="Fill-318" fill="#417505"></path>
        </g>
    </g>
</svg>