<?xml version="1.0" encoding="UTF-8"?>
<svg width="136px" height="186px" viewBox="0 0 136 186" version="1.1" xmlns="http://www.w3.org/2000/svg" xmlns:xlink="http://www.w3.org/1999/xlink">
    <!-- Generator: Sketch 48.2 (47327) - http://www.bohemiancoding.com/sketch -->
    <title>Raspberry</title>
    <desc>Created with Sketch.</desc>
    <defs></defs>
    <g id="Fruits" stroke="none" stroke-width="1" fill="none" fill-rule="evenodd" transform="translate(-1544.000000, -741.000000)">
        <g id="Raspberry" transform="translate(1544.000000, 741.000000)">
            <path d="M73.98,25.066 C73.93,25.066 73.87,25.064 73.82,25.059 C72.73,24.968 71.92,24.044 71.99,22.958 C72.01,22.51 72.48,18.106 79.81,1.495 C80.25,0.485 81.43,0.027 82.44,0.473 C83.46,0.918 83.91,2.099 83.47,3.11 C76.49,18.926 75.99,23.085 75.97,23.254 C75.87,24.282 75,25.066 73.98,25.066" id="Fill-401" fill="#417505"></path>
            <path d="M80.55,71.23 C79.75,71.23 78.99,70.74 78.68,69.94 C78.29,68.91 78.8,67.75 79.84,67.36 L81.48,66.73 C94.22,61.87 103.06,58.5 108.97,47.01 C102.63,49.08 92.84,52.01 89.85,51.42 C88.43,51.14 87.94,50.27 87.77,49.78 C87.28,48.35 88.19,47.29 89.34,45.95 C91.64,43.28 96.1,38.12 95.79,27.555 C94.91,28.71 93.89,29.99 92.75,31.28 C87.69,37.04 83.04,40.14 78.94,40.5 C77.95,40.6 77.03,39.92 76.81,38.95 C75.8,34.48 72.7,23.119 69.33,18.392 C65.95,23.118 62.84,34.48 61.83,38.95 C61.61,39.92 60.69,40.6 59.71,40.5 C55.61,40.14 50.96,37.04 45.9,31.28 C44.76,29.99 43.73,28.71 42.86,27.555 C42.56,38.1 47.01,43.27 49.31,45.94 C50.47,47.28 51.38,48.34 50.89,49.78 C50.68,50.38 50.15,51.16 48.8,51.42 C45.82,52.01 36.06,49.1 29.72,47.03 C35.23,56.87 45.96,62.1 55.04,65.61 C56.07,66.01 56.58,67.17 56.18,68.2 C55.79,69.23 54.63,69.74 53.6,69.34 C42.55,65.07 29.22,58.37 24.1,44.35 C23.83,43.62 24.01,42.81 24.55,42.26 C25.09,41.71 25.9,41.52 26.63,41.77 C33.25,44.06 40.92,46.35 45.14,47.19 C42.04,43.36 37.2,35.76 39.41,21.671 C39.53,20.847 40.16,20.189 40.98,20.021 C41.8,19.855 42.63,20.212 43.08,20.917 C45.46,24.711 52.45,34.13 58.39,36.15 C59.67,30.99 63.33,17.808 68.05,13.878 C68.79,13.26 69.87,13.259 70.61,13.879 C75.32,17.809 78.97,30.99 80.26,36.15 C86.21,34.13 93.19,24.713 95.56,20.919 C96,20.212 96.84,19.856 97.66,20.021 C98.48,20.188 99.1,20.845 99.23,21.669 C101.46,35.75 96.63,43.35 93.53,47.19 C97.75,46.35 105.41,44.06 112.02,41.77 C112.76,41.52 113.58,41.71 114.12,42.28 C114.66,42.84 114.82,43.67 114.53,44.4 C108.03,60.89 96.94,65.12 82.91,70.47 L81.27,71.09 C81.03,71.18 80.79,71.23 80.55,71.23" id="Fill-402" fill="#417505"></path>
            <path d="M84.65,153.08 C84.33,153.08 84.01,153.09 83.69,153.11 C79.84,153.35 76.32,155.08 73.77,157.97 C71.22,160.86 69.96,164.58 70.2,168.43 C70.7,176.33 77.54,182.46 85.52,181.94 C89.38,181.69 92.91,179.96 95.46,177.05 C98.01,174.16 99.27,170.45 99.02,166.61 C98.54,159.02 92.23,153.08 84.65,153.08 Z M84.58,185.97 C74.89,185.97 66.82,178.38 66.21,168.68 C65.9,163.76 67.52,159.02 70.77,155.33 C74.02,151.63 78.52,149.43 83.44,149.12 C83.84,149.09 84.24,149.08 84.65,149.08 C94.33,149.08 102.4,156.67 103.01,166.35 C103.33,171.26 101.72,176 98.47,179.7 C95.21,183.4 90.7,185.62 85.77,185.93 C85.37,185.96 84.97,185.97 84.58,185.97 Z" id="Fill-403" fill="#D0021B"></path>
            <path d="M84.65,153.08 C84.33,153.08 84.01,153.09 83.69,153.11 C79.84,153.35 76.32,155.08 73.77,157.97 C71.22,160.86 69.96,164.58 70.2,168.43 C70.7,176.33 77.54,182.46 85.52,181.94 C89.38,181.69 92.91,179.96 95.46,177.05 C98.01,174.16 99.27,170.45 99.02,166.61 C98.54,159.02 92.23,153.08 84.65,153.08 Z M84.58,185.97 C74.89,185.97 66.82,178.38 66.21,168.68 C65.9,163.76 67.52,159.02 70.77,155.33 C74.02,151.63 78.52,149.43 83.44,149.12 C83.84,149.09 84.24,149.08 84.65,149.08 C94.33,149.08 102.4,156.67 103.01,166.35 C103.33,171.26 101.72,176 98.47,179.7 C95.21,183.4 90.7,185.62 85.77,185.93 C85.37,185.96 84.97,185.97 84.58,185.97 Z" id="Fill-403" fill="#D0021B"></path>
            <path d="M33.2,124.27 C25.23,124.27 18.74,130.74 18.74,138.71 C18.74,146.68 25.23,153.16 33.2,153.16 C41.17,153.16 47.64,146.68 47.64,138.71 C47.64,130.74 41.17,124.27 33.2,124.27 Z M33.2,157.16 C23.02,157.16 14.74,148.88 14.74,138.71 C14.74,128.54 23.02,120.27 33.2,120.27 C43.37,120.27 51.64,128.54 51.64,138.71 C51.64,148.88 43.37,157.16 33.2,157.16 Z" id="Fill-404" fill="#D0021B"></path>
            <path d="M51.7,94.07 C43.73,94.07 37.24,100.55 37.24,108.51 C37.24,116.48 43.73,122.95 51.7,122.95 C59.65,122.95 66.13,116.48 66.13,108.51 C66.13,100.55 59.65,94.07 51.7,94.07 Z M51.7,126.95 C41.52,126.95 33.24,118.68 33.24,108.51 C33.24,98.35 41.52,90.07 51.7,90.07 C61.86,90.07 70.13,98.35 70.13,108.51 C70.13,118.68 61.86,126.95 51.7,126.95 Z" id="Fill-405" fill="#D0021B"></path>
            <path d="M66.79,63.74 C62.58,63.74 58.58,65.57 55.83,68.76 C53.58,71.38 52.33,74.74 52.33,78.2 C52.33,86.16 58.82,92.65 66.79,92.65 C74.75,92.65 81.22,86.16 81.22,78.2 C81.22,70.22 74.75,63.74 66.79,63.74 Z M66.79,96.65 C56.61,96.65 48.33,88.37 48.33,78.2 C48.33,73.78 49.92,69.5 52.8,66.15 C56.31,62.08 61.41,59.74 66.79,59.74 C76.96,59.74 85.22,68.02 85.22,78.2 C85.22,88.37 76.96,96.65 66.79,96.65 Z" id="Fill-406" fill="#D0021B"></path>
            <path d="M101.06,63.74 C93.09,63.74 86.61,70.22 86.61,78.2 C86.61,86.16 93.09,92.65 101.06,92.65 C109.03,92.65 115.51,86.16 115.51,78.2 C115.51,70.22 109.03,63.74 101.06,63.74 Z M101.06,96.65 C90.89,96.65 82.61,88.37 82.61,78.2 C82.61,68.02 90.89,59.74 101.06,59.74 C111.23,59.74 119.51,68.02 119.51,78.2 C119.51,88.37 111.23,96.65 101.06,96.65 Z" id="Fill-407" fill="#D0021B"></path>
            <path d="M86.65,140.41 C87.5,147.69 93.63,153.16 100.99,153.16 C108.97,153.16 115.46,146.68 115.46,138.71 C115.46,130.74 108.97,124.27 100.99,124.27 C93.51,124.27 87.23,130.07 86.62,137.5 C86.68,138.12 86.7,138.69 86.7,139.24 C86.7,139.64 86.68,140.01 86.65,140.39 L86.65,140.41 Z M100.99,157.16 C91.52,157.16 83.63,150.06 82.65,140.65 C82.64,140.53 82.64,140.42 82.64,140.3 L82.66,140.09 C82.68,139.81 82.7,139.53 82.7,139.24 C82.7,138.77 82.68,138.27 82.62,137.72 C82.61,137.61 82.61,137.49 82.62,137.38 C83.3,127.78 91.37,120.27 100.99,120.27 C111.17,120.27 119.46,128.54 119.46,138.71 C119.46,148.88 111.17,157.16 100.99,157.16 Z" id="Fill-408" fill="#D0021B"></path>
            <path d="M84.58,94.07 C76.61,94.07 70.13,100.55 70.13,108.51 C70.13,116.48 76.61,122.95 84.58,122.95 C92.55,122.95 99.03,116.48 99.03,108.51 C99.03,108.03 99,107.54 98.94,107 C98.18,99.62 92.01,94.07 84.58,94.07 Z M84.58,126.95 C74.4,126.95 66.13,118.68 66.13,108.51 C66.13,98.35 74.4,90.07 84.58,90.07 C94.07,90.07 101.95,97.17 102.92,106.57 C102.99,107.25 103.03,107.88 103.03,108.51 C103.03,118.68 94.75,126.95 84.58,126.95 Z" id="Fill-409" fill="#D0021B"></path>
            <path d="M110.04,120.87 C110.07,120.89 110.09,120.9 110.12,120.91 C110.18,120.94 110.24,120.98 110.3,121.01 C110.68,121.25 111.11,121.47 111.57,121.69 L111.67,121.74 C113.48,122.53 115.45,122.95 117.47,122.95 C125.44,122.95 131.92,116.48 131.92,108.51 C131.92,100.55 125.44,94.07 117.47,94.07 C109.51,94.07 103.03,100.55 103.03,108.51 C103.03,113.04 105.21,117.37 108.86,120.08 C109.24,120.37 109.63,120.62 110.04,120.87 Z M117.47,126.95 C114.89,126.95 112.38,126.42 109.99,125.37 L109.83,125.29 C109.36,125.06 108.84,124.81 108.33,124.5 C108.25,124.46 108.17,124.42 108.09,124.37 C107.53,124.02 106.98,123.68 106.45,123.27 C101.81,119.83 99.03,114.3 99.03,108.51 C99.03,98.35 107.3,90.07 117.47,90.07 C127.65,90.07 135.92,98.35 135.92,108.51 C135.92,118.68 127.65,126.95 117.47,126.95 Z" id="Fill-410" fill="#D0021B"></path>
            <path d="M24.55,66.23 C20.64,68.93 18.32,73.36 18.32,78.11 C18.32,86.08 24.8,92.56 32.76,92.56 C40.72,92.56 47.2,86.08 47.2,78.11 C47.2,73.58 45.14,69.41 41.53,66.65 C40.43,66.15 39.41,65.55 38.41,64.83 C34.49,63.17 30.04,63.33 26.27,65.23 C25.77,65.56 25.21,65.88 24.55,66.23 Z M32.76,96.56 C22.59,96.56 14.32,88.29 14.32,78.11 C14.32,71.99 17.34,66.29 22.39,62.85 C22.46,62.8 22.54,62.76 22.61,62.72 C23.23,62.41 23.71,62.13 24.13,61.85 C24.2,61.8 24.27,61.76 24.34,61.72 C26.95,60.38 29.86,59.67 32.76,59.67 C35.32,59.67 37.82,60.2 40.21,61.25 C40.34,61.31 40.47,61.38 40.59,61.47 C41.48,62.13 42.39,62.66 43.36,63.09 C43.5,63.15 43.63,63.22 43.75,63.31 C48.48,66.84 51.2,72.23 51.2,78.11 C51.2,88.29 42.93,96.56 32.76,96.56 Z" id="Fill-411" fill="#D0021B"></path>
            <path d="M50.33,152.82 C42.37,152.82 35.9,159.3 35.9,167.28 C35.9,175.23 42.37,181.7 50.33,181.7 C52.67,181.7 54.88,181.16 56.92,180.1 C57.53,179.8 58,179.53 58.42,179.23 C62.42,176.51 64.79,172.05 64.79,167.28 C64.79,159.3 58.31,152.82 50.33,152.82 Z M50.33,185.7 C40.17,185.7 31.9,177.43 31.9,167.28 C31.9,157.1 40.17,148.82 50.33,148.82 C60.51,148.82 68.79,157.1 68.79,167.28 C68.79,173.37 65.77,179.07 60.7,182.51 C60.13,182.92 59.49,183.29 58.72,183.67 C56.15,185.01 53.31,185.7 50.33,185.7 Z" id="Fill-412" fill="#D0021B"></path>
            <path d="M57.84,183.88 C57.1,183.88 56.39,183.46 56.05,182.76 C55.91,182.47 55.84,182.17 55.84,181.88 C55.84,181.14 56.25,180.43 56.96,180.08 C57.53,179.8 58,179.53 58.42,179.23 C59.32,178.59 60.57,178.8 61.21,179.7 C61.46,180.05 61.58,180.46 61.58,180.86 C61.58,181.48 61.28,182.1 60.73,182.49 C60.13,182.92 59.49,183.29 58.72,183.67 C58.44,183.81 58.14,183.88 57.84,183.88" id="Fill-413" fill="#D0021B"></path>
            <path d="M57.84,183.88 C57.15,183.88 56.47,183.51 56.11,182.87 C55.58,181.95 55.86,180.79 56.74,180.21 C57.33,179.81 57.98,179.44 58.65,179.08 C59.58,178.6 60.73,178.92 61.28,179.82 C61.83,180.71 61.59,181.88 60.73,182.49 C60.13,182.92 59.49,183.29 58.72,183.67 C58.44,183.81 58.14,183.88 57.84,183.88" id="Fill-414" fill="#D0021B"></path>
            <path d="M58.54,179.16 L59.42,180.96 L58.54,179.16 Z M59.42,182.96 C58.72,182.96 58.04,182.59 57.68,181.95 C57.16,181.03 57.43,179.87 58.31,179.29 C58.65,179.06 59,178.82 59.32,178.58 C59.77,178.22 60.36,178.09 60.93,178.2 C61.1,178.24 61.27,178.29 61.44,178.36 C62.21,178.6 62.77,179.28 62.85,180.09 C62.93,180.95 62.45,181.76 61.66,182.11 C61.29,182.27 60.94,182.42 60.59,182.59 C60.48,182.66 60.37,182.71 60.29,182.76 C60.01,182.89 59.71,182.96 59.42,182.96 Z" id="Fill-415" fill="#D0021B"></path>
            <path d="M57.97,183.81 C57.25,183.81 56.55,183.42 56.2,182.74 C55.68,181.77 56.05,180.57 57.01,180.05 C57.25,179.93 57.47,179.8 57.7,179.67 C57.91,179.55 58.12,179.42 58.32,179.28 C59.24,178.68 60.47,178.94 61.08,179.85 C61.69,180.76 61.45,181.99 60.54,182.61 C60.27,182.79 60,182.96 59.71,183.13 C59.44,183.29 59.16,183.44 58.88,183.59 C58.59,183.74 58.27,183.81 57.97,183.81" id="Fill-416" fill="#D0021B"></path>
            <path d="M57.84,183.88 C57.1,183.88 56.39,183.46 56.05,182.76 C55.91,182.47 55.84,182.17 55.84,181.88 C55.84,181.14 56.25,180.43 56.96,180.08 C57.53,179.8 58,179.53 58.42,179.23 C59.32,178.59 60.57,178.8 61.21,179.7 C61.46,180.05 61.58,180.46 61.58,180.86 C61.58,181.48 61.28,182.1 60.73,182.49 C60.13,182.92 59.49,183.29 58.72,183.67 C58.44,183.81 58.14,183.88 57.84,183.88" id="Fill-417" fill="#D0021B"></path>
            <path d="M57.84,183.88 C57.15,183.88 56.47,183.51 56.11,182.87 C55.58,181.95 55.86,180.79 56.74,180.21 C57.33,179.81 57.98,179.44 58.65,179.08 C59.58,178.6 60.73,178.92 61.28,179.82 C61.83,180.71 61.59,181.88 60.73,182.49 C60.13,182.92 59.49,183.29 58.72,183.67 C58.44,183.81 58.14,183.88 57.84,183.88" id="Fill-418" fill="#D0021B"></path>
            <path d="M18.8,94.39 C10.83,94.39 4.35,100.87 4.35,108.83 C4.35,116.79 10.83,123.27 18.8,123.27 C26.76,123.27 33.24,116.79 33.24,108.83 C33.24,100.87 26.76,94.39 18.8,94.39 Z M18.8,127.27 C8.63,127.27 0.35,118.99 0.35,108.83 C0.35,98.66 8.63,90.39 18.8,90.39 C28.97,90.39 37.24,98.66 37.24,108.83 C37.24,118.99 28.97,127.27 18.8,127.27 Z" id="Fill-419" fill="#D0021B"></path>
            <path d="M68.13,124.07 C60.17,124.07 53.7,130.56 53.7,138.53 C53.7,146.5 60.17,152.98 68.13,152.98 C76.09,152.98 82.58,146.5 82.58,138.53 C82.58,130.56 76.09,124.07 68.13,124.07 Z M68.13,156.98 C57.97,156.98 49.7,148.7 49.7,138.53 C49.7,128.35 57.97,120.07 68.13,120.07 C78.3,120.07 86.58,128.35 86.58,138.53 C86.58,148.7 78.3,156.98 68.13,156.98 Z" id="Fill-420" fill="#D0021B"></path>
        </g>
    </g>
</svg>