<?xml version="1.0" encoding="UTF-8"?>
<svg width="188px" height="141px" viewBox="0 0 188 141" version="1.1" xmlns="http://www.w3.org/2000/svg" xmlns:xlink="http://www.w3.org/1999/xlink">
    <!-- Generator: Sketch 48.2 (47327) - http://www.bohemiancoding.com/sketch -->
    <title>Red plum</title>
    <desc>Created with Sketch.</desc>
    <defs></defs>
    <g id="Fruits" stroke="none" stroke-width="1" fill="none" fill-rule="evenodd" transform="translate(-1862.000000, -99.000000)">
        <g id="Red-plum" transform="translate(1862.000000, 99.000000)" fill="#E6021E">
            <path d="M34.96,47.719 C34.04,47.719 33.2,47.073 33,46.132 C31.04,36.821 26.61,19.577 19.12,8.71 C18.49,7.801 18.72,6.556 19.63,5.928 C20.54,5.301 21.78,5.529 22.41,6.439 C30.3,17.88 34.89,35.7 36.92,45.304 C37.15,46.385 36.46,47.446 35.38,47.675 C35.24,47.705 35.1,47.719 34.96,47.719" id="Fill-276"></path>
            <path d="M37.04,139.692 C19.36,139.692 0.99,121.477 0.61,90.956 C0.61,90.908 0.6,90.859 0.6,90.81 L0.6,90.342 C0.6,89.24 1.5,88.345 2.6,88.342 C3.71,88.342 4.6,89.231 4.6,90.333 C4.74,118.726 21.2,135.692 37.04,135.692 C44.74,135.692 53.1,130.752 59.39,122.477 C60.06,121.599 61.32,121.427 62.2,122.095 C63.08,122.764 63.25,124.019 62.58,124.898 C55.54,134.162 45.99,139.692 37.04,139.692" id="Fill-277"></path>
            <path d="M2.6,92.342 C2.6,92.342 2.6,92.342 2.59,92.342 C1.49,92.336 0.6,91.435 0.6,90.331 C0.76,64.138 12.33,43.621 26.97,43.621 C30.53,43.621 33.95,44.826 37.15,47.208 C40.36,44.826 43.77,43.621 47.32,43.621 C58.67,43.621 68.71,56.452 72.3,75.548 C72.5,76.633 71.79,77.679 70.71,77.883 C69.62,78.091 68.57,77.372 68.37,76.287 C65.14,59.141 56.69,47.621 47.32,47.621 C44.27,47.621 41.28,48.854 38.45,51.286 C37.7,51.93 36.59,51.929 35.84,51.284 C33.02,48.854 30.03,47.621 26.97,47.621 C14.77,47.621 4.74,66.791 4.6,90.354 C4.6,91.455 3.7,92.342 2.6,92.342" id="Fill-278"></path>
            <path d="M26.16,71.622 C26.02,71.622 25.87,71.607 25.73,71.575 C24.65,71.338 23.97,70.271 24.21,69.192 C26.56,58.487 30.45,51.578 36.09,48.07 C37.03,47.487 38.26,47.774 38.85,48.713 C39.43,49.651 39.14,50.884 38.2,51.467 C33.52,54.376 30.22,60.455 28.11,70.051 C27.91,70.985 27.08,71.622 26.16,71.622" id="Fill-279"></path>
            <path d="M98.25,140.269 C68.99,140.269 48.59,120.958 48.59,103.626 C48.59,85.718 67.17,67.195 98.25,67.195 L98.71,67.195 C99.82,67.195 100.71,68.087 100.71,69.19 C100.72,70.293 99.83,71.19 98.72,71.195 C70.35,71.316 53.39,87.78 53.39,103.626 C53.39,118.965 72.02,136.142 98.74,136.264 C99.85,136.269 100.74,137.166 100.73,138.269 C100.73,139.372 99.84,140.264 98.73,140.264 L98.25,140.269" id="Fill-280"></path>
            <path d="M98.7,71.195 C70.35,71.316 53.39,87.78 53.39,103.626 C53.39,118.963 72.01,136.137 98.73,136.264 C122.28,136.137 141.43,126.114 141.43,113.917 C141.43,111.735 141.02,107.598 138.29,104.421 C137.65,103.672 137.65,102.564 138.29,101.814 C140.55,99.185 141.43,96.867 141.43,93.547 C141.43,81.345 122.26,71.318 98.7,71.195 Z M98.73,140.264 C98.73,140.264 98.73,140.264 98.72,140.264 C69.65,140.131 49.39,120.848 49.39,103.626 C49.39,85.822 67.84,67.327 98.71,67.195 C124.91,67.332 145.43,78.907 145.43,93.547 C145.43,97.276 144.49,100.228 142.34,103.145 C144.34,106.078 145.43,109.839 145.43,113.917 C145.43,128.554 124.92,140.127 98.74,140.264 C98.74,140.264 98.74,140.264 98.73,140.264 Z" id="Fill-281"></path>
            <path d="M143.28,113.96 C142.18,113.96 141.28,113.065 141.28,111.96 C141.28,106.665 137.41,99.367 118.95,94.678 C117.88,94.406 117.24,93.317 117.51,92.247 C117.78,91.176 118.87,90.53 119.94,90.801 C140.88,96.124 145.28,105.246 145.28,111.96 C145.28,113.065 144.38,113.96 143.28,113.96" id="Fill-282"></path>
            <path d="M37.15,51.769 C36.46,51.769 35.78,51.407 35.41,50.76 C30.38,41.95 30.17,30.554 34.84,20.276 C39.84,9.309 49.69,1.687 59.95,0.854 C60.13,0.84 60.32,0.851 60.5,0.886 L60.62,0.911 C61.09,1.005 61.52,1.268 61.81,1.65 C68.05,9.725 68.85,22.029 63.86,32.997 C61.1,39.075 56.89,44.154 51.69,47.682 C50.77,48.303 49.53,48.062 48.91,47.148 C48.29,46.234 48.53,44.991 49.44,44.371 C54.04,41.256 57.76,36.751 60.22,31.341 C64.43,22.093 64.03,11.87 59.27,4.948 C50.8,6.069 42.72,12.632 38.48,21.933 C34.34,31.043 34.49,41.079 38.88,48.777 C39.43,49.736 39.1,50.958 38.14,51.505 C37.83,51.684 37.49,51.769 37.15,51.769" id="Fill-283"></path>
            <path d="M152.8,107.412 C148.27,107.412 143.86,106.481 139.86,104.6 C138.86,104.13 138.43,102.938 138.9,101.939 C139.37,100.94 140.56,100.511 141.56,100.981 C149.58,104.753 159.6,104.111 168.36,99.263 C177.29,94.303 183.2,85.729 183.64,77.194 C176.37,72.996 166.15,73.406 157.26,78.336 C152.06,81.211 147.86,85.282 145.12,90.108 C144.58,91.07 143.36,91.406 142.4,90.86 C141.44,90.315 141.1,89.094 141.64,88.134 C144.75,82.666 149.48,78.067 155.32,74.836 C165.86,68.991 178.19,68.819 186.73,74.398 C187.14,74.665 187.44,75.072 187.57,75.542 L187.6,75.663 C187.65,75.836 187.67,76.017 187.67,76.197 C187.65,86.486 180.83,96.913 170.3,102.761 C164.72,105.848 158.67,107.412 152.8,107.412" id="Fill-284"></path>
            <path d="M183.18,121.593 C182.79,121.593 182.39,121.478 182.04,121.238 C171.25,113.772 153.97,109.329 144.63,107.344 C143.55,107.114 142.86,106.052 143.09,104.972 C143.32,103.892 144.38,103.202 145.46,103.431 C157.23,105.931 173.52,110.479 184.32,117.948 C185.23,118.576 185.46,119.822 184.83,120.73 C184.44,121.292 183.82,121.593 183.18,121.593" id="Fill-285"></path>
        </g>
    </g>
</svg>