<?xml version="1.0" encoding="UTF-8"?>
<svg width="76px" height="148px" viewBox="0 0 76 148" version="1.1" xmlns="http://www.w3.org/2000/svg" xmlns:xlink="http://www.w3.org/1999/xlink">
    <!-- Generator: Sketch 48.2 (47327) - http://www.bohemiancoding.com/sketch -->
    <title>Rose</title>
    <desc>Created with Sketch.</desc>
    <defs></defs>
    <g id="Floral-Icons" stroke="none" stroke-width="1" fill="none" fill-rule="evenodd" transform="translate(-508.000000, -188.000000)">
        <g id="Rose" transform="translate(508.000000, 188.000000)" fill="#D12B3F">
            <path d="M14.3469354,40.9142055 C15.4499584,41.3897513 16.629707,41.8068034 17.8595929,42.1684005 C20.7075498,60.0431477 28.8548794,71.6476798 38.762336,71.9758519 L38.762336,91.3068631 C37.2468187,87.5366816 34.7308322,83.5416414 30.5451179,80.4513536 C24.3455509,75.8766946 16.5666554,74.9164871 11.1328234,74.9164871 C6.9554653,74.9164871 4.04141811,75.471797 3.91911321,75.4953464 L2.89053659,75.6951364 L3.0037256,76.7366271 C3.07437377,77.3884135 4.85349226,92.7973116 15.5874565,100.718263 C19.8476172,103.862487 25.0018952,105.457008 30.9059553,105.457008 C30.906715,105.457008 30.906715,105.457008 30.906715,105.457008 C34.3107415,105.457008 37.1328701,104.915372 38.762336,104.512754 L38.762336,120.562043 C38.7592973,120.779305 38.7608166,120.939593 38.762336,121.032271 L38.762336,146.342549 C38.762336,146.971546 39.2720663,147.482036 39.9018226,147.482036 C40.5315789,147.482036 41.0413093,146.971546 41.0413093,146.342549 L41.0413093,122.581973 C42.6373502,122.973957 45.3743972,123.495082 48.6682732,123.495082 C54.4279984,123.495082 59.4554135,121.939303 63.6115012,118.871805 C74.0841431,111.143806 75.8184418,96.1162564 75.886811,95.4811825 L76,94.4389321 L74.9714234,94.2399017 C74.8521571,94.217112 72.0102774,93.6747164 67.9362328,93.6747164 C62.6376199,93.6747164 55.0509178,94.612134 49.004042,99.0751234 C44.9717785,102.050703 42.5264402,105.887734 41.0413093,109.525735 L41.0413093,102.903799 C41.0428286,102.81188 41.0435882,102.684257 41.0413093,102.515613 L41.0413093,71.8512681 C46.5761757,71.0771768 51.5694062,66.8413251 55.2484288,59.7066193 C56.0817734,58.0900676 56.8315556,56.35349 57.5046124,54.5151182 L57.7226341,54.2461993 C64.1850428,46.2629559 76.2149831,31.40405 75.0914493,21.446456 C74.0264091,12.0023906 56.6879803,6.19632631 53.1449365,5.10545776 C52.526575,4.64130686 51.8968187,4.21665817 51.2738994,3.84442586 C45.9593336,0.669056402 38.9750401,-0.0868030755 32.8704303,1.39680854 L32.8673917,1.38085573 C6.04159701,5.88182799 0.88200146,16.068079 0.194511182,21.7396839 C-0.705683271,29.1653385 4.98187442,36.8705472 14.3469354,40.9142055 Z M30.9074747,103.178035 L30.906715,103.178035 C25.499471,103.178035 20.8009877,101.733926 16.9411666,98.8844493 C8.57809429,92.7129896 6.03172146,81.1358053 5.42931285,77.5661734 C6.59842615,77.4081646 8.63886691,77.1954604 11.1328234,77.1954604 C16.2240497,77.1954604 23.4909359,78.0781828 29.1921674,82.2851675 C37.6129738,88.5022066 38.6309152,99.1503295 38.7479025,102.161613 C37.4131838,102.52245 34.4922997,103.178035 30.9074747,103.178035 Z M50.3569924,100.908937 C55.9055328,96.8136222 62.9794659,95.9536897 67.9362328,95.9536897 C70.3443479,95.9536897 72.3171792,96.1572779 73.4612237,96.3107288 C72.8656521,99.819588 70.3777729,111.04581 62.257791,117.037231 C58.502043,119.809982 53.9296629,121.216109 48.6682732,121.216109 C45.2110707,121.216109 42.3699507,120.583314 41.0565024,120.231592 C41.1742494,117.268167 42.1823152,106.94138 50.3569924,100.908937 Z M20.2684677,42.784483 C22.4114622,43.2379986 24.6866372,43.494763 27.0347394,43.4940033 C34.4998962,43.4940033 42.6966035,40.8906561 49.7150816,33.8326758 C49.5464376,40.6437674 48.0901737,57.0250274 38.6316748,69.6908014 C30.1303448,69.2509595 23.0359009,58.8428885 20.2684677,42.784483 Z M53.2224215,58.6620899 C50.1085844,64.7013692 46.0535312,68.4297695 41.6194088,69.4302388 C51.9788618,54.2765856 52.1193985,35.4940474 52.0100077,31.3288438 C52.0153254,31.3220069 52.0214026,31.3166893 52.0274799,31.3098524 C52.3275447,30.949015 52.3761628,30.4415636 52.1497848,30.0305887 C51.9234068,29.6196139 51.4676121,29.3924762 51.0027015,29.4509698 C44.1969276,30.347366 38.5314,30.1779623 33.6042597,28.9100935 C32.7139408,26.3697979 32.9152501,22.7105265 33.2578558,20.0129818 C33.8769769,20.7452918 34.6495488,21.4039151 35.5641768,21.9508687 C40.9691418,25.1809335 48.8817371,25.2766504 53.9699248,22.1749678 C56.1364687,20.8539229 57.4172517,19.4234873 58.1533601,18.0667386 C58.9798678,21.8316024 59.2920871,26.7260774 59.2936064,28.2074101 C59.296645,40.247226 57.1407363,51.0624736 53.2224215,58.6620899 Z M72.8261499,21.701701 C73.6807648,29.2724503 65.6002852,40.6316128 59.2867695,48.6498006 C60.7924112,42.5976071 61.574099,35.7052322 61.5725797,28.2058908 C61.5725797,28.103337 61.3218926,17.57524 58.9449235,13.366736 C58.6873995,11.7593001 57.9497718,10.2339073 56.9325901,8.8513302 C63.4603293,11.4326473 72.1948742,16.0984653 72.8261499,21.701701 Z M25.6035441,7.48774451 C27.6713326,5.6676045 30.3020274,4.37770562 33.1674565,3.64159724 C33.1940445,3.63779895 33.2183536,3.633241 33.244182,3.62868306 L33.2434223,3.6226058 C38.8033575,2.21495996 45.2262639,2.88573776 50.1047861,5.80054461 C50.7527741,6.18797007 51.358981,6.60350287 51.929484,7.03726745 L51.9074539,7.11323323 C51.9712652,7.13146502 52.0419134,7.15349509 52.1080036,7.17248654 C54.9871065,9.41803489 56.7647057,12.172554 56.7753409,14.5707935 C56.7852165,16.7039125 55.4421415,18.6083745 52.784099,20.2294842 C48.4380969,22.8784109 41.3877132,22.7758571 36.7332901,19.99475 C35.0346953,18.9798472 34.0220715,17.5828366 33.8822945,16.0604824 C33.7569509,14.6923388 34.3753124,13.333311 35.625709,12.2333266 C37.8780943,10.2483408 42.1116671,9.96574814 44.8692247,11.6149652 C45.8415867,12.1953437 46.4189266,12.9785508 46.4964117,13.8187323 C46.5647809,14.5601583 46.2176173,15.3076616 45.5179725,15.9229843 C44.1984469,17.0852607 41.7090484,17.2455485 40.0818615,16.2739462 C39.5842857,15.9761604 39.2773839,15.5773401 39.2409204,15.180039 C39.2006585,14.7424762 39.4840108,14.3930336 39.7293803,14.1772908 L38.222979,12.4673012 C37.3159476,13.2664611 36.8715478,14.3041536 36.971063,15.3889449 C37.0751361,16.5193157 37.7831371,17.5547292 38.9135079,18.2308246 C41.3983484,19.7144363 44.9611433,19.4515947 47.0243738,17.632974 C48.2838864,16.5246333 48.9022478,15.095717 48.7662691,13.6098264 C48.6226938,12.0487297 47.6283018,10.6084186 46.0390977,9.65808675 C42.3859035,7.47483033 37.1503422,7.85389955 34.1193077,10.5233369 C32.3591807,12.0722791 31.4779776,14.0443507 31.6086388,16.0939073 C31.3670676,17.1855356 30.0900829,23.3972571 31.0426937,28.1284057 C30.0361472,27.7706069 29.057708,27.3679882 28.1096551,26.906876 C23.6899662,24.7562848 20.9962198,21.6523232 20.5244723,18.1662537 C20.0405703,14.5905446 21.8439979,10.7983331 25.6035441,7.48774451 Z M2.45753167,22.0139203 C3.31898357,14.9073219 11.1723256,9.08834342 24.3797355,5.53390474 C24.2847783,5.61442846 24.1905807,5.69571184 24.0979024,5.77775488 C19.7473424,9.60794934 17.6765154,14.1157585 18.2660098,18.4716361 C18.8433497,22.7378742 21.9852942,26.4617165 27.1122245,28.9564326 C32.9084132,31.7747629 39.8645994,32.7904254 48.3043972,32.0421625 C37.707931,42.9166634 24.4663365,42.8004358 15.2501684,38.8213484 C6.82024622,35.1825877 1.67964211,28.4277108 2.45753167,22.0139203 Z" id="Fill-48"></path>
        </g>
    </g>
</svg>