<?xml version="1.0" encoding="UTF-8"?>
<svg width="138px" height="182px" viewBox="0 0 138 182" version="1.1" xmlns="http://www.w3.org/2000/svg" xmlns:xlink="http://www.w3.org/1999/xlink">
    <!-- Generator: Sketch 48.2 (47327) - http://www.bohemiancoding.com/sketch -->
    <title>Strawberry</title>
    <desc>Created with Sketch.</desc>
    <defs></defs>
    <g id="Fruits" stroke="none" stroke-width="1" fill="none" fill-rule="evenodd" transform="translate(-121.000000, -408.000000)">
        <g id="Strawberry" transform="translate(121.000000, 408.000000)">
            <path d="M117.944,52.338 C129.594,57.845 137.672,69.712 137.672,83.43 C137.672,97.799 127.401,117.272 118.785,131.078 C107.889,148.536 95.033,164.449 87.334,172.771 C82.703,177.746 76.158,180.917 69.374,181.476 C69.319,181.48 69.264,181.482 69.209,181.482 C69.155,181.482 69.1,181.48 69.045,181.476 C62.27,180.916 55.736,177.744 51.12,172.773 C43.417,164.451 30.558,148.539 19.659,131.078 C11.041,117.272 0.768,97.799 0.768,83.43 C0.768,69.422 9.19,57.345 21.235,51.997 L22.108,55.999 C11.864,60.883 4.769,71.343 4.768,83.43 C4.768,108.396 38.614,153.371 54.053,170.054 C57.959,174.26 63.476,176.959 69.209,177.475 C74.954,176.959 80.483,174.259 84.402,170.05 C99.834,153.368 133.672,108.39 133.672,83.43 C133.672,71.699 126.986,61.5 117.225,56.444 L117.944,52.338" id="Fill-350" fill="#D0021B"></path>
            <path d="M117.228,84.493 C116.125,84.493 115.23,83.6 115.228,82.497 L115.215,75.171 C115.213,74.066 116.107,73.169 117.212,73.167 C117.213,73.167 117.214,73.167 117.215,73.167 C118.318,73.167 119.213,74.061 119.215,75.164 L119.228,82.49 C119.23,83.594 118.336,84.491 117.231,84.493 C117.23,84.493 117.229,84.493 117.228,84.493" id="Fill-351" fill="#D0021B"></path>
            <path d="M57.592,110.93 C56.489,110.93 55.594,110.037 55.592,108.934 L55.58,101.585 C55.578,100.481 56.472,99.584 57.576,99.582 C57.577,99.582 57.579,99.582 57.58,99.582 C58.683,99.582 59.578,100.475 59.58,101.579 L59.592,108.927 C59.594,110.031 58.7,110.928 57.596,110.93 C57.595,110.93 57.593,110.93 57.592,110.93" id="Fill-352" fill="#D0021B"></path>
            <path d="M34.006,110.93 C32.904,110.93 32.009,110.038 32.006,108.935 L31.991,101.586 C31.988,100.482 32.882,99.584 33.986,99.582 C33.988,99.582 33.989,99.582 33.991,99.582 C35.093,99.582 35.988,100.475 35.991,101.578 L36.006,108.926 C36.009,110.03 35.115,110.928 34.011,110.93 C34.009,110.93 34.008,110.93 34.006,110.93" id="Fill-353" fill="#D0021B"></path>
            <path d="M105.214,110.93 C104.112,110.93 103.217,110.038 103.214,108.935 L103.196,101.587 C103.193,100.482 104.086,99.585 105.191,99.582 C105.192,99.582 105.194,99.582 105.196,99.582 C106.298,99.582 107.193,100.474 107.196,101.577 L107.214,108.925 C107.217,110.03 106.324,110.927 105.219,110.93 C105.218,110.93 105.216,110.93 105.214,110.93" id="Fill-354" fill="#D0021B"></path>
            <path d="M81.64,110.93 C80.537,110.93 79.642,110.037 79.64,108.934 L79.627,101.585 C79.625,100.481 80.52,99.584 81.624,99.582 C81.625,99.582 81.626,99.582 81.627,99.582 C82.73,99.582 83.625,100.475 83.627,101.579 L83.64,108.927 C83.642,110.031 82.748,110.928 81.644,110.93 C81.643,110.93 81.641,110.93 81.64,110.93" id="Fill-355" fill="#D0021B"></path>
            <path d="M45.416,136.857 C44.312,136.857 43.417,135.963 43.416,134.859 L43.409,127.517 C43.408,126.412 44.302,125.516 45.407,125.515 C45.407,125.515 45.408,125.515 45.409,125.515 C46.513,125.515 47.408,126.409 47.409,127.513 L47.416,134.855 C47.417,135.959 46.522,136.856 45.417,136.857 L45.416,136.857" id="Fill-356" fill="#D0021B"></path>
            <path d="M93.043,136.857 C91.942,136.857 91.047,135.966 91.043,134.864 L91.018,127.521 C91.014,126.417 91.907,125.519 93.011,125.515 C93.014,125.515 93.016,125.515 93.018,125.515 C94.12,125.515 95.014,126.405 95.018,127.508 L95.043,134.85 C95.047,135.955 94.155,136.853 93.05,136.857 C93.048,136.857 93.045,136.857 93.043,136.857" id="Fill-357" fill="#D0021B"></path>
            <path d="M69.463,136.857 C68.362,136.857 67.467,135.966 67.463,134.864 L67.438,127.521 C67.434,126.417 68.327,125.519 69.431,125.515 C69.434,125.515 69.436,125.515 69.438,125.515 C70.54,125.515 71.434,126.405 71.438,127.508 L71.463,134.85 C71.467,135.955 70.575,136.853 69.47,136.857 C69.468,136.857 69.465,136.857 69.463,136.857" id="Fill-358" fill="#D0021B"></path>
            <path d="M69.222,164.708 C68.119,164.708 67.224,163.815 67.222,162.712 L67.209,155.382 C67.208,154.277 68.102,153.38 69.206,153.378 C69.207,153.378 69.208,153.378 69.209,153.378 C70.313,153.378 71.208,154.271 71.209,155.375 L71.222,162.705 C71.224,163.81 70.33,164.707 69.226,164.708 C69.225,164.708 69.223,164.708 69.222,164.708" id="Fill-359" fill="#D0021B"></path>
            <path d="M22.452,84.493 C21.35,84.493 20.455,83.602 20.452,82.5 L20.428,75.174 C20.425,74.069 21.317,73.171 22.422,73.167 C22.424,73.167 22.426,73.167 22.428,73.167 C23.53,73.167 24.425,74.059 24.428,75.161 L24.452,82.487 C24.455,83.591 23.563,84.49 22.458,84.493 C22.456,84.493 22.454,84.493 22.452,84.493" id="Fill-360" fill="#D0021B"></path>
            <path d="M69.208,43.705 C68.132,43.705 67.244,42.85 67.21,41.767 C67.183,40.865 66.673,19.47 79.461,0.963 C80.089,0.054 81.335,-0.174 82.244,0.455 C83.153,1.083 83.38,2.328 82.752,3.237 C70.733,20.631 71.203,41.437 71.208,41.645 C71.241,42.748 70.374,43.67 69.27,43.704 C69.25,43.704 69.229,43.705 69.208,43.705" id="Fill-361" fill="#417505"></path>
            <path d="M58.197,60.262 C59.124,60.262 59.939,60.903 60.147,61.822 C61.353,67.164 65.12,80.909 69.209,86.274 C73.297,80.907 77.066,67.162 78.272,61.821 C78.492,60.848 79.402,60.198 80.391,60.269 C88.053,60.913 96.1,70.209 100.39,75.972 C101.043,62.907 95.595,56.591 92.815,53.369 C91.485,51.827 90.524,50.713 91.036,49.222 C91.248,48.603 91.797,47.804 93.208,47.521 C93.562,47.451 93.952,47.417 94.405,47.417 C98.75,47.417 109.944,50.871 116.208,52.922 C107.164,34.329 87.529,30.829 69.209,29.976 C50.891,30.829 31.257,34.329 22.207,52.923 C28.474,50.872 39.676,47.417 44.016,47.417 C44.469,47.417 44.858,47.451 45.207,47.52 C46.624,47.804 47.174,48.603 47.387,49.223 C47.899,50.715 46.937,51.831 45.605,53.374 C42.827,56.597 37.379,62.914 38.03,75.972 C42.321,70.208 50.367,60.913 58.028,60.269 C58.085,60.264 58.141,60.262 58.197,60.262 Z M69.209,91.191 C68.754,91.191 68.3,91.037 67.929,90.728 C62.389,86.109 58.097,70.311 56.69,64.584 C49.569,66.728 41.14,78.066 38.301,82.596 C37.857,83.302 37.019,83.659 36.205,83.493 C35.387,83.325 34.759,82.668 34.63,81.844 C31.936,64.659 38.3,55.832 41.822,51.645 C35.926,52.625 23.987,56.498 19.29,58.12 C18.562,58.372 17.751,58.181 17.21,57.63 C16.669,57.08 16.494,56.268 16.759,55.542 C25.703,31.063 49.438,26.883 69.117,25.976 C69.179,25.973 69.24,25.973 69.302,25.976 C88.913,26.88 112.551,31.035 121.561,55.285 C121.711,55.566 121.797,55.888 121.797,56.229 C121.797,57.333 120.901,58.229 119.797,58.229 C119.791,58.229 119.784,58.229 119.776,58.229 C119.558,58.229 119.337,58.193 119.124,58.119 C114.431,56.498 102.504,52.626 96.604,51.646 C100.127,55.833 106.484,64.659 103.79,81.844 C103.661,82.668 103.033,83.325 102.215,83.493 C101.399,83.661 100.563,83.303 100.119,82.596 C97.279,78.066 88.85,66.727 81.728,64.583 C80.32,70.31 76.025,86.108 70.491,90.727 C70.12,91.037 69.665,91.191 69.209,91.191 Z" id="Fill-362" fill="#417505"></path>
        </g>
    </g>
</svg>