<?xml version="1.0" encoding="UTF-8"?>
<svg width="130px" height="133px" viewBox="0 0 130 133" version="1.1" xmlns="http://www.w3.org/2000/svg" xmlns:xlink="http://www.w3.org/1999/xlink">
    <!-- Generator: Sketch 48.2 (47327) - http://www.bohemiancoding.com/sketch -->
    <title>Toast</title>
    <desc>Created with Sketch.</desc>
    <defs></defs>
    <g id="Bread-and-pastry" stroke="none" stroke-width="1" fill="none" fill-rule="evenodd" transform="translate(-782.000000, -230.000000)">
        <g id="Toast" transform="translate(782.000000, 230.000000)" fill="#885A0E">
            <path d="M45.5,95 C44.1227735,95 43,93.8772265 43,92.5 C43,91.1227735 44.1227735,90 45.5,90 C46.8772265,90 48,91.1227735 48,92.5 C48,93.8772265 46.8772265,95 45.5,95" id="Fill-166"></path>
            <path d="M62.5015913,105 C61.1234882,105 60,103.879694 60,102.501591 C60,101.120306 61.1234882,100 62.5015913,100 C63.8796945,100 65,101.120306 65,102.501591 C65,103.879694 63.8796945,105 62.5015913,105" id="Fill-167"></path>
            <path d="M57.5,79 C56.1227735,79 55,77.8765118 55,76.4984087 C55,75.1203055 56.1227735,74 57.5,74 C58.8804071,74 60,75.1203055 60,76.4984087 C60,77.8765118 58.8804071,79 57.5,79" id="Fill-168"></path>
            <path d="M72.5015913,76 C71.1234882,76 70,74.8796945 70,73.5015913 C70,72.1203055 71.1234882,71 72.5015913,71 C73.8796945,71 75,72.1203055 75,73.5015913 C75,74.8796945 73.8796945,76 72.5015913,76" id="Fill-169"></path>
            <path d="M42.5031807,67 C41.1227735,67 40,65.8765118 40,64.4984087 C40,63.1203055 41.1227735,62 42.5031807,62 C43.8804071,62 45,63.1203055 45,64.4984087 C45,65.8765118 43.8804071,67 42.5031807,67" id="Fill-170"></path>
            <path d="M68.5015913,46 C67.1234882,46 66,44.8765118 66,43.4984087 C66,42.1203055 67.1234882,41 68.5015913,41 C69.8796945,41 71,42.1203055 71,43.4984087 C71,44.8765118 69.8796945,46 68.5015913,46" id="Fill-171"></path>
            <path d="M77.5015913,59 C76.1234882,59 75,57.8765118 75,56.4984087 C75,55.1203055 76.1234882,54 77.5015913,54 C78.8796945,54 80,55.1203055 80,56.4984087 C80,57.8765118 78.8796945,59 77.5015913,59" id="Fill-172"></path>
            <path d="M87.5031807,38 C86.1227735,38 85,36.8765118 85,35.4984087 C85,34.1203055 86.1227735,33 87.5031807,33 C88.8804071,33 90,34.1203055 90,35.4984087 C90,36.8765118 88.8804071,38 87.5031807,38" id="Fill-173"></path>
            <path d="M101.501591,40 C100.123488,40 99,38.8772265 99,37.5 C99,36.1227735 100.123488,35 101.501591,35 C102.879694,35 104,36.1227735 104,37.5 C104,38.8772265 102.879694,40 101.501591,40" id="Fill-174"></path>
            <path d="M87.5031807,71 C86.1227735,71 85,69.8765118 85,68.4984087 C85,67.1203055 86.1227735,66 87.5031807,66 C88.8804071,66 90,67.1203055 90,68.4984087 C90,69.8765118 88.8804071,71 87.5031807,71" id="Fill-175"></path>
            <path d="M89.5015913,101 C88.1234882,101 87,99.8765118 87,98.4984087 C87,97.1203055 88.1234882,96 89.5015913,96 C90.8796945,96 92,97.1203055 92,98.4984087 C92,99.8765118 90.8796945,101 89.5015913,101" id="Fill-176"></path>
            <path d="M71.5015913,119 C70.1234882,119 69,117.877226 69,116.5 C69,115.122774 70.1234882,114 71.5015913,114 C72.8796945,114 74,115.122774 74,116.5 C74,117.877226 72.8796945,119 71.5015913,119" id="Fill-177"></path>
            <path d="M89.5015913,114 C88.1234882,114 87,112.879694 87,111.501591 C87,110.120306 88.1234882,109 89.5015913,109 C90.8796945,109 92,110.120306 92,111.501591 C92,112.879694 90.8796945,114 89.5015913,114" id="Fill-178"></path>
            <path d="M44.5015913,117 C43.1234882,117 42,115.876512 42,114.498409 C42,113.120306 43.1234882,112 44.5015913,112 C45.8796945,112 47,113.120306 47,114.498409 C47,115.876512 45.8796945,117 44.5015913,117" id="Fill-179"></path>
            <path d="M29.5,80 C28.1227735,80 27,78.8772265 27,77.5 C27,76.1227735 28.1227735,75 29.5,75 C30.8804071,75 32,76.1227735 32,77.5 C32,78.8772265 30.8804071,80 29.5,80" id="Fill-180"></path>
            <path d="M74.5,95 C73.1227735,95 72,93.8772265 72,92.5 C72,91.1227735 73.1227735,90 74.5,90 C75.8804071,90 77,91.1227735 77,92.5 C77,93.8772265 75.8804071,95 74.5,95" id="Fill-181"></path>
            <path d="M91.5,80 C90.1227735,80 89,78.8772265 89,77.5 C89,76.1227735 90.1227735,75 91.5,75 C92.8804071,75 94,76.1227735 94,77.5 C94,78.8772265 92.8804071,80 91.5,80" id="Fill-182"></path>
            <path d="M94.5015913,51 C93.1234882,51 92,49.8796945 92,48.5015913 C92,47.1203055 93.1234882,46 94.5015913,46 C95.8796945,46 97,47.1203055 97,48.5015913 C97,49.8796945 95.8796945,51 94.5015913,51" id="Fill-183"></path>
            <path d="M43.5015913,44 C42.1234882,44 41,42.8796945 41,41.5015913 C41,40.1203055 42.1234882,39 43.5015913,39 C44.8796945,39 46,40.1203055 46,41.5015913 C46,42.8796945 44.8796945,44 43.5015913,44" id="Fill-184"></path>
            <path d="M68.5015913,32 C67.1234882,32 66,30.8765118 66,29.4984087 C66,28.1203055 67.1234882,27 68.5015913,27 C69.8796945,27 71,28.1203055 71,29.4984087 C71,30.8765118 69.8796945,32 68.5015913,32" id="Fill-185"></path>
            <path d="M19.5031807,44 C18.1227735,44 17,42.8796945 17,41.5015913 C17,40.1203055 18.1227735,39 19.5031807,39 C20.8804071,39 22,40.1203055 22,41.5015913 C22,42.8796945 20.8804071,44 19.5031807,44" id="Fill-186"></path>
            <path d="M28.5015913,34 C27.1234882,34 26,32.8796945 26,31.5015913 C26,30.1234882 27.1234882,29 28.5015913,29 C29.8796945,29 31,30.1234882 31,31.5015913 C31,32.8796945 29.8796945,34 28.5015913,34" id="Fill-187"></path>
            <path d="M54.5015913,57 C53.1234882,57 52,55.8796945 52,54.5015913 C52,53.1234882 53.1234882,52 54.5015913,52 C55.8796945,52 57,53.1234882 57,54.5015913 C57,55.8796945 55.8796945,57 54.5015913,57" id="Fill-188"></path>
            <path d="M60.5015913,40 C59.1234882,40 58,38.8772265 58,37.5 C58,36.1227735 59.1234882,35 60.5015913,35 C61.8796945,35 63,36.1227735 63,37.5 C63,38.8772265 61.8796945,40 60.5015913,40" id="Fill-189"></path>
            <path d="M30.5015913,59 C29.1203055,59 28,57.8796945 28,56.4984087 C28,55.1203055 29.1203055,54 30.5015913,54 C31.8796945,54 33,55.1203055 33,56.4984087 C33,57.8796945 31.8796945,59 30.5015913,59" id="Fill-190"></path>
            <path d="M44.5015913,29 C43.1234882,29 42,27.8796945 42,26.5015913 C42,25.1203055 43.1234882,24 44.5015913,24 C45.8796945,24 47,25.1203055 47,26.5015913 C47,27.8796945 45.8796945,29 44.5015913,29" id="Fill-191"></path>
            <path d="M29.5,109 C28.1227735,109 27,107.879694 27,106.498409 C27,105.120306 28.1227735,104 29.5,104 C30.8804071,104 32,105.120306 32,106.498409 C32,107.879694 30.8804071,109 29.5,109" id="Fill-192"></path>
            <path d="M58.99937,128.388225 C67.0069535,128.388225 84.2018387,129.18955 93.7384423,129.665025 C97.1820328,129.88115 100.223596,126.7623 100.460858,122.80555 L104.860086,49.76195 C104.90622,49.0105 105.449945,48.382075 106.184797,48.23245 C109.602026,47.544175 112.561207,44.60155 113.915576,40.5517 C115.889461,34.63985 114.103408,27.7305 109.137388,22.061375 C99.1723951,10.6799 79.4928523,3.325 58.99937,3.325 C38.5058876,3.325 18.8263448,10.6799 8.86135197,22.061375 C3.82283541,27.813625 2.08291602,34.5534 4.08316425,40.5517 C5.43753332,44.60155 8.40000971,47.544175 11.8139424,48.23245 C12.5487948,48.382075 13.0925196,49.0105 13.1353585,49.76195 L17.5345865,122.80555 C17.7685529,126.6559 20.6321703,129.675 23.980197,129.675 C24.0724654,129.675 24.1647339,129.671675 24.2602976,129.665025 C35.9487334,129.08315 51.4630146,128.388225 58.99937,128.388225 Z M94.018543,133 C93.8702544,133 93.7252611,132.99335 93.5769725,132.990025 C84.0700266,132.511225 66.9344569,131.713225 58.99937,131.713225 C51.5322159,131.713225 36.0739548,132.404825 24.4217674,132.990025 C19.1031502,133.1995 14.5951772,128.7706 14.2458752,123.008375 L9.91914387,51.1651 C5.89558028,49.8617 2.52778177,46.307275 0.96251338,41.612375 C-1.39362746,34.563375 0.636278495,26.430425 6.38987556,19.860225 C16.9513181,7.7938 37.6029749,0 58.99937,0 C80.3924697,0 101.044127,7.7938 111.608864,19.860225 C117.362461,26.430425 119.392367,34.563375 117.039522,41.612375 C115.470958,46.307275 112.10316,49.8617 108.079596,51.1651 L103.749569,123.008375 C103.416744,128.611 99.0933078,132.996675 94.018543,133 Z" id="Fill-193"></path>
            <path d="M107.33907,31 C106.861207,31 106.383344,30.7903866 106.054814,30.3813024 C101.350895,24.5133217 94.3179658,19.7011731 86.0403952,16.3873781 C78.0312962,13.1810614 68.8569831,11.3774805 59.4997006,11.3774805 C40.4747906,11.3774805 22.1998595,18.8356607 12.9412691,30.3813024 C12.3605331,31.1048067 11.3152084,31.2062325 10.6083697,30.6179627 C9.89821263,30.0296928 9.7953394,28.9647214 10.3760754,28.2412171 C20.2353127,15.9450243 39.5190651,8 59.4997006,8 C79.4836546,8 98.7640885,15.9450243 108.626644,28.2412171 C109.204062,28.9647214 109.101189,30.0296928 108.391032,30.6179627 C108.082412,30.8749081 107.710741,31 107.33907,31" id="Fill-194"></path>
            <path d="M101.34752,133 C99.4543602,133 97.0936719,132.976734 94.4169083,132.900287 C93.511484,132.870374 92.7937294,132.109234 92.820069,131.188554 C92.8497011,130.271198 93.6530594,129.536649 94.5123894,129.576534 C101.340935,129.775959 106.101821,129.616419 106.147915,129.616419 C109.693887,129.739398 112.75916,126.714782 112.999509,122.759515 L117.394932,49.7432963 C117.437734,48.992128 117.980989,48.3639385 118.715206,48.2143696 C123.759242,47.197301 127.305213,40.6760965 126.620383,33.6795952 C125.184874,19.005223 107.096142,3.32375359 60.6462261,3.32375359 C59.7375093,3.32375359 59,2.57923279 59,1.6618768 C59,0.741197051 59.7375093,0 60.6462261,0 C109.2955,0 128.315996,17.2303386 129.896373,33.3505435 C130.706316,41.5967762 126.689525,49.1051356 120.608366,51.1425965 L116.285376,122.962264 C115.939668,128.728977 111.346698,133.21272 106.121576,132.940172 C106.151208,132.940172 104.340359,133 101.34752,133" id="Fill-195"></path>
            <path d="M118.379254,52 L107.620746,52 C106.726094,52 106,51.104 106,50 C106,48.892 106.726094,48 107.620746,48 L118.379254,48 C119.273906,48 120,48.892 120,50 C120,51.104 119.273906,52 118.379254,52" id="Fill-196"></path>
        </g>
    </g>
</svg>