<?xml version="1.0" encoding="UTF-8"?>
<svg width="112px" height="131px" viewBox="0 0 112 131" version="1.1" xmlns="http://www.w3.org/2000/svg" xmlns:xlink="http://www.w3.org/1999/xlink">
    <!-- Generator: Sketch 48.2 (47327) - http://www.bohemiancoding.com/sketch -->
    <title>Tomato leaf and black currant leaf</title>
    <desc>Created with Sketch.</desc>
    <defs></defs>
    <g id="Fruits" stroke="none" stroke-width="1" fill="none" fill-rule="evenodd" transform="translate(-1868.000000, -783.000000)">
        <g id="Tomato-leaf-and-black-currant-leaf" transform="translate(1868.000000, 783.000000)" fill="#417505">
            <path d="M35.2721624,99.0667236 C38.0093101,99.4182436 41.09549,100.036624 44.4572218,100.715739 C51.2725358,102.085011 58.9879856,103.638324 66.9789872,103.638324 C80.3156934,103.638324 90.474369,99.2820526 98.5755913,90.0063411 L87.0758971,86.1598655 C85.7532485,85.7163245 84.7980023,84.5642223 84.595931,83.1820676 C84.4122299,81.7980726 85.0184438,80.4232796 86.1573911,79.6337399 C86.2676118,79.5527615 95.8200735,72.9474979 101.771992,66.1269053 C96.665099,65.3281634 90.2539276,64.0490723 87.6086305,62.3761314 C86.7084947,61.8037611 86.1022808,60.8633071 85.9369497,59.8013853 C85.7899888,58.7394636 86.1022808,57.6609781 86.8003453,56.8511938 C87.5167799,56.0101223 103.406933,36.9709883 90.4376288,11.7572487 L35.2721624,99.0667236 Z M66.9789872,111 C58.2531809,111 49.8029263,109.299453 43.0243525,107.933862 C38.1930113,106.963961 34.0413645,106.126571 31.1205156,106.126571 C30.4224511,106.126571 29.8529774,106.174422 29.3753543,106.264602 C27.9424851,106.544346 26.4728756,105.94805 25.6462202,104.744416 C24.8195649,103.540782 24.7828247,101.958022 25.5543696,100.713899 L26.2156939,99.6243705 L87.4432994,2.71158962 C88.1229938,1.65518914 89.2803113,1.01104251 90.5294794,1 L90.5478495,1 C91.7970176,1 92.954335,1.62574244 93.6340294,2.66557915 C109.799734,27.4376182 100.669785,48.637404 95.3424505,57.3904365 C98.9062535,58.2407101 104.178478,59.1204303 108.752637,59.6541518 C109.965065,59.7958641 111.030532,60.5375529 111.600005,61.6307618 C112.151109,62.7239706 112.132739,64.0233064 111.544895,65.0962706 C108.238274,71.0445047 101.147408,77.3534608 96.0588851,81.4023825 L105.868528,84.6820091 C106.970736,85.0519333 107.852501,85.9279727 108.201534,87.0395857 C108.568936,88.1511988 108.366865,89.3677157 107.68717,90.3173719 C97.748936,104.23462 84.4306,111 66.9789872,111 Z" id="Fill-222"></path>
            <path d="M29.1985455,106 C27.561833,106 26.0538507,104.886433 25.64927,103.217927 C24.950449,100.518819 21.732194,96.1530482 18.3116487,91.5310096 C7.27763159,76.6287607 -9.38373421,54.1103804 6.61559057,25.2959244 C7.18568145,24.2708532 8.19713302,23.5794833 9.35570481,23.431991 C10.5142766,23.2808115 11.6728484,23.6974771 12.4820097,24.5455576 L19.6357307,32.0584444 C21.125323,25.7107464 23.7918772,16.5717574 27.7641233,11.0334232 C28.4813344,10.0341631 29.5479561,9.46631795 30.8720381,9.49950371 C32.08578,9.54006408 33.2259618,10.18903 33.8696128,11.2325377 C36.2970965,15.1318643 39.3498413,19.5345081 41.6302048,22.4142944 C43.5427678,19.460762 46.5771225,15.4803147 50.9539492,11.693451 C58.567421,5.09317254 71.8634116,-2.17819572 91.8349825,0.613095241 C93.8394957,0.895174182 95.2555278,2.75910758 94.9612874,4.77606419 C94.685437,6.7930208 92.8096541,8.18866628 90.823531,7.91764926 C58.0708903,3.32142181 46.282882,28.8928918 45.7863512,29.9843345 C45.3449905,30.965158 44.4990492,31.7099939 43.4875977,32.0160404 C42.439366,32.3220868 41.3359643,32.1690636 40.4348529,31.5901565 C37.8050789,29.8939955 33.9063928,24.6285219 31.0007683,20.3346536 C27.3779327,28.6642788 25.4837598,40.1594566 25.4653698,40.3014179 C25.2262994,41.6823141 24.2516279,42.8180045 22.9091558,43.2328265 C21.5850738,43.6494921 20.1322615,43.2678559 19.15759,42.2556903 L10.790127,33.4485589 C1.13536208,55.946659 14.3761826,73.8430007 24.2148478,87.1357404 C28.4077743,92.8123486 31.7363695,97.2942695 32.7662111,101.405616 C33.2627418,103.380169 32.08578,105.386063 30.0996569,105.885694 C29.8054165,105.963127 29.492786,106 29.1985455,106" id="Fill-256"></path>
            <path d="M16.7526846,131 C16.1509514,131 15.5492182,130.859086 14.9850932,130.562425 C13.1610894,129.596421 12.4653353,127.349212 13.4431518,125.543287 L28.9189784,96.963682 C29.8967949,95.1559024 32.1720987,94.4717273 34.0149068,95.4395847 C35.8389106,96.4037338 36.5346647,98.6509429 35.5568482,100.456868 L20.0810216,129.038327 C19.4040717,130.288013 18.1065844,131 16.7526846,131" id="Fill-257"></path>
        </g>
    </g>
</svg>