<?xml version="1.0" encoding="UTF-8"?>
<svg width="149px" height="141px" viewBox="0 0 149 141" version="1.1" xmlns="http://www.w3.org/2000/svg" xmlns:xlink="http://www.w3.org/1999/xlink">
    <!-- Generator: Sketch 48.2 (47327) - http://www.bohemiancoding.com/sketch -->
    <title>Vanilla</title>
    <desc>Created with Sketch.</desc>
    <defs></defs>
    <g id="Artboard" stroke="none" stroke-width="1" fill="none" fill-rule="evenodd" transform="translate(-1535.000000, -1519.000000)" stroke-linecap="round" stroke-linejoin="round">
        <g id="Vanilla" transform="translate(1536.000000, 1520.000000)" stroke="#8B572A" stroke-width="2">
            <path d="M87.9072421,65.8143277 C104.319669,46.4635269 142,52.3268968 142,52.3268968 C142,52.3268968 127.020337,78.419733 90.8184961,74.315374 C108.181018,76.9547305 105.96413,118 105.96413,118 C105.96413,118 75.3985035,103.108048 78.11669,83.4665992 C75.6779433,110.340658 49.7493233,117.705991 33.4876244,113.895641 C48.4960784,106.27326 43.8895568,82.0368778 67.6673376,76.107986 C67.6673376,76.107986 60.6779572,76.660722 46.9837167,72.8503716 C33.2894762,69.0383411 34.3140886,57.8979382 20,54.0859078 C39.7318323,47.0498639 59.3772922,47.0297033 73.7760595,65.5001586 C57.5431514,47.3237118 83.5920152,32.6098454 81.6342435,23.3342966 C79.6764718,14.0604278 74.8006719,14.2133123 74.8006719,14.2133123 C74.8006719,14.2133123 89.0859697,5.50729996 96.6833433,34.736787 C100.874939,50.8618943 90.8930133,63.4672996 87.9072421,65.8143277 Z M80.4047087,62.0022972 C77.2800644,49.1028834 84.5878368,48.5165464 86.8250482,37.668472 C89.0622597,26.8203976 84.340575,22.4220301 84.340575,22.4220301 L80.4047087,62.0022972 Z M92.3952136,68.4520041 C104.643142,59.0706122 117.114622,55.9675623 127.614781,56.7252643 L92.3952136,68.4520041 Z M69.4693005,81.3514179 C60.0835126,88.0951334 58.8065577,103.341575 49.7306939,108.032271 L69.4693005,81.3514179 Z M36.0804864,56.6160611 C47.9812319,57.0175927 62.3020948,65.5001586 62.3020948,65.5001586 L36.0804864,56.6160611 Z M87.4262671,81.3514179 C101.825034,92.7858293 102.736177,109.204945 102.736177,109.204945 L87.4262671,81.3514179 Z M76.4180352,66.6022705 L76.9261074,66.0310539 C78.4977442,64.2586026 81.5935977,64.9155016 82.1643322,67.1398861 L82.3489318,67.860627 C82.5758707,68.7443326 83.2617683,69.4684336 84.181379,69.7977231 L84.9299388,70.0648508 C87.2450546,70.8931148 87.5244944,73.8063193 85.402446,74.9941137 L84.7148549,75.3788448 C83.8731485,75.8509385 83.3362855,76.6741624 83.2803976,77.5813887 L83.2346711,78.31893 C83.095798,80.6021162 80.172689,81.7479094 78.287741,80.2560262 L77.6797479,79.7738522 C76.9311881,79.1824751 75.9150437,78.9657488 74.9615614,79.1975955 L74.1842109,79.385761 C71.7827228,79.9687379 69.6962394,77.7628339 70.6548024,75.6526928 L70.9647265,74.970593 C71.3457806,74.1339288 71.2543276,73.176301 70.7191582,72.4135589 L70.2856032,71.7919409 C68.9409054,69.8682851 70.5752044,67.3599725 73.0512098,67.5481379 L73.8505768,67.6086197 C74.8345434,67.6825418 75.7947999,67.3062109 76.4180352,66.6022705 Z" id="Stroke-3"></path>
            <path d="M77.0675793,73.6333523 C77.0675793,72.8322063 77.7721081,72.1808544 78.6409141,72.1808544 C79.5114136,72.1808544 80.2159424,72.8322063 80.2159424,73.6333523 C80.2159424,74.4361813 79.5114136,75.0858501 78.6409141,75.0858501 C77.7721081,75.0858501 77.0675793,74.4361813 77.0675793,73.6333523 Z M134.131026,2.79925554 C141.459142,-4.92944693 152.397968,5.07477944 143.919912,11.9484774 C135.441856,18.8221753 97.1805222,50.3950694 93.227709,61.9157507 L134.131026,2.79925554 Z M1.77275553,125.256776 C-4.7221195,133.594753 8.32521225,141.146733 13.6582922,131.968898 C18.9896785,122.792747 43.6329449,81.2543376 54.9003252,75.0858501 L1.77275553,125.256776 Z M40.1306238,136.454306 C32.4197591,143.858174 21.9991682,133.39615 30.8159399,126.89273 C33.4206642,124.972336 38.730034,121.012049 45.0352282,116.090723 L40.1306238,136.454306 Z M116.788779,18.226365 C123.334461,9.92373236 110.336243,2.302747 104.945581,11.4502857 C103.353617,14.1516288 100.057913,19.6687644 95.9137252,26.2580219 L116.788779,18.226365 Z" id="Stroke-4"></path>
        </g>
    </g>
</svg>