<?xml version="1.0" encoding="UTF-8"?>
<svg width="175px" height="158px" viewBox="0 0 175 158" version="1.1" xmlns="http://www.w3.org/2000/svg" xmlns:xlink="http://www.w3.org/1999/xlink">
    <!-- Generator: Sketch 48.2 (47327) - http://www.bohemiancoding.com/sketch -->
    <title>Watermelon</title>
    <desc>Created with Sketch.</desc>
    <defs></defs>
    <g id="Fruits" stroke="none" stroke-width="1" fill="none" fill-rule="evenodd" transform="translate(-462.000000, -420.000000)">
        <g id="Watermelon" transform="translate(462.000000, 420.000000)">
            <path d="M1.198,116.723 C0.565,116.018 0.514,114.966 1.074,114.203 L17.144,92.311 C17.798,91.42 19.049,91.229 19.94,91.882 C20.83,92.536 21.022,93.787 20.369,94.678 L5.266,115.252 C27.903,139.883 56.928,153.425 87.168,153.425 C117.686,153.425 146.91,139.665 169.629,114.637 L155.5,95.58 C155.001,95.571 154.506,95.377 154.125,94.998 C153.341,94.219 153.338,92.953 154.117,92.17 C154.251,92.034 154.379,91.886 154.516,91.73 C154.915,91.276 155.542,91.001 156.127,91.022 C156.731,91.047 157.317,91.314 157.677,91.8 L173.815,113.567 C174.378,114.327 174.333,115.377 173.705,116.085 C150.065,142.743 119.333,157.425 87.168,157.425 C55.29,157.425 24.758,142.97 1.198,116.723 Z" id="Fill-325" fill="#417505"></path>
            <path d="M20.631,94.631 C38.946,114.686 62.467,125.717 86.958,125.717 C111.86,125.717 135.696,114.352 154.107,93.709 L87.43,5.481 L20.676,94.269 L20.631,94.631 Z M86.958,129.717 C61.045,129.717 36.217,117.967 17.047,96.632 C16.66,96.201 16.479,95.625 16.55,95.051 L16.771,93.25 C16.814,92.902 16.947,92.572 17.158,92.292 L85.828,0.957 C86.205,0.455 86.796,0.159 87.424,0.158 C88.074,0.145 88.644,0.451 89.022,0.952 L157.667,91.785 C158.2,92.491 158.194,93.436 157.718,94.126 C157.947,94.787 157.822,95.549 157.325,96.11 C138.113,117.782 113.123,129.717 86.958,129.717 Z" id="Fill-324" fill="#D0021B"></path>
            <path d="M104.106,66.126 C103.312,66.126 102.561,65.65 102.249,64.867 L99.311,57.505 C98.901,56.479 99.401,55.315 100.427,54.906 C101.453,54.495 102.617,54.997 103.026,56.022 L105.963,63.385 C106.373,64.411 105.873,65.574 104.847,65.983 C104.604,66.081 104.353,66.126 104.106,66.126" id="Fill-326" fill="#D0021B"></path>
            <path d="M70.493,66.126 C70.246,66.126 69.996,66.081 69.752,65.983 C68.727,65.574 68.227,64.411 68.636,63.385 L71.575,56.022 C71.984,54.996 73.148,54.495 74.173,54.906 C75.199,55.315 75.699,56.479 75.29,57.505 L72.351,64.867 C72.039,65.65 71.287,66.126 70.493,66.126" id="Fill-327" fill="#D0021B"></path>
            <path d="M129.285,89.186 C128.676,89.186 128.074,88.908 127.681,88.382 L122.927,82.017 C122.267,81.132 122.448,79.879 123.333,79.218 C124.219,78.557 125.471,78.739 126.132,79.624 L130.886,85.989 C131.547,86.874 131.365,88.127 130.48,88.788 C130.121,89.056 129.702,89.186 129.285,89.186" id="Fill-328" fill="#D0021B"></path>
            <path d="M46.182,89.186 C45.765,89.186 45.346,89.056 44.986,88.788 C44.102,88.127 43.92,86.874 44.581,85.989 L49.334,79.624 C49.996,78.739 51.249,78.557 52.134,79.218 C53.019,79.879 53.2,81.132 52.54,82.017 L47.786,88.382 C47.393,88.908 46.791,89.186 46.182,89.186" id="Fill-329" fill="#D0021B"></path>
            <path d="M72.618,98.09 C72.476,98.09 72.333,98.075 72.188,98.043 C71.109,97.808 70.426,96.742 70.662,95.663 L72.353,87.933 C72.588,86.854 73.655,86.169 74.733,86.407 C75.813,86.643 76.496,87.708 76.26,88.788 L74.569,96.517 C74.365,97.452 73.537,98.09 72.618,98.09" id="Fill-330" fill="#D0021B"></path>
            <path d="M102.635,98.09 C101.716,98.09 100.889,97.453 100.684,96.519 L98.986,88.789 C98.75,87.71 99.432,86.644 100.511,86.407 C101.586,86.171 102.656,86.853 102.894,87.932 L104.591,95.661 C104.828,96.74 104.145,97.807 103.066,98.043 C102.922,98.075 102.777,98.09 102.635,98.09" id="Fill-331" fill="#D0021B"></path>
        </g>
    </g>
</svg>