<?xml version="1.0" encoding="UTF-8"?>
<svg width="112px" height="135px" viewBox="0 0 112 135" version="1.1" xmlns="http://www.w3.org/2000/svg" xmlns:xlink="http://www.w3.org/1999/xlink">
    <!-- Generator: Sketch 48.2 (47327) - http://www.bohemiancoding.com/sketch -->
    <title>Yoghurt</title>
    <desc>Created with Sketch.</desc>
    <defs></defs>
    <g id="Dairy" stroke="none" stroke-width="1" fill="none" fill-rule="evenodd" transform="translate(-335.000000, -908.000000)">
        <g id="Yoghurt" transform="translate(335.000000, 908.000000)" fill="#4A90E2">
            <path d="M15.852,39.709 L0.88,39.709 L0.88,44.578 L15.852,44.578 L15.852,120.595 C15.852,128.414 22.213,134.775 30.031,134.775 L81.895,134.775 C89.713,134.775 96.075,128.414 96.075,120.595 L96.075,44.578 L111.046,44.578 L111.046,39.709 L15.852,39.709 Z M46.621,103.617 L91.205,103.617 L91.205,72.576 L46.621,72.576 L46.621,103.617 Z M91.205,67.707 L41.752,67.707 L41.752,108.487 L91.205,108.487 L91.205,120.595 C91.205,125.73 87.029,129.906 81.895,129.906 L30.031,129.906 C24.898,129.906 20.721,125.73 20.721,120.595 L20.721,44.578 L91.205,44.578 L91.205,67.707 Z" id="Fill-21"></path>
            <path d="M46.75,27.86 C51.342,25.953 54.166,22.623 55.048,18.135 C73.283,20.794 86.318,22.095 94.754,22.095 C101.501,22.095 105.426,21.312 107.48,19.555 C108.813,18.415 109.461,16.887 109.459,14.887 C109.459,13.117 108.905,11.665 107.814,10.574 C105.813,8.573 101.704,7.682 94.491,7.682 C85.915,7.682 73.27,8.946 55.012,11.632 C54.493,9.123 53.364,6.97 51.613,5.219 C48.231,1.838 42.712,0.05 35.652,0.05 C29.612,0.05 22.845,1.417 17.089,3.801 C9.756,6.839 5.55,10.879 5.55,14.885 C5.55,16.688 6.458,18.51 8.249,20.3 C13.601,25.653 25.596,29.689 36.149,29.689 C40.264,29.689 43.831,29.073 46.75,27.86 Z M10.419,14.885 C10.419,13.706 12.736,10.875 18.952,8.3 C24.14,6.152 30.227,4.919 35.652,4.919 C41.311,4.919 45.756,6.248 48.171,8.662 C49.717,10.209 50.472,12.249 50.479,14.9 C50.489,19.084 48.71,21.773 44.882,23.364 C42.59,24.316 39.57,24.82 36.149,24.82 C27.054,24.82 16.082,21.248 11.692,16.858 C10.687,15.853 10.419,15.144 10.419,14.885 Z M104.371,14.016 C104.442,14.088 104.59,14.236 104.59,14.888 C104.591,15.619 104.438,15.75 104.315,15.855 C103.939,16.176 102.138,17.226 94.754,17.226 C88.378,17.226 79.234,16.453 67.031,14.877 C79.071,13.315 88.129,12.551 94.491,12.551 C102.499,12.551 104.126,13.772 104.371,14.016 Z" id="Fill-22"></path>
        </g>
    </g>
</svg>