<?xml version="1.0" encoding="UTF-8"?>
<svg width="128px" height="157px" viewBox="0 0 128 157" version="1.1" xmlns="http://www.w3.org/2000/svg" xmlns:xlink="http://www.w3.org/1999/xlink">
    <!-- Generator: Sketch 48.2 (47327) - http://www.bohemiancoding.com/sketch -->
    <title>Honeysuckle</title>
    <desc>Created with Sketch.</desc>
    <defs></defs>
    <g id="Floral-Icons" stroke="none" stroke-width="1" fill="none" fill-rule="evenodd" transform="translate(-1060.000000, -623.000000)">
        <g id="Honeysuckle" transform="translate(1060.000000, 623.000000)" fill="#F8E71C">
            <path d="M118.131814,22.6629286 C114.518962,23.0946962 111.138396,30.5721749 102.396893,51.8315884 C99.5414,58.7799083 96.4125664,66.3753386 93.1065474,73.7846435 L92.2616759,17.1700658 C96.4665863,16.6008685 99.7218265,12.991984 99.7218265,8.62777682 C99.7218265,3.8696764 95.8572416,0 91.1056496,0 C86.3551381,0 82.4894728,3.8696764 82.4894728,8.62777682 C82.4894728,12.6630182 85.2747397,16.0511493 89.0172396,16.9893511 L89.7551517,66.4705655 C85.3309204,36.3420616 75.4614815,9.78132129 63.9768469,9.78132129 C53.7454745,9.90468346 44.9845243,31.9886756 40.4090372,58.6922563 L39.789969,17.1700658 C43.9948794,16.6008685 47.2490392,12.991984 47.2490392,8.62777682 C47.2490392,3.8696764 43.3844543,0 38.6339427,0 C33.8823508,0 30.0177658,3.8696764 30.0177658,8.62777682 C30.0177658,12.6630182 32.8019524,16.0511493 36.5455327,16.9893511 L37.4422633,77.1165041 C34.0346869,69.261364 30.8010547,61.0383017 27.8699339,53.5792191 C19.9214432,33.3445773 15.9218085,23.5848985 11.8703147,22.8079333 C10.846097,22.6120688 9.85213055,22.9583486 9.07964573,23.7829272 C-5.80284161,39.6858256 -0.667708231,77.6445808 12.0971983,106.921453 C25.7782827,138.297646 45.43397,157.001082 64.7061158,157 C81.8444749,156.900445 98.9450201,142.269042 111.796359,116.856436 C126.87872,87.0330909 134.607889,43.0295896 120.793916,23.9398353 C119.872336,22.6650929 118.737918,22.5958369 118.131814,22.6629286 Z M85.7306678,8.62777682 C85.7306678,5.65950994 88.142117,3.24637282 91.1056496,3.24637282 C94.0691823,3.24637282 96.4806315,5.65950994 96.4806315,8.62777682 C96.4806315,11.5960437 94.0691823,14.0102629 91.1056496,14.0102629 C88.142117,14.0102629 85.7306678,11.5960437 85.7306678,8.62777682 Z M33.2589609,8.62777682 C33.2589609,5.65950994 35.67041,3.24637282 38.6339427,3.24637282 C41.5974754,3.24637282 44.0078441,5.65950994 44.0078441,8.62777682 C44.0078441,11.5960437 41.5974754,14.0102629 38.6339427,14.0102629 C35.67041,14.0102629 33.2589609,11.5960437 33.2589609,8.62777682 Z M15.0682938,105.621822 C2.75391336,77.3794603 -2.4590087,41.0384809 11.4057434,26.0510597 C14.0581213,27.2825171 20.0338047,42.4961023 24.8545421,54.7663094 C28.6218912,64.3593411 32.8873039,75.2108833 37.4066102,84.9727263 C37.1257066,89.7362374 36.9906568,94.4726953 37.0176668,99.0966123 C37.159199,122.896854 41.4429785,140.119943 49.1591835,149.326657 C34.7455891,141.162029 22.6300019,122.96611 15.0682938,105.621822 Z M40.2588619,99.0771341 C40.0168526,58.202054 52.4500769,13.1672881 64.0686808,13.0276941 C75.8288169,13.0276941 88.8757074,57.9163732 88.9956317,98.797946 C89.0442496,115.278699 86.7883778,153.624854 64.8616932,153.753627 C42.9393302,153.751463 40.3560977,115.515684 40.2588619,99.0771341 Z M80.5339517,149.154599 C88.1723681,139.864562 92.3059722,122.597105 92.2368267,98.7882069 C92.2227815,94.0766378 92.0358726,89.2514457 91.6977079,84.403529 C96.6891483,74.2391357 101.313253,62.991536 105.394998,53.0684564 C110.28056,41.1824034 115.794913,27.7716373 118.298196,26.0250887 C129.831448,42.2969914 125.643824,82.2933866 108.905213,115.390157 C100.716873,131.580901 90.8528364,143.183437 80.5339517,149.154599 Z" id="Fill-29"></path>
        </g>
    </g>
</svg>