<?xml version="1.0" encoding="utf-8"?>
<!-- Generator: Adobe Illustrator 21.1.0, SVG Export Plug-In . SVG Version: 6.00 Build 0)  -->
<svg version="1.1" id="Layer_1" xmlns="http://www.w3.org/2000/svg" xmlns:xlink="http://www.w3.org/1999/xlink" x="0px" y="0px"
	 width="401px" height="315px" viewBox="0 0 401 315" style="enable-background:new 0 0 401 315;" xml:space="preserve">
<style type="text/css">
	.st0{fill:#E9CBD1;}
	.st1{fill:#6084BC;}
	.st2{fill:#97CA4E;}
	.st3{fill:#FFFFFF;}
</style>
<polygon class="st0" points="168.3,95.5 146.3,95.5 149.1,51.5 165.2,51.5 "/>
<g>
	<path class="st1" d="M89.9,295.8H21.1c-1.6,0-3-1.3-3-3v-168c0-18.8,8-25.8,14.4-31.4c4.1-3.6,7.1-6.3,7.1-11.3V14.6
		c0-1.6,1.3-3,3-3h25.7c1.6,0,3,1.3,3,3v67.5c0,5.1,3,7.7,7.1,11.3c6.4,5.7,14.4,12.7,14.4,31.4v168
		C92.9,294.5,91.6,295.8,89.9,295.8z M24.1,289.9H87v-165c0-16.1-6.6-21.9-12.4-27c-4.5-3.9-9.1-8-9.1-15.8V17.6H45.7v64.6
		c0,7.7-4.6,11.8-9.1,15.8c-5.8,5.1-12.4,10.9-12.4,27V289.9z"/>
	<rect x="42.4" y="70.9" class="st1" width="34.5" height="5.7"/>
	<rect x="33.8" y="23.5" class="st1" width="37.5" height="5.7"/>
</g>
<circle class="st2" cx="55.5" cy="185.1" r="20.5"/>
<polygon class="st3" points="62.7,176.8 52.4,187.1 48.3,183.1 45.2,186.2 52.4,193.4 65.9,179.9 "/>
<g>
	<path class="st1" d="M286.3,295.8h-68.8c-1.6,0-3-1.3-3-3v-168c0-18.8,8-25.8,14.4-31.4c4.1-3.6,7.1-6.3,7.1-11.3V14.6
		c0-1.6,1.3-3,3-3h25.7c1.6,0,3,1.3,3,3v67.5c0,5.1,3,7.7,7.1,11.3c6.4,5.7,14.4,12.7,14.4,31.4v168
		C289.2,294.5,287.9,295.8,286.3,295.8z M220.4,289.9h62.9v-165c0-16.1-6.6-21.9-12.4-27c-4.5-3.9-9.1-8-9.1-15.8V17.6H242v64.6
		c0,7.7-4.6,11.8-9.1,15.8c-5.8,5.1-12.4,10.9-12.4,27V289.9z"/>
	<rect x="238.8" y="70.9" class="st1" width="34.5" height="5.7"/>
	<rect x="139.9" y="47.2" class="st1" width="34.5" height="5.7"/>
	<rect x="126.3" y="94.2" class="st1" width="46.8" height="5.7"/>
	<rect x="230.2" y="23.5" class="st1" width="37.5" height="5.7"/>
</g>
<circle class="st2" cx="251.9" cy="185.1" r="20.5"/>
<polygon class="st3" points="259.1,176.8 248.7,187.1 244.7,183.1 241.5,186.2 248.7,193.4 262.2,179.9 "/>
<circle class="st2" cx="154" cy="185.1" r="20.5"/>
<polygon class="st3" points="161.2,176.8 150.8,187.1 146.8,183.1 143.7,186.2 150.8,193.4 164.4,179.9 "/>
<rect x="49.4" y="29.2" class="st0" width="16" height="41.7"/>
<rect x="246" y="29.2" class="st0" width="16" height="41.7"/>
<path class="st1" d="M194.4,167.9L194.4,167.9c-0.9-10.7-3.4-21.1-7.4-31.1l-4.4-10.9c-6.3-15.6-10.1-32-11.4-48.8L169,48.9l2.5-7.6
	c0.1-0.4,0.2-0.9,0.1-1.3l-2.6-21.4c-0.2-1.6-1.5-2.7-3.1-2.7h-24c-1.6,0-2.9,1.2-3.1,2.7l-2.6,21.4c-0.1,0.5,0,0.9,0.1,1.3l2.5,7.6
	L136.8,77c-1.3,16.8-5.1,33.2-11.4,48.8l-4.4,10.9c-4,9.9-6.5,20.4-7.4,31.1c-0.3,3-0.4,6.2-0.4,9.2V263v12.5v14.5v2.8
	c0,1.7,1.4,3.1,3.1,3.1h3.2h69.2h3.2c1.7,0,3.1-1.4,3.1-3.1v-2.8v-15.1V263v-85.9C194.8,174,194.7,170.9,194.4,167.9z M188.6,263
	v26.9h-69.2V263h0v-85.9c0-2.9,0.1-5.8,0.4-8.7c0.9-10.1,3.2-19.9,7-29.3l4.4-10.9c6.5-16.2,10.5-33.2,11.8-50.7l2.2-28.8
	c0-0.4,0-0.8-0.1-1.2l-2.5-7.6l2.2-18h18.5l2.2,18l-2.5,7.5c-0.1,0.4-0.2,0.8-0.1,1.2l2.2,28.8c1.3,17.4,5.3,34.5,11.8,50.7
	l4.4,10.9c3.8,9.4,6.1,19.2,7,29.3c0.2,2.9,0.4,5.8,0.4,8.7L188.6,263L188.6,263z"/>
<polygon class="st0" points="363.1,95.5 341,95.5 343.9,51.5 359.9,51.5 "/>
<rect x="334.6" y="47.2" class="st1" width="34.5" height="5.7"/>
<rect x="321.1" y="94.2" class="st1" width="46.8" height="5.7"/>
<circle class="st2" cx="348.7" cy="185.1" r="20.5"/>
<polygon class="st3" points="355.9,176.8 345.6,187.1 341.5,183.1 338.4,186.2 345.6,193.4 359.1,179.9 "/>
<path class="st1" d="M389.2,167.9L389.2,167.9c-0.9-10.7-3.4-21.1-7.4-31.1l-4.4-10.9c-6.3-15.6-10.1-32-11.4-48.8l-2.1-28.1
	l2.5-7.6c0.1-0.4,0.2-0.9,0.1-1.3l-2.6-21.4c-0.2-1.6-1.5-2.7-3.1-2.7h-24c-1.6,0-2.9,1.2-3.1,2.7L331,39.9c-0.1,0.5,0,0.9,0.1,1.3
	l2.5,7.6L331.6,77c-1.3,16.8-5.1,33.2-11.4,48.8l-4.4,10.9c-4,9.9-6.5,20.4-7.4,31.1c-0.3,3-0.4,6.2-0.4,9.2V263v12.5v14.5v2.8
	c0,1.7,1.4,3.1,3.1,3.1h3.2h69.2h3.2c1.7,0,3.1-1.4,3.1-3.1v-2.8v-15.1V263v-85.9C389.6,174,389.4,170.9,389.2,167.9z M383.3,263
	v26.9h-69.2V263h0v-85.9c0-2.9,0.1-5.8,0.4-8.7c0.9-10.1,3.2-19.9,7-29.3l4.4-10.9c6.5-16.2,10.5-33.2,11.8-50.7l2.2-28.8
	c0-0.4,0-0.8-0.1-1.2l-2.5-7.6l2.2-18H358l2.2,18l-2.5,7.5c-0.1,0.4-0.2,0.8-0.1,1.2l2.2,28.8c1.3,17.4,5.3,34.5,11.8,50.7l4.4,10.9
	c3.8,9.4,6.1,19.2,7,29.3c0.2,2.9,0.4,5.8,0.4,8.7L383.3,263L383.3,263z"/>
</svg>
