<?xml version="1.0" encoding="utf-8"?>
<!-- Generator: Adobe Illustrator 21.1.0, SVG Export Plug-In . SVG Version: 6.00 Build 0)  -->
<svg version="1.1" id="Layer_1" xmlns="http://www.w3.org/2000/svg" xmlns:xlink="http://www.w3.org/1999/xlink" x="0px" y="0px"
	 width="250px" height="315px" viewBox="0 0 250 315" style="enable-background:new 0 0 250 315;" xml:space="preserve">
<style type="text/css">
	.st0{opacity:0.2;fill:#7AB8E5;}
	.st1{fill:#E1BBCC;}
	.st2{fill:#E8C1CF;}
	.st3{fill:#6084BC;}
</style>
<circle class="st0" cx="125" cy="187.3" r="116.5"/>
<path class="st1" d="M64.8,83c0,7.8-4.7,11.9-9.2,15.9c-5.9,5.2-12.5,11-12.5,27.2v166.2h63.3V126c0-16.2-6.7-22-12.5-27.2
	c-4.5-4-9.2-8.1-9.2-15.9V71.5H64.8V83z M58,247.5h-6v-69.9h6V247.5z"/>
<rect x="63.8" y="10" class="st2" width="18.4" height="10.9"/>
<path class="st1" d="M216.6,165.9c-9.3-2.7-22,1.5-36.9,12.1c-8.7,6.2-16.6,9.3-23.7,9.3c-2,0-3.9-0.2-5.7-0.7
	c-2.8-0.7-5.2-2-7.1-3.3c3.9,15.1,17.4,22.4,28.6,28.4c5.4,2.9,10.1,5.4,13,8.5c2.9-3,7.6-5.6,13-8.5c13.1-7.1,29.4-15.9,29.8-36.9
	C226.7,173.2,223.6,167.9,216.6,165.9z"/>
<g>
	<path class="st3" d="M103.5,295.2H34.2c-1.6,0-3-1.3-3-3V123.1c0-18.9,8.1-26,14.5-31.7c4.2-3.7,7.2-6.3,7.2-11.4V12
		c0-1.6,1.3-3,3-3h25.9c1.6,0,3,1.3,3,3v68c0,5.1,3,7.7,7.2,11.4c6.5,5.7,14.5,12.8,14.5,31.7v169.2
		C106.4,293.9,105.1,295.2,103.5,295.2z M37.1,289.2h63.3V123.1c0-16.2-6.6-22-12.5-27.2c-4.5-4-9.2-8.1-9.2-15.9V15H58.9v65
		c0,7.8-4.7,11.9-9.2,15.9c-5.9,5.2-12.5,11-12.5,27.2V289.2z"/>
	<rect x="46.1" y="177.6" class="st3" width="6" height="69.9"/>
	<rect x="55.6" y="68.6" class="st3" width="34.8" height="5.7"/>
	<rect x="46.9" y="20.9" class="st3" width="37.8" height="5.7"/>
</g>
<g>
	<path class="st3" d="M180.9,295.2c-1.6,0-3-1.3-3-3v-69.4c0-3.1-6.2-6.5-12.8-10.1c-13.9-7.5-32.9-17.7-32.9-42.7
		c0-18.1,14.2-63.8,14.8-65.7c0.4-1.2,1.5-2.1,2.8-2.1h62.2c1.3,0,2.5,0.8,2.8,2.1c0.6,1.9,14.8,47.5,14.8,65.7
		c0,25-19,35.2-32.9,42.7c-6.6,3.5-12.8,6.9-12.8,10.1v69.4C183.9,293.9,182.6,295.2,180.9,295.2z M152,108.3
		c-2.8,9.3-13.9,46.7-13.9,61.8c0,21.4,16.5,30.3,29.8,37.5c5.4,2.9,10.1,5.4,13,8.5c2.9-3,7.6-5.6,13-8.5
		c13.3-7.1,29.8-16,29.8-37.5c0-15.1-11.1-52.6-13.9-61.8H152z"/>
	<rect x="148.2" y="289.2" class="st3" width="65.6" height="6"/>
	<path class="st3" d="M152.1,183.2c-2,0-3.9-0.2-5.7-0.7c-9.7-2.5-13.7-10.7-13.9-11.1l5.4-2.6c0.1,0.2,3.1,6.1,10.1,7.9
		c6.7,1.7,14.9-0.9,24.4-7.7c16.7-11.9,30.9-16.3,42.2-13c10.9,3.2,14.7,12.5,14.9,12.9l-5.5,2.2c-0.1-0.3-3-7.1-11.1-9.4
		c-9.3-2.7-22,1.5-36.9,12.1C167.2,180.1,159.3,183.2,152.1,183.2z"/>
</g>
</svg>
