<?xml version="1.0" encoding="utf-8"?>
<!-- Generator: Adobe Illustrator 21.1.0, SVG Export Plug-In . SVG Version: 6.00 Build 0)  -->
<svg version="1.1" id="Layer_1" xmlns="http://www.w3.org/2000/svg" xmlns:xlink="http://www.w3.org/1999/xlink" x="0px" y="0px"
	 width="250px" height="256px" viewBox="0 0 250 256" style="enable-background:new 0 0 250 256;" xml:space="preserve">
<style type="text/css">
	.st0{opacity:0.2;fill:#7AB8E5;}
	.st1{fill:#E1BBCC;}
	.st2{fill:#BA9DB9;}
	.st3{stroke:#FFFFFF;stroke-width:0.3;stroke-miterlimit:10;}
	.st4{fill:#E8C1CF;}
	.st5{fill:#6084BC;}
</style>
<circle class="st0" cx="126" cy="127.6" r="116"/>
<path class="st1" d="M182.8,158.3c-1.3,0-2.5-0.8-3.1-1.9l-13.1-26.2V230h15.9l24.4,0l0-71.7H182.8z"/>
<path class="st1" d="M145.5,157l-94.5,2.9v69l38.9,0v-42.1c0-1.1,0.1,0.1,1-0.5c1-0.6,6,4.6,6.3,1l3.4-0.6l0.2,0.1l6.1-0.2
	c1-0.5,1.8,1,2.8,1.5l6.1-1.3l0.2,0.1l1.7-2c1.1-0.5,0,0,1,0.6c1,0.6,0.1,2.6,0.1,3.7v39.6h46.8l-4.2-101.8l-12.8,28.1
	C147.9,156.3,146.8,157,145.5,157z"/>
<path class="st2" d="M161.9,129.4l-15.4,29.2l-95.6,0.5c0.1,2.2,0.1,4.5,0,6.7h98.2c1.3,0,2.4-0.7,3-1.9l11-22
	c0.1-1.9,0.3-3.7,0.8-5.6c0.4-1.2,0.9-2.5,1.1-3.8C165.4,130,163.9,129.3,161.9,129.4z"/>
<path class="st2" d="M207.4,158h-26.2l-15.4-30.8c-1-0.6-2-1-3-1.4c-1.2,4.7-0.4,9.8,0.7,14.6v-2.8l12.6,25.2c0.6,1.1,1.7,1.9,3,1.9
	h28.6h0.3C208.8,162,207.5,160.9,207.4,158z"/>
<polygon class="st1" points="166.3,117 52.7,117 37.4,147.5 37.1,148.1 150.7,148.1 "/>
<polygon class="st1" points="167.7,121.3 184.2,154.2 224.1,154.2 207.7,121.3 "/>
<g>
	<g>
		<g>
			<path class="st3" d="M185.1,152.2"/>
		</g>
	</g>
	<path class="st4" d="M20.5,69.4v6.7c16.6,0.2,30,13.7,30.2,30.2h6.7C57.2,86.1,40.8,69.6,20.5,69.4z"/>
	<path class="st4" d="M24.3,24v6.7c22.8,0.2,41.4,18.8,41.6,41.6h6.7C72.3,45.8,50.8,24.3,24.3,24z"/>
	<path class="st4" d="M81.1,24v6.7c14.5,0.2,26.2,12,26.5,26.5h6.7C114,39,99.2,24.3,81.1,24z"/>
	<path class="st4" d="M231.5,76.1v-6.7c-20.3,0.2-36.7,16.7-36.9,36.9h6.7C201.4,89.8,214.9,76.3,231.5,76.1z"/>
	<path class="st4" d="M227.7,30.7V24c-26.5,0.2-48,21.8-48.3,48.3h6.7C186.3,49.5,204.8,30.9,227.7,30.7z"/>
	<path class="st4" d="M170.9,30.7V24c-18.2,0.2-32.9,15-33.1,33.1h6.7C144.7,42.7,156.4,30.9,170.9,30.7z"/>
	<rect x="65.9" y="80.8" class="st4" width="6.7" height="6.7"/>
	<rect x="65.9" y="95.9" class="st4" width="6.7" height="6.7"/>
	<rect x="179.4" y="80.8" class="st4" width="6.7" height="6.7"/>
	<rect x="179.4" y="95.9" class="st4" width="6.7" height="6.7"/>
	<rect x="65.9" y="24" class="st4" width="6.7" height="6.7"/>
	<rect x="179.4" y="24" class="st4" width="6.7" height="6.7"/>
	<rect x="122.7" y="50.5" class="st4" width="6.7" height="6.7"/>
	<rect x="122.7" y="35.4" class="st4" width="6.7" height="6.7"/>
	<rect x="122.7" y="20.2" class="st4" width="6.7" height="6.7"/>
	<rect x="84.8" y="50.5" class="st4" width="6.7" height="6.7"/>
	<rect x="160.5" y="50.5" class="st4" width="6.7" height="6.7"/>
</g>
<g>
	<path class="st5" d="M212.6,159.3h15.6c1,0,2-0.6,2.6-1.5c0.6-0.9,0.6-2,0.1-3l-18.9-37.8c-0.5-1-1.6-1.7-2.7-1.7H42.8
		c-1.1,0-2.2,0.7-2.7,1.7l-18.9,37.8c-0.5,1-0.4,2.1,0.1,3c0.6,0.9,1.5,1.4,2.6,1.4h15.6h0.3l0,0.3l0,75.3l20.3,0l152.3,0l0-75.4
		v-0.3H212.6z M29.3,153.2h-0.5l0.2-0.4l0.3-0.6l15.2-30.5l0.1-0.2h0.2h113.6h0.5l-0.2,0.4l-15.6,31.1l-0.1,0.2h-0.2H29.3z
		 M115.4,191.9v36.6v0.3h-0.3H91.5h-0.3v-0.3V192v-0.5l0.4,0.2l2.8,1.4c0.4,0.2,0.9,0.3,1.4,0.3c0.5,0,0.9-0.1,1.4-0.3l6.1-3
		l0.1-0.1l0.1,0.1l6.1,3c0.4,0.2,0.9,0.3,1.3,0.3c0.5,0,0.9-0.1,1.4-0.3l2.7-1.4l0.4-0.2V191.9z M160.8,132.6v96v0.3h-0.3h-38.7
		h-0.3v-0.3v-42.1c0-1-0.6-2-1.4-2.6c-0.5-0.3-1-0.5-1.6-0.5c-0.5,0-0.9,0.1-1.4,0.3l-6.1,3l-0.1,0.1l-0.1-0.1l-0.2-0.1l-5.9-2.9
		c-0.4-0.2-0.9-0.3-1.4-0.3c-0.5,0-0.9,0.1-1.4,0.3l-6.1,3l-0.1,0.1l-0.1-0.1l-0.2-0.1l-5.9-2.9c-0.4-0.2-0.9-0.3-1.4-0.3
		c-0.6,0-1.1,0.2-1.6,0.4c-0.9,0.5-1.4,1.5-1.4,2.6v42.1v0.3l-0.3,0l-38.7,0h-0.3v-0.3l0-69l0-0.3h0.3h98.8c1.2,0,2.2-0.7,2.7-1.7
		l12.6-25.2l0.6-1.1V132.6z M206.2,228.9h-0.3l-23.4,0h-15.3h-0.3v-0.3v-96v-1.3l0.6,1.1l12.6,25.2c0.5,1,1.6,1.7,2.7,1.7h23.1h0.3
		v0.3l0,69V228.9z M184.8,153.2h-0.2l-0.1-0.2L169,121.9l-0.2-0.4h0.5h37.9h0.2l0.1,0.2l15.6,31.1l0.2,0.4h-0.5H184.8z"/>
</g>
<g>
	<g>
		<path class="st5" d="M103.8,91.6l3.1,8.2c1.9,5,4.5,9.7,7.8,13.9l2.2,2.8c0.1,0.2,0.2,0.3,0.3,0.5c0,0,0.1,0.1,0.1,0.1h4
			c-0.5-0.8-1.2-1.8-1.9-2.7l-2.2-2.8c-3.1-3.9-5.6-8.3-7.3-13l-3-7.8l0.1-2.3c0-0.2,0-0.5-0.1-0.7l-2.6-6c-0.3-0.8-1.2-1.2-2-0.9
			l-7,2c-0.8,0.2-1.3,1-1.2,1.9l1.1,6.4c0,0.2,0.1,0.5,0.3,0.7l1.3,2l1.7,8.1c1,4.9,1.3,9.9,0.8,14.9l0,0.3h3.3
			c0.5-5.3,0.2-10.6-0.9-15.8l-1.8-8.5c0-0.2-0.1-0.4-0.3-0.6l-1.3-2l-0.7-4.5l4.1-1.2l1.8,4.3l-0.1,2.2
			C103.7,91.1,103.7,91.4,103.8,91.6z"/>
		<path class="st5" d="M123.2,118h-6.5l-0.3-0.5c-0.2-0.3-0.3-0.4-0.4-0.6l-2.2-2.8c-3.4-4.3-6.1-9-8-14.1l-3.1-8.2
			c-0.1-0.3-0.2-0.7-0.2-1l0.1-2l-1.4-3.2l-2.4,0.7l0.6,3.4l1.2,1.8c0.2,0.3,0.3,0.6,0.4,0.9l1.8,8.5c1.1,5.3,1.4,10.7,0.9,16.1
			l-0.1,0.9h-5.4l0.1-1.1c0.5-5.1,0.2-10-0.8-14.8l-1.7-7.9l-1.2-1.8c-0.2-0.3-0.4-0.7-0.4-1.1l-1.1-6.4c-0.2-1.3,0.6-2.6,1.9-3l7-2
			c1.3-0.4,2.7,0.3,3.2,1.5l2.6,6c0.2,0.4,0.2,0.8,0.2,1.1l-0.1,2.1l2.9,7.6c1.7,4.6,4.1,8.9,7.2,12.7l2.2,2.8
			c0.6,0.8,1.3,1.7,1.9,2.8L123.2,118z M117.9,116h1.5c-0.3-0.4-0.5-0.7-0.7-1l-2.2-2.8c-3.2-4-5.7-8.5-7.5-13.3l-3-8l0.1-2.5
			c0-0.1,0-0.2-0.1-0.3l-2.6-6c-0.1-0.3-0.4-0.4-0.7-0.3l-7,2c-0.3,0.1-0.5,0.4-0.4,0.7l1.1,6.4c0,0.1,0,0.2,0.1,0.2l1.5,2.4
			l1.7,8.1c1,4.7,1.3,9.5,0.9,14.3h1.2c0.4-4.9,0.1-9.8-1-14.6l-1.9-8.8l-1.4-2.4l-0.9-5.4l5.9-1.7l2.3,5.3l-0.1,2.5l-0.9,0.6l1-0.4
			l3.1,8.2c1.8,4.9,4.4,9.5,7.7,13.6l2.2,2.8C117.8,115.8,117.8,115.9,117.9,116z"/>
	</g>
	<g>
		<path class="st5" d="M156.2,68l-8.5-1.7c-1-0.2-1.9,0.4-2.2,1.3L143,75c-0.1,0.3-0.1,0.6-0.1,0.8l0.3,2.7l-2.8,9.7
			c-1.6,5.8-4.2,11.3-7.5,16.3l-2.4,3.6c-1.8,2.7-3.2,5.6-4.3,8.7h4.2c1-2.6,2.1-4.7,3.3-6.6h0l2.4-3.6c3.5-5.4,6.2-11.2,8-17.4
			l2.9-10.1c0.1-0.2,0.1-0.5,0.1-0.7l-0.3-2.7l1.8-5.4l5.2,1.1l-0.5,5.8l-1.3,2.2c-0.1,0.2-0.2,0.5-0.2,0.7l-1.3,10.4
			c-0.8,6.4-0.6,12.8,0.5,19.1l0.8,4.2c0.2,1,0.3,2,0.3,2.9h3.9c-0.1-1.3-0.3-2.5-0.5-3.6l-0.8-4.2c-1.1-5.9-1.3-12-0.5-17.9
			l1.3-10.1l1.3-2.3c0.1-0.2,0.2-0.5,0.2-0.8l0.6-7.8C157.8,69.1,157.2,68.2,156.2,68z"/>
		<path class="st5" d="M157.1,117.9h-6l-0.1-1c-0.1-0.9-0.1-1.9-0.3-2.8l-0.8-4.2c-1.2-6.4-1.4-13-0.6-19.4l1.3-10.4
			c0.1-0.4,0.2-0.8,0.4-1.1l1.2-2l0.4-4.7l-3.4-0.7l-1.4,4.3l0.3,2.5c0,0.4,0,0.8-0.1,1.1l-2.9,10.1c-1.8,6.3-4.5,12.2-8.1,17.7
			l-2.4,3.6c-1.2,1.8-2.2,3.9-3.2,6.4l-0.3,0.7h-6.4l0.5-1.4c1.1-3.2,2.6-6.2,4.4-8.9l2.4-3.6c3.3-4.9,5.7-10.3,7.4-16l2.7-9.5
			l-0.3-2.5c-0.1-0.4,0-0.9,0.1-1.3l2.5-7.4c0.5-1.4,1.9-2.3,3.4-2l8.5,1.7c1.5,0.3,2.5,1.6,2.4,3.1l-0.6,7.8c0,0.4-0.2,0.9-0.4,1.2
			l-1.2,2.1l-1.3,9.9c-0.7,5.9-0.6,11.8,0.5,17.6l0.8,4.2c0.2,1.1,0.4,2.3,0.5,3.7L157.1,117.9z M153,115.8h1.8
			c-0.1-0.8-0.2-1.6-0.3-2.4l-0.8-4.2c-1.1-6-1.3-12.2-0.5-18.3l1.5-10.5l1.3-2.3c0.1-0.1,0.1-0.2,0.1-0.4l0.6-7.8
			c0-0.4-0.3-0.8-0.7-0.9h0l-8.5-1.7c-0.4-0.1-0.9,0.2-1,0.6l-2.5,7.4c0,0.1-0.1,0.3,0,0.4l0.3,2.9l-2.8,9.9
			c-1.7,5.9-4.2,11.5-7.6,16.6l-2.4,3.6c-1.5,2.2-2.7,4.6-3.7,7.1h2c1-2.3,2-4.3,3.2-6.1l2.4-3.6c3.5-5.3,6.1-11,7.9-17.1l2.9-10.1
			c0-0.1,0-0.2,0-0.3l-0.3-2.9l2.2-6.5l7,1.4l-0.8,7.2l-1.3,2.2c-0.1,0.1-0.1,0.2-0.1,0.3l-1.3,10.4c-0.8,6.3-0.6,12.6,0.5,18.8
			l0.8,4.2C152.9,114.4,153,115.1,153,115.8z"/>
	</g>
</g>
</svg>
