<?xml version="1.0" encoding="utf-8"?>
<!-- Generator: Adobe Illustrator 21.1.0, SVG Export Plug-In . SVG Version: 6.00 Build 0)  -->
<svg version="1.1" id="Layer_1" xmlns="http://www.w3.org/2000/svg" xmlns:xlink="http://www.w3.org/1999/xlink" x="0px" y="0px"
	 width="250px" height="256px" viewBox="0 0 250 256" style="enable-background:new 0 0 250 256;" xml:space="preserve">
<style type="text/css">
	.st0{opacity:0.2;fill:#7AB8E5;}
	.st1{fill:#6084BC;}
	.st2{fill:#E1BBCC;}
	.st3{fill:#FFFFFF;}
</style>
<circle class="st0" cx="125" cy="127.9" r="116.2"/>
<path class="st1" d="M204.9,172.5c2.4,0,4.4-2,4.4-4.4V88.3c0-2.4-2-4.4-4.4-4.4H45.1c-2.4,0-4.4,2-4.4,4.4v79.7
	c0,2.4,2,4.4,4.4,4.4c2.4,0,4.4-2,4.4-4.4V92.8h151v75.3C200.5,170.5,202.5,172.5,204.9,172.5z"/>
<rect x="35.3" y="69.8" class="st2" width="192.6" height="120.8"/>
<rect x="100.3" y="181.9" class="st2" width="48.5" height="20.3"/>
<path class="st1" d="M217.2,61H32.8c-8.3,0-15.1,6.8-15.1,15.1v111.7H7.1c-2.1,0-3.9,1.7-3.9,3.9v9.3c0,12.4,10.1,22.6,22.6,22.6
	h198.4c12.4,0,22.6-10.1,22.6-22.6v-9.3c0-2.1-1.7-3.9-3.9-3.9h-10.6V76.1C232.3,67.7,225.5,61,217.2,61z M26.5,76.1
	c0-3.5,2.8-6.3,6.3-6.3h184.4c3.5,0,6.3,2.8,6.3,6.3v111.7h-72.3c-0.3,0-0.6,0-0.9,0.1c-1.8,0.4-3.1,2-3.1,3.8
	c0,4.5-3.6,8.1-8.1,8.1h-28c-4.5,0-8.1-3.6-8.1-8.1c0-1-0.4-2-1.2-2.8c-0.8-0.7-1.7-1.1-2.8-1.1H26.5V76.1z M239,195.6v5.4
	c0,8.2-6.6,14.8-14.8,14.8H25.8c-8.2,0-14.8-6.6-14.8-14.8v-5.4h84.6l0.2,0.6c2,6.7,8.3,11.4,15.3,11.4h28c7,0,13.3-4.7,15.3-11.4
	l0.2-0.6H239z"/>
<g>
	<path class="st3" d="M148.4,112.3h11.9l-15,44.4h-11.9l-8.4-30.2l-8.6,30.2h-11.9l-15-44.4H102l8.7,32.4l8.7-32.4h11.3l8.9,32.4
		L148.4,112.3z"/>
</g>
</svg>
