<?xml version="1.0" encoding="utf-8"?>
<!-- Generator: Adobe Illustrator 22.0.1, SVG Export Plug-In . SVG Version: 6.00 Build 0)  -->
<svg version="1.1" id="Layer_1" xmlns="http://www.w3.org/2000/svg" xmlns:xlink="http://www.w3.org/1999/xlink" x="0px" y="0px"
	 viewBox="0 0 1129.4 103.5" style="enable-background:new 0 0 1129.4 103.5;" xml:space="preserve">
<style type="text/css">
	.st0{fill:#8F1A60;}
</style>
<g>
	<path class="st0" d="M135.5,0.8h20.2l-34.4,101.8h-20.2L77.9,25.4l-23.7,77.2H34.3L0,0.9h20.9l24,80.7L68.7,0.9h19.2l24,81
		L135.5,0.8z"/>
	<path class="st0" d="M197.6,0.8h19.5v101.7h-19.5V0.8z"/>
	<path class="st0" d="M342.1,0.8H361v101.7h-18.5l-52.3-70.1v70.1h-19V0.8h18.5L342.2,71V0.8H342.1z"/>
	<path class="st0" d="M415,0.8h74.6v17h-55.1v25.1h49.4v17h-49.4v25.6h56.8v17H415V0.8z"/>
	<path class="st0" d="M603.4,12.3c-5.3-2.2-10.9-3.3-16.6-3.3c-7.8,0-15,1.9-21.6,5.7c-6.5,3.8-11.7,8.9-15.5,15.5
		c-3.8,6.5-5.7,13.7-5.7,21.4c0,7.8,1.9,14.9,5.7,21.4c3.8,6.5,9,11.7,15.5,15.5s13.7,5.7,21.6,5.7c5.6,0,11.1-1.1,16.4-3.3
		c5.3-2.2,10.1-5.2,14.2-9.1l6.1,6.5c-5,4.6-10.8,8.3-17.3,11s-13.1,4.1-19.9,4.1c-9.6,0-18.4-2.3-26.5-7
		c-8-4.7-14.4-10.9-19.1-18.9c-4.7-7.9-7-16.6-7-26s2.4-18,7.1-25.9S552,11.5,560.1,6.9S577,0,586.6,0c6.9,0,13.5,1.3,19.9,3.9
		s12,6.1,16.9,10.7l-6,7C613.4,17.7,608.7,14.6,603.4,12.3z"/>
	<path class="st0" d="M741.6,102.6l-21.9-33.1c-3.1,0.2-5.5,0.3-7.1,0.3h-27.9v32.8h-10V1h37.9c12.7,0,22.5,2.9,29.4,8.8
		s10.4,14.2,10.4,24.9c0,8.4-2,15.5-6.1,21.1s-9.9,9.5-17.4,11.8l24.4,35L741.6,102.6L741.6,102.6z M712.5,60.7
		c9.7,0,17.2-2.2,22.4-6.6c5.2-4.4,7.8-10.8,7.8-19.1c0-8.1-2.6-14.3-7.8-18.6c-5.2-4.3-12.7-6.4-22.4-6.4h-27.9v50.7H712.5z"/>
	<path class="st0" d="M878.6,7c8.1,4.6,14.5,10.8,19.3,18.7c4.7,7.8,7.1,16.5,7.1,25.9s-2.4,18.1-7.1,26s-11.2,14.2-19.3,18.9
		c-8.1,4.7-17,7-26.7,7s-18.6-2.3-26.7-7s-14.5-10.9-19.3-18.9c-4.8-7.9-7.1-16.6-7.1-26s2.4-18,7.1-25.9S817.1,11.6,825.2,7
		c8.1-4.6,17-6.9,26.7-6.9S870.5,2.4,878.6,7z M830.5,14.8c-6.6,3.8-11.8,8.9-15.7,15.4c-3.9,6.5-5.8,13.6-5.8,21.4
		s1.9,14.9,5.8,21.5s9.1,11.8,15.7,15.6c6.6,3.8,13.8,5.7,21.5,5.7s14.8-1.9,21.3-5.7c6.5-3.8,11.7-9,15.6-15.6s5.8-13.8,5.8-21.5
		s-1.9-14.9-5.8-21.4s-9.1-11.6-15.6-15.4S859.7,9.1,852,9.1C844.3,9.1,837.1,11,830.5,14.8z"/>
	<path class="st0" d="M956.1,1h63.7v9h-53.6v39.1h47.8v9h-47.8v44.5h-10L956.1,1L956.1,1z"/>
	<path class="st0" d="M1052.2,0.8h77.2V10h-33.6v92.6h-10V10h-33.6V0.8z"/>
</g>
</svg>
