<?xml version="1.0" encoding="utf-8"?>
<!-- Generator: Adobe Illustrator 21.1.0, SVG Export Plug-In . SVG Version: 6.00 Build 0)  -->
<svg version="1.1" id="Layer_1" xmlns="http://www.w3.org/2000/svg" xmlns:xlink="http://www.w3.org/1999/xlink" x="0px" y="0px"
	 width="237px" height="315px" viewBox="0 0 237 315" style="enable-background:new 0 0 237 315;" xml:space="preserve">
<style type="text/css">
	.st0{fill:#E9CBD1;}
	.st1{fill:#BA9DB9;}
	.st2{fill:#FFFFFF;}
	.st3{fill:#6084BC;}
</style>
<rect x="21.7" y="52.7" class="st0" width="195.2" height="243.2"/>
<path class="st1" d="M42.9,45.3c12.6-1.2,147-31.6,147-31.6s3.2-2,3.2,0s0,30,0,30v7.1l-154.9-2L42.9,45.3z"/>
<path class="st2" d="M108.5,127.9l-8.9,12.1l-2.4,7.3c0,0,0.4,33,0,33.6c-0.4,0.6,0.8,13,0,14.4c-0.8,1.4-3,25.9-3,25.9l1.6,17
	l0.4,13.8l5.2,4.3H126h9.7c0,0,3.4-9.5,3.4-10.5s-1.4-17.4-1.4-17.4l-0.4-33.2V167v-20.3l-4-9.7c0,0-7.3-4.7-7.7-5.3
	c-0.4-0.6-2.6-7.1-2.6-7.1l0.4-3l-13.2-0.9l-1.7,2.7V127.9z"/>
<g>
	<g>
		<path class="st3" d="M95.5,258.3c-1.4,0-2.6-1.2-2.6-2.6V152.9c0-11.8,5.1-16.3,9.1-19.8c2.5-2.2,4.1-3.6,4.1-6.3V85.4
			c0-1.4,1.2-2.6,2.6-2.6h15.7c1.4,0,2.6,1.2,2.6,2.6v41.3c0,2.7,1.6,4.2,4.1,6.3c4.1,3.6,9.1,8,9.1,19.8v102.8
			c0,1.4-1.2,2.6-2.6,2.6H95.5z M135,253.1V152.9c0-9.5-3.9-12.9-7.3-15.9c-2.7-2.4-5.9-5.1-5.9-10.2V88h-10.5v38.7
			c0,5.1-3.1,7.8-5.9,10.2c-3.4,3-7.3,6.4-7.3,15.9v100.2H135z"/>
		<path class="st3" d="M124.4,83.5c1,0,1.8,0.8,1.8,1.8v41.3c0,3.1,1.8,4.7,4.4,6.9c3.9,3.5,8.8,7.8,8.8,19.2v102.8
			c0,1-0.8,1.8-1.8,1.8H95.5c-1,0-1.8-0.8-1.8-1.8V152.9c0-11.5,4.9-15.8,8.8-19.2c2.5-2.2,4.4-3.8,4.4-6.9V85.4
			c0-1,0.8-1.8,1.8-1.8H124.4 M97.3,253.9h38.5v-101c0-9.8-4-13.4-7.6-16.5c-2.7-2.4-5.6-4.9-5.6-9.6V87.2h-12.1v39.5
			c0,4.7-2.8,7.2-5.6,9.6c-3.6,3.1-7.6,6.7-7.6,16.5V253.9 M124.4,82h-15.7c-1.9,0-3.4,1.5-3.4,3.4v41.3c0,2.3-1.2,3.5-3.8,5.7
			c-4,3.5-9.4,8.2-9.4,20.4v102.8c0,1.9,1.5,3.4,3.4,3.4h42.1c1.9,0,3.4-1.5,3.4-3.4V152.9c0-12.2-5.4-17-9.4-20.4
			c-2.6-2.3-3.8-3.5-3.8-5.7V85.4C127.8,83.5,126.2,82,124.4,82L124.4,82z M112,88.7h8.9v37.9c0,5.5,3.3,8.3,6.1,10.8
			c3.5,3.1,7.1,6.2,7.1,15.3v99.4H98.8v-99.4c0-9.1,3.6-12.3,7.1-15.3c2.9-2.5,6.1-5.4,6.1-10.8V88.7L112,88.7z"/>
	</g>
	<g>
		<rect x="107.7" y="119" class="st3" width="22.7" height="5.1"/>
		<path class="st3" d="M129.6,119.8v3.5h-21.1v-3.5H129.6 M131.2,118.2h-1.6h-21.1h-1.6v1.6v3.5v1.6h1.6h21.1h1.6v-1.6v-3.5V118.2
			L131.2,118.2z"/>
	</g>
	<g>
		<rect x="102.4" y="95.2" class="st3" width="24.5" height="5.1"/>
		<path class="st3" d="M126.2,96v3.5h-23V96H126.2 M127.7,94.4h-1.6h-23h-1.6V96v3.5v1.6h1.6h23h1.6v-1.6V96V94.4L127.7,94.4z"/>
	</g>
</g>
<path class="st3" d="M221.3,45.6h-24.8V9L15.8,45.1v255.6h205.5V45.6z M189.5,17.6v28H49.3l26.5-5.3L189.5,17.6z M214.3,293.7H22.8
	v-241h191.4V293.7z"/>
<rect x="112" y="88.7" class="st2" width="8.9" height="5.7"/>
<rect x="112" y="101.1" class="st2" width="2.2" height="17.1"/>
<rect x="22.8" y="52.7" class="st2" width="9.6" height="240.9"/>
</svg>
