<?xml version="1.0" encoding="utf-8"?>
<!-- Generator: Adobe Illustrator 21.1.0, SVG Export Plug-In . SVG Version: 6.00 Build 0)  -->
<svg version="1.1" id="Layer_1" xmlns="http://www.w3.org/2000/svg" xmlns:xlink="http://www.w3.org/1999/xlink" x="0px" y="0px"
	 width="363px" height="315px" viewBox="0 0 363 315" style="enable-background:new 0 0 363 315;" xml:space="preserve">
<style type="text/css">
	.st0{fill:#97CA4E;}
	.st1{fill:#E1BBCC;}
	.st2{fill:#6084BC;}
	.st3{fill:#BA9DB9;}
</style>
<polygon class="st0" points="282.8,197.6 275.5,201.4 276.6,205 280.7,207.6 291.2,208.8 300.1,207.1 304,204 302.1,199.8 
	289.7,197.1 "/>
<polygon class="st0" points="273.7,178.1 266.4,181.9 267.5,185.6 271.7,188.1 282.1,189.3 288.9,186.3 292.7,183.5 293.1,180.3 
	280.7,177.6 "/>
<polygon class="st0" points="287.2,169.3 290.7,176 294.1,175 296.4,171.1 297.5,161.5 294.8,155.3 292.2,151.8 289.2,151.5 
	286.8,162.9 "/>
<polygon class="st0" points="321.1,203.5 313.8,207.2 315,210.9 319.1,213.4 329.6,214.7 338.5,212.9 342.3,209.9 340.5,205.6 
	328.1,203 "/>
<polygon class="st0" points="302.2,188.4 302.5,196.6 306.3,197.1 310.3,194.4 315.9,185.5 318.1,176.7 316.9,171.9 312.3,171.8 
	304.7,181.9 "/>
<path class="st1" d="M311.3,232.1c-1,0-8,0.9-8.5,0l-14,1.8l9.7,56.7h12.1l15.9,0l7.2-58.4H311.3z"/>
<rect x="218" y="156.3" class="st2" width="17.4" height="6.3"/>
<path class="st2" d="M308,289.7h-50.4V14.8c0-1.7-1.4-3.1-3.1-3.1H132.2c-1.7,0-3.1,1.4-3.1,3.1v274.9h-27.8v6.3H308V289.7z
	 M251.4,289.7h-116V18h116V289.7z"/>
<path class="st2" d="M329.3,289.7l10.4-57.5c0.2-0.9-0.1-1.9-0.7-2.6c-0.6-0.7-1.5-1.1-2.4-1.1H281c-0.9,0-1.8,0.4-2.4,1.1
	c-0.6,0.7-0.8,1.7-0.7,2.6l10.4,57.5h-19.1v6.3H352v-6.3H329.3z M294.8,289.7l-10-54.9h48.1l-10,54.9H294.8z"/>
<path class="st1" d="M129,247.7c-1,0-1.9-0.6-2.4-1.5l-10-19.9v76h12.1l18.6,0l0-54.6H129z"/>
<path class="st1" d="M100.6,246.7l-72,2.2v52.5l29.6,0v-32c0-0.9,0,0.1,0.8-0.4c0.7-0.5,4.6,3.5,4.8,0.8l2.6-0.5l0.2,0.1l4.6-0.2
	c0.7-0.4,1.4,0.8,2.1,1.1l4.6-1l0.2,0.1l1.3-1.5c0.8-0.4,0,0,0.8,0.5c0.7,0.5,0.1,2,0.1,2.8v30.2h35.6l-3.2-77.5l-9.8,21.4
	C102.4,246.2,101.6,246.7,100.6,246.7z"/>
<path class="st3" d="M113.1,225.7L101.4,248l-72.8,0.4c0.1,1.7,0.1,3.4,0,5.1h74.7c1,0,1.8-0.5,2.3-1.4l8.4-16.8
	c0.1-1.4,0.2-2.8,0.6-4.2c0.3-0.9,0.7-1.9,0.9-2.9C115.8,226.2,114.7,225.6,113.1,225.7z"/>
<path class="st3" d="M147.8,247.4h-20L116.1,224c-0.7-0.4-1.5-0.8-2.3-1.1c-0.9,3.6-0.3,7.4,0.6,11.1v-2.1l9.6,19.2
	c0.4,0.9,1.3,1.4,2.3,1.4H148h0.2C148.8,250.5,147.8,249.6,147.8,247.4z"/>
<polygon class="st1" points="116.4,216.3 30,216.3 18.4,239.5 18.1,240 104.6,240 "/>
<polygon class="st1" points="117.5,219.6 130,244.5 160.5,244.5 148,219.6 "/>
<g>
	<path class="st2" d="M151.7,248.5h11.9c0.8,0,1.6-0.4,2-1.1c0.4-0.7,0.5-1.5,0.1-2.3l-14.4-28.8c-0.4-0.8-1.2-1.3-2.1-1.3H22.4
		c-0.9,0-1.7,0.5-2.1,1.3L6,245.1c-0.4,0.7-0.3,1.6,0.1,2.3c0.4,0.7,1.2,1.1,2,1.1h11.9h0.2l0,0.2l0,57.4l15.4,0l115.9,0l0-57.4
		v-0.2H151.7z M12.1,243.8h-0.4l0.2-0.3l0.2-0.5l11.6-23.2l0.1-0.1H24h86.5h0.4l-0.2,0.3l-11.9,23.7l-0.1,0.1h-0.1H12.1z
		 M77.7,273.3v27.9v0.2h-0.2h-18h-0.2v-0.2v-27.9v-0.4l0.3,0.2l2.1,1c0.3,0.2,0.7,0.2,1,0.2c0.4,0,0.7-0.1,1-0.2l4.6-2.3l0.1-0.1
		l0.1,0.1l4.6,2.3c0.3,0.2,0.7,0.2,1,0.2c0.4,0,0.7-0.1,1-0.2l2.1-1l0.3-0.2V273.3z M112.3,228.1v73.1v0.2H112H82.6h-0.2v-0.2v-32
		c0-0.8-0.4-1.5-1.1-2c-0.4-0.2-0.8-0.4-1.2-0.4c-0.4,0-0.7,0.1-1,0.2l-4.6,2.3l-0.1,0.1l-0.1-0.1l-0.2-0.1l-4.5-2.2
		c-0.3-0.2-0.7-0.2-1-0.2c-0.4,0-0.7,0.1-1,0.2l-4.6,2.3l-0.1,0.1l-0.1-0.1l-0.2-0.1l-4.5-2.2c-0.3-0.2-0.7-0.2-1-0.2
		c-0.4,0-0.9,0.1-1.2,0.3c-0.7,0.4-1.1,1.2-1.1,2v32v0.2l-0.2,0l-29.5,0h-0.2v-0.2l0-52.5l0-0.2H25h75.2c0.9,0,1.7-0.5,2.1-1.3
		l9.6-19.2l0.4-0.9V228.1z M146.8,301.4h-0.2l-17.9,0h-11.6h-0.2v-0.2v-73.1v-1l0.4,0.9l9.6,19.2c0.4,0.8,1.2,1.3,2.1,1.3h17.6h0.2
		v0.2l0,52.5V301.4z M130.5,243.8h-0.1l-0.1-0.1L118.5,220l-0.2-0.3h0.4h28.9h0.1l0.1,0.1l11.9,23.7l0.2,0.3h-0.4H130.5z"/>
</g>
<g>
	<g>
		<path class="st2" d="M68.9,196.9l2.3,6.2c1.4,3.8,3.4,7.4,6,10.6l1.7,2.1c0.1,0.1,0.2,0.2,0.3,0.4c0,0,0,0.1,0.1,0.1h3.1
			c-0.4-0.6-0.9-1.4-1.4-2l-1.7-2.1c-2.4-3-4.2-6.3-5.6-9.9l-2.2-6l0.1-1.7c0-0.2,0-0.4-0.1-0.5l-2-4.6c-0.3-0.6-0.9-0.9-1.5-0.7
			l-5.3,1.6c-0.6,0.2-1,0.8-0.9,1.4l0.8,4.9c0,0.2,0.1,0.4,0.2,0.5l1,1.5l1.3,6.2c0.8,3.7,1,7.5,0.6,11.3l0,0.2h2.5
			c0.4-4,0.2-8.1-0.7-12.1l-1.4-6.5c0-0.2-0.1-0.3-0.2-0.5l-1-1.5l-0.6-3.4l3.2-0.9l1.4,3.3l-0.1,1.7
			C68.8,196.6,68.8,196.7,68.9,196.9z"/>
		<path class="st2" d="M84.2,217.3h-5.6l-0.3-0.5c-0.1-0.2-0.2-0.3-0.2-0.4l-1.7-2.1c-2.6-3.3-4.7-6.9-6.1-10.8l-2.3-6.2
			c-0.1-0.3-0.2-0.6-0.1-0.9l0-1.5l-0.9-2.2l-1.4,0.4l0.4,2.3l0.9,1.3c0.2,0.2,0.3,0.5,0.3,0.8l1.4,6.5c0.9,4.1,1.1,8.2,0.7,12.4
			l-0.1,1h-4.7l0.1-1.2c0.4-3.9,0.2-7.6-0.6-11.2l-1.3-6l-0.9-1.3c-0.2-0.2-0.3-0.6-0.4-0.9l-0.8-4.9c-0.2-1.2,0.5-2.3,1.6-2.6
			l5.3-1.6c1.1-0.3,2.3,0.2,2.8,1.3l2,4.6c0.1,0.3,0.2,0.6,0.2,1l0,1.5l2.2,5.8c1.3,3.5,3.1,6.7,5.4,9.6l1.7,2.1
			c0.6,0.7,1.1,1.5,1.5,2.1L84.2,217.3z M79.7,215.2h0.5c-0.1-0.1-0.2-0.2-0.3-0.3l-1.7-2.1c-2.4-3.1-4.4-6.5-5.7-10.2l-2.3-6.2
			l0.1-1.9l-2-4.6c0-0.1-0.2-0.1-0.3-0.1l-5.3,1.6c-0.1,0-0.2,0.1-0.1,0.2l0.8,4.9l1.2,2l1.3,6.2c0.7,3.5,1,7.1,0.7,10.7h0.4
			c0.3-3.6,0-7.2-0.7-10.8l-1.4-6.5l-1.2-2l-0.7-4.3l4.9-1.4l1.9,4.3l-0.1,1.9l0,0.1l2.3,6.2c1.4,3.7,3.4,7.2,5.8,10.3L79.7,215.2
			C79.7,215.1,79.7,215.2,79.7,215.2z"/>
	</g>
	<g>
		<path class="st2" d="M108.8,179l-6.5-1.3c-0.7-0.2-1.4,0.3-1.7,1l-1.9,5.7c-0.1,0.2-0.1,0.4-0.1,0.6l0.2,2.1l-2.1,7.4
			c-1.3,4.4-3.2,8.6-5.7,12.4l-1.8,2.7c-1.3,2-2.4,4.2-3.3,6.6h3.2c0.8-1.9,1.6-3.6,2.5-5h0l1.8-2.7c2.7-4.1,4.7-8.5,6.1-13.2
			l2.2-7.7c0.1-0.2,0.1-0.4,0-0.6l-0.2-2.1l1.4-4.1l4,0.8l-0.4,4.4l-1,1.7c-0.1,0.2-0.2,0.4-0.2,0.5l-1,7.9
			c-0.6,4.9-0.5,9.8,0.4,14.6l0.6,3.2c0.1,0.7,0.2,1.5,0.3,2.2h3c-0.1-1-0.2-1.9-0.4-2.7l-0.6-3.2c-0.8-4.5-1-9.1-0.4-13.7l1-7.7
			l1-1.7c0.1-0.2,0.2-0.4,0.2-0.6l0.5-5.9C110,179.8,109.5,179.1,108.8,179z"/>
		<path class="st2" d="M109.8,217.2h-5.1l-0.1-1c-0.1-0.7-0.1-1.4-0.2-2.1l-0.6-3.2c-0.9-4.9-1.1-9.9-0.4-14.9l1-7.9
			c0-0.3,0.2-0.6,0.3-0.9l0.9-1.5l0.3-3.3l-2.1-0.4l-1,3l0.2,1.8c0,0.3,0,0.7-0.1,1l-2.2,7.7c-1.4,4.8-3.5,9.4-6.2,13.5l-1.8,2.7
			c-0.9,1.3-1.7,2.9-2.4,4.8l-0.3,0.7h-5.4l0.5-1.4c0.9-2.4,2-4.7,3.4-6.8l1.8-2.7c2.5-3.7,4.4-7.8,5.6-12.1l2-7.2l-0.2-1.9
			c0-0.4,0-0.7,0.1-1.1l1.9-5.7c0.4-1.2,1.7-1.9,2.9-1.7l6.5,1.3c1.2,0.3,2.1,1.4,2,2.7l-0.5,5.9c0,0.4-0.1,0.7-0.3,1l-0.9,1.5
			l-1,7.5c-0.6,4.4-0.4,8.9,0.4,13.3l0.6,3.2c0.2,0.9,0.3,1.8,0.4,2.8L109.8,217.2z M106.6,215.1h0.8c-0.1-0.5-0.1-1-0.2-1.5
			l-0.6-3.2c-0.9-4.6-1-9.3-0.4-14l1.1-8.1l1-1.7l0.5-6.1c0-0.2-0.1-0.4-0.3-0.4h0l-6.5-1.3c-0.2,0-0.4,0.1-0.5,0.3l-1.9,5.7
			l0.3,2.5l-2.2,7.6c-1.3,4.5-3.3,8.8-5.8,12.7l-1.8,2.7c-1,1.5-1.9,3.2-2.6,5h0.9c0.7-1.7,1.5-3.2,2.4-4.5l1.8-2.7
			c2.6-4,4.6-8.3,5.9-12.9l2.2-7.7l-0.3-2.4l1.7-5.2l5.8,1.2l-0.6,5.8l-1,1.7l-1.1,8.1c-0.6,4.7-0.5,9.5,0.4,14.2l0.6,3.2
			C106.5,214.2,106.6,214.6,106.6,215.1z"/>
	</g>
</g>
<path class="st2" d="M289.8,211.7c5,0,9.8-1.5,13.9-4.3l0.4-0.2l0.1,0.4c2.5,8.9,3.2,17,3.4,21.1c1.6,0.1,3.2,0.1,4.9,0.2
	c0.2-3.5,0.8-8.6,2.7-14l0.1-0.3l0.3,0.2c3.2,1.8,6.9,2.8,10.7,2.8c6.7,0,13-3,17.1-8.3c0.4-0.5,0.6-1.1,0.5-1.7
	c-0.1-0.6-0.4-1.2-0.9-1.6c-4.6-3.5-10.3-5.1-16-4.4c-1.2,0.1-2.4,0.4-3.5,0.7l-1.2,0.3l0.9-0.8c2.3-2.3,5.1-4.2,8.1-5.6
	c0.6-0.3,1-0.7,1.2-1.3c0.2-0.6,0.2-1.2-0.1-1.8c-0.3-0.6-0.7-1-1.3-1.2c-0.6-0.2-1.2-0.2-1.8,0.1c-8.5,3.9-14.8,11.2-18.4,21.1
	l-0.4,1l-0.2-1.1c-0.4-2.2-1-4.3-1.5-6.4c-0.6-2.3-1.3-4.5-2.1-6.7l-0.1-0.3l0.2-0.1c5.4-2.7,9.5-7.2,11.7-12.7
	c0.2-0.6,0.2-1.2,0-1.8c-0.2-0.6-0.7-1-1.3-1.3c-1.2-0.5-2.6,0.1-3.1,1.3c-1.7,4.2-4.7,7.7-8.7,9.8l-0.4,0.2l-0.1-0.4
	c-0.9-4.1-0.4-8.3,1.3-12.2c1.8-3.9,4.6-7,8.3-9l0.4-0.2l0.1,0.4c0.2,1,0.4,2.1,0.4,3.1c0.1,1.3,1.1,2.2,2.3,2.2c0,0,0.1,0,0.1,0
	c0.6,0,1.2-0.3,1.6-0.8c0.4-0.5,0.6-1.1,0.6-1.7c-0.1-2.5-0.6-5-1.5-7.4c-0.2-0.6-0.7-1.1-1.2-1.3c-0.6-0.3-1.2-0.3-1.8-0.1
	c-6.1,2.3-10.9,6.8-13.6,12.7c-0.7,1.6-1.3,3.2-1.6,4.9l-0.2,0.7l-0.4-0.7c-1.8-3.1-3.9-6-6.1-8.6l-0.2-0.2l0.2-0.2
	c3.2-3.6,4.9-8.3,4.9-13.1c0-5.4-2.1-10.4-5.8-14.2c-0.9-0.9-2.4-0.9-3.3,0c-3.8,3.8-5.9,8.8-5.9,14.2c0,1.2,0.1,2.3,0.3,3.5
	l0.1,0.7l-0.6-0.4c-1.3-1-2.7-1.9-4-2.7c-0.5-0.3-1.2-0.4-1.8-0.3c-0.6,0.1-1.1,0.5-1.5,1.1c-0.3,0.5-0.4,1.2-0.3,1.8
	c0.1,0.6,0.5,1.1,1.1,1.5c2.9,1.8,5.6,3.8,8.1,6.1l0.7,0.7l-1-0.1c-2-0.3-4-0.3-5.9-0.1c-5.7,0.7-10.9,3.6-14.4,8.2
	c-0.8,1-0.6,2.5,0.4,3.3c4.5,3.5,10.1,5.1,16,4.4c4.8-0.6,9.2-2.7,12.6-6.1l0.3-0.3l0.2,0.3c2.4,3.6,4.6,7.5,6.4,11.8l0.3,0.8
	l-0.7-0.4c-3.2-1.7-6.7-2.5-10.3-2.7c-0.3,0-0.6,0-0.8,0c-6.2,0-12,2.3-16.5,6.5c-0.9,0.9-1,2.4-0.1,3.3
	C276.7,208.9,283.1,211.7,289.8,211.7z M318.3,210.3c2.6-2.3,5.8-3.8,9.3-4.2c3.5-0.4,6.9,0.2,10,1.8l0.4,0.2l-0.3,0.3
	c-3.2,2.9-7.3,4.4-11.4,4.4c-2.7,0-5.4-0.6-7.9-2l-0.4-0.2L318.3,210.3z M289.6,181.9c-2.6,2.3-5.8,3.8-9.3,4.2
	c-0.7,0.1-1.4,0.1-2.1,0.1c-2.7,0-5.4-0.7-7.9-2l-0.4-0.2l0.3-0.3c2.6-2.3,5.8-3.8,9.3-4.2c3.5-0.4,6.9,0.2,10,1.8l0.4,0.2
	L289.6,181.9z M291.4,171.8l-0.3,0.4l-0.3-0.4c-1.7-2.5-2.6-5.5-2.6-8.6c0-3.1,0.9-6,2.6-8.5l0.3-0.4l0.2,0.4
	C294.9,159.9,294.9,166.7,291.4,171.8z M277.7,202.3c3.3-2.3,7.1-3.4,11.1-3.4c0.2,0,0.4,0,0.7,0c4.2,0.1,8.2,1.6,11.5,4.2l0.3,0.3
	l-0.3,0.2c-3.3,2.3-7.1,3.4-11.1,3.4c-0.2,0-0.5,0-0.7,0c-4.2-0.1-8.2-1.6-11.5-4.2l-0.3-0.3L277.7,202.3z"/>
</svg>
